M48
METRIC,LZ,000.000
;FILE_FORMAT=3:3
;TYPE=PLATED
;Layer: PTH_Through_Via
;EasyEDA v6.5.22, 2022-12-04 20:31:14
;182cb613c9664d73b7f9de34f776aa3b,1ae14fa7f5aa486887b2aa5280da83c0,10
;Gerber Generator version 0.2
;Holesize 1 = 0.306 mm
T01C0.306
%
G05
G90
T01
X056580Y077833
X048482Y062176
X068019Y072397
X041220Y055822
X049263Y075044
X074446Y065288
X045533Y071341
X031173Y056922
X044938Y085204
X044720Y083934
X022860Y074295
X030158Y068664
X044507Y087421
X033995Y077584
X020124Y075427
X056580Y071766
X016383Y078740
X021131Y057956
X061626Y068464
X015249Y080727
X039497Y059055
X049645Y076314
M30
