M48
METRIC,LZ,000.000
;FILE_FORMAT=3:3
;TYPE=PLATED
;Layer: PTH_Through
;EasyEDA v6.5.22, 2022-12-04 20:31:14
;182cb613c9664d73b7f9de34f776aa3b,1ae14fa7f5aa486887b2aa5280da83c0,10
;Gerber Generator version 0.2
;Holesize 1 = 0.701 mm
T01C0.701
;Holesize 2 = 0.762 mm
T02C0.762
;Holesize 3 = 0.800 mm
T03C0.800
;Holesize 4 = 0.901 mm
T04C0.901
;Holesize 5 = 0.915 mm
T05C0.915
;Holesize 6 = 1.000 mm
T06C1.000
;Holesize 7 = 1.200 mm
T07C1.200
;Holesize 8 = 1.501 mm
T08C1.501
;Holesize 9 = 1.524 mm
T09C1.524
;Holesize 10 = 2.500 mm
T10C2.500
%
G05
G90
T01
X035603Y067310
X025103Y067310
X025400Y087011
X025400Y089011
X010244Y086360
X020744Y086360
X010117Y071247
X020617Y071247
X035560Y070823
X035560Y081323
X030480Y070823
X030480Y081323
X030480Y040556
X030480Y030056
T02
X066040Y067310
X068580Y067310
X071120Y067310
X073660Y067310
T03
X071120Y088900
X073660Y088900
X007376Y075178G85X007976Y075178
X011475Y075178G85X012275Y075178
X011475Y083828G85X012275Y083828
X007376Y083828G85X007976Y083828
T04
X006989Y037656G85X007489Y037656
X006989Y045656G85X007489Y045656
T05
X007239Y043656
X007239Y041656
X007239Y039656
T06
X033020Y086360
X033020Y088900
X025400Y040583
X025400Y030283
X031447Y048133G85X031447Y048133
X034947Y048133G85X034947Y048133
X040767Y061087G85X040767Y061087
X038227Y061087G85X038227Y061087
X035687Y061087G85X035687Y061087
X033147Y061087G85X033147Y061087
X030607Y061087G85X030607Y061087
X028067Y061087G85X028067Y061087
X025527Y061087G85X025527Y061087
T07
X015292Y028484
X021792Y028484
X021792Y032984
X015292Y032984
X015165Y038644
X021665Y038644
X021665Y043144
X015165Y043144
T08
X101600Y088900
X096520Y088900
X040767Y034036
X040767Y041656
X066041Y083720
X066041Y071220
X071121Y083720
X071121Y071220
X099061Y083847
X099061Y071347
X104141Y083847
X104141Y071347
T09
X078964Y074053
X084963Y088253
X090963Y086253
X078963Y086253
X090962Y074053
T10
X039500Y047117G85X039494Y047117
X026800Y047117G85X026794Y047117
M30
