M48
INCH,LZ
;FILE_FORMAT=2:4
;TYPE=PLATED
;Layer: PTH_Through
;EasyEDA v6.5.22, 2022-11-15 20:04:53
;61ac71b69ff745bc879bf003c277815e,1ae14fa7f5aa486887b2aa5280da83c0,10
;Gerber Generator version 0.2
;Holesize 1 = 0.0350 inch
T01C0.0350
;Holesize 2 = 0.0360 inch
T02C0.0360
;Holesize 3 = 0.0390 inch
T03C0.0390
;Holesize 4 = 0.0470 inch
T04C0.0470
%
G05
G90
T01
X002000Y-013050
X003000Y-013050
X004000Y-013050
X005000Y-013050
X006000Y-013050
X007000Y-013050
X008000Y-013050
T02
X023000Y-004050
X023000Y-005050
X023000Y-006050
X023000Y-007050
X023000Y-008050
X023000Y-009050
X023000Y-010050
X023000Y-011050
X023000Y-012050
X023000Y-013050
X023000Y-014050
X023000Y-015050
X023000Y-016050
X023000Y-017050
X023000Y-018050
X013000Y-004050
X013000Y-005050
X013000Y-006050
X013000Y-007050
X013000Y-008050
X013000Y-009050
X013000Y-010050
X013000Y-011050
X013000Y-012050
X013000Y-013050
X013000Y-014050
X013000Y-015050
X013000Y-016050
X013000Y-017050
X013000Y-018050
X007000Y-009000
X006000Y-009000
X005000Y-009000
X004000Y-009000
X003000Y-009000
X002000Y-009000
X007000Y-007950
X006000Y-007950
X005000Y-007950
X004000Y-007950
X003000Y-007950
X002000Y-007950
T03
X025950Y-018000
X025950Y-017000
X025950Y-016000
X025950Y-015000
X025950Y-014000
X025950Y-013000
X025950Y-012000
X025950Y-011000
X025950Y-010000
X025950Y-009000
X025950Y-008000
X025950Y-007000
X025950Y-006000
X025950Y-005000
X025950Y-004000
X010000Y-004050
X010000Y-005050
X010000Y-006050
X010000Y-007050
X010000Y-008050
X010000Y-009050
X010000Y-010050
X010000Y-011050
X010000Y-012050
X010000Y-013050
X010000Y-014050
X010000Y-015050
X010000Y-016050
X010000Y-017050
X010000Y-018050
T04
X010000Y-020050
X011000Y-020050
X025050Y-020000
X026050Y-020000
M30
