G04 Layer: TopSolderMaskLayer*
G04 EasyEDA v6.5.22, 2022-12-04 20:31:14*
G04 182cb613c9664d73b7f9de34f776aa3b,1ae14fa7f5aa486887b2aa5280da83c0,10*
G04 Gerber Generator version 0.2*
G04 Scale: 100 percent, Rotated: No, Reflected: No *
G04 Dimensions in millimeters *
G04 leading zeros omitted , absolute positions ,4 integer and 5 decimal *
%FSLAX45Y45*%
%MOMM*%

%AMMACRO1*1,1,$1,$2,$3*1,1,$1,$4,$5*1,1,$1,0-$2,0-$3*1,1,$1,0-$4,0-$5*20,1,$1,$2,$3,$4,$5,0*20,1,$1,$4,$5,0-$2,0-$3,0*20,1,$1,0-$2,0-$3,0-$4,0-$5,0*20,1,$1,0-$4,0-$5,$2,$3,0*4,1,4,$2,$3,$4,$5,0-$2,0-$3,0-$4,0-$5,$2,$3,0*%
%ADD10O,3.101594X4.601591000000001*%
%ADD11C,1.8016*%
%ADD12C,1.5016*%
%ADD13O,1.8034X2.4892000000000003*%
%ADD14C,1.6256*%
%ADD15O,2.1015960000000002X1.7015968000000001*%
%ADD16O,4.601591000000001X3.101594*%
%ADD17C,1.7016*%
%ADD18C,1.2000*%
%ADD19MACRO1,0.1016X1.25X-0.55X-1.25X-0.55*%
%ADD20MACRO1,0.1016X-1.17X-1.8X-1.17X1.8*%
%ADD21C,2.1016*%
%ADD22C,3.7191*%
%ADD23C,2.3876*%
%ADD24C,2.1336*%
%ADD25C,2.8956*%
%ADD26MACRO1,0.1X-1X0.45X1X0.45*%
%ADD27MACRO1,0.1X0.45X1X0.45X-1*%
%ADD28MACRO1,0.1X-0.45X1X-0.45X-1*%
%ADD29MACRO1,0.1X-1X-0.45X1X-0.45*%
%ADD30MACRO1,0.1X-2.05X2.05X2.05X2.05*%
%ADD31MACRO1,0.1016X0.65X0.3X0.65X-0.3*%
%ADD32MACRO1,0.1016X0.7X0.6X0.7X-0.6*%
%ADD33MACRO1,0.1016X1X0.6X1X-0.6*%
%ADD34MACRO1,0.1016X0.65X0.15X0.65X-0.15*%
%ADD35O,1.9015964X1.3015976000000002*%
%ADD36O,2.1015960000000002X1.3015976000000002*%
%ADD37C,2.6016*%

%LPD*%
D10*
G01*
X10160000Y8890000D03*
G01*
X9652000Y8890000D03*
D11*
G01*
X7112000Y8890000D03*
G01*
X7366000Y8890000D03*
D12*
G01*
X3560292Y6731000D03*
G01*
X2510307Y6731000D03*
D13*
G01*
X6604000Y6731000D03*
G01*
X6858000Y6731000D03*
G01*
X7112000Y6731000D03*
G01*
X7366000Y6731000D03*
D14*
G01*
X723900Y4365599D03*
G01*
X723900Y4165600D03*
G01*
X723900Y3965600D03*
D15*
G01*
X723900Y3765600D03*
G01*
X723900Y4565599D03*
D16*
G01*
X4076700Y3403600D03*
G01*
X4076700Y4165600D03*
D17*
G01*
X3302000Y8636000D03*
G01*
X3302000Y8890000D03*
D18*
G01*
X2540000Y8701100D03*
G01*
X2540000Y8901099D03*
D12*
G01*
X1024407Y8636000D03*
G01*
X2074392Y8636000D03*
G01*
X1011707Y7124700D03*
G01*
X2061692Y7124700D03*
D19*
G01*
X1912806Y8103997D03*
G01*
X1912806Y7874000D03*
G01*
X1912806Y7644002D03*
D20*
G01*
X2506802Y7874000D03*
D14*
G01*
X2540000Y4058310D03*
G01*
X2540000Y3028289D03*
D21*
G01*
X1529206Y2848406D03*
G01*
X2179193Y2848406D03*
G01*
X2179193Y3298393D03*
G01*
X1529206Y3298393D03*
G01*
X1516506Y3864406D03*
G01*
X2166493Y3864406D03*
G01*
X2166493Y4314393D03*
G01*
X1516506Y4314393D03*
D22*
G01*
X3949700Y4711700D03*
G01*
X2679700Y4711700D03*
D23*
G01*
X3144697Y4813300D03*
G01*
X3494709Y4813300D03*
D24*
G01*
X4076700Y6108700D03*
G01*
X3822700Y6108700D03*
G01*
X3568700Y6108700D03*
G01*
X3314700Y6108700D03*
G01*
X3060700Y6108700D03*
G01*
X2806700Y6108700D03*
G01*
X2552700Y6108700D03*
D25*
G01*
X7896352Y7405293D03*
G01*
X8496300Y8825306D03*
G01*
X9096298Y8625306D03*
G01*
X7896301Y8625306D03*
G01*
X9096247Y7405293D03*
D12*
G01*
X3556000Y7082307D03*
G01*
X3556000Y8132292D03*
G01*
X3048000Y7082307D03*
G01*
X3048000Y8132292D03*
D26*
G01*
X4065772Y8647424D03*
G01*
X4065772Y8520424D03*
G01*
X4065772Y8393424D03*
G01*
X4065772Y8266424D03*
G01*
X4065772Y8139424D03*
G01*
X4065772Y8012424D03*
G01*
X4065772Y7885424D03*
G01*
X4065772Y7758424D03*
G01*
X4065772Y7631424D03*
G01*
X4065772Y7504424D03*
G01*
X4065772Y7377424D03*
G01*
X4065772Y7250424D03*
G01*
X4065772Y7123424D03*
G01*
X4065772Y6996424D03*
D27*
G01*
X4394278Y6846412D03*
G01*
X4521278Y6846412D03*
G01*
X4648278Y6846412D03*
G01*
X4775278Y6846412D03*
G01*
X4902278Y6846412D03*
D28*
G01*
X5029278Y6846412D03*
G01*
X5156278Y6846412D03*
G01*
X5283278Y6846412D03*
G01*
X5410278Y6846412D03*
G01*
X5537278Y6846412D03*
D29*
G01*
X5865784Y6996424D03*
G01*
X5865784Y7123424D03*
G01*
X5865784Y7250424D03*
G01*
X5865784Y7377424D03*
G01*
X5865784Y7504424D03*
G01*
X5865784Y7631424D03*
G01*
X5865784Y7758424D03*
G01*
X5865784Y7885424D03*
G01*
X5865784Y8012424D03*
G01*
X5865784Y8139424D03*
G01*
X5865784Y8266424D03*
G01*
X5865784Y8393424D03*
G01*
X5865784Y8520424D03*
G01*
X5865784Y8647424D03*
D30*
G01*
X4897771Y7913404D03*
D12*
G01*
X3048000Y4055592D03*
G01*
X3048000Y3005607D03*
D31*
G01*
X2000799Y5472239D03*
G01*
X2000799Y5582239D03*
G01*
X2000799Y5692239D03*
G01*
X2000799Y5802238D03*
G01*
X2000799Y5912238D03*
G01*
X2000799Y6022238D03*
G01*
X2000799Y6132238D03*
G01*
X2000799Y6242237D03*
G01*
X2000799Y6352237D03*
D32*
G01*
X1915777Y6462237D03*
G01*
X1915777Y4994236D03*
D33*
G01*
X945598Y4926302D03*
G01*
X945598Y6478303D03*
D34*
G01*
X1264391Y8125280D03*
G01*
X1264391Y8075268D03*
G01*
X1264394Y8025281D03*
G01*
X1264391Y7975268D03*
G01*
X1264394Y7925281D03*
G01*
X1264391Y7875268D03*
G01*
X1264391Y7825306D03*
G01*
X1264391Y7775268D03*
G01*
X1264378Y8285270D03*
G01*
X1264394Y8255273D03*
G01*
X1264378Y8205269D03*
G01*
X1264381Y8175274D03*
G01*
X1264378Y7725277D03*
G01*
X1264381Y7695265D03*
G01*
X1264396Y7645275D03*
G01*
X1264396Y7615275D03*
D35*
G01*
X767562Y7517764D03*
D36*
G01*
X1187551Y7517764D03*
G01*
X1187551Y8382787D03*
D35*
G01*
X767562Y8382787D03*
D37*
G01*
X6604101Y8371992D03*
G01*
X6604101Y7122007D03*
G01*
X7112101Y8371992D03*
G01*
X7112101Y7122007D03*
G01*
X9906101Y8384692D03*
G01*
X9906101Y7134707D03*
G01*
X10414101Y8384692D03*
G01*
X10414101Y7134707D03*
M02*
