G04 Layer: BottomSolderMaskLayer*
G04 EasyEDA v6.5.22, 2022-11-15 20:04:53*
G04 61ac71b69ff745bc879bf003c277815e,1ae14fa7f5aa486887b2aa5280da83c0,10*
G04 Gerber Generator version 0.2*
G04 Scale: 100 percent, Rotated: No, Reflected: No *
G04 Dimensions in inches *
G04 leading zeros omitted , absolute positions ,3 integer and 6 decimal *
%FSLAX36Y36*%
%MOIN*%

%AMMACRO1*1,1,$1,$2,$3*1,1,$1,$4,$5*1,1,$1,0-$2,0-$3*1,1,$1,0-$4,0-$5*20,1,$1,$2,$3,$4,$5,0*20,1,$1,$4,$5,0-$2,0-$3,0*20,1,$1,0-$2,0-$3,0-$4,0-$5,0*20,1,$1,0-$4,0-$5,$2,$3,0*4,1,4,$2,$3,$4,$5,0-$2,0-$3,0-$4,0-$5,$2,$3,0*%
%ADD10C,0.0640*%
%ADD11MACRO1,0.004X-0.031X0.031X0.031X0.031*%
%ADD12C,0.0660*%
%ADD13MACRO1,0.004X0.04X-0.04X-0.04X-0.04*%
%ADD14C,0.0840*%
%ADD15C,0.0670*%
%ADD16MACRO1,0.004X0.031X0.0315X0.031X-0.0315*%
%ADD17R,0.0660X0.0670*%
%ADD18MACRO1,0.004X-0.0394X0.0394X0.0394X0.0394*%
%ADD19C,0.0827*%

%LPD*%
D10*
G01*
X2300000Y-405000D03*
G01*
X2300000Y-505000D03*
G01*
X2300000Y-605000D03*
G01*
X2300000Y-705000D03*
G01*
X2300000Y-805000D03*
G01*
X2300000Y-905000D03*
G01*
X2300000Y-1005000D03*
G01*
X2300000Y-1105000D03*
G01*
X2300000Y-1205000D03*
G01*
X2300000Y-1305000D03*
G01*
X2300000Y-1405000D03*
G01*
X2300000Y-1505000D03*
G01*
X2300000Y-1605000D03*
G01*
X2300000Y-1705000D03*
G01*
X2300000Y-1805000D03*
G01*
X1300000Y-405000D03*
G01*
X1300000Y-505000D03*
G01*
X1300000Y-605000D03*
G01*
X1300000Y-705000D03*
G01*
X1300000Y-805000D03*
G01*
X1300000Y-905000D03*
G01*
X1300000Y-1005000D03*
G01*
X1300000Y-1105000D03*
G01*
X1300000Y-1205000D03*
G01*
X1300000Y-1305000D03*
G01*
X1300000Y-1405000D03*
G01*
X1300000Y-1505000D03*
G01*
X1300000Y-1605000D03*
G01*
X1300000Y-1705000D03*
G01*
X1300000Y-1805000D03*
D11*
G01*
X200000Y-1305000D03*
D12*
G01*
X299994Y-1304994D03*
G01*
X400000Y-1305000D03*
G01*
X499996Y-1304996D03*
G01*
X600001Y-1305001D03*
G01*
X699996Y-1304996D03*
G01*
X800001Y-1305001D03*
D13*
G01*
X700000Y-900000D03*
D14*
G01*
X600000Y-900000D03*
G01*
X500000Y-900000D03*
G01*
X400000Y-900000D03*
G01*
X300000Y-900000D03*
G01*
X200000Y-900000D03*
D15*
G01*
X2595000Y-1800000D03*
G01*
X2595000Y-1700000D03*
G01*
X2595000Y-1600000D03*
G01*
X2595000Y-1500000D03*
G01*
X2595000Y-1400000D03*
G01*
X2595000Y-1300000D03*
G01*
X2595000Y-1200000D03*
G01*
X2595000Y-1100000D03*
G01*
X2595000Y-1000000D03*
G01*
X2595000Y-900000D03*
G01*
X2595000Y-800000D03*
G01*
X2595000Y-700000D03*
G01*
X2595000Y-600000D03*
G01*
X2595000Y-500000D03*
D16*
G01*
X2595000Y-400000D03*
D15*
G01*
X1000000Y-405000D03*
G01*
X1000000Y-505000D03*
G01*
X1000000Y-605000D03*
G01*
X1000000Y-705000D03*
G01*
X1000000Y-805000D03*
G01*
X1000000Y-905000D03*
G01*
X1000000Y-1005000D03*
G01*
X1000000Y-1105000D03*
G01*
X1000000Y-1205000D03*
G01*
X1000000Y-1305000D03*
G01*
X1000000Y-1405000D03*
G01*
X1000000Y-1505000D03*
G01*
X1000000Y-1605000D03*
G01*
X1000000Y-1705000D03*
D17*
G01*
X1000000Y-1805000D03*
D18*
G01*
X1000000Y-2005000D03*
D19*
G01*
X1100000Y-2005000D03*
D13*
G01*
X700000Y-795000D03*
D14*
G01*
X600000Y-795000D03*
G01*
X500000Y-795000D03*
G01*
X400000Y-795000D03*
G01*
X300000Y-795000D03*
G01*
X200000Y-795000D03*
D18*
G01*
X2505000Y-2000000D03*
D19*
G01*
X2605000Y-2000000D03*
M02*
