G04 Layer: TopLayer*
G04 EasyEDA v6.5.22, 2022-11-15 20:04:53*
G04 61ac71b69ff745bc879bf003c277815e,1ae14fa7f5aa486887b2aa5280da83c0,10*
G04 Gerber Generator version 0.2*
G04 Scale: 100 percent, Rotated: No, Reflected: No *
G04 Dimensions in inches *
G04 leading zeros omitted , absolute positions ,3 integer and 6 decimal *
%FSLAX36Y36*%
%MOIN*%

%ADD10C,0.0080*%
%ADD11C,0.0100*%
%ADD12C,0.0600*%
%ADD13R,0.0620X0.0620*%
%ADD14C,0.0620*%
%ADD15R,0.0800X0.0800*%
%ADD16C,0.0800*%
%ADD17C,0.0630*%
%ADD18R,0.0620X0.0630*%
%ADD19R,0.0787X0.0787*%
%ADD20C,0.0787*%
%ADD21C,0.0129*%

%LPD*%
G36*
X372540Y-1737000D02*
G01*
X361079Y-1742620D01*
X324980Y-1784079D01*
X315400Y-1794920D01*
X308380Y-1802700D01*
X304600Y-1806579D01*
X303860Y-1805920D01*
X299380Y-1801100D01*
X291680Y-1792460D01*
X281660Y-1781040D01*
X248420Y-1742680D01*
X237380Y-1737320D01*
X226680Y-1737320D01*
X214960Y-1743520D01*
X207000Y-1754860D01*
X207000Y-1917800D01*
X211280Y-1925160D01*
X213960Y-1928700D01*
X218720Y-1934580D01*
X233060Y-1951699D01*
X251320Y-1973080D01*
X270580Y-1995300D01*
X289081Y-2016360D01*
X304680Y-2016360D01*
X305300Y-1828560D01*
X308320Y-1823060D01*
X309600Y-1821260D01*
X314200Y-1815460D01*
X320920Y-1807380D01*
X329080Y-1797780D01*
X338040Y-1787420D01*
X349380Y-1774520D01*
X357760Y-1765180D01*
X364780Y-1757500D01*
X369820Y-1752260D01*
X371380Y-1750780D01*
X372200Y-1750200D01*
X374900Y-1749640D01*
X377360Y-1749520D01*
X379739Y-1749840D01*
X382239Y-1750600D01*
X383780Y-1751459D01*
X385439Y-1752800D01*
X387000Y-1754480D01*
X388300Y-1756260D01*
X390959Y-1760640D01*
X390900Y-1912460D01*
X388360Y-1917780D01*
X385680Y-1921440D01*
X380620Y-1927780D01*
X373540Y-1936320D01*
X364900Y-1946560D01*
X355060Y-1958040D01*
X307440Y-2012880D01*
X304680Y-2016360D01*
X289081Y-2016360D01*
X302160Y-2030720D01*
X304100Y-2032620D01*
X304640Y-2033000D01*
X305180Y-2032620D01*
X308020Y-2029760D01*
X312940Y-2024420D01*
X327480Y-2008120D01*
X345840Y-1987100D01*
X369660Y-1959400D01*
X385820Y-1940300D01*
X391900Y-1932920D01*
X396180Y-1927580D01*
X398280Y-1924700D01*
X402260Y-1917800D01*
X403000Y-1757860D01*
X396740Y-1745980D01*
X385840Y-1738280D01*
G37*
D10*
X210000Y-2084299D02*
G01*
X210000Y-2160599D01*
X210000Y-2084299D02*
G01*
X257300Y-2084299D01*
X210000Y-2120599D02*
G01*
X239099Y-2120599D01*
X210000Y-2160599D02*
G01*
X257300Y-2160599D01*
X332199Y-2095199D02*
G01*
X324899Y-2087899D01*
X314000Y-2084299D01*
X299499Y-2084299D01*
X288499Y-2087899D01*
X281300Y-2095199D01*
X281300Y-2102500D01*
X284899Y-2109699D01*
X288499Y-2113400D01*
X295799Y-2116999D01*
X317600Y-2124299D01*
X324899Y-2127899D01*
X328499Y-2131500D01*
X332199Y-2138800D01*
X332199Y-2149699D01*
X324899Y-2156999D01*
X314000Y-2160599D01*
X299499Y-2160599D01*
X288499Y-2156999D01*
X281300Y-2149699D01*
X356199Y-2084299D02*
G01*
X356199Y-2160599D01*
X356199Y-2084299D02*
G01*
X388899Y-2084299D01*
X399800Y-2087899D01*
X403499Y-2091500D01*
X407100Y-2098800D01*
X407100Y-2109699D01*
X403499Y-2116999D01*
X399800Y-2120599D01*
X388899Y-2124299D01*
X356199Y-2124299D01*
X438400Y-2084299D02*
G01*
X478400Y-2084299D01*
X456500Y-2113400D01*
X467500Y-2113400D01*
X474699Y-2116999D01*
X478400Y-2120599D01*
X481999Y-2131500D01*
X481999Y-2138800D01*
X478400Y-2149699D01*
X471100Y-2156999D01*
X460199Y-2160599D01*
X449299Y-2160599D01*
X438400Y-2156999D01*
X434699Y-2153400D01*
X431100Y-2146100D01*
X509600Y-2102500D02*
G01*
X509600Y-2098800D01*
X513299Y-2091500D01*
X516900Y-2087899D01*
X524200Y-2084299D01*
X538699Y-2084299D01*
X545999Y-2087899D01*
X549600Y-2091500D01*
X553299Y-2098800D01*
X553299Y-2106100D01*
X549600Y-2113400D01*
X542399Y-2124299D01*
X505999Y-2160599D01*
X556900Y-2160599D01*
X673299Y-2084299D02*
G01*
X673299Y-2142500D01*
X669600Y-2153400D01*
X665999Y-2156999D01*
X658699Y-2160599D01*
X651500Y-2160599D01*
X644200Y-2156999D01*
X640500Y-2153400D01*
X636900Y-2142500D01*
X636900Y-2135200D01*
X697300Y-2084299D02*
G01*
X697300Y-2160599D01*
X697300Y-2084299D02*
G01*
X722699Y-2084299D01*
X733600Y-2087899D01*
X740900Y-2095199D01*
X744499Y-2102500D01*
X748200Y-2113400D01*
X748200Y-2131500D01*
X744499Y-2142500D01*
X740900Y-2149699D01*
X733600Y-2156999D01*
X722699Y-2160599D01*
X697300Y-2160599D01*
X772200Y-2084299D02*
G01*
X772200Y-2160599D01*
X772200Y-2084299D02*
G01*
X801300Y-2160599D01*
X830399Y-2084299D02*
G01*
X801300Y-2160599D01*
X830399Y-2084299D02*
G01*
X830399Y-2160599D01*
X910399Y-2109699D02*
G01*
X910399Y-2160599D01*
X910399Y-2124299D02*
G01*
X921300Y-2113400D01*
X928500Y-2109699D01*
X939499Y-2109699D01*
X946700Y-2113400D01*
X950399Y-2124299D01*
X950399Y-2160599D01*
X950399Y-2124299D02*
G01*
X961300Y-2113400D01*
X968500Y-2109699D01*
X979499Y-2109699D01*
X986700Y-2113400D01*
X990399Y-2124299D01*
X990399Y-2160599D01*
X1014399Y-2131500D02*
G01*
X1058000Y-2131500D01*
X1058000Y-2124299D01*
X1054399Y-2116999D01*
X1050699Y-2113400D01*
X1043500Y-2109699D01*
X1032500Y-2109699D01*
X1025299Y-2113400D01*
X1018000Y-2120599D01*
X1014399Y-2131500D01*
X1014399Y-2138800D01*
X1018000Y-2149699D01*
X1025299Y-2156999D01*
X1032500Y-2160599D01*
X1043500Y-2160599D01*
X1050699Y-2156999D01*
X1058000Y-2149699D01*
X1081999Y-2084299D02*
G01*
X1081999Y-2160599D01*
X1124200Y-2109699D02*
G01*
X1116899Y-2113400D01*
X1109600Y-2120599D01*
X1106000Y-2131500D01*
X1106000Y-2138800D01*
X1109600Y-2149699D01*
X1116899Y-2156999D01*
X1124200Y-2160599D01*
X1135100Y-2160599D01*
X1142399Y-2156999D01*
X1149600Y-2149699D01*
X1153299Y-2138800D01*
X1153299Y-2131500D01*
X1149600Y-2120599D01*
X1142399Y-2113400D01*
X1135100Y-2109699D01*
X1124200Y-2109699D01*
X1220900Y-2084299D02*
G01*
X1220900Y-2160599D01*
X1220900Y-2120599D02*
G01*
X1213599Y-2113400D01*
X1206400Y-2109699D01*
X1195500Y-2109699D01*
X1188199Y-2113400D01*
X1180900Y-2120599D01*
X1177299Y-2131500D01*
X1177299Y-2138800D01*
X1180900Y-2149699D01*
X1188199Y-2156999D01*
X1195500Y-2160599D01*
X1206400Y-2160599D01*
X1213599Y-2156999D01*
X1220900Y-2149699D01*
X1248500Y-2109699D02*
G01*
X1270399Y-2160599D01*
X1292200Y-2109699D02*
G01*
X1270399Y-2160599D01*
X1263100Y-2175200D01*
X1255799Y-2182500D01*
X1248500Y-2186100D01*
X1244899Y-2186100D01*
X1372200Y-2084299D02*
G01*
X1372200Y-2160599D01*
X1372200Y-2120599D02*
G01*
X1379499Y-2113400D01*
X1386700Y-2109699D01*
X1397600Y-2109699D01*
X1404899Y-2113400D01*
X1412200Y-2120599D01*
X1415799Y-2131500D01*
X1415799Y-2138800D01*
X1412200Y-2149699D01*
X1404899Y-2156999D01*
X1397600Y-2160599D01*
X1386700Y-2160599D01*
X1379499Y-2156999D01*
X1372200Y-2149699D01*
X1458000Y-2109699D02*
G01*
X1450699Y-2113400D01*
X1443500Y-2120599D01*
X1439799Y-2131500D01*
X1439799Y-2138800D01*
X1443500Y-2149699D01*
X1450699Y-2156999D01*
X1458000Y-2160599D01*
X1468900Y-2160599D01*
X1476199Y-2156999D01*
X1483500Y-2149699D01*
X1487100Y-2138800D01*
X1487100Y-2131500D01*
X1483500Y-2120599D01*
X1476199Y-2113400D01*
X1468900Y-2109699D01*
X1458000Y-2109699D01*
X1511099Y-2109699D02*
G01*
X1551099Y-2160599D01*
X1551099Y-2109699D02*
G01*
X1511099Y-2160599D01*
D11*
X2595000Y-1000000D02*
G01*
X2305000Y-1000000D01*
X2300000Y-1005000D01*
X700000Y-1305000D02*
G01*
X855640Y-1149360D01*
X2155640Y-1149360D01*
X2300000Y-1005000D01*
X2595000Y-1100000D02*
G01*
X2305000Y-1100000D01*
X2300000Y-1105000D01*
X2300000Y-1105000D02*
G01*
X2150000Y-1255000D01*
X850000Y-1255000D01*
X800000Y-1305000D01*
X1000000Y-405000D02*
G01*
X1300000Y-405000D01*
X1000000Y-405000D02*
G01*
X590000Y-405000D01*
X200000Y-795000D01*
X200000Y-795000D02*
G01*
X200000Y-900000D01*
X2595000Y-600000D02*
G01*
X2305000Y-600000D01*
X2300000Y-605000D01*
X2595000Y-700000D02*
G01*
X2305000Y-700000D01*
X2300000Y-705000D01*
X2595000Y-800000D02*
G01*
X2305000Y-800000D01*
X2300000Y-805000D01*
X2595000Y-900000D02*
G01*
X2305000Y-900000D01*
X2300000Y-905000D01*
X2595000Y-1200000D02*
G01*
X2305000Y-1200000D01*
X2300000Y-1205000D01*
X2595000Y-1300000D02*
G01*
X2305000Y-1300000D01*
X2300000Y-1305000D01*
X2595000Y-1400000D02*
G01*
X2305000Y-1400000D01*
X2300000Y-1405000D01*
X2595000Y-1500000D02*
G01*
X2305000Y-1500000D01*
X2300000Y-1505000D01*
X2595000Y-1600000D02*
G01*
X2305000Y-1600000D01*
X2300000Y-1605000D01*
X2595000Y-1700000D02*
G01*
X2305000Y-1700000D01*
X2300000Y-1705000D01*
X2595000Y-1800000D02*
G01*
X2590000Y-1805000D01*
X2300000Y-1805000D01*
X1000000Y-605000D02*
G01*
X1300000Y-605000D01*
X1000000Y-705000D02*
G01*
X1300000Y-705000D01*
X1000000Y-805000D02*
G01*
X1300000Y-805000D01*
X1000000Y-905000D02*
G01*
X1300000Y-905000D01*
X1000000Y-1005000D02*
G01*
X1300000Y-1005000D01*
X1000000Y-1405000D02*
G01*
X1300000Y-1405000D01*
X1000000Y-1505000D02*
G01*
X1300000Y-1505000D01*
X1000000Y-1605000D02*
G01*
X1300000Y-1605000D01*
X1000000Y-1705000D02*
G01*
X1300000Y-1705000D01*
X600000Y-1305000D02*
G01*
X1000000Y-1705000D01*
X2595000Y-500000D02*
G01*
X2305000Y-500000D01*
X2300000Y-505000D01*
X500000Y-1305000D02*
G01*
X455619Y-1260619D01*
X344380Y-1260619D01*
X300000Y-1305000D01*
X2300000Y-505000D02*
G01*
X1757420Y-1047579D01*
X757420Y-1047579D01*
X500000Y-1305000D01*
X2595000Y-400000D02*
G01*
X2305000Y-400000D01*
X2300000Y-405000D01*
X242010Y-1305000D02*
G01*
X242010Y-1315500D01*
X681509Y-1755000D01*
X1926559Y-1755000D01*
X2171559Y-2000000D01*
X2505000Y-2000000D01*
X200000Y-1305000D02*
G01*
X242010Y-1305000D01*
X1000000Y-1805000D02*
G01*
X1300000Y-1805000D01*
X1000000Y-505000D02*
G01*
X1300000Y-505000D01*
X751010Y-795000D02*
G01*
X751010Y-753989D01*
X1000000Y-505000D01*
X700000Y-795000D02*
G01*
X751010Y-795000D01*
X1000000Y-1205000D02*
G01*
X1300000Y-1205000D01*
X1000000Y-1105000D02*
G01*
X1300000Y-1105000D01*
X1000000Y-1305000D02*
G01*
X1300000Y-1305000D01*
D12*
G01*
X2300000Y-405000D03*
G01*
X2300000Y-505000D03*
G01*
X2300000Y-605000D03*
G01*
X2300000Y-705000D03*
G01*
X2300000Y-805000D03*
G01*
X2300000Y-905000D03*
G01*
X2300000Y-1005000D03*
G01*
X2300000Y-1105000D03*
G01*
X2300000Y-1205000D03*
G01*
X2300000Y-1305000D03*
G01*
X2300000Y-1405000D03*
G01*
X2300000Y-1505000D03*
G01*
X2300000Y-1605000D03*
G01*
X2300000Y-1705000D03*
G01*
X2300000Y-1805000D03*
G01*
X1300000Y-405000D03*
G01*
X1300000Y-505000D03*
G01*
X1300000Y-605000D03*
G01*
X1300000Y-705000D03*
G01*
X1300000Y-805000D03*
G01*
X1300000Y-905000D03*
G01*
X1300000Y-1005000D03*
G01*
X1300000Y-1105000D03*
G01*
X1300000Y-1205000D03*
G01*
X1300000Y-1305000D03*
G01*
X1300000Y-1405000D03*
G01*
X1300000Y-1505000D03*
G01*
X1300000Y-1605000D03*
G01*
X1300000Y-1705000D03*
G01*
X1300000Y-1805000D03*
D13*
G01*
X200000Y-1305000D03*
D14*
G01*
X299994Y-1304994D03*
G01*
X400000Y-1305000D03*
G01*
X499996Y-1304996D03*
G01*
X600001Y-1305001D03*
G01*
X699996Y-1304996D03*
G01*
X800001Y-1305001D03*
D15*
G01*
X700000Y-900000D03*
D16*
G01*
X600000Y-900000D03*
G01*
X500000Y-900000D03*
G01*
X400000Y-900000D03*
G01*
X300000Y-900000D03*
G01*
X200000Y-900000D03*
D17*
G01*
X2595000Y-1800000D03*
G01*
X2595000Y-1700000D03*
G01*
X2595000Y-1600000D03*
G01*
X2595000Y-1500000D03*
G01*
X2595000Y-1400000D03*
G01*
X2595000Y-1300000D03*
G01*
X2595000Y-1200000D03*
G01*
X2595000Y-1100000D03*
G01*
X2595000Y-1000000D03*
G01*
X2595000Y-900000D03*
G01*
X2595000Y-800000D03*
G01*
X2595000Y-700000D03*
G01*
X2595000Y-600000D03*
G01*
X2595000Y-500000D03*
D18*
G01*
X2595000Y-400000D03*
D17*
G01*
X1000000Y-405000D03*
G01*
X1000000Y-505000D03*
G01*
X1000000Y-605000D03*
G01*
X1000000Y-705000D03*
G01*
X1000000Y-805000D03*
G01*
X1000000Y-905000D03*
G01*
X1000000Y-1005000D03*
G01*
X1000000Y-1105000D03*
G01*
X1000000Y-1205000D03*
G01*
X1000000Y-1305000D03*
G01*
X1000000Y-1405000D03*
G01*
X1000000Y-1505000D03*
G01*
X1000000Y-1605000D03*
G01*
X1000000Y-1705000D03*
D18*
G01*
X1000000Y-1805000D03*
D19*
G01*
X1000000Y-2005000D03*
D20*
G01*
X1100000Y-2005000D03*
D15*
G01*
X700000Y-795000D03*
D16*
G01*
X600000Y-795000D03*
G01*
X500000Y-795000D03*
G01*
X400000Y-795000D03*
G01*
X300000Y-795000D03*
G01*
X200000Y-795000D03*
D19*
G01*
X2505000Y-2000000D03*
D20*
G01*
X2605000Y-2000000D03*
M02*
