G04 Layer: TopSilkscreenLayer*
G04 EasyEDA v6.5.22, 2022-12-04 20:31:14*
G04 182cb613c9664d73b7f9de34f776aa3b,1ae14fa7f5aa486887b2aa5280da83c0,10*
G04 Gerber Generator version 0.2*
G04 Scale: 100 percent, Rotated: No, Reflected: No *
G04 Dimensions in millimeters *
G04 leading zeros omitted , absolute positions ,4 integer and 5 decimal *
%FSLAX45Y45*%
%MOMM*%

%ADD10C,0.1524*%
%ADD11C,0.2540*%
%ADD12C,0.3048*%
%ADD13C,0.2032*%
%ADD14C,0.3000*%
%ADD15C,0.6000*%
%ADD16C,0.1016*%
%ADD17C,0.0147*%

%LPD*%
G36*
X8310168Y6968286D02*
G01*
X8281060Y6954012D01*
X8189366Y6848703D01*
X8165033Y6821170D01*
X8147151Y6801408D01*
X8137601Y6791553D01*
X8135721Y6793230D01*
X8124342Y6805472D01*
X8104733Y6827418D01*
X8079333Y6856425D01*
X7994853Y6953859D01*
X7966862Y6967474D01*
X7939684Y6967474D01*
X7909915Y6951725D01*
X7889697Y6922922D01*
X7889697Y6509054D01*
X7900568Y6490360D01*
X7907375Y6481368D01*
X7935925Y6446570D01*
X7978292Y6396583D01*
X8039100Y6326022D01*
X8098139Y6258763D01*
X8137753Y6258763D01*
X8139328Y6735724D01*
X8146999Y6749694D01*
X8155381Y6760819D01*
X8169960Y6778701D01*
X8189061Y6801358D01*
X8211007Y6826961D01*
X8239963Y6860133D01*
X8262315Y6885279D01*
X8282076Y6907123D01*
X8297570Y6923735D01*
X8307222Y6933285D01*
X8309305Y6934758D01*
X8316163Y6936181D01*
X8322411Y6936486D01*
X8328456Y6935673D01*
X8334806Y6933742D01*
X8338718Y6931558D01*
X8342884Y6928154D01*
X8346897Y6923887D01*
X8350199Y6919366D01*
X8356955Y6908292D01*
X8356803Y6522618D01*
X8350351Y6509105D01*
X8343544Y6499809D01*
X8330641Y6483705D01*
X8312708Y6462014D01*
X8265718Y6406845D01*
X8144814Y6267551D01*
X8137753Y6258763D01*
X8098139Y6258763D01*
X8131403Y6222238D01*
X8136331Y6217412D01*
X8137702Y6216446D01*
X8139074Y6217412D01*
X8146288Y6224676D01*
X8158784Y6238240D01*
X8195716Y6279642D01*
X8242350Y6333032D01*
X8302853Y6403390D01*
X8343849Y6451904D01*
X8359343Y6470650D01*
X8370214Y6484213D01*
X8375497Y6491528D01*
X8385657Y6509054D01*
X8387537Y6915302D01*
X8371636Y6945477D01*
X8343950Y6965035D01*
G37*
G36*
X9333738Y6473698D02*
G01*
X9333738Y6335268D01*
X9350248Y6335268D01*
X9350248Y6394704D01*
X9358325Y6401460D01*
X9366097Y6406388D01*
X9373666Y6409436D01*
X9380982Y6410452D01*
X9386163Y6410096D01*
X9390837Y6409080D01*
X9394952Y6407353D01*
X9398609Y6405067D01*
X9401759Y6402171D01*
X9404400Y6398717D01*
X9406636Y6394754D01*
X9408414Y6390284D01*
X9409785Y6385356D01*
X9410700Y6380073D01*
X9411258Y6374333D01*
X9411462Y6368288D01*
X9411157Y6361582D01*
X9410344Y6355334D01*
X9408972Y6349593D01*
X9407144Y6344310D01*
X9404807Y6339586D01*
X9402064Y6335420D01*
X9398914Y6331813D01*
X9395409Y6328816D01*
X9391548Y6326479D01*
X9387332Y6324752D01*
X9382912Y6323685D01*
X9378188Y6323330D01*
X9372142Y6323939D01*
X9365284Y6325971D01*
X9357868Y6329629D01*
X9350248Y6335268D01*
X9333738Y6335268D01*
X9333738Y6311900D01*
X9346692Y6311900D01*
X9348724Y6323330D01*
X9348978Y6323330D01*
X9356699Y6317386D01*
X9364776Y6313017D01*
X9372854Y6310274D01*
X9380728Y6309360D01*
X9385452Y6309614D01*
X9390075Y6310376D01*
X9394596Y6311595D01*
X9398965Y6313322D01*
X9403130Y6315506D01*
X9407093Y6318148D01*
X9410801Y6321298D01*
X9414256Y6324854D01*
X9417405Y6328867D01*
X9420250Y6333286D01*
X9422739Y6338163D01*
X9424822Y6343446D01*
X9426498Y6349136D01*
X9427718Y6355181D01*
X9428480Y6361684D01*
X9428734Y6368542D01*
X9428530Y6374739D01*
X9428022Y6380632D01*
X9427159Y6386220D01*
X9425889Y6391503D01*
X9424314Y6396482D01*
X9422384Y6401054D01*
X9420148Y6405321D01*
X9417507Y6409131D01*
X9414560Y6412585D01*
X9411309Y6415633D01*
X9407702Y6418275D01*
X9403791Y6420459D01*
X9399524Y6422136D01*
X9394901Y6423406D01*
X9390024Y6424168D01*
X9384792Y6424422D01*
X9380067Y6424117D01*
X9375394Y6423152D01*
X9370771Y6421729D01*
X9366300Y6419799D01*
X9361881Y6417462D01*
X9357614Y6414770D01*
X9353448Y6411823D01*
X9349486Y6408674D01*
X9350248Y6428740D01*
X9350248Y6473698D01*
G37*
G36*
X9458452Y6473698D02*
G01*
X9458452Y6331966D01*
X9459468Y6322314D01*
X9462719Y6315252D01*
X9468307Y6310833D01*
X9476486Y6309360D01*
X9482226Y6309715D01*
X9486392Y6310630D01*
X9483852Y6323584D01*
X9481566Y6323126D01*
X9480042Y6323076D01*
X9478060Y6323533D01*
X9476435Y6324904D01*
X9475368Y6327241D01*
X9474962Y6330696D01*
X9474962Y6473698D01*
G37*
G36*
X9959086Y6473698D02*
G01*
X9959086Y6311900D01*
X9975596Y6311900D01*
X9975596Y6392164D01*
X9979660Y6396278D01*
X9983571Y6399885D01*
X9987330Y6402933D01*
X9991039Y6405422D01*
X9994747Y6407404D01*
X9998608Y6408826D01*
X10002621Y6409639D01*
X10006838Y6409944D01*
X10012121Y6409486D01*
X10016642Y6408166D01*
X10020350Y6405930D01*
X10023348Y6402730D01*
X10025634Y6398463D01*
X10027208Y6393230D01*
X10028123Y6386880D01*
X10028428Y6379464D01*
X10028428Y6311900D01*
X10045192Y6311900D01*
X10045192Y6381496D01*
X10044988Y6388252D01*
X10044277Y6394450D01*
X10043160Y6400088D01*
X10041585Y6405168D01*
X10039502Y6409639D01*
X10037013Y6413550D01*
X10034016Y6416852D01*
X10030510Y6419545D01*
X10026548Y6421678D01*
X10022078Y6423202D01*
X10017150Y6424117D01*
X10011664Y6424422D01*
X10006228Y6424066D01*
X10001097Y6422948D01*
X9996220Y6421221D01*
X9991648Y6418935D01*
X9987229Y6416192D01*
X9982962Y6413042D01*
X9978847Y6409588D01*
X9974834Y6405880D01*
X9975596Y6428740D01*
X9975596Y6473698D01*
G37*
G36*
X9138666Y6467856D02*
G01*
X9133992Y6467094D01*
X9130385Y6464858D01*
X9128048Y6461302D01*
X9127236Y6456680D01*
X9128048Y6451904D01*
X9130385Y6448298D01*
X9133992Y6446012D01*
X9138666Y6445250D01*
X9143238Y6446012D01*
X9146844Y6448298D01*
X9149232Y6451904D01*
X9150096Y6456680D01*
X9149232Y6461302D01*
X9146844Y6464858D01*
X9143238Y6467094D01*
G37*
G36*
X9287510Y6467856D02*
G01*
X9282785Y6467094D01*
X9279077Y6464858D01*
X9276689Y6461302D01*
X9275826Y6456680D01*
X9276689Y6451904D01*
X9279077Y6448298D01*
X9282785Y6446012D01*
X9287510Y6445250D01*
X9291980Y6446012D01*
X9295587Y6448298D01*
X9298025Y6451904D01*
X9298940Y6456680D01*
X9298025Y6461302D01*
X9295587Y6464858D01*
X9291980Y6467094D01*
G37*
G36*
X10089642Y6467856D02*
G01*
X10084968Y6467094D01*
X10081361Y6464858D01*
X10079024Y6461302D01*
X10078212Y6456680D01*
X10079024Y6451904D01*
X10081361Y6448298D01*
X10084968Y6446012D01*
X10089642Y6445250D01*
X10094214Y6446012D01*
X10097820Y6448298D01*
X10100208Y6451904D01*
X10101072Y6456680D01*
X10100208Y6461302D01*
X10097820Y6464858D01*
X10094214Y6467094D01*
G37*
G36*
X9665970Y6463284D02*
G01*
X9659518Y6462928D01*
X9653371Y6461963D01*
X9647631Y6460388D01*
X9642297Y6458254D01*
X9637420Y6455511D01*
X9633102Y6452311D01*
X9629241Y6448653D01*
X9626041Y6444538D01*
X9623450Y6440017D01*
X9621570Y6435140D01*
X9620402Y6429959D01*
X9619996Y6424422D01*
X9620758Y6416852D01*
X9622790Y6410248D01*
X9625939Y6404559D01*
X9630003Y6399682D01*
X9634677Y6395516D01*
X9639808Y6392011D01*
X9645142Y6389065D01*
X9671812Y6377178D01*
X9681768Y6372453D01*
X9686086Y6369913D01*
X9689846Y6367068D01*
X9692944Y6363766D01*
X9695230Y6359906D01*
X9696704Y6355283D01*
X9697212Y6349746D01*
X9696653Y6344259D01*
X9694976Y6339332D01*
X9692284Y6334912D01*
X9688576Y6331204D01*
X9683902Y6328206D01*
X9678365Y6325971D01*
X9671913Y6324549D01*
X9664700Y6324092D01*
X9658756Y6324447D01*
X9652965Y6325412D01*
X9647275Y6327038D01*
X9641890Y6329222D01*
X9636709Y6331915D01*
X9631781Y6335115D01*
X9627260Y6338824D01*
X9623044Y6342888D01*
X9612884Y6331458D01*
X9617862Y6326581D01*
X9623348Y6322212D01*
X9629241Y6318453D01*
X9635540Y6315252D01*
X9642195Y6312712D01*
X9649256Y6310884D01*
X9656673Y6309766D01*
X9664446Y6309360D01*
X9671862Y6309715D01*
X9678822Y6310833D01*
X9685223Y6312560D01*
X9691065Y6314948D01*
X9696348Y6317945D01*
X9700971Y6321450D01*
X9704984Y6325412D01*
X9708337Y6329832D01*
X9710978Y6334658D01*
X9712909Y6339840D01*
X9714077Y6345275D01*
X9714484Y6351016D01*
X9713874Y6358737D01*
X9712045Y6365494D01*
X9709150Y6371336D01*
X9705390Y6376365D01*
X9700768Y6380683D01*
X9695535Y6384442D01*
X9689693Y6387744D01*
X9683496Y6390640D01*
X9657588Y6401714D01*
X9653219Y6403848D01*
X9649104Y6406184D01*
X9645294Y6408928D01*
X9642043Y6412128D01*
X9639503Y6415938D01*
X9637877Y6420408D01*
X9637268Y6425692D01*
X9637776Y6430670D01*
X9639300Y6435140D01*
X9641789Y6439052D01*
X9645142Y6442354D01*
X9649307Y6444996D01*
X9654184Y6446926D01*
X9659772Y6448145D01*
X9665970Y6448552D01*
X9671151Y6448298D01*
X9676028Y6447536D01*
X9680651Y6446316D01*
X9685020Y6444691D01*
X9689134Y6442608D01*
X9693046Y6440170D01*
X9696754Y6437426D01*
X9700260Y6434328D01*
X9709404Y6444996D01*
X9705340Y6448856D01*
X9700869Y6452362D01*
X9695942Y6455460D01*
X9690658Y6458153D01*
X9684969Y6460286D01*
X9678924Y6461912D01*
X9672574Y6462928D01*
G37*
G36*
X8846820Y6460744D02*
G01*
X8846820Y6311900D01*
X8863584Y6311900D01*
X8863584Y6460744D01*
G37*
G36*
X8740902Y6457696D02*
G01*
X8735568Y6457543D01*
X8730335Y6457086D01*
X8725154Y6456375D01*
X8715044Y6454038D01*
X8705291Y6450584D01*
X8700617Y6448450D01*
X8696045Y6446062D01*
X8691626Y6443421D01*
X8687308Y6440525D01*
X8683193Y6437376D01*
X8675471Y6430365D01*
X8671915Y6426504D01*
X8668562Y6422440D01*
X8665362Y6418122D01*
X8662416Y6413652D01*
X8659723Y6408928D01*
X8657234Y6404000D01*
X8655050Y6398869D01*
X8653068Y6393535D01*
X8651392Y6388049D01*
X8649970Y6382359D01*
X8648903Y6376466D01*
X8648090Y6370472D01*
X8647582Y6364224D01*
X8647430Y6357874D01*
X8647633Y6351473D01*
X8648141Y6345326D01*
X8649004Y6339484D01*
X8650224Y6333845D01*
X8651748Y6328460D01*
X8653576Y6323330D01*
X8655659Y6318453D01*
X8658098Y6313881D01*
X8660790Y6309512D01*
X8663736Y6305448D01*
X8666937Y6301638D01*
X8670340Y6298082D01*
X8673998Y6294831D01*
X8677910Y6291834D01*
X8682024Y6289090D01*
X8686292Y6286652D01*
X8690762Y6284518D01*
X8695436Y6282639D01*
X8700262Y6281013D01*
X8705240Y6279692D01*
X8710320Y6278676D01*
X8715603Y6277965D01*
X8720937Y6277508D01*
X8726424Y6277356D01*
X8732266Y6277559D01*
X8737904Y6278067D01*
X8743442Y6278981D01*
X8748826Y6280251D01*
X8754110Y6281877D01*
X8759291Y6283909D01*
X8764371Y6286296D01*
X8769350Y6289040D01*
X8764524Y6299200D01*
X8756446Y6294983D01*
X8752078Y6293205D01*
X8742832Y6290462D01*
X8737904Y6289548D01*
X8732875Y6288989D01*
X8727694Y6288786D01*
X8721902Y6288989D01*
X8716314Y6289548D01*
X8710879Y6290513D01*
X8705596Y6291783D01*
X8700617Y6293459D01*
X8695791Y6295491D01*
X8691219Y6297879D01*
X8686901Y6300622D01*
X8682888Y6303721D01*
X8679129Y6307124D01*
X8675624Y6310833D01*
X8672474Y6314897D01*
X8669629Y6319266D01*
X8667140Y6323990D01*
X8664956Y6328968D01*
X8663178Y6334252D01*
X8661755Y6339890D01*
X8660739Y6345732D01*
X8660079Y6351930D01*
X8659876Y6358382D01*
X8660079Y6364935D01*
X8660688Y6371336D01*
X8661654Y6377482D01*
X8662974Y6383426D01*
X8664651Y6389116D01*
X8666683Y6394602D01*
X8668969Y6399885D01*
X8671560Y6404864D01*
X8674455Y6409639D01*
X8677605Y6414109D01*
X8681008Y6418376D01*
X8684615Y6422339D01*
X8688425Y6425996D01*
X8692438Y6429400D01*
X8696655Y6432499D01*
X8701024Y6435344D01*
X8705494Y6437833D01*
X8710117Y6440017D01*
X8714892Y6441897D01*
X8719718Y6443472D01*
X8724595Y6444691D01*
X8729573Y6445554D01*
X8734602Y6446062D01*
X8739632Y6446266D01*
X8747048Y6445961D01*
X8754008Y6445046D01*
X8760510Y6443573D01*
X8766556Y6441541D01*
X8772194Y6439001D01*
X8777325Y6435953D01*
X8782050Y6432397D01*
X8786266Y6428384D01*
X8789974Y6423964D01*
X8793226Y6419088D01*
X8796020Y6413855D01*
X8798306Y6408216D01*
X8800084Y6402273D01*
X8801354Y6395974D01*
X8802116Y6389370D01*
X8802370Y6382512D01*
X8802014Y6375298D01*
X8801100Y6368592D01*
X8799576Y6362446D01*
X8797544Y6356858D01*
X8795105Y6351879D01*
X8792362Y6347510D01*
X8789263Y6343751D01*
X8785910Y6340652D01*
X8782456Y6338214D01*
X8778849Y6336436D01*
X8775242Y6335369D01*
X8771636Y6335014D01*
X8767165Y6335420D01*
X8763558Y6336690D01*
X8760714Y6338824D01*
X8758732Y6341770D01*
X8757513Y6345631D01*
X8757158Y6350355D01*
X8757615Y6355943D01*
X8767572Y6406896D01*
X8756396Y6406896D01*
X8754110Y6397752D01*
X8753602Y6397752D01*
X8750046Y6402730D01*
X8745778Y6406184D01*
X8740902Y6408267D01*
X8735314Y6408928D01*
X8728862Y6408369D01*
X8722868Y6406692D01*
X8717330Y6404102D01*
X8712250Y6400698D01*
X8707729Y6396532D01*
X8703716Y6391757D01*
X8700262Y6386474D01*
X8697417Y6380835D01*
X8695131Y6374942D01*
X8693505Y6368897D01*
X8692489Y6362852D01*
X8692194Y6357874D01*
X8705596Y6357874D01*
X8706104Y6364579D01*
X8707628Y6371386D01*
X8710117Y6377940D01*
X8713470Y6383985D01*
X8717686Y6389217D01*
X8722715Y6393332D01*
X8728557Y6396024D01*
X8735060Y6396990D01*
X8739632Y6396532D01*
X8743543Y6394907D01*
X8747048Y6391960D01*
X8750300Y6387338D01*
X8743950Y6350508D01*
X8738057Y6344310D01*
X8732418Y6340043D01*
X8727033Y6337554D01*
X8721852Y6336792D01*
X8715451Y6337960D01*
X8710320Y6341618D01*
X8706866Y6348171D01*
X8705596Y6357874D01*
X8692194Y6357874D01*
X8692642Y6349593D01*
X8694216Y6343192D01*
X8696604Y6337706D01*
X8699855Y6333134D01*
X8703767Y6329578D01*
X8708339Y6326936D01*
X8713368Y6325362D01*
X8718804Y6324854D01*
X8726373Y6326124D01*
X8733688Y6329476D01*
X8740495Y6334506D01*
X8746490Y6340602D01*
X8746998Y6340602D01*
X8749385Y6333032D01*
X8754364Y6327698D01*
X8761425Y6324600D01*
X8770112Y6323584D01*
X8773922Y6323838D01*
X8777782Y6324549D01*
X8781643Y6325717D01*
X8785504Y6327394D01*
X8789263Y6329476D01*
X8792921Y6332067D01*
X8796426Y6335166D01*
X8799728Y6338671D01*
X8802827Y6342634D01*
X8805621Y6347104D01*
X8808110Y6351981D01*
X8810244Y6357315D01*
X8811971Y6363157D01*
X8813241Y6369405D01*
X8814054Y6376111D01*
X8814308Y6383274D01*
X8814104Y6389776D01*
X8813495Y6396075D01*
X8812428Y6402171D01*
X8811006Y6407962D01*
X8809177Y6413550D01*
X8806992Y6418834D01*
X8804402Y6423863D01*
X8801506Y6428587D01*
X8798204Y6432956D01*
X8794546Y6437071D01*
X8790584Y6440830D01*
X8786266Y6444234D01*
X8781643Y6447282D01*
X8776716Y6449974D01*
X8771432Y6452260D01*
X8765895Y6454190D01*
X8760053Y6455714D01*
X8753957Y6456781D01*
X8747556Y6457492D01*
G37*
G36*
X8956294Y6424422D02*
G01*
X8950858Y6424066D01*
X8945676Y6422948D01*
X8940800Y6421221D01*
X8936126Y6418935D01*
X8931656Y6416141D01*
X8927388Y6412941D01*
X8923274Y6409436D01*
X8919210Y6405626D01*
X8918702Y6405626D01*
X8916924Y6421628D01*
X8903716Y6421628D01*
X8903716Y6311900D01*
X8919972Y6311900D01*
X8919972Y6392164D01*
X8928049Y6399885D01*
X8931859Y6402933D01*
X8935618Y6405422D01*
X8939377Y6407404D01*
X8943238Y6408826D01*
X8947251Y6409639D01*
X8951468Y6409944D01*
X8956751Y6409486D01*
X8961272Y6408166D01*
X8964980Y6405930D01*
X8967978Y6402730D01*
X8970264Y6398463D01*
X8971838Y6393230D01*
X8972753Y6386880D01*
X8973058Y6379464D01*
X8973058Y6311900D01*
X8989822Y6311900D01*
X8989822Y6381496D01*
X8989618Y6388252D01*
X8988907Y6394450D01*
X8987790Y6400088D01*
X8986215Y6405168D01*
X8984132Y6409639D01*
X8981643Y6413550D01*
X8978646Y6416852D01*
X8975140Y6419545D01*
X8971178Y6421678D01*
X8966708Y6423202D01*
X8961780Y6424117D01*
G37*
G36*
X9215628Y6424422D02*
G01*
X9207246Y6423812D01*
X9199829Y6422034D01*
X9193428Y6419240D01*
X9188094Y6415532D01*
X9183878Y6411010D01*
X9180779Y6405778D01*
X9178950Y6399987D01*
X9178290Y6393688D01*
X9179052Y6387236D01*
X9181185Y6381750D01*
X9184487Y6377025D01*
X9188754Y6373063D01*
X9193682Y6369710D01*
X9199168Y6366865D01*
X9204960Y6364376D01*
X9220047Y6358534D01*
X9224365Y6356451D01*
X9228277Y6354064D01*
X9231630Y6351371D01*
X9234220Y6348272D01*
X9235846Y6344716D01*
X9236456Y6340602D01*
X9235033Y6333439D01*
X9230715Y6327648D01*
X9223603Y6323736D01*
X9213596Y6322314D01*
X9203994Y6323279D01*
X9195562Y6325971D01*
X9187891Y6330137D01*
X9180576Y6335522D01*
X9172194Y6324346D01*
X9176308Y6321247D01*
X9180779Y6318351D01*
X9185554Y6315811D01*
X9190634Y6313627D01*
X9195968Y6311849D01*
X9201505Y6310477D01*
X9207246Y6309664D01*
X9213088Y6309360D01*
X9222079Y6310020D01*
X9229902Y6311900D01*
X9236608Y6314846D01*
X9242196Y6318808D01*
X9246514Y6323533D01*
X9249664Y6328968D01*
X9251543Y6334963D01*
X9252204Y6341364D01*
X9251391Y6348526D01*
X9249156Y6354521D01*
X9245752Y6359448D01*
X9241332Y6363563D01*
X9236151Y6366967D01*
X9230461Y6369913D01*
X9218422Y6374892D01*
X9209278Y6378346D01*
X9201607Y6382308D01*
X9196273Y6387541D01*
X9194292Y6394704D01*
X9195612Y6401054D01*
X9199524Y6406286D01*
X9206179Y6409893D01*
X9215628Y6411214D01*
X9222790Y6410452D01*
X9229293Y6408369D01*
X9235287Y6405321D01*
X9241028Y6401562D01*
X9249156Y6412230D01*
X9242247Y6417005D01*
X9234220Y6420916D01*
X9225280Y6423456D01*
G37*
G36*
X9555734Y6424422D02*
G01*
X9551060Y6424168D01*
X9546386Y6423406D01*
X9541865Y6422136D01*
X9537446Y6420408D01*
X9533229Y6418224D01*
X9529165Y6415532D01*
X9525355Y6412433D01*
X9521799Y6408928D01*
X9518548Y6404965D01*
X9515602Y6400647D01*
X9513011Y6395872D01*
X9510826Y6390792D01*
X9509099Y6385306D01*
X9507778Y6379464D01*
X9507245Y6375400D01*
X9522968Y6375400D01*
X9524390Y6383324D01*
X9526828Y6390386D01*
X9530130Y6396482D01*
X9534245Y6401562D01*
X9539020Y6405626D01*
X9544304Y6408572D01*
X9549993Y6410350D01*
X9555988Y6410960D01*
X9562338Y6410401D01*
X9567926Y6408674D01*
X9572802Y6405880D01*
X9576866Y6401968D01*
X9580118Y6396939D01*
X9582505Y6390792D01*
X9583928Y6383629D01*
X9584436Y6375400D01*
X9507245Y6375400D01*
X9506966Y6373266D01*
X9506712Y6366764D01*
X9506966Y6360160D01*
X9507778Y6353962D01*
X9509048Y6348069D01*
X9510776Y6342583D01*
X9512960Y6337452D01*
X9515551Y6332728D01*
X9518548Y6328460D01*
X9521901Y6324549D01*
X9525558Y6321044D01*
X9529572Y6317996D01*
X9533890Y6315405D01*
X9538411Y6313271D01*
X9543237Y6311544D01*
X9548215Y6310325D01*
X9553448Y6309614D01*
X9558782Y6309360D01*
X9564319Y6309614D01*
X9569500Y6310223D01*
X9574326Y6311290D01*
X9578898Y6312662D01*
X9583166Y6314338D01*
X9587179Y6316218D01*
X9594596Y6320536D01*
X9588500Y6331458D01*
X9582251Y6327698D01*
X9575596Y6324904D01*
X9568484Y6323177D01*
X9560814Y6322568D01*
X9555429Y6322923D01*
X9550450Y6323888D01*
X9545777Y6325463D01*
X9541459Y6327698D01*
X9537598Y6330442D01*
X9534093Y6333744D01*
X9531096Y6337554D01*
X9528505Y6341821D01*
X9526422Y6346545D01*
X9524847Y6351727D01*
X9523730Y6357264D01*
X9523222Y6363208D01*
X9598152Y6363208D01*
X9598710Y6367678D01*
X9598914Y6373114D01*
X9598609Y6380784D01*
X9597644Y6387947D01*
X9596018Y6394500D01*
X9593834Y6400546D01*
X9590989Y6405930D01*
X9587636Y6410655D01*
X9583623Y6414770D01*
X9579102Y6418173D01*
X9574072Y6420866D01*
X9568434Y6422847D01*
X9562338Y6424015D01*
G37*
G36*
X9895586Y6424422D02*
G01*
X9887204Y6423812D01*
X9879787Y6422034D01*
X9873386Y6419240D01*
X9868052Y6415532D01*
X9863836Y6411010D01*
X9860737Y6405778D01*
X9858908Y6399987D01*
X9858248Y6393688D01*
X9859010Y6387236D01*
X9861092Y6381750D01*
X9864394Y6377025D01*
X9868611Y6373063D01*
X9873538Y6369710D01*
X9879025Y6366865D01*
X9884816Y6364376D01*
X9900005Y6358534D01*
X9904323Y6356451D01*
X9908235Y6354064D01*
X9911588Y6351371D01*
X9914178Y6348272D01*
X9915804Y6344716D01*
X9916414Y6340602D01*
X9914991Y6333439D01*
X9910673Y6327648D01*
X9903561Y6323736D01*
X9893554Y6322314D01*
X9883952Y6323279D01*
X9875418Y6325971D01*
X9867747Y6330137D01*
X9860534Y6335522D01*
X9852152Y6324346D01*
X9856266Y6321247D01*
X9860737Y6318351D01*
X9865512Y6315811D01*
X9870592Y6313627D01*
X9875926Y6311849D01*
X9881463Y6310477D01*
X9887204Y6309664D01*
X9893046Y6309360D01*
X9902037Y6310020D01*
X9909860Y6311900D01*
X9916566Y6314846D01*
X9922154Y6318808D01*
X9926472Y6323533D01*
X9929622Y6328968D01*
X9931501Y6334963D01*
X9932162Y6341364D01*
X9931349Y6348526D01*
X9929114Y6354521D01*
X9925710Y6359448D01*
X9921290Y6363563D01*
X9916109Y6366967D01*
X9910419Y6369913D01*
X9898380Y6374892D01*
X9889236Y6378346D01*
X9881565Y6382308D01*
X9876231Y6387541D01*
X9874250Y6394704D01*
X9875570Y6401054D01*
X9879482Y6406286D01*
X9886137Y6409893D01*
X9895586Y6411214D01*
X9902647Y6410452D01*
X9909098Y6408369D01*
X9915093Y6405321D01*
X9920732Y6401562D01*
X9928860Y6412230D01*
X9922103Y6417005D01*
X9914128Y6420916D01*
X9905238Y6423456D01*
G37*
G36*
X9009888Y6421628D02*
G01*
X9050020Y6311900D01*
X9069324Y6311900D01*
X9108440Y6421628D01*
X9092184Y6421628D01*
X9070340Y6357874D01*
X9065361Y6341465D01*
X9060180Y6325616D01*
X9059164Y6325616D01*
X9053982Y6341465D01*
X9049004Y6357874D01*
X9027160Y6421628D01*
G37*
G36*
X9130284Y6421628D02*
G01*
X9130284Y6311900D01*
X9146794Y6311900D01*
X9146794Y6421628D01*
G37*
G36*
X9279128Y6421628D02*
G01*
X9279128Y6311900D01*
X9295638Y6311900D01*
X9295638Y6421628D01*
G37*
G36*
X9740900Y6421628D02*
G01*
X9740900Y6352032D01*
X9741103Y6345275D01*
X9741763Y6339078D01*
X9742881Y6333490D01*
X9744456Y6328460D01*
X9746488Y6323990D01*
X9748977Y6320129D01*
X9751974Y6316827D01*
X9755479Y6314135D01*
X9759442Y6312052D01*
X9763912Y6310579D01*
X9768890Y6309664D01*
X9774428Y6309360D01*
X9779965Y6309715D01*
X9785096Y6310833D01*
X9789972Y6312560D01*
X9794544Y6314897D01*
X9798862Y6317843D01*
X9803028Y6321247D01*
X9807092Y6325158D01*
X9811004Y6329426D01*
X9811512Y6329426D01*
X9813036Y6311900D01*
X9826498Y6311900D01*
X9826498Y6421628D01*
X9809988Y6421628D01*
X9809988Y6342888D01*
X9806025Y6338265D01*
X9802164Y6334302D01*
X9798456Y6331000D01*
X9794798Y6328257D01*
X9791141Y6326225D01*
X9787331Y6324752D01*
X9783419Y6323888D01*
X9779254Y6323584D01*
X9773869Y6324041D01*
X9769297Y6325362D01*
X9765538Y6327648D01*
X9762540Y6330899D01*
X9760254Y6335166D01*
X9758629Y6340398D01*
X9757714Y6346698D01*
X9757410Y6354064D01*
X9757410Y6421628D01*
G37*
G36*
X10081260Y6421628D02*
G01*
X10081260Y6311900D01*
X10097770Y6311900D01*
X10097770Y6421628D01*
G37*
G36*
X9093962Y6666484D02*
G01*
X9087256Y6666077D01*
X9081058Y6664909D01*
X9075318Y6663029D01*
X9069882Y6660489D01*
X9064802Y6657340D01*
X9059976Y6653631D01*
X9055303Y6649364D01*
X9050782Y6644640D01*
X9060434Y6635496D01*
X9063786Y6639102D01*
X9067292Y6642404D01*
X9071000Y6645402D01*
X9074861Y6647992D01*
X9078925Y6650075D01*
X9083192Y6651701D01*
X9087612Y6652666D01*
X9092184Y6653022D01*
X9098940Y6652412D01*
X9104731Y6650685D01*
X9109608Y6647942D01*
X9113520Y6644233D01*
X9116568Y6639712D01*
X9118701Y6634480D01*
X9119971Y6628638D01*
X9120378Y6622288D01*
X9120225Y6618427D01*
X9118955Y6610400D01*
X9116364Y6602069D01*
X9112402Y6593382D01*
X9109913Y6588861D01*
X9103918Y6579565D01*
X9096451Y6569760D01*
X9087561Y6559448D01*
X9077147Y6548577D01*
X9065260Y6537096D01*
X9051798Y6525006D01*
X9051798Y6515100D01*
X9143746Y6515100D01*
X9143746Y6529324D01*
X9095282Y6529222D01*
X9076690Y6528054D01*
X9087205Y6538214D01*
X9096857Y6548221D01*
X9105646Y6557975D01*
X9113469Y6567576D01*
X9120276Y6577075D01*
X9126016Y6586423D01*
X9130538Y6595668D01*
X9132366Y6600291D01*
X9133890Y6604863D01*
X9135059Y6609435D01*
X9135922Y6613956D01*
X9136481Y6618528D01*
X9136634Y6623050D01*
X9136278Y6629450D01*
X9135313Y6635445D01*
X9133687Y6640982D01*
X9131452Y6646062D01*
X9128607Y6650634D01*
X9125204Y6654647D01*
X9121241Y6658152D01*
X9116771Y6661099D01*
X9111792Y6663436D01*
X9106306Y6665112D01*
X9100362Y6666128D01*
G37*
G36*
X8656828Y6663944D02*
G01*
X8656828Y6650228D01*
X8699500Y6650228D01*
X8708034Y6649872D01*
X8715502Y6648754D01*
X8721902Y6646824D01*
X8727236Y6644030D01*
X8731402Y6640220D01*
X8734399Y6635445D01*
X8736228Y6629552D01*
X8736838Y6622542D01*
X8736228Y6615582D01*
X8734399Y6609588D01*
X8731402Y6604508D01*
X8727236Y6600393D01*
X8721902Y6597192D01*
X8715502Y6594906D01*
X8708034Y6593535D01*
X8699500Y6593078D01*
X8673592Y6593078D01*
X8673592Y6650228D01*
X8656828Y6650228D01*
X8656828Y6515100D01*
X8673592Y6515100D01*
X8673592Y6579362D01*
X8701532Y6579362D01*
X8738616Y6515100D01*
X8757412Y6515100D01*
X8719058Y6580886D01*
X8724188Y6582257D01*
X8728913Y6584035D01*
X8733332Y6586169D01*
X8737396Y6588658D01*
X8741003Y6591503D01*
X8744254Y6594754D01*
X8746998Y6598412D01*
X8749334Y6602425D01*
X8751163Y6606844D01*
X8752484Y6611670D01*
X8753348Y6616903D01*
X8753602Y6622542D01*
X8753144Y6629755D01*
X8751925Y6636207D01*
X8749842Y6641846D01*
X8746998Y6646824D01*
X8743492Y6651091D01*
X8739276Y6654647D01*
X8734450Y6657644D01*
X8729014Y6659981D01*
X8723071Y6661759D01*
X8716568Y6662978D01*
X8709660Y6663690D01*
X8702294Y6663944D01*
G37*
G36*
X8784082Y6663944D02*
G01*
X8784082Y6515100D01*
X8871204Y6515100D01*
X8871204Y6529324D01*
X8801100Y6529324D01*
X8801100Y6586474D01*
X8857996Y6586474D01*
X8857996Y6600698D01*
X8801100Y6600698D01*
X8801100Y6649720D01*
X8868918Y6649720D01*
X8868918Y6663944D01*
G37*
G36*
X8882380Y6663944D02*
G01*
X8930132Y6515100D01*
X8949436Y6515100D01*
X8997188Y6663944D01*
X8979916Y6663944D01*
X8942628Y6539026D01*
X8940546Y6532626D01*
X8939784Y6532626D01*
X8900160Y6663944D01*
G37*
G36*
X9264396Y6663944D02*
G01*
X9258147Y6660591D01*
X9251188Y6657797D01*
X9243263Y6655562D01*
X9234170Y6653784D01*
X9234170Y6642862D01*
X9260332Y6642862D01*
X9260332Y6528816D01*
X9227058Y6528816D01*
X9227058Y6515100D01*
X9307068Y6515100D01*
X9307068Y6528816D01*
X9276842Y6528816D01*
X9276842Y6663944D01*
G37*
G36*
X9181338Y6538976D02*
G01*
X9176613Y6538010D01*
X9172651Y6535318D01*
X9169908Y6531051D01*
X9168892Y6525514D01*
X9169908Y6520180D01*
X9172651Y6516065D01*
X9176613Y6513474D01*
X9181338Y6512559D01*
X9186214Y6513474D01*
X9190278Y6516065D01*
X9193022Y6520180D01*
X9194038Y6525514D01*
X9193022Y6531051D01*
X9190278Y6535267D01*
X9186214Y6538010D01*
G37*
G36*
X9372600Y6867398D02*
G01*
X9372600Y6725666D01*
X9373616Y6716014D01*
X9376867Y6708952D01*
X9382455Y6704533D01*
X9390634Y6703059D01*
X9396374Y6703415D01*
X9400540Y6704330D01*
X9398000Y6717284D01*
X9395714Y6716826D01*
X9394190Y6716775D01*
X9392208Y6717233D01*
X9390583Y6718604D01*
X9389516Y6720941D01*
X9389110Y6724396D01*
X9389110Y6867398D01*
G37*
G36*
X9621774Y6867398D02*
G01*
X9621774Y6824218D01*
X9622536Y6805168D01*
X9615271Y6810603D01*
X9608007Y6814718D01*
X9600133Y6817258D01*
X9591040Y6818122D01*
X9586366Y6817868D01*
X9581743Y6817106D01*
X9577273Y6815836D01*
X9572955Y6814058D01*
X9568840Y6811873D01*
X9564878Y6809181D01*
X9561169Y6806082D01*
X9557715Y6802526D01*
X9554565Y6798564D01*
X9551771Y6794246D01*
X9549282Y6789470D01*
X9547199Y6784390D01*
X9545523Y6778904D01*
X9544304Y6773062D01*
X9543542Y6766915D01*
X9543288Y6760464D01*
X9560560Y6760464D01*
X9560864Y6766712D01*
X9561728Y6772605D01*
X9563100Y6778091D01*
X9565030Y6783171D01*
X9567367Y6787794D01*
X9570161Y6791909D01*
X9573310Y6795516D01*
X9576866Y6798513D01*
X9580727Y6800951D01*
X9584842Y6802678D01*
X9589211Y6803796D01*
X9593834Y6804152D01*
X9600793Y6803440D01*
X9607600Y6801307D01*
X9614560Y6797497D01*
X9621774Y6791959D01*
X9621774Y6732524D01*
X9614560Y6725818D01*
X9607296Y6720992D01*
X9599828Y6718046D01*
X9592056Y6717030D01*
X9587230Y6717385D01*
X9582759Y6718401D01*
X9578644Y6720027D01*
X9574987Y6722313D01*
X9571685Y6725208D01*
X9568789Y6728663D01*
X9566300Y6732676D01*
X9564268Y6737248D01*
X9562642Y6742328D01*
X9561474Y6747916D01*
X9560814Y6753961D01*
X9560560Y6760464D01*
X9543288Y6760464D01*
X9543491Y6753758D01*
X9544100Y6747408D01*
X9545116Y6741464D01*
X9546488Y6735978D01*
X9548266Y6730847D01*
X9550349Y6726123D01*
X9552838Y6721805D01*
X9555632Y6717944D01*
X9558782Y6714490D01*
X9562185Y6711492D01*
X9565944Y6708952D01*
X9569958Y6706870D01*
X9574276Y6705193D01*
X9578848Y6704025D01*
X9583674Y6703314D01*
X9588754Y6703059D01*
X9593732Y6703364D01*
X9598507Y6704330D01*
X9603079Y6705752D01*
X9607448Y6707682D01*
X9611614Y6710019D01*
X9615525Y6712712D01*
X9619132Y6715658D01*
X9622536Y6718808D01*
X9623298Y6718808D01*
X9624568Y6705600D01*
X9638284Y6705600D01*
X9638284Y6867398D01*
G37*
G36*
X9825990Y6867398D02*
G01*
X9825990Y6728968D01*
X9842500Y6728968D01*
X9842500Y6788403D01*
X9850577Y6795160D01*
X9858349Y6800088D01*
X9865918Y6803136D01*
X9873234Y6804152D01*
X9878415Y6803796D01*
X9883089Y6802780D01*
X9887204Y6801053D01*
X9890861Y6798767D01*
X9894011Y6795871D01*
X9896652Y6792417D01*
X9898888Y6788454D01*
X9900666Y6783984D01*
X9902037Y6779056D01*
X9902952Y6773773D01*
X9903510Y6768033D01*
X9903714Y6761988D01*
X9903409Y6755282D01*
X9902596Y6749034D01*
X9901224Y6743293D01*
X9899396Y6738010D01*
X9897059Y6733286D01*
X9894316Y6729120D01*
X9891166Y6725513D01*
X9887661Y6722516D01*
X9883800Y6720179D01*
X9879584Y6718452D01*
X9875164Y6717385D01*
X9870440Y6717030D01*
X9864394Y6717639D01*
X9857536Y6719671D01*
X9850120Y6723329D01*
X9842500Y6728968D01*
X9825990Y6728968D01*
X9825990Y6705600D01*
X9838944Y6705600D01*
X9840976Y6717030D01*
X9841230Y6717030D01*
X9848951Y6711086D01*
X9857028Y6706717D01*
X9865106Y6703974D01*
X9872980Y6703059D01*
X9877704Y6703314D01*
X9882327Y6704075D01*
X9886848Y6705295D01*
X9891217Y6707022D01*
X9895382Y6709206D01*
X9899345Y6711848D01*
X9903053Y6714998D01*
X9906508Y6718553D01*
X9909657Y6722567D01*
X9912502Y6726986D01*
X9914991Y6731863D01*
X9917074Y6737146D01*
X9918750Y6742836D01*
X9919970Y6748881D01*
X9920732Y6755384D01*
X9920986Y6762242D01*
X9920782Y6768439D01*
X9920274Y6774332D01*
X9919411Y6779920D01*
X9918141Y6785203D01*
X9916566Y6790181D01*
X9914636Y6794753D01*
X9912400Y6799021D01*
X9909759Y6802831D01*
X9906812Y6806285D01*
X9903561Y6809333D01*
X9899954Y6811975D01*
X9896043Y6814159D01*
X9891776Y6815836D01*
X9887153Y6817106D01*
X9882276Y6817868D01*
X9877044Y6818122D01*
X9872319Y6817817D01*
X9867646Y6816852D01*
X9863023Y6815429D01*
X9858552Y6813499D01*
X9854133Y6811162D01*
X9849866Y6808470D01*
X9845700Y6805523D01*
X9841738Y6802374D01*
X9842500Y6822440D01*
X9842500Y6867398D01*
G37*
G36*
X8693912Y6854444D02*
G01*
X8693912Y6750050D01*
X8693505Y6742125D01*
X8692388Y6735368D01*
X8690508Y6729780D01*
X8687816Y6725361D01*
X8684361Y6721957D01*
X8680196Y6719620D01*
X8675268Y6718249D01*
X8669528Y6717792D01*
X8661603Y6718706D01*
X8654592Y6721602D01*
X8648446Y6726783D01*
X8643112Y6734556D01*
X8630920Y6726174D01*
X8634272Y6720789D01*
X8638133Y6716115D01*
X8642400Y6712153D01*
X8647125Y6708902D01*
X8652357Y6706362D01*
X8658047Y6704533D01*
X8664194Y6703415D01*
X8670798Y6703059D01*
X8677605Y6703466D01*
X8683752Y6704685D01*
X8689187Y6706616D01*
X8693962Y6709257D01*
X8698077Y6712508D01*
X8701633Y6716369D01*
X8704529Y6720738D01*
X8706916Y6725564D01*
X8708694Y6730796D01*
X8709964Y6736435D01*
X8710676Y6742328D01*
X8710930Y6748525D01*
X8710930Y6854444D01*
G37*
G36*
X8751824Y6854444D02*
G01*
X8751824Y6840474D01*
X8786876Y6840474D01*
X8793429Y6840220D01*
X8799525Y6839458D01*
X8805214Y6838188D01*
X8810447Y6836460D01*
X8815273Y6834225D01*
X8819692Y6831533D01*
X8823655Y6828383D01*
X8827211Y6824776D01*
X8830310Y6820712D01*
X8833002Y6816242D01*
X8835288Y6811314D01*
X8837168Y6805980D01*
X8838590Y6800189D01*
X8839657Y6794042D01*
X8840266Y6787489D01*
X8840470Y6780530D01*
X8840266Y6773621D01*
X8839657Y6767017D01*
X8838590Y6760819D01*
X8837168Y6754977D01*
X8835288Y6749542D01*
X8833002Y6744512D01*
X8830310Y6739890D01*
X8827211Y6735724D01*
X8823655Y6731965D01*
X8819692Y6728714D01*
X8815273Y6725869D01*
X8810447Y6723583D01*
X8805214Y6721703D01*
X8799525Y6720382D01*
X8793429Y6719570D01*
X8786876Y6719316D01*
X8768588Y6719316D01*
X8768588Y6840474D01*
X8751824Y6840474D01*
X8751824Y6705600D01*
X8788908Y6705600D01*
X8795512Y6705803D01*
X8801811Y6706412D01*
X8807805Y6707479D01*
X8813444Y6708902D01*
X8818727Y6710730D01*
X8823706Y6712966D01*
X8828379Y6715556D01*
X8832646Y6718503D01*
X8836660Y6721856D01*
X8840266Y6725564D01*
X8843568Y6729577D01*
X8846515Y6733946D01*
X8849156Y6738670D01*
X8851442Y6743750D01*
X8853322Y6749084D01*
X8854948Y6754774D01*
X8856167Y6760768D01*
X8857030Y6767068D01*
X8857589Y6773672D01*
X8857742Y6780530D01*
X8857589Y6787388D01*
X8857030Y6793941D01*
X8856167Y6800240D01*
X8854897Y6806184D01*
X8853322Y6811772D01*
X8851392Y6817106D01*
X8849106Y6822084D01*
X8846515Y6826758D01*
X8843518Y6831025D01*
X8840216Y6835038D01*
X8836558Y6838645D01*
X8832545Y6841896D01*
X8828227Y6844792D01*
X8823553Y6847331D01*
X8818524Y6849465D01*
X8813190Y6851243D01*
X8807500Y6852615D01*
X8801455Y6853631D01*
X8795105Y6854240D01*
X8788400Y6854444D01*
G37*
G36*
X8890508Y6854444D02*
G01*
X8890508Y6705600D01*
X8905748Y6705600D01*
X8905697Y6796430D01*
X8904681Y6818630D01*
X8903716Y6834631D01*
X8904478Y6834631D01*
X8916416Y6800850D01*
X8945626Y6720840D01*
X8957056Y6720840D01*
X8986266Y6800850D01*
X8997950Y6834631D01*
X8998712Y6834631D01*
X8996883Y6801713D01*
X8996680Y6791452D01*
X8996680Y6705600D01*
X9012428Y6705600D01*
X9012428Y6854444D01*
X8991600Y6854444D01*
X8962644Y6773164D01*
X8952230Y6741414D01*
X8951214Y6741414D01*
X8940546Y6773164D01*
X8911336Y6854444D01*
G37*
G36*
X9099296Y6854444D02*
G01*
X9099296Y6705600D01*
X9114536Y6705600D01*
X9114485Y6796430D01*
X9113469Y6818630D01*
X9112504Y6834631D01*
X9113266Y6834631D01*
X9124950Y6800850D01*
X9154160Y6720840D01*
X9165844Y6720840D01*
X9194800Y6800850D01*
X9206738Y6834631D01*
X9207500Y6834631D01*
X9205671Y6801713D01*
X9205468Y6791452D01*
X9205468Y6705600D01*
X9221216Y6705600D01*
X9221216Y6854444D01*
X9200388Y6854444D01*
X9171432Y6773164D01*
X9161018Y6741414D01*
X9160002Y6741414D01*
X9149080Y6773164D01*
X9119870Y6854444D01*
G37*
G36*
X9301480Y6818122D02*
G01*
X9296806Y6817868D01*
X9292183Y6817106D01*
X9287662Y6815836D01*
X9283242Y6814108D01*
X9279026Y6811924D01*
X9275013Y6809231D01*
X9271203Y6806133D01*
X9267647Y6802628D01*
X9264446Y6798665D01*
X9261500Y6794347D01*
X9258960Y6789572D01*
X9256776Y6784492D01*
X9255048Y6779006D01*
X9253778Y6773164D01*
X9253245Y6769100D01*
X9268968Y6769100D01*
X9270288Y6777024D01*
X9272676Y6784086D01*
X9275927Y6790181D01*
X9279991Y6795262D01*
X9284766Y6799325D01*
X9290050Y6802272D01*
X9295739Y6804050D01*
X9301734Y6804659D01*
X9308134Y6804101D01*
X9313773Y6802374D01*
X9318650Y6799580D01*
X9322714Y6795668D01*
X9325914Y6790639D01*
X9328251Y6784492D01*
X9329674Y6777329D01*
X9330182Y6769100D01*
X9253245Y6769100D01*
X9252966Y6766966D01*
X9252712Y6760464D01*
X9252966Y6753859D01*
X9253778Y6747662D01*
X9255048Y6741769D01*
X9256776Y6736283D01*
X9258960Y6731152D01*
X9261551Y6726428D01*
X9264497Y6722160D01*
X9267850Y6718249D01*
X9271508Y6714744D01*
X9275521Y6711696D01*
X9279788Y6709105D01*
X9284309Y6706971D01*
X9289084Y6705244D01*
X9294063Y6704025D01*
X9299194Y6703314D01*
X9304528Y6703059D01*
X9310065Y6703314D01*
X9315246Y6703923D01*
X9320072Y6704990D01*
X9324644Y6706362D01*
X9328962Y6708038D01*
X9333026Y6709918D01*
X9340596Y6714236D01*
X9334500Y6725158D01*
X9328251Y6721398D01*
X9321596Y6718604D01*
X9314383Y6716877D01*
X9306560Y6716268D01*
X9301226Y6716623D01*
X9296247Y6717588D01*
X9291624Y6719163D01*
X9287306Y6721398D01*
X9283446Y6724142D01*
X9279940Y6727444D01*
X9276892Y6731253D01*
X9274302Y6735521D01*
X9272219Y6740245D01*
X9270593Y6745427D01*
X9269526Y6750964D01*
X9268968Y6756908D01*
X9344152Y6756908D01*
X9344710Y6761378D01*
X9344914Y6766814D01*
X9344558Y6774484D01*
X9343593Y6781647D01*
X9341967Y6788200D01*
X9339732Y6794246D01*
X9336887Y6799630D01*
X9333484Y6804355D01*
X9329470Y6808470D01*
X9324949Y6811873D01*
X9319818Y6814566D01*
X9314230Y6816547D01*
X9308084Y6817715D01*
G37*
G36*
X9471152Y6818122D02*
G01*
X9466173Y6817868D01*
X9461347Y6817156D01*
X9456623Y6815937D01*
X9452051Y6814261D01*
X9447682Y6812127D01*
X9443516Y6809536D01*
X9439605Y6806488D01*
X9435998Y6802983D01*
X9432696Y6799122D01*
X9429750Y6794804D01*
X9427159Y6790029D01*
X9424974Y6784898D01*
X9423196Y6779361D01*
X9421926Y6773418D01*
X9421114Y6767118D01*
X9420860Y6760464D01*
X9437878Y6760464D01*
X9438182Y6766763D01*
X9438995Y6772706D01*
X9440316Y6778244D01*
X9442145Y6783324D01*
X9444431Y6787896D01*
X9447174Y6792010D01*
X9450324Y6795566D01*
X9453829Y6798564D01*
X9457690Y6800951D01*
X9461906Y6802729D01*
X9466376Y6803796D01*
X9471152Y6804152D01*
X9475978Y6803796D01*
X9480499Y6802729D01*
X9484766Y6800951D01*
X9488627Y6798564D01*
X9492183Y6795566D01*
X9495332Y6792010D01*
X9498076Y6787896D01*
X9500412Y6783324D01*
X9502241Y6778244D01*
X9503562Y6772706D01*
X9504375Y6766763D01*
X9504680Y6760464D01*
X9504375Y6754114D01*
X9503562Y6748119D01*
X9502241Y6742582D01*
X9500412Y6737502D01*
X9498076Y6732879D01*
X9495332Y6728815D01*
X9492183Y6725259D01*
X9488627Y6722313D01*
X9484766Y6719925D01*
X9480499Y6718198D01*
X9475978Y6717131D01*
X9471152Y6716775D01*
X9466376Y6717131D01*
X9461906Y6718198D01*
X9457690Y6719925D01*
X9453829Y6722313D01*
X9450324Y6725259D01*
X9447174Y6728815D01*
X9444431Y6732879D01*
X9442145Y6737502D01*
X9440316Y6742582D01*
X9438995Y6748119D01*
X9438182Y6754114D01*
X9437878Y6760464D01*
X9420860Y6760464D01*
X9421114Y6753809D01*
X9421926Y6747560D01*
X9423196Y6741668D01*
X9424974Y6736181D01*
X9427159Y6731050D01*
X9429750Y6726326D01*
X9432696Y6722008D01*
X9435998Y6718147D01*
X9439605Y6714693D01*
X9443516Y6711645D01*
X9447682Y6709054D01*
X9452051Y6706920D01*
X9456623Y6705244D01*
X9461347Y6704025D01*
X9466173Y6703314D01*
X9471152Y6703059D01*
X9476181Y6703314D01*
X9481058Y6704025D01*
X9485833Y6705244D01*
X9490456Y6706920D01*
X9494875Y6709054D01*
X9499041Y6711645D01*
X9503003Y6714693D01*
X9506661Y6718147D01*
X9509963Y6722008D01*
X9512960Y6726326D01*
X9515602Y6731050D01*
X9517786Y6736181D01*
X9519564Y6741668D01*
X9520885Y6747560D01*
X9521698Y6753809D01*
X9521952Y6760464D01*
X9521698Y6767118D01*
X9520885Y6773418D01*
X9519564Y6779361D01*
X9517786Y6784898D01*
X9515602Y6790029D01*
X9512960Y6794804D01*
X9509963Y6799122D01*
X9506661Y6803034D01*
X9503003Y6806488D01*
X9499041Y6809536D01*
X9494875Y6812127D01*
X9490456Y6814261D01*
X9485833Y6815937D01*
X9481058Y6817156D01*
X9476181Y6817868D01*
G37*
G36*
X9992614Y6818122D02*
G01*
X9987635Y6817868D01*
X9982809Y6817156D01*
X9978085Y6815937D01*
X9973513Y6814261D01*
X9969144Y6812127D01*
X9964978Y6809536D01*
X9961067Y6806488D01*
X9957460Y6802983D01*
X9954158Y6799122D01*
X9951212Y6794804D01*
X9948621Y6790029D01*
X9946436Y6784898D01*
X9944658Y6779361D01*
X9943388Y6773418D01*
X9942576Y6767118D01*
X9942322Y6760464D01*
X9959340Y6760464D01*
X9959644Y6766763D01*
X9960457Y6772706D01*
X9961778Y6778244D01*
X9963607Y6783324D01*
X9965893Y6787896D01*
X9968636Y6792010D01*
X9971786Y6795566D01*
X9975291Y6798564D01*
X9979152Y6800951D01*
X9983368Y6802729D01*
X9987838Y6803796D01*
X9992614Y6804152D01*
X9997440Y6803796D01*
X10001961Y6802729D01*
X10006228Y6800951D01*
X10010089Y6798564D01*
X10013645Y6795566D01*
X10016794Y6792010D01*
X10019538Y6787896D01*
X10021874Y6783324D01*
X10023703Y6778244D01*
X10025024Y6772706D01*
X10025837Y6766763D01*
X10026142Y6760464D01*
X10025837Y6754114D01*
X10025024Y6748119D01*
X10023703Y6742582D01*
X10021874Y6737502D01*
X10019538Y6732879D01*
X10016794Y6728815D01*
X10013645Y6725259D01*
X10010089Y6722313D01*
X10006228Y6719925D01*
X10001961Y6718198D01*
X9997440Y6717131D01*
X9992614Y6716775D01*
X9987838Y6717131D01*
X9983368Y6718198D01*
X9979152Y6719925D01*
X9975291Y6722313D01*
X9971786Y6725259D01*
X9968636Y6728815D01*
X9965893Y6732879D01*
X9963607Y6737502D01*
X9961778Y6742582D01*
X9960457Y6748119D01*
X9959644Y6754114D01*
X9959340Y6760464D01*
X9942322Y6760464D01*
X9942576Y6753809D01*
X9943388Y6747560D01*
X9944658Y6741668D01*
X9946436Y6736181D01*
X9948621Y6731050D01*
X9951212Y6726326D01*
X9954158Y6722008D01*
X9957460Y6718147D01*
X9961067Y6714693D01*
X9964978Y6711645D01*
X9969144Y6709054D01*
X9973513Y6706920D01*
X9978085Y6705244D01*
X9982809Y6704025D01*
X9987635Y6703314D01*
X9992614Y6703059D01*
X9997643Y6703314D01*
X10002520Y6704025D01*
X10007295Y6705244D01*
X10011867Y6706920D01*
X10016286Y6709054D01*
X10020452Y6711645D01*
X10024364Y6714693D01*
X10027970Y6718147D01*
X10031272Y6722008D01*
X10034270Y6726326D01*
X10036860Y6731050D01*
X10039045Y6736181D01*
X10040823Y6741668D01*
X10042093Y6747560D01*
X10042906Y6753809D01*
X10043160Y6760464D01*
X10042906Y6767118D01*
X10042093Y6773418D01*
X10040823Y6779361D01*
X10039045Y6784898D01*
X10036860Y6790029D01*
X10034270Y6794804D01*
X10031272Y6799122D01*
X10027970Y6803034D01*
X10024364Y6806488D01*
X10020452Y6809536D01*
X10016286Y6812127D01*
X10011867Y6814261D01*
X10007295Y6815937D01*
X10002520Y6817156D01*
X9997643Y6817868D01*
G37*
G36*
X9660128Y6815328D02*
G01*
X9704324Y6705092D01*
X9701784Y6696456D01*
X9699802Y6691325D01*
X9697516Y6686550D01*
X9694926Y6682333D01*
X9691928Y6678675D01*
X9688626Y6675678D01*
X9684918Y6673443D01*
X9680854Y6672072D01*
X9676384Y6671564D01*
X9674047Y6671716D01*
X9667748Y6673342D01*
X9664192Y6659880D01*
X9666986Y6658864D01*
X9670084Y6658152D01*
X9673386Y6657746D01*
X9676892Y6657594D01*
X9682022Y6657949D01*
X9686747Y6658965D01*
X9691116Y6660591D01*
X9695129Y6662775D01*
X9698837Y6665518D01*
X9702190Y6668719D01*
X9705289Y6672325D01*
X9708083Y6676390D01*
X9710623Y6680758D01*
X9712960Y6685381D01*
X9715093Y6690309D01*
X9717024Y6695440D01*
X9758680Y6815328D01*
X9742424Y6815328D01*
X9719767Y6745071D01*
X9712706Y6721602D01*
X9711690Y6721602D01*
X9706051Y6737197D01*
X9700768Y6752590D01*
X9677400Y6815328D01*
G37*
G36*
X10056114Y6815328D02*
G01*
X10089642Y6763003D01*
X10053320Y6705600D01*
X10070592Y6705600D01*
X10095026Y6747256D01*
X10098024Y6752081D01*
X10099040Y6752081D01*
X10110978Y6732270D01*
X10127742Y6705600D01*
X10145776Y6705600D01*
X10109708Y6761225D01*
X10142982Y6815328D01*
X10125964Y6815328D01*
X10111486Y6790436D01*
X10101326Y6772148D01*
X10100564Y6772148D01*
X10073894Y6815328D01*
G37*
G36*
X3246120Y5536184D02*
G01*
X3240481Y5535777D01*
X3235096Y5534609D01*
X3229914Y5532678D01*
X3225088Y5530037D01*
X3220618Y5526786D01*
X3216605Y5522823D01*
X3213049Y5518353D01*
X3210001Y5513273D01*
X3207562Y5507685D01*
X3205734Y5501589D01*
X3204616Y5495086D01*
X3204210Y5488178D01*
X3220212Y5488178D01*
X3220720Y5495645D01*
X3222193Y5502452D01*
X3224530Y5508396D01*
X3227628Y5513527D01*
X3231438Y5517642D01*
X3235858Y5520690D01*
X3240786Y5522569D01*
X3246120Y5523230D01*
X3250946Y5522874D01*
X3255467Y5521807D01*
X3259582Y5519978D01*
X3263341Y5517540D01*
X3266744Y5514390D01*
X3269742Y5510580D01*
X3272383Y5506110D01*
X3274618Y5500979D01*
X3276498Y5495239D01*
X3277920Y5488940D01*
X3278987Y5481980D01*
X3279648Y5474462D01*
X3275838Y5469432D01*
X3271875Y5465114D01*
X3267862Y5461609D01*
X3263747Y5458764D01*
X3259632Y5456580D01*
X3255517Y5455056D01*
X3251504Y5454192D01*
X3247644Y5453888D01*
X3241141Y5454497D01*
X3235553Y5456377D01*
X3230829Y5459323D01*
X3226968Y5463336D01*
X3224022Y5468264D01*
X3221888Y5474157D01*
X3220618Y5480812D01*
X3220212Y5488178D01*
X3204210Y5488178D01*
X3204514Y5480812D01*
X3205530Y5474055D01*
X3207105Y5467908D01*
X3209290Y5462422D01*
X3212033Y5457545D01*
X3215284Y5453278D01*
X3219094Y5449671D01*
X3223361Y5446725D01*
X3228086Y5444439D01*
X3233267Y5442762D01*
X3238855Y5441797D01*
X3244850Y5441442D01*
X3249676Y5441797D01*
X3254451Y5442813D01*
X3259175Y5444439D01*
X3263696Y5446674D01*
X3268116Y5449417D01*
X3272282Y5452668D01*
X3276244Y5456377D01*
X3279901Y5460492D01*
X3279444Y5451856D01*
X3278632Y5443931D01*
X3277463Y5436717D01*
X3276041Y5430164D01*
X3274263Y5424271D01*
X3272231Y5418988D01*
X3269996Y5414314D01*
X3267506Y5410250D01*
X3264763Y5406694D01*
X3261867Y5403748D01*
X3258820Y5401259D01*
X3255568Y5399328D01*
X3252215Y5397804D01*
X3248761Y5396788D01*
X3245205Y5396179D01*
X3241548Y5395976D01*
X3234436Y5396788D01*
X3227730Y5399074D01*
X3221634Y5402732D01*
X3216402Y5407660D01*
X3207004Y5396992D01*
X3210204Y5393893D01*
X3213709Y5391048D01*
X3217519Y5388559D01*
X3221685Y5386374D01*
X3226206Y5384647D01*
X3231083Y5383326D01*
X3236366Y5382514D01*
X3242056Y5382260D01*
X3246170Y5382412D01*
X3250285Y5382971D01*
X3254298Y5383834D01*
X3258210Y5385104D01*
X3262071Y5386781D01*
X3265779Y5388864D01*
X3269386Y5391302D01*
X3272790Y5394198D01*
X3276041Y5397550D01*
X3279089Y5401310D01*
X3281984Y5405526D01*
X3284575Y5410250D01*
X3286963Y5415432D01*
X3289096Y5421071D01*
X3290976Y5427268D01*
X3292500Y5433974D01*
X3293719Y5441188D01*
X3294634Y5448909D01*
X3295192Y5457240D01*
X3295396Y5466080D01*
X3295142Y5474512D01*
X3294430Y5482437D01*
X3293313Y5489803D01*
X3291738Y5496661D01*
X3289757Y5502960D01*
X3287369Y5508701D01*
X3284626Y5513882D01*
X3281527Y5518556D01*
X3278073Y5522671D01*
X3274314Y5526278D01*
X3270250Y5529275D01*
X3265932Y5531764D01*
X3261309Y5533694D01*
X3256483Y5535066D01*
X3251403Y5535930D01*
G37*
G36*
X3470910Y5536184D02*
G01*
X3464712Y5535828D01*
X3458819Y5534863D01*
X3453282Y5533237D01*
X3448050Y5531154D01*
X3443071Y5528564D01*
X3438398Y5525566D01*
X3433978Y5522264D01*
X3429762Y5518658D01*
X3438906Y5507990D01*
X3445611Y5513781D01*
X3453079Y5518404D01*
X3461308Y5521502D01*
X3470148Y5522722D01*
X3475939Y5522214D01*
X3481070Y5520842D01*
X3485591Y5518708D01*
X3489350Y5515813D01*
X3492296Y5512308D01*
X3494532Y5508091D01*
X3495852Y5503367D01*
X3496310Y5498084D01*
X3496056Y5494020D01*
X3495344Y5490159D01*
X3494125Y5486501D01*
X3492347Y5483098D01*
X3489960Y5479999D01*
X3486962Y5477154D01*
X3483356Y5474665D01*
X3479037Y5472582D01*
X3474008Y5470906D01*
X3468268Y5469636D01*
X3461715Y5468874D01*
X3454400Y5468620D01*
X3454400Y5455666D01*
X3462578Y5455412D01*
X3469894Y5454650D01*
X3476345Y5453430D01*
X3481984Y5451754D01*
X3486861Y5449671D01*
X3490976Y5447131D01*
X3494379Y5444286D01*
X3497072Y5441035D01*
X3499104Y5437428D01*
X3500526Y5433568D01*
X3501390Y5429402D01*
X3501644Y5424932D01*
X3501034Y5418582D01*
X3499307Y5412892D01*
X3496513Y5407964D01*
X3492804Y5403799D01*
X3488232Y5400446D01*
X3482898Y5398008D01*
X3476904Y5396484D01*
X3470401Y5395976D01*
X3464102Y5396331D01*
X3458362Y5397449D01*
X3453129Y5399074D01*
X3448354Y5401259D01*
X3443986Y5403900D01*
X3439972Y5406796D01*
X3436264Y5409946D01*
X3432810Y5413248D01*
X3424428Y5402580D01*
X3428187Y5398719D01*
X3432505Y5395010D01*
X3437331Y5391556D01*
X3442766Y5388508D01*
X3448862Y5385968D01*
X3455670Y5383987D01*
X3463137Y5382717D01*
X3471418Y5382260D01*
X3477818Y5382564D01*
X3483965Y5383530D01*
X3489756Y5385155D01*
X3495141Y5387340D01*
X3500120Y5390083D01*
X3504590Y5393436D01*
X3508501Y5397347D01*
X3511854Y5401767D01*
X3514547Y5406694D01*
X3516528Y5412130D01*
X3517747Y5418023D01*
X3518154Y5424424D01*
X3517493Y5431790D01*
X3515664Y5438495D01*
X3512718Y5444439D01*
X3508857Y5449671D01*
X3504133Y5454091D01*
X3498748Y5457748D01*
X3492804Y5460542D01*
X3486404Y5462524D01*
X3486404Y5463286D01*
X3492144Y5465673D01*
X3497326Y5468670D01*
X3501898Y5472277D01*
X3505758Y5476443D01*
X3508857Y5481269D01*
X3511143Y5486704D01*
X3512565Y5492699D01*
X3513074Y5499354D01*
X3512718Y5504992D01*
X3511651Y5510174D01*
X3509924Y5514949D01*
X3507536Y5519267D01*
X3504641Y5523128D01*
X3501136Y5526532D01*
X3497122Y5529427D01*
X3492703Y5531815D01*
X3487775Y5533694D01*
X3482492Y5535066D01*
X3476853Y5535930D01*
G37*
G36*
X3363468Y5535676D02*
G01*
X3357879Y5535371D01*
X3352546Y5534456D01*
X3347567Y5532932D01*
X3342894Y5530900D01*
X3338626Y5528310D01*
X3334816Y5525262D01*
X3331464Y5521756D01*
X3328670Y5517743D01*
X3326384Y5513374D01*
X3324707Y5508650D01*
X3323691Y5503519D01*
X3323336Y5498084D01*
X3338576Y5498084D01*
X3339033Y5503468D01*
X3340404Y5508345D01*
X3342640Y5512612D01*
X3345586Y5516270D01*
X3349142Y5519216D01*
X3353358Y5521401D01*
X3358083Y5522772D01*
X3363214Y5523230D01*
X3369056Y5522671D01*
X3374288Y5521045D01*
X3378758Y5518505D01*
X3382467Y5515152D01*
X3385464Y5511038D01*
X3387598Y5506415D01*
X3388918Y5501284D01*
X3389376Y5495798D01*
X3388360Y5487365D01*
X3385261Y5479338D01*
X3380181Y5471820D01*
X3373120Y5464810D01*
X3366515Y5467451D01*
X3360216Y5470347D01*
X3354374Y5473547D01*
X3349193Y5477154D01*
X3344824Y5481320D01*
X3341471Y5486146D01*
X3339337Y5491683D01*
X3338576Y5498084D01*
X3323336Y5498084D01*
X3323742Y5492496D01*
X3324961Y5487263D01*
X3326892Y5482437D01*
X3329381Y5478018D01*
X3332378Y5473954D01*
X3335782Y5470296D01*
X3339490Y5466994D01*
X3343401Y5464048D01*
X3343401Y5463286D01*
X3338322Y5460238D01*
X3333394Y5456529D01*
X3328720Y5452262D01*
X3324504Y5447334D01*
X3320948Y5441848D01*
X3318154Y5435803D01*
X3316376Y5429097D01*
X3315809Y5422900D01*
X3330956Y5422900D01*
X3331362Y5428386D01*
X3332530Y5433568D01*
X3334410Y5438495D01*
X3336950Y5443118D01*
X3340049Y5447334D01*
X3343706Y5451246D01*
X3347821Y5454802D01*
X3352292Y5457952D01*
X3362807Y5453634D01*
X3372408Y5449062D01*
X3376777Y5446572D01*
X3380689Y5443880D01*
X3384194Y5440934D01*
X3387191Y5437682D01*
X3389629Y5434126D01*
X3391408Y5430164D01*
X3392525Y5425744D01*
X3392932Y5420868D01*
X3392373Y5415381D01*
X3390798Y5410301D01*
X3388207Y5405831D01*
X3384753Y5401970D01*
X3380435Y5398770D01*
X3375355Y5396433D01*
X3369614Y5394960D01*
X3363214Y5394452D01*
X3356508Y5395010D01*
X3350361Y5396636D01*
X3344875Y5399176D01*
X3340150Y5402580D01*
X3336290Y5406745D01*
X3333394Y5411622D01*
X3331565Y5417007D01*
X3330956Y5422900D01*
X3315809Y5422900D01*
X3315715Y5421884D01*
X3316122Y5416245D01*
X3317341Y5410911D01*
X3319272Y5405932D01*
X3321913Y5401360D01*
X3325215Y5397144D01*
X3329127Y5393385D01*
X3333648Y5390134D01*
X3338626Y5387390D01*
X3344113Y5385206D01*
X3350006Y5383580D01*
X3356305Y5382615D01*
X3362960Y5382260D01*
X3369614Y5382615D01*
X3375914Y5383580D01*
X3381705Y5385206D01*
X3387090Y5387390D01*
X3391915Y5390134D01*
X3396234Y5393334D01*
X3399993Y5396941D01*
X3403092Y5401005D01*
X3405632Y5405424D01*
X3407410Y5410149D01*
X3408578Y5415127D01*
X3408934Y5420360D01*
X3408375Y5427573D01*
X3406851Y5433974D01*
X3404412Y5439664D01*
X3401212Y5444693D01*
X3397453Y5449112D01*
X3393186Y5453024D01*
X3388563Y5456428D01*
X3383787Y5459476D01*
X3383787Y5460492D01*
X3387140Y5463387D01*
X3390544Y5466791D01*
X3393948Y5470753D01*
X3397046Y5475173D01*
X3399790Y5480050D01*
X3401923Y5485231D01*
X3403346Y5490768D01*
X3403854Y5496560D01*
X3403549Y5502148D01*
X3402584Y5507380D01*
X3401060Y5512308D01*
X3398977Y5516880D01*
X3396284Y5520994D01*
X3393084Y5524703D01*
X3389376Y5527903D01*
X3385108Y5530596D01*
X3380384Y5532780D01*
X3375202Y5534355D01*
X3369564Y5535320D01*
G37*
G36*
X2814828Y5533644D02*
G01*
X2814828Y5384800D01*
X2830068Y5384800D01*
X2830017Y5475630D01*
X2829001Y5497830D01*
X2828036Y5513832D01*
X2828798Y5513832D01*
X2840482Y5480050D01*
X2869692Y5400040D01*
X2881376Y5400040D01*
X2910332Y5480050D01*
X2922270Y5513832D01*
X2923032Y5513832D01*
X2921203Y5480913D01*
X2921000Y5470652D01*
X2921000Y5384800D01*
X2936748Y5384800D01*
X2936748Y5533644D01*
X2915920Y5533644D01*
X2886964Y5452364D01*
X2876550Y5420614D01*
X2875534Y5420614D01*
X2864612Y5452364D01*
X2835402Y5533644D01*
G37*
G36*
X3009138Y5533644D02*
G01*
X2978883Y5444998D01*
X2994660Y5444998D01*
X3010357Y5493969D01*
X3017774Y5519420D01*
X3018536Y5519420D01*
X3029864Y5481624D01*
X3034030Y5469128D01*
X3041650Y5444998D01*
X2978883Y5444998D01*
X2958338Y5384800D01*
X2975356Y5384800D01*
X2990596Y5431790D01*
X3045968Y5431790D01*
X3060700Y5384800D01*
X3078734Y5384800D01*
X3027680Y5533644D01*
G37*
G36*
X3087116Y5533644D02*
G01*
X3127756Y5461508D01*
X3084322Y5384800D01*
X3101848Y5384800D01*
X3124454Y5426202D01*
X3136646Y5450332D01*
X3137408Y5450332D01*
X3150362Y5426202D01*
X3173222Y5384800D01*
X3191764Y5384800D01*
X3148076Y5460746D01*
X3188716Y5533644D01*
X3171444Y5533644D01*
X3147568Y5489092D01*
X3139694Y5472684D01*
X3138678Y5472684D01*
X3132429Y5484114D01*
X3126740Y5494020D01*
X3105658Y5533644D01*
G37*
G36*
X3552190Y5533644D02*
G01*
X3547364Y5464556D01*
X3556508Y5458714D01*
X3562705Y5462574D01*
X3568649Y5465368D01*
X3574846Y5467045D01*
X3581908Y5467604D01*
X3588816Y5466994D01*
X3595014Y5465216D01*
X3600450Y5462270D01*
X3605022Y5458256D01*
X3608679Y5453227D01*
X3611422Y5447233D01*
X3613099Y5440324D01*
X3613658Y5432552D01*
X3612997Y5424576D01*
X3611067Y5417413D01*
X3608070Y5411165D01*
X3604056Y5405882D01*
X3599179Y5401665D01*
X3593642Y5398566D01*
X3587496Y5396636D01*
X3580892Y5395976D01*
X3574643Y5396331D01*
X3568903Y5397398D01*
X3563721Y5399024D01*
X3558997Y5401106D01*
X3554729Y5403646D01*
X3550767Y5406491D01*
X3547160Y5409539D01*
X3543808Y5412740D01*
X3535426Y5401818D01*
X3539337Y5398109D01*
X3543706Y5394604D01*
X3548532Y5391251D01*
X3553968Y5388305D01*
X3560013Y5385816D01*
X3566718Y5383936D01*
X3574186Y5382717D01*
X3582415Y5382260D01*
X3588512Y5382615D01*
X3594506Y5383784D01*
X3600297Y5385612D01*
X3605834Y5388203D01*
X3610965Y5391505D01*
X3615639Y5395468D01*
X3619855Y5400141D01*
X3623462Y5405424D01*
X3626408Y5411419D01*
X3628593Y5418023D01*
X3629964Y5425236D01*
X3630422Y5433060D01*
X3630015Y5440883D01*
X3628847Y5447944D01*
X3626916Y5454294D01*
X3624326Y5459933D01*
X3621125Y5464860D01*
X3617366Y5469077D01*
X3613048Y5472633D01*
X3608324Y5475528D01*
X3603193Y5477764D01*
X3597706Y5479338D01*
X3591966Y5480253D01*
X3585972Y5480558D01*
X3579368Y5480100D01*
X3573424Y5478830D01*
X3567937Y5476798D01*
X3562604Y5474208D01*
X3566668Y5519420D01*
X3623310Y5519420D01*
X3623310Y5533644D01*
G37*
G36*
X3651250Y5533644D02*
G01*
X3651250Y5519420D01*
X3724148Y5519420D01*
X3717239Y5509310D01*
X3711041Y5499303D01*
X3705606Y5489295D01*
X3700779Y5479237D01*
X3696614Y5468924D01*
X3693058Y5458409D01*
X3690061Y5447487D01*
X3687572Y5436158D01*
X3685540Y5424322D01*
X3683965Y5411876D01*
X3682796Y5398719D01*
X3681984Y5384800D01*
X3699256Y5384800D01*
X3699967Y5398871D01*
X3700983Y5412130D01*
X3702253Y5424678D01*
X3703980Y5436616D01*
X3706215Y5448046D01*
X3709060Y5459069D01*
X3712565Y5469890D01*
X3716883Y5480456D01*
X3722014Y5491022D01*
X3728110Y5501640D01*
X3731514Y5507024D01*
X3739184Y5517896D01*
X3743451Y5523484D01*
X3743451Y5533644D01*
G37*
G36*
X3804665Y5533644D02*
G01*
X3774411Y5444998D01*
X3790187Y5444998D01*
X3805885Y5493969D01*
X3813301Y5519420D01*
X3814064Y5519420D01*
X3825392Y5481624D01*
X3829558Y5469128D01*
X3837178Y5444998D01*
X3774411Y5444998D01*
X3753865Y5384800D01*
X3770884Y5384800D01*
X3786124Y5431790D01*
X3841496Y5431790D01*
X3856228Y5384800D01*
X3874262Y5384800D01*
X3823208Y5533644D01*
G37*
G36*
X7376922Y6579362D02*
G01*
X7369809Y6579158D01*
X7363053Y6578549D01*
X7356551Y6577584D01*
X7350404Y6576212D01*
X7344562Y6574485D01*
X7339025Y6572402D01*
X7333843Y6569964D01*
X7328966Y6567220D01*
X7324496Y6564172D01*
X7320330Y6560769D01*
X7316571Y6557111D01*
X7313168Y6553200D01*
X7310120Y6548983D01*
X7307478Y6544513D01*
X7305192Y6539839D01*
X7303312Y6534861D01*
X7301890Y6529730D01*
X7300823Y6524345D01*
X7300163Y6518808D01*
X7299959Y6513068D01*
X7300264Y6505803D01*
X7301230Y6498945D01*
X7302753Y6492443D01*
X7304735Y6486448D01*
X7307224Y6480911D01*
X7310120Y6475882D01*
X7313422Y6471462D01*
X7316978Y6467602D01*
X7378700Y6467602D01*
X7378700Y6515607D01*
X7364730Y6515607D01*
X7364730Y6483096D01*
X7324090Y6483096D01*
X7320178Y6488531D01*
X7317181Y6495440D01*
X7315352Y6503263D01*
X7314692Y6511544D01*
X7314996Y6517436D01*
X7315809Y6522974D01*
X7317181Y6528206D01*
X7319060Y6533032D01*
X7321448Y6537553D01*
X7324344Y6541719D01*
X7327696Y6545478D01*
X7331557Y6548932D01*
X7335824Y6551930D01*
X7340549Y6554622D01*
X7345680Y6556857D01*
X7351217Y6558737D01*
X7357160Y6560210D01*
X7363459Y6561226D01*
X7370165Y6561886D01*
X7377175Y6562090D01*
X7384186Y6561836D01*
X7390841Y6561175D01*
X7397140Y6560058D01*
X7403033Y6558534D01*
X7408570Y6556552D01*
X7413650Y6554216D01*
X7418324Y6551472D01*
X7422540Y6548323D01*
X7426350Y6544868D01*
X7429652Y6541058D01*
X7432497Y6536893D01*
X7434884Y6532422D01*
X7436713Y6527596D01*
X7438085Y6522516D01*
X7438898Y6517182D01*
X7439152Y6511544D01*
X7438034Y6500926D01*
X7434986Y6492138D01*
X7430465Y6484823D01*
X7424928Y6478778D01*
X7435850Y6469380D01*
X7439101Y6472834D01*
X7442301Y6476746D01*
X7445349Y6481165D01*
X7448092Y6486093D01*
X7450429Y6491630D01*
X7452258Y6497726D01*
X7453477Y6504431D01*
X7453884Y6511798D01*
X7453680Y6517640D01*
X7453020Y6523278D01*
X7451953Y6528714D01*
X7450480Y6533946D01*
X7448550Y6538976D01*
X7446264Y6543751D01*
X7443622Y6548323D01*
X7440523Y6552590D01*
X7437120Y6556603D01*
X7433309Y6560362D01*
X7429144Y6563766D01*
X7424623Y6566916D01*
X7419797Y6569709D01*
X7414615Y6572199D01*
X7409078Y6574332D01*
X7403287Y6576110D01*
X7397140Y6577533D01*
X7390688Y6578549D01*
X7383932Y6579158D01*
G37*
G36*
X7302500Y6431534D02*
G01*
X7302500Y6415786D01*
X7389825Y6415836D01*
X7406944Y6416497D01*
X7429246Y6417818D01*
X7429246Y6416802D01*
X7398766Y6400546D01*
X7302500Y6344666D01*
X7302500Y6327140D01*
X7451344Y6327140D01*
X7451344Y6343142D01*
X7365085Y6343091D01*
X7341616Y6342024D01*
X7324344Y6340856D01*
X7324344Y6341872D01*
X7354824Y6358128D01*
X7451344Y6414262D01*
X7451344Y6431534D01*
G37*
G36*
X7302500Y6285738D02*
G01*
X7302500Y6268720D01*
X7437374Y6268720D01*
X7437374Y6250432D01*
X7437120Y6243878D01*
X7436358Y6237782D01*
X7435088Y6232093D01*
X7433360Y6226860D01*
X7431125Y6222034D01*
X7428433Y6217615D01*
X7425283Y6213652D01*
X7421676Y6210096D01*
X7417612Y6206998D01*
X7413142Y6204305D01*
X7408214Y6202019D01*
X7402880Y6200140D01*
X7397089Y6198717D01*
X7390942Y6197650D01*
X7384389Y6197041D01*
X7377430Y6196838D01*
X7370521Y6197041D01*
X7363917Y6197650D01*
X7357719Y6198717D01*
X7351877Y6200140D01*
X7346442Y6202019D01*
X7341412Y6204305D01*
X7336790Y6206998D01*
X7332624Y6210096D01*
X7328865Y6213652D01*
X7325614Y6217615D01*
X7322769Y6222034D01*
X7320483Y6226860D01*
X7318603Y6232093D01*
X7317282Y6237782D01*
X7316470Y6243878D01*
X7316216Y6250432D01*
X7316216Y6268720D01*
X7302500Y6268720D01*
X7302500Y6248400D01*
X7302703Y6241796D01*
X7303312Y6235547D01*
X7304379Y6229604D01*
X7305802Y6223965D01*
X7307630Y6218682D01*
X7309866Y6213703D01*
X7312456Y6209080D01*
X7315403Y6204762D01*
X7318756Y6200749D01*
X7322413Y6197142D01*
X7326477Y6193840D01*
X7330846Y6190843D01*
X7335570Y6188202D01*
X7340650Y6185916D01*
X7345984Y6183985D01*
X7351674Y6182410D01*
X7357668Y6181191D01*
X7363968Y6180277D01*
X7370572Y6179769D01*
X7377430Y6179566D01*
X7384288Y6179769D01*
X7390841Y6180277D01*
X7397140Y6181191D01*
X7403084Y6182410D01*
X7408672Y6184036D01*
X7414006Y6185966D01*
X7418984Y6188252D01*
X7423658Y6190894D01*
X7427925Y6193891D01*
X7431887Y6197193D01*
X7435545Y6200902D01*
X7438796Y6204915D01*
X7441692Y6209284D01*
X7444231Y6213957D01*
X7446365Y6218986D01*
X7448143Y6224371D01*
X7449515Y6230061D01*
X7450531Y6236106D01*
X7451140Y6242456D01*
X7451344Y6249162D01*
X7451344Y6285738D01*
G37*
G36*
X7035800Y6570472D02*
G01*
X7035800Y6553708D01*
X7170928Y6553708D01*
X7170928Y6527800D01*
X7170572Y6519265D01*
X7169454Y6511798D01*
X7167524Y6505397D01*
X7164679Y6500063D01*
X7160920Y6495897D01*
X7156145Y6492900D01*
X7150252Y6491071D01*
X7143242Y6490462D01*
X7136282Y6491071D01*
X7130288Y6492900D01*
X7125208Y6495897D01*
X7121093Y6500063D01*
X7117892Y6505397D01*
X7115606Y6511798D01*
X7114235Y6519265D01*
X7113778Y6527800D01*
X7113778Y6553708D01*
X7100062Y6553708D01*
X7100062Y6525768D01*
X7035800Y6488684D01*
X7035800Y6469888D01*
X7101586Y6508242D01*
X7102957Y6503111D01*
X7104735Y6498386D01*
X7106869Y6493967D01*
X7109358Y6489903D01*
X7112203Y6486296D01*
X7115454Y6483045D01*
X7119112Y6480302D01*
X7123125Y6477965D01*
X7127544Y6476136D01*
X7132370Y6474815D01*
X7137603Y6473952D01*
X7143242Y6473698D01*
X7150455Y6474155D01*
X7156907Y6475374D01*
X7162546Y6477457D01*
X7167524Y6480302D01*
X7171791Y6483807D01*
X7175347Y6488023D01*
X7178344Y6492849D01*
X7180681Y6498285D01*
X7182459Y6504228D01*
X7183678Y6510731D01*
X7184390Y6517640D01*
X7184644Y6525006D01*
X7184644Y6570472D01*
G37*
G36*
X7035800Y6460998D02*
G01*
X7035800Y6443472D01*
X7082790Y6418122D01*
X7101331Y6408928D01*
X7101331Y6407912D01*
X7035800Y6372352D01*
X7035800Y6353810D01*
X7111746Y6397498D01*
X7184644Y6356604D01*
X7184644Y6374130D01*
X7140092Y6397802D01*
X7123684Y6405880D01*
X7123684Y6406896D01*
X7135114Y6412941D01*
X7145020Y6418580D01*
X7184644Y6439662D01*
X7184644Y6458458D01*
X7112508Y6417564D01*
G37*
G36*
X7035800Y6329680D02*
G01*
X7035800Y6312662D01*
X7170674Y6312662D01*
X7170674Y6294374D01*
X7170420Y6287820D01*
X7169658Y6281724D01*
X7168388Y6276035D01*
X7166660Y6270802D01*
X7164425Y6265976D01*
X7161733Y6261557D01*
X7158583Y6257594D01*
X7154976Y6254038D01*
X7150912Y6250940D01*
X7146442Y6248247D01*
X7141514Y6245961D01*
X7136180Y6244082D01*
X7130389Y6242659D01*
X7124242Y6241592D01*
X7117689Y6240983D01*
X7110730Y6240780D01*
X7103821Y6240983D01*
X7097217Y6241592D01*
X7091019Y6242659D01*
X7085177Y6244082D01*
X7079742Y6245961D01*
X7074712Y6248247D01*
X7070090Y6250940D01*
X7065924Y6254038D01*
X7062165Y6257594D01*
X7058914Y6261557D01*
X7056069Y6265976D01*
X7053783Y6270802D01*
X7051903Y6276035D01*
X7050582Y6281724D01*
X7049770Y6287820D01*
X7049516Y6294374D01*
X7049516Y6312662D01*
X7035800Y6312662D01*
X7035800Y6292342D01*
X7036003Y6285738D01*
X7036612Y6279489D01*
X7037679Y6273546D01*
X7039102Y6267907D01*
X7040930Y6262624D01*
X7043166Y6257645D01*
X7045756Y6253022D01*
X7048703Y6248704D01*
X7052056Y6244691D01*
X7055713Y6241084D01*
X7059777Y6237782D01*
X7064146Y6234785D01*
X7068870Y6232144D01*
X7073950Y6229858D01*
X7079284Y6227927D01*
X7084974Y6226352D01*
X7090968Y6225133D01*
X7097268Y6224219D01*
X7103872Y6223711D01*
X7110730Y6223508D01*
X7117588Y6223711D01*
X7124141Y6224219D01*
X7130440Y6225133D01*
X7136384Y6226352D01*
X7141972Y6227927D01*
X7147306Y6229908D01*
X7152284Y6232194D01*
X7156958Y6234836D01*
X7161225Y6237833D01*
X7165187Y6241186D01*
X7168845Y6244844D01*
X7172096Y6248857D01*
X7174992Y6253226D01*
X7177531Y6257899D01*
X7179665Y6262928D01*
X7181443Y6268313D01*
X7182815Y6274003D01*
X7183831Y6280048D01*
X7184440Y6286398D01*
X7184644Y6293104D01*
X7184644Y6329680D01*
G37*
G36*
X6916420Y6571996D02*
G01*
X6916420Y6526784D01*
X6781800Y6526784D01*
X6781800Y6509766D01*
X6916420Y6509766D01*
X6916420Y6464300D01*
X6930644Y6464300D01*
X6930644Y6571996D01*
G37*
G36*
X6781800Y6458712D02*
G01*
X6781800Y6441186D01*
X6823202Y6418580D01*
X6847331Y6406388D01*
X6847331Y6405626D01*
X6823202Y6392672D01*
X6781800Y6369812D01*
X6781800Y6351524D01*
X6857746Y6395212D01*
X6930644Y6354318D01*
X6930644Y6371844D01*
X6886092Y6395466D01*
X6869684Y6403340D01*
X6869684Y6404356D01*
X6881114Y6410604D01*
X6891020Y6416294D01*
X6930644Y6437376D01*
X6930644Y6456172D01*
X6858508Y6415278D01*
G37*
G36*
X6781800Y6327140D02*
G01*
X6781800Y6310376D01*
X6916674Y6310376D01*
X6916674Y6292088D01*
X6916420Y6285534D01*
X6915658Y6279438D01*
X6914388Y6273749D01*
X6912660Y6268516D01*
X6910425Y6263690D01*
X6907733Y6259271D01*
X6904583Y6255308D01*
X6900976Y6251752D01*
X6896912Y6248654D01*
X6892442Y6245961D01*
X6887514Y6243675D01*
X6882180Y6241796D01*
X6876389Y6240373D01*
X6870242Y6239306D01*
X6863689Y6238697D01*
X6856730Y6238494D01*
X6849821Y6238697D01*
X6843217Y6239306D01*
X6837019Y6240373D01*
X6831177Y6241796D01*
X6825742Y6243675D01*
X6820712Y6245961D01*
X6816090Y6248654D01*
X6811924Y6251752D01*
X6808165Y6255308D01*
X6804914Y6259271D01*
X6802069Y6263690D01*
X6799783Y6268516D01*
X6797903Y6273749D01*
X6796582Y6279438D01*
X6795770Y6285534D01*
X6795516Y6292088D01*
X6795516Y6310376D01*
X6781800Y6310376D01*
X6781800Y6290056D01*
X6782003Y6283452D01*
X6782612Y6277152D01*
X6783679Y6271158D01*
X6785102Y6265519D01*
X6786930Y6260236D01*
X6789166Y6255258D01*
X6791756Y6250584D01*
X6794703Y6246317D01*
X6798056Y6242304D01*
X6801713Y6238697D01*
X6805777Y6235395D01*
X6810146Y6232448D01*
X6814870Y6229807D01*
X6819950Y6227521D01*
X6825284Y6225641D01*
X6830974Y6224016D01*
X6836968Y6222796D01*
X6843268Y6221933D01*
X6849872Y6221374D01*
X6856730Y6221222D01*
X6863588Y6221374D01*
X6870141Y6221933D01*
X6876440Y6222796D01*
X6882384Y6224066D01*
X6887972Y6225641D01*
X6893306Y6227572D01*
X6898284Y6229858D01*
X6902958Y6232448D01*
X6907225Y6235446D01*
X6911187Y6238748D01*
X6914845Y6242405D01*
X6918096Y6246418D01*
X6920992Y6250736D01*
X6923531Y6255410D01*
X6925665Y6260439D01*
X6927443Y6265773D01*
X6928815Y6271463D01*
X6929831Y6277508D01*
X6930440Y6283858D01*
X6930644Y6290564D01*
X6930644Y6327140D01*
G37*
G36*
X6545580Y6572503D02*
G01*
X6541719Y6568643D01*
X6538010Y6564325D01*
X6534556Y6559499D01*
X6531508Y6554012D01*
X6528968Y6547916D01*
X6526987Y6541160D01*
X6525717Y6533591D01*
X6525259Y6525259D01*
X6525564Y6518909D01*
X6526530Y6512814D01*
X6528155Y6507022D01*
X6530340Y6501638D01*
X6533083Y6496659D01*
X6536435Y6492189D01*
X6540347Y6488226D01*
X6544767Y6484874D01*
X6549694Y6482181D01*
X6555130Y6480200D01*
X6561023Y6478930D01*
X6567424Y6478524D01*
X6574790Y6479184D01*
X6581495Y6481013D01*
X6587439Y6483959D01*
X6592671Y6487820D01*
X6597091Y6492544D01*
X6600748Y6497929D01*
X6603542Y6503873D01*
X6605524Y6510274D01*
X6606286Y6510274D01*
X6608673Y6504584D01*
X6611670Y6499453D01*
X6615277Y6494932D01*
X6619443Y6491020D01*
X6624269Y6487871D01*
X6629704Y6485534D01*
X6635699Y6484112D01*
X6642353Y6483604D01*
X6647992Y6483959D01*
X6653174Y6485077D01*
X6657949Y6486804D01*
X6662267Y6489192D01*
X6666128Y6492138D01*
X6669531Y6495694D01*
X6672427Y6499707D01*
X6674815Y6504178D01*
X6676694Y6509105D01*
X6678066Y6514388D01*
X6678930Y6520078D01*
X6679184Y6526022D01*
X6678828Y6532219D01*
X6677863Y6538061D01*
X6676237Y6543548D01*
X6674154Y6548729D01*
X6671564Y6553657D01*
X6668566Y6558330D01*
X6665264Y6562699D01*
X6661658Y6566916D01*
X6650990Y6557772D01*
X6656781Y6551168D01*
X6661403Y6543700D01*
X6664502Y6535420D01*
X6665722Y6526530D01*
X6665214Y6520840D01*
X6663842Y6515709D01*
X6661708Y6511290D01*
X6658813Y6507581D01*
X6655308Y6504584D01*
X6651091Y6502400D01*
X6646367Y6501079D01*
X6641084Y6500622D01*
X6637020Y6500825D01*
X6633159Y6501536D01*
X6629501Y6502755D01*
X6626098Y6504533D01*
X6622999Y6506870D01*
X6620154Y6509867D01*
X6617665Y6513474D01*
X6615582Y6517792D01*
X6613906Y6522821D01*
X6612636Y6528562D01*
X6611874Y6535166D01*
X6611620Y6542531D01*
X6598666Y6542531D01*
X6598412Y6534353D01*
X6597650Y6527038D01*
X6596430Y6520586D01*
X6594754Y6514947D01*
X6592671Y6510070D01*
X6590131Y6505956D01*
X6587286Y6502552D01*
X6584035Y6499860D01*
X6580428Y6497828D01*
X6576568Y6496405D01*
X6572402Y6495542D01*
X6567931Y6495288D01*
X6561581Y6495897D01*
X6555892Y6497574D01*
X6550964Y6500317D01*
X6546799Y6504025D01*
X6543446Y6508546D01*
X6541007Y6513830D01*
X6539484Y6519773D01*
X6538976Y6526276D01*
X6539331Y6532626D01*
X6540449Y6538417D01*
X6542074Y6543700D01*
X6544259Y6548475D01*
X6546900Y6552844D01*
X6549796Y6556857D01*
X6552946Y6560515D01*
X6556248Y6563868D01*
G37*
G36*
X6637528Y6464300D02*
G01*
X6527800Y6424422D01*
X6527800Y6405118D01*
X6637528Y6365748D01*
X6637528Y6382004D01*
X6573774Y6403848D01*
X6557365Y6408978D01*
X6541516Y6414262D01*
X6541516Y6415024D01*
X6557365Y6420307D01*
X6573774Y6425438D01*
X6637528Y6447028D01*
G37*
G36*
X6545580Y6357112D02*
G01*
X6541719Y6353251D01*
X6538010Y6348933D01*
X6534556Y6344107D01*
X6531508Y6338620D01*
X6528968Y6332524D01*
X6526987Y6325768D01*
X6525717Y6318199D01*
X6525259Y6309868D01*
X6525564Y6303518D01*
X6526530Y6297422D01*
X6528155Y6291630D01*
X6530340Y6286246D01*
X6533083Y6281267D01*
X6536435Y6276797D01*
X6540347Y6272834D01*
X6544767Y6269482D01*
X6549694Y6266789D01*
X6555130Y6264808D01*
X6561023Y6263538D01*
X6567424Y6263132D01*
X6574790Y6263792D01*
X6581495Y6265621D01*
X6587439Y6268567D01*
X6592671Y6272428D01*
X6597091Y6277152D01*
X6600748Y6282537D01*
X6603542Y6288481D01*
X6605524Y6294882D01*
X6606286Y6294882D01*
X6608673Y6289192D01*
X6611670Y6284061D01*
X6615277Y6279540D01*
X6619443Y6275628D01*
X6624269Y6272479D01*
X6629704Y6270142D01*
X6635699Y6268720D01*
X6642353Y6268212D01*
X6647992Y6268567D01*
X6653174Y6269685D01*
X6657949Y6271412D01*
X6662267Y6273800D01*
X6666128Y6276746D01*
X6669531Y6280302D01*
X6672427Y6284315D01*
X6674815Y6288786D01*
X6676694Y6293713D01*
X6678066Y6298996D01*
X6678930Y6304686D01*
X6679184Y6310630D01*
X6678828Y6316827D01*
X6677863Y6322669D01*
X6676237Y6328156D01*
X6674154Y6333388D01*
X6671564Y6338265D01*
X6668566Y6342938D01*
X6665264Y6347307D01*
X6661658Y6351524D01*
X6650990Y6342380D01*
X6656781Y6335776D01*
X6661403Y6328257D01*
X6664502Y6320028D01*
X6665722Y6311138D01*
X6665214Y6305448D01*
X6663842Y6300317D01*
X6661708Y6295898D01*
X6658813Y6292189D01*
X6655308Y6289192D01*
X6651091Y6287008D01*
X6646367Y6285687D01*
X6641084Y6285230D01*
X6637020Y6285433D01*
X6633159Y6286144D01*
X6629501Y6287363D01*
X6626098Y6289141D01*
X6622999Y6291478D01*
X6620154Y6294475D01*
X6617665Y6298082D01*
X6615582Y6302400D01*
X6613906Y6307429D01*
X6612636Y6313170D01*
X6611874Y6319774D01*
X6611620Y6327140D01*
X6598666Y6327140D01*
X6598412Y6318961D01*
X6597650Y6311646D01*
X6596430Y6305194D01*
X6594754Y6299555D01*
X6592671Y6294678D01*
X6590131Y6290564D01*
X6587286Y6287160D01*
X6584035Y6284468D01*
X6580428Y6282436D01*
X6576568Y6281013D01*
X6572402Y6280150D01*
X6567931Y6279896D01*
X6561581Y6280505D01*
X6555892Y6282182D01*
X6550964Y6284925D01*
X6546799Y6288633D01*
X6543446Y6293154D01*
X6541007Y6298438D01*
X6539484Y6304381D01*
X6538976Y6310884D01*
X6539331Y6317234D01*
X6540449Y6323025D01*
X6542074Y6328308D01*
X6544259Y6333083D01*
X6546900Y6337452D01*
X6549796Y6341465D01*
X6552946Y6345123D01*
X6556248Y6348476D01*
G37*
G36*
X1355852Y8721344D02*
G01*
X1351280Y8652256D01*
X1360424Y8646414D01*
X1366469Y8650274D01*
X1372311Y8653068D01*
X1378508Y8654745D01*
X1385570Y8655304D01*
X1392478Y8654694D01*
X1398676Y8652916D01*
X1404112Y8649970D01*
X1408684Y8645956D01*
X1412341Y8640927D01*
X1415084Y8634933D01*
X1416761Y8628024D01*
X1417320Y8620252D01*
X1416659Y8612276D01*
X1414729Y8605113D01*
X1411732Y8598865D01*
X1407718Y8593582D01*
X1402892Y8589365D01*
X1397406Y8586266D01*
X1391310Y8584336D01*
X1384808Y8583676D01*
X1378458Y8584031D01*
X1372666Y8585098D01*
X1367434Y8586724D01*
X1362710Y8588806D01*
X1358392Y8591346D01*
X1354429Y8594191D01*
X1350822Y8597239D01*
X1347470Y8600440D01*
X1339088Y8589518D01*
X1343101Y8585809D01*
X1347470Y8582304D01*
X1352346Y8578951D01*
X1357731Y8576005D01*
X1363726Y8573516D01*
X1370431Y8571636D01*
X1377848Y8570417D01*
X1386078Y8569960D01*
X1392174Y8570315D01*
X1398168Y8571484D01*
X1403959Y8573312D01*
X1409496Y8575903D01*
X1414627Y8579205D01*
X1419301Y8583168D01*
X1423517Y8587841D01*
X1427124Y8593124D01*
X1430070Y8599119D01*
X1432255Y8605723D01*
X1433626Y8612936D01*
X1434084Y8620760D01*
X1433677Y8628583D01*
X1432509Y8635644D01*
X1430578Y8641994D01*
X1428038Y8647633D01*
X1424838Y8652560D01*
X1421079Y8656777D01*
X1416812Y8660333D01*
X1412087Y8663228D01*
X1406956Y8665464D01*
X1401470Y8667038D01*
X1395679Y8667953D01*
X1389634Y8668258D01*
X1383030Y8667800D01*
X1377137Y8666530D01*
X1371701Y8664498D01*
X1366520Y8661908D01*
X1370584Y8707120D01*
X1426972Y8707120D01*
X1426972Y8721344D01*
G37*
G36*
X1555242Y8721344D02*
G01*
X1549044Y8717991D01*
X1542034Y8715197D01*
X1534109Y8712962D01*
X1525016Y8711184D01*
X1525016Y8700262D01*
X1551432Y8700262D01*
X1551432Y8586216D01*
X1517904Y8586216D01*
X1517904Y8572500D01*
X1598168Y8572500D01*
X1598168Y8586216D01*
X1567688Y8586216D01*
X1567688Y8721344D01*
G37*
G36*
X1632204Y8721344D02*
G01*
X1632204Y8572500D01*
X1648968Y8572500D01*
X1648968Y8620506D01*
X1675638Y8652002D01*
X1721357Y8572500D01*
X1740154Y8572500D01*
X1686560Y8664956D01*
X1733296Y8721344D01*
X1713992Y8721344D01*
X1649475Y8644636D01*
X1648968Y8644636D01*
X1648968Y8721344D01*
G37*
G36*
X1472184Y8596376D02*
G01*
X1467510Y8595410D01*
X1463598Y8592718D01*
X1460957Y8588451D01*
X1459992Y8582914D01*
X1460957Y8577580D01*
X1463598Y8573465D01*
X1467510Y8570874D01*
X1472184Y8569960D01*
X1477162Y8570874D01*
X1481226Y8573465D01*
X1483918Y8577580D01*
X1484884Y8582914D01*
X1483918Y8588451D01*
X1481175Y8592667D01*
X1477162Y8595410D01*
G37*
G36*
X1355852Y7197344D02*
G01*
X1351280Y7128256D01*
X1360424Y7122414D01*
X1366469Y7126274D01*
X1372311Y7129068D01*
X1378508Y7130745D01*
X1385570Y7131303D01*
X1392478Y7130694D01*
X1398676Y7128916D01*
X1404112Y7125970D01*
X1408684Y7121956D01*
X1412341Y7116927D01*
X1415084Y7110933D01*
X1416761Y7104024D01*
X1417320Y7096252D01*
X1416659Y7088276D01*
X1414729Y7081113D01*
X1411732Y7074865D01*
X1407718Y7069581D01*
X1402892Y7065365D01*
X1397406Y7062266D01*
X1391310Y7060336D01*
X1384808Y7059675D01*
X1378458Y7060031D01*
X1372666Y7061098D01*
X1367434Y7062724D01*
X1362710Y7064806D01*
X1358392Y7067346D01*
X1354429Y7070191D01*
X1350822Y7073239D01*
X1347470Y7076440D01*
X1339088Y7065518D01*
X1343101Y7061809D01*
X1347470Y7058304D01*
X1352346Y7054951D01*
X1357731Y7052005D01*
X1363726Y7049516D01*
X1370431Y7047636D01*
X1377848Y7046417D01*
X1386078Y7045959D01*
X1392174Y7046315D01*
X1398168Y7047484D01*
X1403959Y7049312D01*
X1409496Y7051903D01*
X1414627Y7055205D01*
X1419301Y7059168D01*
X1423517Y7063841D01*
X1427124Y7069124D01*
X1430070Y7075119D01*
X1432255Y7081723D01*
X1433626Y7088936D01*
X1434084Y7096759D01*
X1433677Y7104583D01*
X1432509Y7111644D01*
X1430578Y7117994D01*
X1428038Y7123633D01*
X1424838Y7128560D01*
X1421079Y7132777D01*
X1416812Y7136333D01*
X1412087Y7139228D01*
X1406956Y7141464D01*
X1401470Y7143038D01*
X1395679Y7143953D01*
X1389634Y7144258D01*
X1383030Y7143800D01*
X1377137Y7142530D01*
X1371701Y7140498D01*
X1366520Y7137908D01*
X1370584Y7183120D01*
X1426972Y7183120D01*
X1426972Y7197344D01*
G37*
G36*
X1555242Y7197344D02*
G01*
X1549044Y7193991D01*
X1542034Y7191197D01*
X1534109Y7188962D01*
X1525016Y7187184D01*
X1525016Y7176262D01*
X1551432Y7176262D01*
X1551432Y7062216D01*
X1517904Y7062216D01*
X1517904Y7048500D01*
X1598168Y7048500D01*
X1598168Y7062216D01*
X1567688Y7062216D01*
X1567688Y7197344D01*
G37*
G36*
X1632204Y7197344D02*
G01*
X1632204Y7048500D01*
X1648968Y7048500D01*
X1648968Y7096506D01*
X1675638Y7128002D01*
X1721357Y7048500D01*
X1740154Y7048500D01*
X1686560Y7140956D01*
X1733296Y7197344D01*
X1713992Y7197344D01*
X1649475Y7120636D01*
X1648968Y7120636D01*
X1648968Y7197344D01*
G37*
G36*
X1472184Y7072375D02*
G01*
X1467510Y7071410D01*
X1463598Y7068718D01*
X1460957Y7064451D01*
X1459992Y7058914D01*
X1460957Y7053580D01*
X1463598Y7049465D01*
X1467510Y7046874D01*
X1472184Y7045959D01*
X1477162Y7046874D01*
X1481226Y7049465D01*
X1483918Y7053580D01*
X1484884Y7058914D01*
X1483918Y7064451D01*
X1481175Y7068667D01*
X1477162Y7071410D01*
G37*
G36*
X3140456Y9254744D02*
G01*
X3078707Y9160510D01*
X3094990Y9160510D01*
X3130804Y9213850D01*
X3142742Y9235440D01*
X3143758Y9235440D01*
X3142843Y9222130D01*
X3142488Y9209024D01*
X3142488Y9160510D01*
X3078707Y9160510D01*
X3077210Y9158224D01*
X3077210Y9147302D01*
X3142488Y9147302D01*
X3142488Y9105900D01*
X3158236Y9105900D01*
X3158236Y9147302D01*
X3178556Y9147302D01*
X3178556Y9160510D01*
X3158236Y9160510D01*
X3158236Y9254744D01*
G37*
G36*
X3194812Y9254744D02*
G01*
X3194812Y9240520D01*
X3267964Y9240520D01*
X3261004Y9230410D01*
X3254756Y9220403D01*
X3249269Y9210395D01*
X3244443Y9200337D01*
X3240227Y9190024D01*
X3236671Y9179509D01*
X3233623Y9168587D01*
X3231134Y9157258D01*
X3229102Y9145422D01*
X3227527Y9132976D01*
X3226358Y9119819D01*
X3225546Y9105900D01*
X3242818Y9105900D01*
X3243529Y9119971D01*
X3244545Y9133230D01*
X3245815Y9145778D01*
X3247542Y9157716D01*
X3249777Y9169146D01*
X3252622Y9180169D01*
X3256127Y9190990D01*
X3260445Y9201556D01*
X3265576Y9212122D01*
X3271672Y9222740D01*
X3275076Y9228124D01*
X3282746Y9238996D01*
X3287014Y9244584D01*
X3287014Y9254744D01*
G37*
G36*
X3439668Y9254744D02*
G01*
X3439668Y9105900D01*
X3456432Y9105900D01*
X3456432Y9173718D01*
X3513836Y9173718D01*
X3513836Y9187942D01*
X3456432Y9187942D01*
X3456432Y9240520D01*
X3523996Y9240520D01*
X3523996Y9254744D01*
G37*
G36*
X3314192Y9215628D02*
G01*
X3314192Y9146032D01*
X3314395Y9139275D01*
X3315055Y9133078D01*
X3316173Y9127490D01*
X3317748Y9122460D01*
X3319779Y9117990D01*
X3322269Y9114129D01*
X3325215Y9110827D01*
X3328670Y9108135D01*
X3332632Y9106052D01*
X3337051Y9104579D01*
X3342030Y9103664D01*
X3347465Y9103360D01*
X3353003Y9103715D01*
X3358134Y9104833D01*
X3363010Y9106560D01*
X3367582Y9108897D01*
X3371900Y9111843D01*
X3376066Y9115247D01*
X3380130Y9119158D01*
X3384042Y9123426D01*
X3384804Y9123426D01*
X3386074Y9105900D01*
X3399790Y9105900D01*
X3399790Y9215628D01*
X3383279Y9215628D01*
X3383279Y9136888D01*
X3379266Y9132265D01*
X3375456Y9128302D01*
X3371748Y9125000D01*
X3368090Y9122257D01*
X3364331Y9120225D01*
X3360521Y9118752D01*
X3356508Y9117888D01*
X3352292Y9117584D01*
X3347008Y9118041D01*
X3342487Y9119362D01*
X3338779Y9121648D01*
X3335782Y9124899D01*
X3333496Y9129166D01*
X3331921Y9134398D01*
X3331006Y9140698D01*
X3330701Y9148064D01*
X3330701Y9215628D01*
G37*
G36*
X2491486Y9231884D02*
G01*
X2486355Y9231579D01*
X2481478Y9230715D01*
X2476906Y9229242D01*
X2472537Y9227210D01*
X2468524Y9224518D01*
X2464765Y9221266D01*
X2461310Y9217456D01*
X2458161Y9212986D01*
X2455316Y9207957D01*
X2452878Y9202267D01*
X2450744Y9196019D01*
X2448966Y9189110D01*
X2447594Y9181642D01*
X2446578Y9173514D01*
X2445969Y9164777D01*
X2445766Y9155430D01*
X2461768Y9155430D01*
X2462022Y9165793D01*
X2462733Y9175191D01*
X2463952Y9183573D01*
X2465578Y9191040D01*
X2467610Y9197594D01*
X2470048Y9203232D01*
X2472842Y9207906D01*
X2475992Y9211767D01*
X2479446Y9214662D01*
X2483205Y9216796D01*
X2487218Y9218015D01*
X2491486Y9218422D01*
X2495753Y9218015D01*
X2499715Y9216796D01*
X2503424Y9214662D01*
X2506827Y9211767D01*
X2509926Y9207906D01*
X2512669Y9203232D01*
X2515057Y9197594D01*
X2517038Y9191040D01*
X2518613Y9183573D01*
X2519730Y9175191D01*
X2520442Y9165793D01*
X2520696Y9155430D01*
X2520442Y9144863D01*
X2519730Y9135313D01*
X2518613Y9126728D01*
X2517038Y9119108D01*
X2515057Y9112453D01*
X2512669Y9106712D01*
X2509926Y9101937D01*
X2506827Y9098026D01*
X2503424Y9094978D01*
X2499715Y9092844D01*
X2495753Y9091574D01*
X2491486Y9091168D01*
X2487218Y9091574D01*
X2483205Y9092844D01*
X2479446Y9094978D01*
X2475992Y9098026D01*
X2472842Y9101937D01*
X2470048Y9106712D01*
X2467610Y9112453D01*
X2465578Y9119108D01*
X2463952Y9126728D01*
X2462733Y9135313D01*
X2462022Y9144863D01*
X2461768Y9155430D01*
X2445766Y9155430D01*
X2445969Y9145981D01*
X2446578Y9137142D01*
X2447594Y9128963D01*
X2448966Y9121343D01*
X2450744Y9114383D01*
X2452878Y9108033D01*
X2455316Y9102293D01*
X2458161Y9097162D01*
X2461310Y9092641D01*
X2464765Y9088729D01*
X2468524Y9085427D01*
X2472537Y9082735D01*
X2476906Y9080652D01*
X2481478Y9079128D01*
X2486355Y9078264D01*
X2491486Y9077960D01*
X2496616Y9078264D01*
X2501442Y9079128D01*
X2506065Y9080652D01*
X2510383Y9082735D01*
X2514396Y9085427D01*
X2518156Y9088729D01*
X2521559Y9092641D01*
X2524709Y9097162D01*
X2527503Y9102293D01*
X2529941Y9108033D01*
X2532024Y9114383D01*
X2533802Y9121343D01*
X2535174Y9128963D01*
X2536139Y9137142D01*
X2536748Y9145981D01*
X2536952Y9155430D01*
X2536748Y9164777D01*
X2536139Y9173514D01*
X2535174Y9181642D01*
X2533802Y9189110D01*
X2532024Y9196019D01*
X2529941Y9202267D01*
X2527503Y9207957D01*
X2524709Y9212986D01*
X2521559Y9217456D01*
X2518156Y9221266D01*
X2514396Y9224518D01*
X2510383Y9227210D01*
X2506065Y9229242D01*
X2501442Y9230715D01*
X2496616Y9231579D01*
G37*
G36*
X2379472Y9229344D02*
G01*
X2373274Y9225991D01*
X2366264Y9223197D01*
X2358339Y9220962D01*
X2349246Y9219184D01*
X2349246Y9208262D01*
X2375408Y9208262D01*
X2375408Y9094216D01*
X2342134Y9094216D01*
X2342134Y9080500D01*
X2422144Y9080500D01*
X2422144Y9094216D01*
X2391918Y9094216D01*
X2391918Y9229344D01*
G37*
G36*
X2690368Y9229344D02*
G01*
X2690368Y9080500D01*
X2707132Y9080500D01*
X2707132Y9148318D01*
X2764536Y9148318D01*
X2764536Y9162542D01*
X2707132Y9162542D01*
X2707132Y9215120D01*
X2774696Y9215120D01*
X2774696Y9229344D01*
G37*
G36*
X2564892Y9190228D02*
G01*
X2564892Y9120632D01*
X2565095Y9113875D01*
X2565755Y9107678D01*
X2566873Y9102090D01*
X2568448Y9097060D01*
X2570480Y9092590D01*
X2572969Y9088729D01*
X2575915Y9085427D01*
X2579370Y9082735D01*
X2583332Y9080652D01*
X2587752Y9079179D01*
X2592730Y9078264D01*
X2598166Y9077960D01*
X2603703Y9078315D01*
X2608834Y9079433D01*
X2613710Y9081160D01*
X2618282Y9083497D01*
X2622600Y9086443D01*
X2626766Y9089847D01*
X2630830Y9093758D01*
X2634742Y9098026D01*
X2635504Y9098026D01*
X2636774Y9080500D01*
X2650490Y9080500D01*
X2650490Y9190228D01*
X2633980Y9190228D01*
X2633980Y9111488D01*
X2629966Y9106865D01*
X2626156Y9102902D01*
X2622448Y9099600D01*
X2618790Y9096857D01*
X2615031Y9094825D01*
X2611221Y9093352D01*
X2607208Y9092488D01*
X2602992Y9092184D01*
X2597708Y9092641D01*
X2593187Y9093962D01*
X2589479Y9096248D01*
X2586482Y9099499D01*
X2584196Y9103766D01*
X2582621Y9108998D01*
X2581706Y9115298D01*
X2581402Y9122664D01*
X2581402Y9190228D01*
G37*
G36*
X3479800Y7716266D02*
G01*
X3479800Y7636256D01*
X3493515Y7636256D01*
X3493515Y7666481D01*
X3628644Y7666481D01*
X3628644Y7678928D01*
X3625291Y7685176D01*
X3622497Y7692136D01*
X3620262Y7700060D01*
X3618484Y7709153D01*
X3607562Y7709153D01*
X3607562Y7682992D01*
X3493515Y7682992D01*
X3493515Y7716266D01*
G37*
G36*
X3479800Y7601966D02*
G01*
X3479800Y7585202D01*
X3527806Y7585202D01*
X3559301Y7558531D01*
X3479800Y7512812D01*
X3479800Y7494016D01*
X3572256Y7547864D01*
X3628644Y7501128D01*
X3628644Y7520431D01*
X3551936Y7584694D01*
X3551936Y7585202D01*
X3628644Y7585202D01*
X3628644Y7601966D01*
G37*
G36*
X2971800Y7716266D02*
G01*
X2971800Y7636256D01*
X2985516Y7636256D01*
X2985516Y7666481D01*
X3120644Y7666481D01*
X3120644Y7678928D01*
X3117291Y7685176D01*
X3114497Y7692136D01*
X3112262Y7700060D01*
X3110484Y7709153D01*
X3099562Y7709153D01*
X3099562Y7682992D01*
X2985516Y7682992D01*
X2985516Y7716266D01*
G37*
G36*
X2971800Y7601966D02*
G01*
X2971800Y7585202D01*
X3019806Y7585202D01*
X3051302Y7558531D01*
X2971800Y7512812D01*
X2971800Y7494016D01*
X3064256Y7547864D01*
X3120644Y7501128D01*
X3120644Y7520431D01*
X3043936Y7584694D01*
X3043936Y7585202D01*
X3120644Y7585202D01*
X3120644Y7601966D01*
G37*
G36*
X2989072Y6816344D02*
G01*
X2982874Y6812991D01*
X2975864Y6810197D01*
X2967939Y6807962D01*
X2958846Y6806184D01*
X2958846Y6795262D01*
X2985008Y6795262D01*
X2985008Y6681216D01*
X2951734Y6681216D01*
X2951734Y6667500D01*
X3031744Y6667500D01*
X3031744Y6681216D01*
X3001518Y6681216D01*
X3001518Y6816344D01*
G37*
G36*
X3066034Y6816344D02*
G01*
X3066034Y6667500D01*
X3082798Y6667500D01*
X3082798Y6715506D01*
X3109468Y6747002D01*
X3155188Y6667500D01*
X3173984Y6667500D01*
X3120136Y6759956D01*
X3166872Y6816344D01*
X3147568Y6816344D01*
X3083306Y6739636D01*
X3082798Y6739636D01*
X3082798Y6816344D01*
G37*
G36*
X2971800Y3639565D02*
G01*
X2971800Y3559556D01*
X2985516Y3559556D01*
X2985516Y3589782D01*
X3120644Y3589782D01*
X3120644Y3602228D01*
X3117291Y3608476D01*
X3114497Y3615436D01*
X3112262Y3623360D01*
X3110484Y3632454D01*
X3099562Y3632454D01*
X3099562Y3606292D01*
X2985516Y3606292D01*
X2985516Y3639565D01*
G37*
G36*
X2971800Y3525265D02*
G01*
X2971800Y3508501D01*
X3019806Y3508501D01*
X3051302Y3481832D01*
X2971800Y3436112D01*
X2971800Y3417315D01*
X3064256Y3471164D01*
X3120644Y3424428D01*
X3120644Y3443732D01*
X3043936Y3507994D01*
X3043936Y3508501D01*
X3120644Y3508501D01*
X3120644Y3525265D01*
G37*
G36*
X2463800Y3703065D02*
G01*
X2463800Y3623056D01*
X2477516Y3623056D01*
X2477516Y3653282D01*
X2612644Y3653282D01*
X2612644Y3665728D01*
X2609291Y3671976D01*
X2606497Y3678936D01*
X2604262Y3686860D01*
X2602484Y3695954D01*
X2591562Y3695954D01*
X2591562Y3669792D01*
X2477516Y3669792D01*
X2477516Y3703065D01*
G37*
G36*
X2538730Y3599434D02*
G01*
X2529281Y3599230D01*
X2520442Y3598621D01*
X2512263Y3597605D01*
X2504643Y3596233D01*
X2497683Y3594455D01*
X2491333Y3592322D01*
X2485593Y3589883D01*
X2480462Y3587038D01*
X2475941Y3583889D01*
X2472029Y3580434D01*
X2468727Y3576675D01*
X2466035Y3572662D01*
X2463952Y3568293D01*
X2462428Y3563721D01*
X2461564Y3558844D01*
X2461260Y3553714D01*
X2474468Y3553714D01*
X2474874Y3557981D01*
X2476144Y3561994D01*
X2478278Y3565753D01*
X2481326Y3569208D01*
X2485237Y3572357D01*
X2490012Y3575151D01*
X2495753Y3577590D01*
X2502408Y3579622D01*
X2510028Y3581247D01*
X2518613Y3582466D01*
X2528163Y3583178D01*
X2538730Y3583432D01*
X2549093Y3583178D01*
X2558491Y3582466D01*
X2566873Y3581247D01*
X2574340Y3579622D01*
X2580894Y3577590D01*
X2586532Y3575151D01*
X2591206Y3572357D01*
X2595067Y3569208D01*
X2597962Y3565753D01*
X2600096Y3561994D01*
X2601315Y3557981D01*
X2601722Y3553714D01*
X2601315Y3549446D01*
X2600096Y3545484D01*
X2597962Y3541776D01*
X2595067Y3538372D01*
X2591206Y3535273D01*
X2586532Y3532530D01*
X2580894Y3530142D01*
X2574340Y3528161D01*
X2566873Y3526586D01*
X2558491Y3525469D01*
X2549093Y3524758D01*
X2538730Y3524504D01*
X2528163Y3524758D01*
X2518613Y3525469D01*
X2510028Y3526586D01*
X2502408Y3528161D01*
X2495753Y3530142D01*
X2490012Y3532530D01*
X2485237Y3535273D01*
X2481326Y3538372D01*
X2478278Y3541776D01*
X2476144Y3545484D01*
X2474874Y3549446D01*
X2474468Y3553714D01*
X2461260Y3553714D01*
X2461564Y3548583D01*
X2462428Y3543757D01*
X2463952Y3539134D01*
X2466035Y3534816D01*
X2468727Y3530803D01*
X2472029Y3527044D01*
X2475941Y3523640D01*
X2480462Y3520490D01*
X2485593Y3517696D01*
X2491333Y3515258D01*
X2497683Y3513175D01*
X2504643Y3511397D01*
X2512263Y3510026D01*
X2520442Y3509060D01*
X2529281Y3508451D01*
X2538730Y3508248D01*
X2548077Y3508451D01*
X2556814Y3509060D01*
X2564942Y3510026D01*
X2572410Y3511397D01*
X2579319Y3513175D01*
X2585567Y3515258D01*
X2591257Y3517696D01*
X2596286Y3520490D01*
X2600756Y3523640D01*
X2604566Y3527044D01*
X2607818Y3530803D01*
X2610510Y3534816D01*
X2612542Y3539134D01*
X2614015Y3543757D01*
X2614879Y3548583D01*
X2615184Y3553714D01*
X2614879Y3558844D01*
X2614015Y3563721D01*
X2612542Y3568293D01*
X2610510Y3572662D01*
X2607818Y3576675D01*
X2604566Y3580434D01*
X2600756Y3583889D01*
X2596286Y3587038D01*
X2591257Y3589883D01*
X2585567Y3592322D01*
X2579319Y3594455D01*
X2572410Y3596233D01*
X2564942Y3597605D01*
X2556814Y3598621D01*
X2548077Y3599230D01*
G37*
G36*
X2463800Y3477260D02*
G01*
X2463800Y3460496D01*
X2511806Y3460496D01*
X2543302Y3433826D01*
X2463800Y3388106D01*
X2463800Y3369310D01*
X2556256Y3422904D01*
X2612644Y3376168D01*
X2612644Y3395472D01*
X2535936Y3459987D01*
X2535936Y3460496D01*
X2612644Y3460496D01*
X2612644Y3477260D01*
G37*
G36*
X10154158Y9295384D02*
G01*
X10147706Y9295028D01*
X10141559Y9294063D01*
X10135819Y9292488D01*
X10130485Y9290354D01*
X10125608Y9287611D01*
X10121290Y9284411D01*
X10117429Y9280753D01*
X10114229Y9276638D01*
X10111638Y9272117D01*
X10109758Y9267240D01*
X10108590Y9262059D01*
X10108184Y9256522D01*
X10108946Y9248952D01*
X10110978Y9242348D01*
X10114127Y9236659D01*
X10118191Y9231782D01*
X10122865Y9227616D01*
X10127996Y9224111D01*
X10133330Y9221165D01*
X10160000Y9209278D01*
X10169956Y9204553D01*
X10174274Y9202013D01*
X10178034Y9199168D01*
X10181132Y9195866D01*
X10183418Y9192006D01*
X10184892Y9187383D01*
X10185400Y9181846D01*
X10184841Y9176359D01*
X10183164Y9171432D01*
X10180472Y9167012D01*
X10176764Y9163304D01*
X10172090Y9160306D01*
X10166553Y9158071D01*
X10160101Y9156649D01*
X10152888Y9156192D01*
X10146944Y9156547D01*
X10141153Y9157512D01*
X10135463Y9159138D01*
X10130078Y9161322D01*
X10124897Y9164015D01*
X10119969Y9167215D01*
X10115448Y9170924D01*
X10111232Y9174988D01*
X10101072Y9163558D01*
X10106050Y9158681D01*
X10111536Y9154312D01*
X10117429Y9150553D01*
X10123728Y9147352D01*
X10130383Y9144812D01*
X10137444Y9142984D01*
X10144861Y9141866D01*
X10152634Y9141460D01*
X10160050Y9141815D01*
X10167010Y9142933D01*
X10173411Y9144660D01*
X10179253Y9147048D01*
X10184536Y9150045D01*
X10189159Y9153550D01*
X10193172Y9157512D01*
X10196525Y9161932D01*
X10199166Y9166758D01*
X10201097Y9171940D01*
X10202265Y9177375D01*
X10202672Y9183116D01*
X10202062Y9190837D01*
X10200233Y9197594D01*
X10197338Y9203436D01*
X10193578Y9208465D01*
X10188956Y9212783D01*
X10183723Y9216542D01*
X10177881Y9219844D01*
X10171684Y9222740D01*
X10145776Y9233814D01*
X10141407Y9235948D01*
X10137292Y9238284D01*
X10133482Y9241028D01*
X10130231Y9244228D01*
X10127691Y9248038D01*
X10126065Y9252508D01*
X10125456Y9257792D01*
X10125964Y9262770D01*
X10127488Y9267240D01*
X10129977Y9271152D01*
X10133330Y9274454D01*
X10137495Y9277096D01*
X10142372Y9279026D01*
X10147960Y9280245D01*
X10154158Y9280652D01*
X10159339Y9280398D01*
X10164216Y9279636D01*
X10168839Y9278416D01*
X10173208Y9276791D01*
X10177322Y9274708D01*
X10181234Y9272270D01*
X10184942Y9269526D01*
X10188448Y9266428D01*
X10197592Y9277096D01*
X10193528Y9280956D01*
X10189057Y9284462D01*
X10184130Y9287560D01*
X10178846Y9290253D01*
X10173157Y9292386D01*
X10167112Y9294012D01*
X10160762Y9295028D01*
G37*
G36*
X9507728Y9292844D02*
G01*
X9507728Y9279128D01*
X9550400Y9279128D01*
X9558934Y9278772D01*
X9566402Y9277654D01*
X9572802Y9275724D01*
X9578136Y9272930D01*
X9582302Y9269120D01*
X9585299Y9264345D01*
X9587128Y9258452D01*
X9587738Y9251442D01*
X9587128Y9244482D01*
X9585299Y9238488D01*
X9582302Y9233408D01*
X9578136Y9229293D01*
X9572802Y9226092D01*
X9566402Y9223806D01*
X9558934Y9222435D01*
X9550400Y9221978D01*
X9524492Y9221978D01*
X9524492Y9279128D01*
X9507728Y9279128D01*
X9507728Y9144000D01*
X9524492Y9144000D01*
X9524492Y9208262D01*
X9552432Y9208262D01*
X9589516Y9144000D01*
X9608312Y9144000D01*
X9569958Y9209786D01*
X9575088Y9211157D01*
X9579813Y9212935D01*
X9584232Y9215069D01*
X9588296Y9217558D01*
X9591903Y9220403D01*
X9595154Y9223654D01*
X9597898Y9227312D01*
X9600234Y9231325D01*
X9602063Y9235744D01*
X9603384Y9240570D01*
X9604248Y9245803D01*
X9604502Y9251442D01*
X9604044Y9258655D01*
X9602825Y9265107D01*
X9600742Y9270746D01*
X9597898Y9275724D01*
X9594392Y9279991D01*
X9590176Y9283547D01*
X9585350Y9286544D01*
X9579914Y9288881D01*
X9573971Y9290659D01*
X9567468Y9291878D01*
X9560560Y9292590D01*
X9553194Y9292844D01*
G37*
G36*
X9634982Y9292844D02*
G01*
X9634982Y9144000D01*
X9722104Y9144000D01*
X9722104Y9158224D01*
X9652000Y9158224D01*
X9652000Y9215374D01*
X9708896Y9215374D01*
X9708896Y9229598D01*
X9652000Y9229598D01*
X9652000Y9278620D01*
X9719818Y9278620D01*
X9719818Y9292844D01*
G37*
G36*
X9733280Y9292844D02*
G01*
X9781032Y9144000D01*
X9800336Y9144000D01*
X9848088Y9292844D01*
X9830816Y9292844D01*
X9793528Y9167926D01*
X9791446Y9161526D01*
X9790684Y9161526D01*
X9751060Y9292844D01*
G37*
G36*
X9868916Y9292844D02*
G01*
X9868916Y9144000D01*
X9955784Y9144000D01*
X9955784Y9158224D01*
X9885680Y9158224D01*
X9885680Y9215374D01*
X9942830Y9215374D01*
X9942830Y9229598D01*
X9885680Y9229598D01*
X9885680Y9278620D01*
X9953752Y9278620D01*
X9953752Y9292844D01*
G37*
G36*
X9987534Y9292844D02*
G01*
X9987534Y9279128D01*
X10030460Y9279128D01*
X10038892Y9278772D01*
X10046309Y9277654D01*
X10052710Y9275724D01*
X10057942Y9272930D01*
X10062108Y9269120D01*
X10065105Y9264345D01*
X10066934Y9258452D01*
X10067544Y9251442D01*
X10066934Y9244482D01*
X10065105Y9238488D01*
X10062108Y9233408D01*
X10057942Y9229293D01*
X10052710Y9226092D01*
X10046309Y9223806D01*
X10038892Y9222435D01*
X10030460Y9221978D01*
X10004552Y9221978D01*
X10004552Y9279128D01*
X9987534Y9279128D01*
X9987534Y9144000D01*
X10004552Y9144000D01*
X10004552Y9208262D01*
X10032238Y9208262D01*
X10069576Y9144000D01*
X10088372Y9144000D01*
X10050018Y9209786D01*
X10055098Y9211157D01*
X10059822Y9212935D01*
X10064191Y9215069D01*
X10068255Y9217558D01*
X10071862Y9220403D01*
X10075113Y9223654D01*
X10077907Y9227312D01*
X10080244Y9231325D01*
X10082072Y9235744D01*
X10083444Y9240570D01*
X10084257Y9245803D01*
X10084562Y9251442D01*
X10084104Y9258655D01*
X10082834Y9265107D01*
X10080802Y9270746D01*
X10077958Y9275724D01*
X10074402Y9279991D01*
X10070236Y9283547D01*
X10065359Y9286544D01*
X10059924Y9288881D01*
X10053929Y9290659D01*
X10047427Y9291878D01*
X10040416Y9292590D01*
X10033000Y9292844D01*
G37*
G36*
X10232136Y9292844D02*
G01*
X10232136Y9144000D01*
X10319258Y9144000D01*
X10319258Y9158224D01*
X10249154Y9158224D01*
X10249154Y9215374D01*
X10306304Y9215374D01*
X10306304Y9229598D01*
X10249154Y9229598D01*
X10249154Y9278620D01*
X10316972Y9278620D01*
X10316972Y9292844D01*
G37*
D10*
X10105643Y8634221D02*
G01*
X10095229Y8644636D01*
X10079736Y8649715D01*
X10058908Y8649715D01*
X10043413Y8644636D01*
X10033000Y8634221D01*
X10033000Y8623808D01*
X10038079Y8613394D01*
X10043413Y8608060D01*
X10053827Y8602979D01*
X10085070Y8592565D01*
X10095229Y8587486D01*
X10100563Y8582152D01*
X10105643Y8571737D01*
X10105643Y8556244D01*
X10095229Y8545829D01*
X10079736Y8540750D01*
X10058908Y8540750D01*
X10043413Y8545829D01*
X10033000Y8556244D01*
X10139934Y8587486D02*
G01*
X10233659Y8587486D01*
X10267950Y8628887D02*
G01*
X10278109Y8634221D01*
X10293858Y8649715D01*
X10293858Y8540750D01*
X9559543Y8634221D02*
G01*
X9549129Y8644636D01*
X9533636Y8649715D01*
X9512808Y8649715D01*
X9497313Y8644636D01*
X9486900Y8634221D01*
X9486900Y8623808D01*
X9491979Y8613394D01*
X9497313Y8608060D01*
X9507727Y8602979D01*
X9538970Y8592565D01*
X9549129Y8587486D01*
X9554463Y8582152D01*
X9559543Y8571737D01*
X9559543Y8556244D01*
X9549129Y8545829D01*
X9533636Y8540750D01*
X9512808Y8540750D01*
X9497313Y8545829D01*
X9486900Y8556244D01*
X9593834Y8587486D02*
G01*
X9687559Y8587486D01*
X9726929Y8623808D02*
G01*
X9726929Y8628887D01*
X9732009Y8639302D01*
X9737343Y8644636D01*
X9747758Y8649715D01*
X9768586Y8649715D01*
X9779000Y8644636D01*
X9784079Y8639302D01*
X9789159Y8628887D01*
X9789159Y8618474D01*
X9784079Y8608060D01*
X9773665Y8592565D01*
X9721850Y8540750D01*
X9794493Y8540750D01*
X7583170Y8967215D02*
G01*
X7583170Y8884158D01*
X7577836Y8868410D01*
X7572756Y8863329D01*
X7562341Y8858250D01*
X7551927Y8858250D01*
X7541513Y8863329D01*
X7536179Y8868410D01*
X7531100Y8884158D01*
X7531100Y8894571D01*
X7617459Y8946387D02*
G01*
X7627620Y8951721D01*
X7643368Y8967215D01*
X7643368Y8858250D01*
X3187700Y6986015D02*
G01*
X3187700Y6877050D01*
X3187700Y6986015D02*
G01*
X3234436Y6986015D01*
X3249929Y6980936D01*
X3255263Y6975602D01*
X3260343Y6965187D01*
X3260343Y6954773D01*
X3255263Y6944360D01*
X3249929Y6939279D01*
X3234436Y6934200D01*
X3187700Y6934200D01*
X3224022Y6934200D02*
G01*
X3260343Y6877050D01*
X3357118Y6970521D02*
G01*
X3351784Y6980936D01*
X3336290Y6986015D01*
X3325875Y6986015D01*
X3310381Y6980936D01*
X3299968Y6965187D01*
X3294634Y6939279D01*
X3294634Y6913371D01*
X3299968Y6892544D01*
X3310381Y6882129D01*
X3325875Y6877050D01*
X3331209Y6877050D01*
X3346704Y6882129D01*
X3357118Y6892544D01*
X3362197Y6908037D01*
X3362197Y6913371D01*
X3357118Y6928865D01*
X3346704Y6939279D01*
X3331209Y6944360D01*
X3325875Y6944360D01*
X3310381Y6939279D01*
X3299968Y6928865D01*
X3294634Y6913371D01*
X7342377Y6985508D02*
G01*
X7337043Y6995921D01*
X7326629Y7006336D01*
X7316470Y7011415D01*
X7295641Y7011415D01*
X7285227Y7006336D01*
X7274813Y6995921D01*
X7269479Y6985508D01*
X7264400Y6969760D01*
X7264400Y6943852D01*
X7269479Y6928358D01*
X7274813Y6917944D01*
X7285227Y6907529D01*
X7295641Y6902450D01*
X7316470Y6902450D01*
X7326629Y6907529D01*
X7337043Y6917944D01*
X7342377Y6928358D01*
X7376668Y7011415D02*
G01*
X7376668Y6902450D01*
X7376668Y7011415D02*
G01*
X7449311Y6902450D01*
X7449311Y7011415D02*
G01*
X7449311Y6902450D01*
X7483602Y6990587D02*
G01*
X7494015Y6995921D01*
X7509509Y7011415D01*
X7509509Y6902450D01*
X1063244Y4671821D02*
G01*
X1052829Y4682236D01*
X1037336Y4687315D01*
X1016507Y4687315D01*
X1001013Y4682236D01*
X990600Y4671821D01*
X990600Y4661407D01*
X995679Y4650994D01*
X1001013Y4645660D01*
X1011428Y4640579D01*
X1042670Y4630165D01*
X1052829Y4625086D01*
X1058163Y4619752D01*
X1063244Y4609337D01*
X1063244Y4593844D01*
X1052829Y4583429D01*
X1037336Y4578350D01*
X1016507Y4578350D01*
X1001013Y4583429D01*
X990600Y4593844D01*
X1097534Y4687315D02*
G01*
X1123695Y4578350D01*
X1149604Y4687315D02*
G01*
X1123695Y4578350D01*
X1149604Y4687315D02*
G01*
X1175512Y4578350D01*
X1201420Y4687315D02*
G01*
X1175512Y4578350D01*
X1241044Y4661407D02*
G01*
X1241044Y4666487D01*
X1246123Y4676902D01*
X1251457Y4682236D01*
X1261871Y4687315D01*
X1282700Y4687315D01*
X1292860Y4682236D01*
X1298194Y4676902D01*
X1303273Y4666487D01*
X1303273Y4656073D01*
X1298194Y4645660D01*
X1287779Y4630165D01*
X1235710Y4578350D01*
X1308607Y4578350D01*
X3704843Y3439921D02*
G01*
X3694429Y3450336D01*
X3678936Y3455415D01*
X3658108Y3455415D01*
X3642613Y3450336D01*
X3632200Y3439921D01*
X3632200Y3429507D01*
X3637279Y3419094D01*
X3642613Y3413760D01*
X3653027Y3408679D01*
X3684270Y3398265D01*
X3694429Y3393186D01*
X3699763Y3387852D01*
X3704843Y3377437D01*
X3704843Y3361944D01*
X3694429Y3351529D01*
X3678936Y3346450D01*
X3658108Y3346450D01*
X3642613Y3351529D01*
X3632200Y3361944D01*
X3785870Y3439921D02*
G01*
X3785870Y3346450D01*
X3739134Y3393186D02*
G01*
X3832859Y3393186D01*
X3704843Y4214621D02*
G01*
X3694429Y4225036D01*
X3678936Y4230115D01*
X3658108Y4230115D01*
X3642613Y4225036D01*
X3632200Y4214621D01*
X3632200Y4204207D01*
X3637279Y4193794D01*
X3642613Y4188460D01*
X3653027Y4183379D01*
X3684270Y4172965D01*
X3694429Y4167886D01*
X3699763Y4162552D01*
X3704843Y4152137D01*
X3704843Y4136644D01*
X3694429Y4126229D01*
X3678936Y4121150D01*
X3658108Y4121150D01*
X3642613Y4126229D01*
X3632200Y4136644D01*
X3739134Y4167886D02*
G01*
X3832859Y4167886D01*
X3672077Y9004808D02*
G01*
X3666743Y9015221D01*
X3656329Y9025636D01*
X3646170Y9030715D01*
X3625341Y9030715D01*
X3614927Y9025636D01*
X3604513Y9015221D01*
X3599179Y9004808D01*
X3594100Y8989060D01*
X3594100Y8963152D01*
X3599179Y8947658D01*
X3604513Y8937244D01*
X3614927Y8926829D01*
X3625341Y8921750D01*
X3646170Y8921750D01*
X3656329Y8926829D01*
X3666743Y8937244D01*
X3672077Y8947658D01*
X3779011Y9030715D02*
G01*
X3727195Y8921750D01*
X3706368Y9030715D02*
G01*
X3779011Y9030715D01*
X2768600Y9043415D02*
G01*
X2768600Y8965437D01*
X2773679Y8949944D01*
X2784093Y8939529D01*
X2799841Y8934450D01*
X2810256Y8934450D01*
X2825750Y8939529D01*
X2836163Y8949944D01*
X2841243Y8965437D01*
X2841243Y9043415D01*
X2927604Y9043415D02*
G01*
X2875534Y8970771D01*
X2953511Y8970771D01*
X2927604Y9043415D02*
G01*
X2927604Y8934450D01*
X1739900Y8916415D02*
G01*
X1739900Y8807450D01*
X1739900Y8916415D02*
G01*
X1786636Y8916415D01*
X1802129Y8911336D01*
X1807463Y8906002D01*
X1812544Y8895587D01*
X1812544Y8885174D01*
X1807463Y8874760D01*
X1802129Y8869679D01*
X1786636Y8864600D01*
X1739900Y8864600D01*
X1776221Y8864600D02*
G01*
X1812544Y8807450D01*
X1846834Y8895587D02*
G01*
X1857247Y8900921D01*
X1872995Y8916415D01*
X1872995Y8807450D01*
X1536700Y7392415D02*
G01*
X1536700Y7283450D01*
X1536700Y7392415D02*
G01*
X1583436Y7392415D01*
X1598929Y7387336D01*
X1604263Y7382002D01*
X1609344Y7371587D01*
X1609344Y7361173D01*
X1604263Y7350760D01*
X1598929Y7345679D01*
X1583436Y7340600D01*
X1536700Y7340600D01*
X1573021Y7340600D02*
G01*
X1609344Y7283450D01*
X1648968Y7366508D02*
G01*
X1648968Y7371587D01*
X1654047Y7382002D01*
X1659381Y7387336D01*
X1669795Y7392415D01*
X1690370Y7392415D01*
X1700784Y7387336D01*
X1706118Y7382002D01*
X1711197Y7371587D01*
X1711197Y7361173D01*
X1706118Y7350760D01*
X1695704Y7335265D01*
X1643634Y7283450D01*
X1716531Y7283450D01*
X2146300Y8370315D02*
G01*
X2146300Y8292337D01*
X2151379Y8276844D01*
X2161793Y8266429D01*
X2177541Y8261350D01*
X2187956Y8261350D01*
X2203450Y8266429D01*
X2213863Y8276844D01*
X2218943Y8292337D01*
X2218943Y8370315D01*
X2253234Y8349487D02*
G01*
X2263647Y8354821D01*
X2279395Y8370315D01*
X2279395Y8261350D01*
X2667000Y4001515D02*
G01*
X2667000Y3923537D01*
X2672079Y3908044D01*
X2682493Y3897629D01*
X2698241Y3892550D01*
X2708656Y3892550D01*
X2724150Y3897629D01*
X2734563Y3908044D01*
X2739643Y3923537D01*
X2739643Y4001515D01*
X2784347Y4001515D02*
G01*
X2841497Y4001515D01*
X2810509Y3959860D01*
X2826004Y3959860D01*
X2836418Y3954779D01*
X2841497Y3949700D01*
X2846831Y3933952D01*
X2846831Y3923537D01*
X2841497Y3908044D01*
X2831084Y3897629D01*
X2815590Y3892550D01*
X2800095Y3892550D01*
X2784347Y3897629D01*
X2779268Y3902710D01*
X2773934Y3913123D01*
X1524000Y3569715D02*
G01*
X1524000Y3460750D01*
X1524000Y3569715D02*
G01*
X1570736Y3569715D01*
X1586229Y3564636D01*
X1591563Y3559302D01*
X1596644Y3548887D01*
X1596644Y3538473D01*
X1591563Y3528060D01*
X1586229Y3522979D01*
X1570736Y3517900D01*
X1524000Y3517900D02*
G01*
X1570736Y3517900D01*
X1586229Y3512565D01*
X1591563Y3507486D01*
X1596644Y3497071D01*
X1596644Y3481323D01*
X1591563Y3470910D01*
X1586229Y3465829D01*
X1570736Y3460750D01*
X1524000Y3460750D01*
X1662176Y3569715D02*
G01*
X1651762Y3564636D01*
X1641347Y3554221D01*
X1636268Y3543807D01*
X1630934Y3528060D01*
X1630934Y3502152D01*
X1636268Y3486657D01*
X1641347Y3476244D01*
X1651762Y3465829D01*
X1662176Y3460750D01*
X1683004Y3460750D01*
X1693418Y3465829D01*
X1703831Y3476244D01*
X1708912Y3486657D01*
X1714245Y3502152D01*
X1714245Y3528060D01*
X1708912Y3543807D01*
X1703831Y3554221D01*
X1693418Y3564636D01*
X1683004Y3569715D01*
X1662176Y3569715D01*
X1779523Y3569715D02*
G01*
X1769110Y3564636D01*
X1758950Y3554221D01*
X1753615Y3543807D01*
X1748536Y3528060D01*
X1748536Y3502152D01*
X1753615Y3486657D01*
X1758950Y3476244D01*
X1769110Y3465829D01*
X1779523Y3460750D01*
X1800352Y3460750D01*
X1810765Y3465829D01*
X1821179Y3476244D01*
X1826260Y3486657D01*
X1831594Y3502152D01*
X1831594Y3528060D01*
X1826260Y3543807D01*
X1821179Y3554221D01*
X1810765Y3564636D01*
X1800352Y3569715D01*
X1779523Y3569715D01*
X1902205Y3569715D02*
G01*
X1902205Y3460750D01*
X1865884Y3569715D02*
G01*
X1938527Y3569715D01*
X1536700Y4585715D02*
G01*
X1536700Y4476750D01*
X1536700Y4585715D02*
G01*
X1604263Y4585715D01*
X1536700Y4533900D02*
G01*
X1578355Y4533900D01*
X1536700Y4476750D02*
G01*
X1604263Y4476750D01*
X1638554Y4585715D02*
G01*
X1638554Y4476750D01*
X1638554Y4585715D02*
G01*
X1711197Y4476750D01*
X1711197Y4585715D02*
G01*
X1711197Y4476750D01*
X4344415Y5410200D02*
G01*
X4266438Y5410200D01*
X4250943Y5405120D01*
X4240529Y5394705D01*
X4235450Y5378957D01*
X4235450Y5368544D01*
X4240529Y5353050D01*
X4250943Y5342636D01*
X4266438Y5337555D01*
X4344415Y5337555D01*
X4344415Y5230368D02*
G01*
X4235450Y5282437D01*
X4344415Y5303265D02*
G01*
X4344415Y5230368D01*
X4116324Y5956300D02*
G01*
X4055872Y5956300D01*
X4055872Y5956300D02*
G01*
X4055872Y5921755D01*
X4116324Y5902705D02*
G01*
X4055872Y5902705D01*
X4116324Y5902705D02*
G01*
X4116324Y5876544D01*
X4113529Y5867907D01*
X4110736Y5865113D01*
X4104893Y5862320D01*
X4099052Y5862320D01*
X4093209Y5865113D01*
X4090415Y5867907D01*
X4087622Y5876544D01*
X4087622Y5902705D01*
X4087622Y5882386D02*
G01*
X4055872Y5862320D01*
X4102100Y5799836D02*
G01*
X4107688Y5802629D01*
X4113529Y5808471D01*
X4116324Y5814313D01*
X4116324Y5825744D01*
X4113529Y5831586D01*
X4107688Y5837428D01*
X4102100Y5840221D01*
X4093209Y5843270D01*
X4078986Y5843270D01*
X4070350Y5840221D01*
X4064508Y5837428D01*
X4058665Y5831586D01*
X4055872Y5825744D01*
X4055872Y5814313D01*
X4058665Y5808471D01*
X4064508Y5802629D01*
X4070350Y5799836D01*
X3862321Y5956294D02*
G01*
X3801869Y5956294D01*
X3862321Y5956294D02*
G01*
X3862321Y5930386D01*
X3859527Y5921750D01*
X3856733Y5918702D01*
X3850891Y5915908D01*
X3845049Y5915908D01*
X3839207Y5918702D01*
X3836413Y5921750D01*
X3833619Y5930386D01*
X3833619Y5956294D02*
G01*
X3833619Y5930386D01*
X3830571Y5921750D01*
X3827777Y5918702D01*
X3821935Y5915908D01*
X3813299Y5915908D01*
X3807457Y5918702D01*
X3804663Y5921750D01*
X3801869Y5930386D01*
X3801869Y5956294D01*
X3848097Y5853424D02*
G01*
X3853685Y5856472D01*
X3859527Y5862314D01*
X3862321Y5867902D01*
X3862321Y5879586D01*
X3859527Y5885174D01*
X3853685Y5891016D01*
X3848097Y5894064D01*
X3839207Y5896858D01*
X3824983Y5896858D01*
X3816347Y5894064D01*
X3810505Y5891016D01*
X3804663Y5885174D01*
X3801869Y5879586D01*
X3801869Y5867902D01*
X3804663Y5862314D01*
X3810505Y5856472D01*
X3816347Y5853424D01*
X3862321Y5834374D02*
G01*
X3801869Y5834374D01*
X3801869Y5834374D02*
G01*
X3801869Y5799830D01*
X3862321Y5780780D02*
G01*
X3801869Y5780780D01*
X3862321Y5740394D02*
G01*
X3821935Y5780780D01*
X3836413Y5766302D02*
G01*
X3801869Y5740394D01*
X3621021Y5918202D02*
G01*
X3560569Y5918202D01*
X3621021Y5918202D02*
G01*
X3621021Y5897882D01*
X3618227Y5889246D01*
X3612385Y5883658D01*
X3606797Y5880610D01*
X3597907Y5877816D01*
X3583683Y5877816D01*
X3575047Y5880610D01*
X3569205Y5883658D01*
X3563363Y5889246D01*
X3560569Y5897882D01*
X3560569Y5918202D01*
X3621021Y5858766D02*
G01*
X3560569Y5858766D01*
X3621021Y5839716D02*
G01*
X3560569Y5839716D01*
X3621021Y5839716D02*
G01*
X3560569Y5799330D01*
X3621021Y5799330D02*
G01*
X3560569Y5799330D01*
X3340097Y5900414D02*
G01*
X3345685Y5903208D01*
X3351527Y5909050D01*
X3354321Y5914638D01*
X3354321Y5926322D01*
X3351527Y5932164D01*
X3345685Y5937752D01*
X3340097Y5940800D01*
X3331207Y5943594D01*
X3316983Y5943594D01*
X3308347Y5940800D01*
X3302505Y5937752D01*
X3296663Y5932164D01*
X3293869Y5926322D01*
X3293869Y5914638D01*
X3296663Y5909050D01*
X3302505Y5903208D01*
X3308347Y5900414D01*
X3316983Y5900414D01*
X3316983Y5914638D02*
G01*
X3316983Y5900414D01*
X3354321Y5858250D02*
G01*
X3293869Y5881364D01*
X3354321Y5858250D02*
G01*
X3293869Y5835136D01*
X3313935Y5872474D02*
G01*
X3313935Y5843772D01*
X3354321Y5816086D02*
G01*
X3293869Y5816086D01*
X3354321Y5797036D02*
G01*
X3293869Y5797036D01*
X3354321Y5797036D02*
G01*
X3293869Y5756650D01*
X3354321Y5756650D02*
G01*
X3293869Y5756650D01*
X3104385Y5890511D02*
G01*
X3110227Y5896353D01*
X3113021Y5904989D01*
X3113021Y5916419D01*
X3110227Y5925055D01*
X3104385Y5930897D01*
X3098797Y5930897D01*
X3092955Y5928103D01*
X3089907Y5925055D01*
X3087113Y5919467D01*
X3081271Y5901941D01*
X3078477Y5896353D01*
X3075683Y5893305D01*
X3069841Y5890511D01*
X3061205Y5890511D01*
X3055363Y5896353D01*
X3052569Y5904989D01*
X3052569Y5916419D01*
X3055363Y5925055D01*
X3061205Y5930897D01*
X3113021Y5871461D02*
G01*
X3052569Y5871461D01*
X3113021Y5871461D02*
G01*
X3113021Y5851141D01*
X3110227Y5842505D01*
X3104385Y5836917D01*
X3098797Y5833869D01*
X3089907Y5831075D01*
X3075683Y5831075D01*
X3067047Y5833869D01*
X3061205Y5836917D01*
X3055363Y5842505D01*
X3052569Y5851141D01*
X3052569Y5871461D01*
X2844797Y5900422D02*
G01*
X2850385Y5903216D01*
X2856227Y5909058D01*
X2859021Y5914646D01*
X2859021Y5926330D01*
X2856227Y5932172D01*
X2850385Y5937760D01*
X2844797Y5940808D01*
X2835907Y5943602D01*
X2821683Y5943602D01*
X2813047Y5940808D01*
X2807205Y5937760D01*
X2801363Y5932172D01*
X2798569Y5926330D01*
X2798569Y5914646D01*
X2801363Y5909058D01*
X2807205Y5903216D01*
X2813047Y5900422D01*
X2821683Y5900422D01*
X2821683Y5914646D02*
G01*
X2821683Y5900422D01*
X2859021Y5881372D02*
G01*
X2798569Y5881372D01*
X2859021Y5881372D02*
G01*
X2798569Y5840732D01*
X2859021Y5840732D02*
G01*
X2798569Y5840732D01*
X2859021Y5821682D02*
G01*
X2798569Y5821682D01*
X2859021Y5821682D02*
G01*
X2859021Y5801616D01*
X2856227Y5792980D01*
X2850385Y5787138D01*
X2844797Y5784344D01*
X2835907Y5781296D01*
X2821683Y5781296D01*
X2813047Y5784344D01*
X2807205Y5787138D01*
X2801363Y5792980D01*
X2798569Y5801616D01*
X2798569Y5821682D01*
X2592324Y5930900D02*
G01*
X2531872Y5907786D01*
X2592324Y5884671D02*
G01*
X2531872Y5907786D01*
X2592324Y5865621D02*
G01*
X2589529Y5862828D01*
X2592324Y5859779D01*
X2595372Y5862828D01*
X2592324Y5865621D01*
X2572258Y5862828D02*
G01*
X2531872Y5862828D01*
X2572258Y5840729D02*
G01*
X2531872Y5840729D01*
X2560574Y5840729D02*
G01*
X2569209Y5832094D01*
X2572258Y5826505D01*
X2572258Y5817870D01*
X2569209Y5812028D01*
X2560574Y5808979D01*
X2531872Y5808979D01*
X9309100Y8992615D02*
G01*
X9309100Y8883650D01*
X9381743Y8992615D02*
G01*
X9309100Y8919971D01*
X9335008Y8945879D02*
G01*
X9381743Y8883650D01*
X9416034Y8971787D02*
G01*
X9426447Y8977121D01*
X9442195Y8992615D01*
X9442195Y8883650D01*
X3708400Y7938515D02*
G01*
X3708400Y7829550D01*
X3708400Y7938515D02*
G01*
X3755136Y7938515D01*
X3770629Y7933436D01*
X3775963Y7928102D01*
X3781043Y7917687D01*
X3781043Y7907273D01*
X3775963Y7896860D01*
X3770629Y7891779D01*
X3755136Y7886700D01*
X3708400Y7886700D01*
X3744722Y7886700D02*
G01*
X3781043Y7829550D01*
X3825747Y7938515D02*
G01*
X3882897Y7938515D01*
X3851909Y7896860D01*
X3867404Y7896860D01*
X3877818Y7891779D01*
X3882897Y7886700D01*
X3888231Y7870952D01*
X3888231Y7860537D01*
X3882897Y7845044D01*
X3872484Y7834629D01*
X3856990Y7829550D01*
X3841495Y7829550D01*
X3825747Y7834629D01*
X3820668Y7839710D01*
X3815334Y7850123D01*
X3200400Y7938515D02*
G01*
X3200400Y7829550D01*
X3200400Y7938515D02*
G01*
X3247136Y7938515D01*
X3262629Y7933436D01*
X3267963Y7928102D01*
X3273043Y7917687D01*
X3273043Y7907273D01*
X3267963Y7896860D01*
X3262629Y7891779D01*
X3247136Y7886700D01*
X3200400Y7886700D01*
X3236722Y7886700D02*
G01*
X3273043Y7829550D01*
X3359404Y7938515D02*
G01*
X3307334Y7865871D01*
X3385311Y7865871D01*
X3359404Y7938515D02*
G01*
X3359404Y7829550D01*
X5943600Y9335515D02*
G01*
X5943600Y9226550D01*
X5943600Y9335515D02*
G01*
X6011163Y9335515D01*
X5943600Y9283700D02*
G01*
X5985256Y9283700D01*
X5943600Y9226550D02*
G01*
X6011163Y9226550D01*
X6118097Y9320021D02*
G01*
X6107684Y9330436D01*
X6092190Y9335515D01*
X6071361Y9335515D01*
X6055868Y9330436D01*
X6045454Y9320021D01*
X6045454Y9309608D01*
X6050534Y9299194D01*
X6055868Y9293860D01*
X6066281Y9288779D01*
X6097270Y9278365D01*
X6107684Y9273286D01*
X6113018Y9267952D01*
X6118097Y9257537D01*
X6118097Y9242044D01*
X6107684Y9231629D01*
X6092190Y9226550D01*
X6071361Y9226550D01*
X6055868Y9231629D01*
X6045454Y9242044D01*
X6152388Y9335515D02*
G01*
X6152388Y9226550D01*
X6152388Y9335515D02*
G01*
X6199124Y9335515D01*
X6214872Y9330436D01*
X6219952Y9325102D01*
X6225286Y9314687D01*
X6225286Y9299194D01*
X6219952Y9288779D01*
X6214872Y9283700D01*
X6199124Y9278365D01*
X6152388Y9278365D01*
X6269990Y9335515D02*
G01*
X6327140Y9335515D01*
X6295897Y9293860D01*
X6311391Y9293860D01*
X6321806Y9288779D01*
X6327140Y9283700D01*
X6332220Y9267952D01*
X6332220Y9257537D01*
X6327140Y9242044D01*
X6316725Y9231629D01*
X6300977Y9226550D01*
X6285484Y9226550D01*
X6269990Y9231629D01*
X6264656Y9236710D01*
X6259575Y9247124D01*
X6371590Y9309608D02*
G01*
X6371590Y9314687D01*
X6376924Y9325102D01*
X6382004Y9330436D01*
X6392418Y9335515D01*
X6413245Y9335515D01*
X6423659Y9330436D01*
X6428740Y9325102D01*
X6434074Y9314687D01*
X6434074Y9304274D01*
X6428740Y9293860D01*
X6418579Y9278365D01*
X6366509Y9226550D01*
X6439154Y9226550D01*
X6473443Y9273286D02*
G01*
X6567170Y9273286D01*
X6601459Y9335515D02*
G01*
X6627368Y9226550D01*
X6653275Y9335515D02*
G01*
X6627368Y9226550D01*
X6653275Y9335515D02*
G01*
X6679184Y9226550D01*
X6705345Y9335515D02*
G01*
X6679184Y9226550D01*
X6739636Y9335515D02*
G01*
X6739636Y9226550D01*
X6739636Y9335515D02*
G01*
X6786372Y9335515D01*
X6801865Y9330436D01*
X6807200Y9325102D01*
X6812279Y9314687D01*
X6812279Y9304274D01*
X6807200Y9293860D01*
X6801865Y9288779D01*
X6786372Y9283700D01*
X6739636Y9283700D01*
X6775958Y9283700D02*
G01*
X6812279Y9226550D01*
X6877811Y9335515D02*
G01*
X6867397Y9330436D01*
X6856984Y9320021D01*
X6851650Y9309608D01*
X6846570Y9293860D01*
X6846570Y9267952D01*
X6851650Y9252458D01*
X6856984Y9242044D01*
X6867397Y9231629D01*
X6877811Y9226550D01*
X6898640Y9226550D01*
X6908800Y9231629D01*
X6919213Y9242044D01*
X6924547Y9252458D01*
X6929627Y9267952D01*
X6929627Y9293860D01*
X6924547Y9309608D01*
X6919213Y9320021D01*
X6908800Y9330436D01*
X6898640Y9335515D01*
X6877811Y9335515D01*
X6995159Y9335515D02*
G01*
X6984745Y9330436D01*
X6974331Y9320021D01*
X6969252Y9309608D01*
X6963918Y9293860D01*
X6963918Y9267952D01*
X6969252Y9252458D01*
X6974331Y9242044D01*
X6984745Y9231629D01*
X6995159Y9226550D01*
X7015988Y9226550D01*
X7026402Y9231629D01*
X7036815Y9242044D01*
X7041895Y9252458D01*
X7047229Y9267952D01*
X7047229Y9293860D01*
X7041895Y9309608D01*
X7036815Y9320021D01*
X7026402Y9330436D01*
X7015988Y9335515D01*
X6995159Y9335515D01*
X7081520Y9335515D02*
G01*
X7081520Y9226550D01*
X7081520Y9335515D02*
G01*
X7122922Y9226550D01*
X7164577Y9335515D02*
G01*
X7122922Y9226550D01*
X7164577Y9335515D02*
G01*
X7164577Y9226550D01*
X7198868Y9273286D02*
G01*
X7292340Y9273286D01*
X7337043Y9335515D02*
G01*
X7394193Y9335515D01*
X7362952Y9293860D01*
X7378700Y9293860D01*
X7388859Y9288779D01*
X7394193Y9283700D01*
X7399274Y9267952D01*
X7399274Y9257537D01*
X7394193Y9242044D01*
X7383779Y9231629D01*
X7368286Y9226550D01*
X7352538Y9226550D01*
X7337043Y9231629D01*
X7331709Y9236710D01*
X7326629Y9247124D01*
X7438897Y9309608D02*
G01*
X7438897Y9314687D01*
X7443977Y9325102D01*
X7449311Y9330436D01*
X7459725Y9335515D01*
X7480300Y9335515D01*
X7490713Y9330436D01*
X7496047Y9325102D01*
X7501127Y9314687D01*
X7501127Y9304274D01*
X7496047Y9293860D01*
X7485634Y9278365D01*
X7433563Y9226550D01*
X7506461Y9226550D01*
X3162300Y4014215D02*
G01*
X3162300Y3905250D01*
X3162300Y4014215D02*
G01*
X3209036Y4014215D01*
X3224529Y4009136D01*
X3229863Y4003802D01*
X3234943Y3993387D01*
X3234943Y3982973D01*
X3229863Y3972560D01*
X3224529Y3967479D01*
X3209036Y3962400D01*
X3162300Y3962400D01*
X3198622Y3962400D02*
G01*
X3234943Y3905250D01*
X3331718Y4014215D02*
G01*
X3279647Y4014215D01*
X3274568Y3967479D01*
X3279647Y3972560D01*
X3295395Y3977894D01*
X3310890Y3977894D01*
X3326384Y3972560D01*
X3336797Y3962400D01*
X3342131Y3946652D01*
X3342131Y3936237D01*
X3336797Y3920744D01*
X3326384Y3910329D01*
X3310890Y3905250D01*
X3295395Y3905250D01*
X3279647Y3910329D01*
X3274568Y3915410D01*
X3269234Y3925823D01*
X1295400Y6681215D02*
G01*
X1295400Y6572250D01*
X1295400Y6681215D02*
G01*
X1337055Y6572250D01*
X1378457Y6681215D02*
G01*
X1337055Y6572250D01*
X1378457Y6681215D02*
G01*
X1378457Y6572250D01*
X1412747Y6681215D02*
G01*
X1412747Y6572250D01*
X1525015Y6655308D02*
G01*
X1519936Y6665721D01*
X1509521Y6676136D01*
X1499107Y6681215D01*
X1478279Y6681215D01*
X1467865Y6676136D01*
X1457452Y6665721D01*
X1452371Y6655308D01*
X1447037Y6639560D01*
X1447037Y6613652D01*
X1452371Y6598158D01*
X1457452Y6587744D01*
X1467865Y6577329D01*
X1478279Y6572250D01*
X1499107Y6572250D01*
X1509521Y6577329D01*
X1519936Y6587744D01*
X1525015Y6598158D01*
X1559305Y6681215D02*
G01*
X1559305Y6572250D01*
X1559305Y6681215D02*
G01*
X1606042Y6681215D01*
X1621789Y6676136D01*
X1626870Y6670802D01*
X1631950Y6660387D01*
X1631950Y6649973D01*
X1626870Y6639560D01*
X1621789Y6634479D01*
X1606042Y6629400D01*
X1559305Y6629400D01*
X1595628Y6629400D02*
G01*
X1631950Y6572250D01*
X1697481Y6681215D02*
G01*
X1687068Y6676136D01*
X1676654Y6665721D01*
X1671573Y6655308D01*
X1666239Y6639560D01*
X1666239Y6613652D01*
X1671573Y6598158D01*
X1676654Y6587744D01*
X1687068Y6577329D01*
X1697481Y6572250D01*
X1718310Y6572250D01*
X1728723Y6577329D01*
X1739137Y6587744D01*
X1744218Y6598158D01*
X1749552Y6613652D01*
X1749552Y6639560D01*
X1744218Y6655308D01*
X1739137Y6665721D01*
X1728723Y6676136D01*
X1718310Y6681215D01*
X1697481Y6681215D01*
X1856486Y6665721D02*
G01*
X1846071Y6676136D01*
X1830578Y6681215D01*
X1809750Y6681215D01*
X1794255Y6676136D01*
X1783842Y6665721D01*
X1783842Y6655308D01*
X1788921Y6644894D01*
X1794255Y6639560D01*
X1804670Y6634479D01*
X1835657Y6624065D01*
X1846071Y6618986D01*
X1851405Y6613652D01*
X1856486Y6603237D01*
X1856486Y6587744D01*
X1846071Y6577329D01*
X1830578Y6572250D01*
X1809750Y6572250D01*
X1794255Y6577329D01*
X1783842Y6587744D01*
X1890776Y6681215D02*
G01*
X1890776Y6572250D01*
X1890776Y6681215D02*
G01*
X1927097Y6681215D01*
X1942845Y6676136D01*
X1953259Y6665721D01*
X1958340Y6655308D01*
X1963420Y6639560D01*
X1963420Y6613652D01*
X1958340Y6598158D01*
X1953259Y6587744D01*
X1942845Y6577329D01*
X1927097Y6572250D01*
X1890776Y6572250D01*
X1997709Y6660387D02*
G01*
X2008124Y6665721D01*
X2023872Y6681215D01*
X2023872Y6572250D01*
X1358900Y8294115D02*
G01*
X1358900Y8216137D01*
X1363979Y8200644D01*
X1374394Y8190229D01*
X1390142Y8185150D01*
X1400555Y8185150D01*
X1416050Y8190229D01*
X1426463Y8200644D01*
X1431544Y8216137D01*
X1431544Y8294115D01*
X1538731Y8278621D02*
G01*
X1528318Y8289036D01*
X1512570Y8294115D01*
X1491995Y8294115D01*
X1476247Y8289036D01*
X1465834Y8278621D01*
X1465834Y8268208D01*
X1471168Y8257794D01*
X1476247Y8252460D01*
X1486662Y8247379D01*
X1517904Y8236965D01*
X1528318Y8231886D01*
X1533397Y8226552D01*
X1538731Y8216137D01*
X1538731Y8200644D01*
X1528318Y8190229D01*
X1512570Y8185150D01*
X1491995Y8185150D01*
X1476247Y8190229D01*
X1465834Y8200644D01*
X1573021Y8294115D02*
G01*
X1573021Y8185150D01*
X1573021Y8294115D02*
G01*
X1619757Y8294115D01*
X1635252Y8289036D01*
X1640586Y8283702D01*
X1645665Y8273287D01*
X1645665Y8262873D01*
X1640586Y8252460D01*
X1635252Y8247379D01*
X1619757Y8242300D01*
X1573021Y8242300D02*
G01*
X1619757Y8242300D01*
X1635252Y8236965D01*
X1640586Y8231886D01*
X1645665Y8221471D01*
X1645665Y8205723D01*
X1640586Y8195310D01*
X1635252Y8190229D01*
X1619757Y8185150D01*
X1573021Y8185150D01*
X1757934Y8268208D02*
G01*
X1752600Y8278621D01*
X1742439Y8289036D01*
X1732026Y8294115D01*
X1711197Y8294115D01*
X1700784Y8289036D01*
X1690370Y8278621D01*
X1685289Y8268208D01*
X1679955Y8252460D01*
X1679955Y8226552D01*
X1685289Y8211058D01*
X1690370Y8200644D01*
X1700784Y8190229D01*
X1711197Y8185150D01*
X1732026Y8185150D01*
X1742439Y8190229D01*
X1752600Y8200644D01*
X1757934Y8211058D01*
X1792223Y8273287D02*
G01*
X1802637Y8278621D01*
X1818131Y8294115D01*
X1818131Y8185150D01*
G36*
X3298037Y9080449D02*
G01*
X3282187Y9079839D01*
X3266389Y9078417D01*
X3250742Y9076182D01*
X3235147Y9073184D01*
X3219805Y9069324D01*
X3204616Y9064701D01*
X3189732Y9059316D01*
X3175101Y9053169D01*
X3160826Y9046260D01*
X3146958Y9038640D01*
X3133445Y9030309D01*
X3120440Y9021267D01*
X3107842Y9011615D01*
X3095802Y9001302D01*
X3084322Y8990380D01*
X3073400Y8978900D01*
X3530600Y8978900D01*
X3519678Y8990380D01*
X3508197Y9001302D01*
X3496157Y9011615D01*
X3483559Y9021267D01*
X3470554Y9030309D01*
X3457041Y9038640D01*
X3443173Y9046260D01*
X3428898Y9053169D01*
X3414268Y9059316D01*
X3399383Y9064701D01*
X3384194Y9069324D01*
X3368852Y9073184D01*
X3353257Y9076182D01*
X3337610Y9078417D01*
X3321812Y9079839D01*
X3305962Y9080449D01*
G37*
G36*
X2536444Y9051086D02*
G01*
X2522169Y9050477D01*
X2507945Y9049054D01*
X2493873Y9046819D01*
X2479903Y9043771D01*
X2466136Y9039961D01*
X2452624Y9035338D01*
X2439416Y9029954D01*
X2426512Y9023858D01*
X2413965Y9017000D01*
X2401874Y9009481D01*
X2390190Y9001252D01*
X2379014Y8992362D01*
X2368346Y8982862D01*
X2363216Y8977884D01*
X2716784Y8977884D01*
X2706420Y8987688D01*
X2695448Y8996883D01*
X2684018Y9005417D01*
X2672130Y9013342D01*
X2659837Y9020505D01*
X2647086Y9027007D01*
X2634030Y9032748D01*
X2620619Y9037726D01*
X2613863Y9039961D01*
X2600096Y9043771D01*
X2586126Y9046819D01*
X2572054Y9049054D01*
X2557830Y9050477D01*
X2543556Y9051086D01*
G37*
G36*
X2449982Y8681110D02*
G01*
X2449982Y8601100D01*
X2469997Y8601100D01*
X2469997Y8681110D01*
G37*
G36*
X2420010Y8651087D02*
G01*
X2420010Y8631123D01*
X2500020Y8631123D01*
X2500020Y8651087D01*
G37*
D11*
X7458999Y9004998D02*
G01*
X7488999Y8974998D01*
X6988997Y8804003D02*
G01*
X7018997Y8774003D01*
X6989000Y8975999D02*
G01*
X7019000Y9005996D01*
X7459012Y8773988D02*
G01*
X7489012Y8803985D01*
X7019000Y9005996D02*
G01*
X7458999Y9005996D01*
X7488999Y8974998D02*
G01*
X7488999Y8803985D01*
X7459012Y8773988D02*
G01*
X7018997Y8773988D01*
X6988997Y8804003D02*
G01*
X6988997Y8975999D01*
X3360300Y6846001D02*
G01*
X3360300Y6615998D01*
X3360300Y6615998D02*
G01*
X2710299Y6615998D01*
X2710299Y6619001D02*
G01*
X2710299Y6842998D01*
X2710299Y6846001D02*
G01*
X3360300Y6846001D01*
X6483959Y6856018D02*
G01*
X7488961Y6856018D01*
X7488961Y6601028D01*
X6483959Y6601028D01*
X6483959Y6856018D01*
X108899Y4232389D02*
G01*
X508899Y4232389D01*
X108899Y4432383D02*
G01*
X108899Y4232389D01*
X508899Y4432383D02*
G01*
X108899Y4432383D01*
X602749Y3735600D02*
G01*
X508901Y3735600D01*
X938900Y3735600D02*
G01*
X845050Y3735600D01*
X938900Y4595599D02*
G01*
X938900Y3735600D01*
X508899Y4595599D02*
G01*
X508901Y3735600D01*
X605259Y4595599D02*
G01*
X508899Y4595599D01*
X938900Y4595599D02*
G01*
X842540Y4595599D01*
X3098800Y8636000D02*
G01*
X3200400Y8636000D01*
X3149600Y8585200D02*
G01*
X3149600Y8686800D01*
X1224399Y8520998D02*
G01*
X1224399Y8751001D01*
X1224399Y8751001D02*
G01*
X1874400Y8751001D01*
X1874400Y8747998D02*
G01*
X1874400Y8524001D01*
X1874400Y8520998D02*
G01*
X1224399Y8520998D01*
X1211699Y7009698D02*
G01*
X1211699Y7239701D01*
X1211699Y7239701D02*
G01*
X1861700Y7239701D01*
X1861700Y7236698D02*
G01*
X1861700Y7012701D01*
X1861700Y7009698D02*
G01*
X1211699Y7009698D01*
D10*
X2366942Y8206620D02*
G01*
X2366942Y7541379D01*
X2072662Y7541379D01*
X2072662Y8206620D01*
X2366942Y8206620D01*
D11*
X2659999Y3858300D02*
G01*
X2659999Y3228299D01*
X2659999Y3228299D02*
G01*
X2420000Y3228299D01*
X2420000Y3228299D02*
G01*
X2420000Y3858300D01*
X2420000Y3858300D02*
G01*
X2659999Y3858300D01*
X1626768Y3373399D02*
G01*
X2074199Y3373399D01*
X2154199Y3177847D02*
G01*
X2154199Y2968952D01*
X1554200Y3177847D02*
G01*
X1554200Y2968952D01*
X1626768Y2773400D02*
G01*
X2081631Y2773400D01*
X1614068Y4389399D02*
G01*
X2061499Y4389399D01*
X2141499Y4193847D02*
G01*
X2141499Y3984952D01*
X1541500Y4193847D02*
G01*
X1541500Y3984952D01*
X1614068Y3789400D02*
G01*
X2068931Y3789400D01*
D12*
X3544874Y5042105D02*
G01*
X3465499Y5042105D01*
X3136874Y5002019D02*
G01*
X3136874Y5081371D01*
X3097199Y5041694D02*
G01*
X3176574Y5041694D01*
D11*
X2425700Y4711700D02*
G01*
X2425700Y6108700D01*
D13*
X2974695Y4593313D02*
G01*
X3674696Y4593313D01*
X2974695Y5153304D02*
G01*
X2974695Y4593313D01*
X2974695Y4453303D01*
X3674696Y4453303D01*
X3674696Y4593313D01*
X3674696Y5153304D01*
X2974695Y5153304D01*
D11*
X3949700Y4457700D02*
G01*
X2679700Y4457700D01*
X4203700Y6108700D02*
G01*
X4203700Y4711700D01*
X2679700Y6362700D02*
G01*
X3949700Y6362700D01*
D14*
X8601384Y8344499D02*
G01*
X9096298Y8344499D01*
X7896301Y8344499D02*
G01*
X8391174Y8344499D01*
X7896303Y8344499D02*
G01*
X7896301Y8446287D01*
X9096296Y8344499D02*
G01*
X9096298Y8446287D01*
X8070595Y7398461D02*
G01*
X8465058Y7398461D01*
X8566404Y7500289D02*
G01*
X8727186Y7335240D01*
X8676299Y8818473D02*
G01*
X8869019Y8818473D01*
X8869019Y7954873D01*
X8569020Y7954873D01*
X8566604Y7952460D01*
X8566604Y7550861D01*
X8566604Y7500061D01*
D11*
X7716301Y7065190D02*
G01*
X7716301Y8985201D01*
X9276303Y7065203D02*
G01*
X9276303Y8985214D01*
X7716299Y7065200D02*
G01*
X9276300Y7065200D01*
X8920988Y7405370D02*
G01*
X8698229Y7405370D01*
X9276303Y8985214D02*
G01*
X8525769Y8985214D01*
X8466830Y8985214D02*
G01*
X7716301Y8985214D01*
X8596299Y8492794D02*
G01*
X8596299Y8192795D01*
X8396300Y8192795D01*
X8396300Y8492794D01*
X8596299Y8492794D01*
X3671001Y7282299D02*
G01*
X3440998Y7282299D01*
X3440998Y7282299D02*
G01*
X3440998Y7932300D01*
X3444001Y7932300D02*
G01*
X3667998Y7932300D01*
X3671001Y7932300D02*
G01*
X3671001Y7282299D01*
X3163001Y7282299D02*
G01*
X2932998Y7282299D01*
X2932998Y7282299D02*
G01*
X2932998Y7932300D01*
X2936001Y7932300D02*
G01*
X3159998Y7932300D01*
X3163001Y7932300D02*
G01*
X3163001Y7282299D01*
X4064076Y9353826D02*
G01*
X4064076Y9400420D01*
X5867775Y9400420D01*
X5867775Y9353824D01*
D15*
X5630730Y8940619D02*
G01*
X5630730Y9277319D01*
X5280723Y9277319D01*
X5280723Y8977337D01*
X5030779Y8977337D01*
X5030779Y9277319D01*
X4780841Y9277319D01*
X4780841Y8977337D01*
X4530648Y8977337D01*
X4530648Y9277319D01*
X5473778Y9277319D02*
G01*
X5473778Y8940619D01*
X4530742Y9277380D02*
G01*
X4280735Y9277380D01*
X4280735Y8927381D01*
D11*
X5867476Y9353824D02*
G01*
X5867476Y8715540D01*
X4064076Y9353826D02*
G01*
X4064076Y8715540D01*
X4064078Y8863825D02*
G01*
X5867478Y8863825D01*
X4064078Y6928312D02*
G01*
X4064078Y6833824D01*
X4326166Y6833814D01*
X5605391Y6833824D02*
G01*
X5867478Y6833824D01*
X5867478Y6928312D01*
X2932998Y3855600D02*
G01*
X3163001Y3855600D01*
X3163001Y3855600D02*
G01*
X3163001Y3205599D01*
X3159998Y3205599D02*
G01*
X2936001Y3205599D01*
X2932998Y3205599D02*
G01*
X2932998Y3855600D01*
X564131Y6438902D02*
G01*
X606549Y6438902D01*
X606597Y5602302D01*
X516887Y5308602D01*
X821598Y6438902D02*
G01*
X516798Y6438902D01*
X516798Y4965702D01*
X806597Y4965702D01*
X1056546Y4965702D02*
G01*
X1805846Y4965702D01*
X1813811Y6438902D02*
G01*
X1062898Y6438902D01*
D16*
X1970427Y5423689D02*
G01*
X1970529Y5113784D01*
D11*
X879406Y8397173D02*
G01*
X1065697Y8397173D01*
X507568Y7503175D02*
G01*
X507568Y8397173D01*
X655698Y8397173D01*
X879370Y7503175D02*
G01*
X1065733Y7503175D01*
X507568Y7503175D02*
G01*
X655734Y7503175D01*
G75*
G01*
X2425700Y6108700D02*
G02*
X2679700Y6362700I254000J0D01*
G75*
G01*
X3949700Y6362700D02*
G02*
X4203700Y6108700I0J-254000D01*
G75*
G01*
X4203700Y4711700D02*
G02*
X3949700Y4457700I-254000J0D01*
G75*
G01*
X2679700Y4457700D02*
G02*
X2425700Y4711700I0J254000D01*
D13*
G75*
G01*
X3058719Y5041697D02*
G03*
X3058719Y5042103I78181J203D01*
G75*
G01*
X3583381Y5042103D02*
G03*
X3583381Y5041697I-78181J-203D01*
D11*
G75*
G01
X3616960Y8763000D02*
G03X3616960Y8763000I-314960J0D01*
G75*
G01
X2790012Y8801100D02*
G03X2790012Y8801100I-250012J0D01*
G75*
G01
X1924558Y3078226D02*
G03X1924558Y3078226I-74930J0D01*
G75*
G01
X2024634Y3078226D02*
G03X2024634Y3078226I-175006J0D01*
G75*
G01
X1911858Y4094226D02*
G03X1911858Y4094226I-74930J0D01*
G75*
G01
X2011934Y4094226D02*
G03X2011934Y4094226I-175006J0D01*
G75*
G01
X3992982Y8759622D02*
G03X3992982Y8759622I-34214J0D01*
M02*
