G04 Layer: TopPasteMaskLayer*
G04 EasyEDA v6.5.22, 2022-12-04 20:31:14*
G04 182cb613c9664d73b7f9de34f776aa3b,1ae14fa7f5aa486887b2aa5280da83c0,10*
G04 Gerber Generator version 0.2*
G04 Scale: 100 percent, Rotated: No, Reflected: No *
G04 Dimensions in millimeters *
G04 leading zeros omitted , absolute positions ,4 integer and 5 decimal *
%FSLAX45Y45*%
%MOMM*%

%AMMACRO1*21,1,$1,$2,0,0,$3*%
%ADD10R,2.5000X1.1000*%
%ADD11MACRO1,3.6X2.34X90.0000*%
%ADD12R,2.0000X0.9000*%
%ADD13R,0.9000X2.0000*%
%ADD14MACRO1,2X0.9X-90.0000*%
%ADD15MACRO1,2X0.9X0.0000*%
%ADD16R,4.1000X4.1000*%
%ADD17R,1.3000X0.6000*%
%ADD18R,1.4000X1.2000*%
%ADD19R,2.0000X1.2000*%

%LPD*%
G36*
X1199388Y7660284D02*
G01*
X1199388Y7600289D01*
X1329385Y7600289D01*
X1329385Y7660284D01*
G37*
G36*
X1199388Y8040268D02*
G01*
X1199388Y8010296D01*
X1329385Y8010296D01*
X1329385Y8040268D01*
G37*
G36*
X1199388Y8300262D02*
G01*
X1199388Y8240268D01*
X1329385Y8240268D01*
X1329385Y8300262D01*
G37*
G36*
X1199388Y7940294D02*
G01*
X1199388Y7910271D01*
X1329385Y7910271D01*
X1329385Y7940294D01*
G37*
G36*
X1199388Y7790281D02*
G01*
X1199388Y7760258D01*
X1329385Y7760258D01*
X1329385Y7790281D01*
G37*
G36*
X1199388Y8090255D02*
G01*
X1199388Y8060283D01*
X1329385Y8060283D01*
X1329385Y8090255D01*
G37*
G36*
X1199388Y7840319D02*
G01*
X1199388Y7810296D01*
X1329385Y7810296D01*
X1329385Y7840319D01*
G37*
G36*
X1199388Y7890256D02*
G01*
X1199388Y7860284D01*
X1329385Y7860284D01*
X1329385Y7890256D01*
G37*
G36*
X1199388Y8140293D02*
G01*
X1199388Y8110270D01*
X1329385Y8110270D01*
X1329385Y8140293D01*
G37*
G36*
X1199388Y7990281D02*
G01*
X1199388Y7960258D01*
X1329385Y7960258D01*
X1329385Y7990281D01*
G37*
G36*
X1199388Y8220252D02*
G01*
X1199388Y8160258D01*
X1329385Y8160258D01*
X1329385Y8220252D01*
G37*
G36*
X1147572Y8442807D02*
G01*
X1141577Y8442502D01*
X1135684Y8441588D01*
X1129842Y8440115D01*
X1124254Y8438083D01*
X1118870Y8435492D01*
X1113739Y8432342D01*
X1108964Y8428736D01*
X1104595Y8424672D01*
X1100632Y8420201D01*
X1097127Y8415324D01*
X1094181Y8410143D01*
X1091692Y8404707D01*
X1089812Y8399018D01*
X1088440Y8393226D01*
X1087729Y8387283D01*
X1087577Y8381288D01*
X1088034Y8375345D01*
X1089050Y8369452D01*
X1090676Y8363661D01*
X1092860Y8358124D01*
X1095603Y8352790D01*
X1098854Y8347760D01*
X1102563Y8343087D01*
X1106728Y8338820D01*
X1111300Y8334959D01*
X1116279Y8331606D01*
X1121511Y8328710D01*
X1127048Y8326424D01*
X1132738Y8324646D01*
X1138631Y8323478D01*
X1144574Y8322868D01*
X1227531Y8322767D01*
X1233525Y8323072D01*
X1239418Y8323986D01*
X1245260Y8325459D01*
X1250848Y8327491D01*
X1256233Y8330082D01*
X1261364Y8333231D01*
X1266139Y8336838D01*
X1270508Y8340902D01*
X1274470Y8345373D01*
X1277975Y8350250D01*
X1280922Y8355431D01*
X1283411Y8360867D01*
X1285290Y8366556D01*
X1286662Y8372348D01*
X1287373Y8378291D01*
X1287526Y8384286D01*
X1287068Y8390229D01*
X1286052Y8396122D01*
X1284427Y8401913D01*
X1282242Y8407450D01*
X1279499Y8412784D01*
X1276248Y8417814D01*
X1272540Y8422487D01*
X1268374Y8426754D01*
X1263802Y8430615D01*
X1258824Y8433968D01*
X1253591Y8436864D01*
X1248054Y8439150D01*
X1242364Y8440928D01*
X1236472Y8442096D01*
X1230528Y8442706D01*
G37*
G36*
X1147572Y7577785D02*
G01*
X1141577Y7577480D01*
X1135684Y7576566D01*
X1129842Y7575092D01*
X1124254Y7573060D01*
X1118870Y7570470D01*
X1113739Y7567320D01*
X1108964Y7563713D01*
X1104595Y7559649D01*
X1100632Y7555179D01*
X1097127Y7550302D01*
X1094181Y7545120D01*
X1091692Y7539685D01*
X1089812Y7533995D01*
X1088440Y7528204D01*
X1087729Y7522260D01*
X1087577Y7516266D01*
X1088034Y7510322D01*
X1089050Y7504430D01*
X1090676Y7498638D01*
X1092860Y7493101D01*
X1095603Y7487767D01*
X1098854Y7482738D01*
X1102563Y7478064D01*
X1106728Y7473797D01*
X1111300Y7469936D01*
X1116279Y7466584D01*
X1121511Y7463688D01*
X1127048Y7461402D01*
X1132738Y7459624D01*
X1138631Y7458456D01*
X1144574Y7457846D01*
X1227531Y7457744D01*
X1233525Y7458049D01*
X1239418Y7458964D01*
X1245260Y7460437D01*
X1250848Y7462469D01*
X1256233Y7465059D01*
X1261364Y7468209D01*
X1266139Y7471816D01*
X1270508Y7475880D01*
X1274470Y7480350D01*
X1277975Y7485227D01*
X1280922Y7490409D01*
X1283411Y7495844D01*
X1285290Y7501534D01*
X1286662Y7507325D01*
X1287373Y7513269D01*
X1287526Y7519263D01*
X1287068Y7525207D01*
X1286052Y7531100D01*
X1284427Y7536891D01*
X1282242Y7542428D01*
X1279499Y7547762D01*
X1276248Y7552791D01*
X1272540Y7557465D01*
X1268374Y7561732D01*
X1263802Y7565593D01*
X1258824Y7568946D01*
X1253591Y7571841D01*
X1248054Y7574127D01*
X1242364Y7575905D01*
X1236472Y7577074D01*
X1230528Y7577683D01*
G37*
G36*
X737565Y8442807D02*
G01*
X731570Y8442502D01*
X725678Y8441588D01*
X719886Y8440115D01*
X714248Y8438083D01*
X708863Y8435492D01*
X703783Y8432342D01*
X699008Y8428736D01*
X694588Y8424672D01*
X690676Y8420201D01*
X687171Y8415324D01*
X684174Y8410143D01*
X681685Y8404707D01*
X679805Y8399018D01*
X678484Y8393226D01*
X677722Y8387283D01*
X677570Y8381288D01*
X678027Y8375345D01*
X679043Y8369452D01*
X680669Y8363661D01*
X682853Y8358124D01*
X685596Y8352790D01*
X688848Y8347760D01*
X692556Y8343087D01*
X696772Y8338820D01*
X701344Y8334959D01*
X706272Y8331606D01*
X711504Y8328710D01*
X717042Y8326424D01*
X722731Y8324646D01*
X728624Y8323478D01*
X734568Y8322868D01*
X797560Y8322767D01*
X803554Y8323072D01*
X809447Y8323986D01*
X815238Y8325459D01*
X820877Y8327491D01*
X826262Y8330082D01*
X831342Y8333231D01*
X836117Y8336838D01*
X840536Y8340902D01*
X844448Y8345373D01*
X847953Y8350250D01*
X850950Y8355431D01*
X853440Y8360867D01*
X855319Y8366556D01*
X856640Y8372348D01*
X857402Y8378291D01*
X857554Y8384286D01*
X857097Y8390229D01*
X856081Y8396122D01*
X854456Y8401913D01*
X852271Y8407450D01*
X849528Y8412784D01*
X846277Y8417814D01*
X842568Y8422487D01*
X838352Y8426754D01*
X833780Y8430615D01*
X828852Y8433968D01*
X823620Y8436864D01*
X818083Y8439150D01*
X812393Y8440928D01*
X806500Y8442096D01*
X800557Y8442706D01*
G37*
G36*
X737565Y7577785D02*
G01*
X731570Y7577480D01*
X725678Y7576566D01*
X719886Y7575092D01*
X714248Y7573060D01*
X708863Y7570470D01*
X703783Y7567320D01*
X699008Y7563713D01*
X694588Y7559649D01*
X690676Y7555179D01*
X687171Y7550302D01*
X684174Y7545120D01*
X681685Y7539685D01*
X679805Y7533995D01*
X678484Y7528204D01*
X677722Y7522260D01*
X677570Y7516266D01*
X678027Y7510322D01*
X679043Y7504430D01*
X680669Y7498638D01*
X682853Y7493101D01*
X685596Y7487767D01*
X688848Y7482738D01*
X692556Y7478064D01*
X696772Y7473797D01*
X701344Y7469936D01*
X706272Y7466584D01*
X711504Y7463688D01*
X717042Y7461402D01*
X722731Y7459624D01*
X728624Y7458456D01*
X734568Y7457846D01*
X797560Y7457744D01*
X803554Y7458049D01*
X809447Y7458964D01*
X815238Y7460437D01*
X820877Y7462469D01*
X826262Y7465059D01*
X831342Y7468209D01*
X836117Y7471816D01*
X840536Y7475880D01*
X844448Y7480350D01*
X847953Y7485227D01*
X850950Y7490409D01*
X853440Y7495844D01*
X855319Y7501534D01*
X856640Y7507325D01*
X857402Y7513269D01*
X857554Y7519263D01*
X857097Y7525207D01*
X856081Y7531100D01*
X854456Y7536891D01*
X852271Y7542428D01*
X849528Y7547762D01*
X846277Y7552791D01*
X842568Y7557465D01*
X838352Y7561732D01*
X833780Y7565593D01*
X828852Y7568946D01*
X823620Y7571841D01*
X818083Y7574127D01*
X812393Y7575905D01*
X806500Y7577074D01*
X800557Y7577683D01*
G37*
G36*
X1199388Y7740243D02*
G01*
X1199388Y7680248D01*
X1329385Y7680248D01*
X1329385Y7740243D01*
G37*
D10*
G01*
X1912818Y8103996D03*
G01*
X1912818Y7874000D03*
G01*
X1912818Y7644003D03*
D11*
G01*
X2506802Y7874000D03*
D12*
G01*
X4065777Y8647429D03*
G01*
X4065777Y8520429D03*
G01*
X4065777Y8393429D03*
G01*
X4065777Y8266429D03*
G01*
X4065777Y8139429D03*
G01*
X4065777Y8012429D03*
G01*
X4065777Y7885429D03*
G01*
X4065777Y7758429D03*
G01*
X4065777Y7631429D03*
G01*
X4065777Y7504429D03*
G01*
X4065777Y7377429D03*
G01*
X4065777Y7250429D03*
G01*
X4065777Y7123429D03*
G01*
X4065777Y6996429D03*
D13*
G01*
X4394276Y6846417D03*
G01*
X4521276Y6846417D03*
G01*
X4648276Y6846417D03*
G01*
X4775276Y6846417D03*
G01*
X4902276Y6846417D03*
D14*
G01*
X5029278Y6846412D03*
G01*
X5156278Y6846412D03*
G01*
X5283278Y6846412D03*
G01*
X5410278Y6846412D03*
G01*
X5537278Y6846412D03*
D15*
G01*
X5865784Y6996424D03*
G01*
X5865784Y7123424D03*
G01*
X5865784Y7250424D03*
G01*
X5865784Y7377424D03*
G01*
X5865784Y7504424D03*
G01*
X5865784Y7631424D03*
G01*
X5865784Y7758424D03*
G01*
X5865784Y7885424D03*
G01*
X5865784Y8012424D03*
G01*
X5865784Y8139424D03*
G01*
X5865784Y8266424D03*
G01*
X5865784Y8393424D03*
G01*
X5865784Y8520424D03*
G01*
X5865784Y8647424D03*
D16*
G01*
X4897780Y7913395D03*
D17*
G01*
X2000806Y5472229D03*
G01*
X2000806Y5582236D03*
G01*
X2000806Y5692244D03*
G01*
X2000806Y5802251D03*
G01*
X2000806Y5912233D03*
G01*
X2000806Y6022240D03*
G01*
X2000806Y6132248D03*
G01*
X2000806Y6242230D03*
G01*
X2000806Y6352237D03*
D18*
G01*
X1915767Y6462245D03*
G01*
X1915767Y4994226D03*
D19*
G01*
X945588Y4926307D03*
G01*
X945588Y6478297D03*
M02*
