G04 Layer: TopLayer*
G04 EasyEDA v6.5.22, 2022-12-04 20:31:14*
G04 182cb613c9664d73b7f9de34f776aa3b,1ae14fa7f5aa486887b2aa5280da83c0,10*
G04 Gerber Generator version 0.2*
G04 Scale: 100 percent, Rotated: No, Reflected: No *
G04 Dimensions in millimeters *
G04 leading zeros omitted , absolute positions ,4 integer and 5 decimal *
%FSLAX45Y45*%
%MOMM*%

%AMMACRO1*21,1,$1,$2,0,0,$3*%
%ADD10C,0.5000*%
%ADD11C,0.2540*%
%ADD12C,1.0000*%
%ADD13R,2.5000X1.1000*%
%ADD14MACRO1,3.6X2.34X90.0000*%
%ADD15R,2.0000X0.9000*%
%ADD16R,0.9000X2.0000*%
%ADD17MACRO1,2X0.9X-90.0000*%
%ADD18MACRO1,2X0.9X0.0000*%
%ADD19R,4.1000X4.1000*%
%ADD20R,1.3000X0.6000*%
%ADD21R,1.4000X1.2000*%
%ADD22R,2.0000X1.2000*%
%ADD23R,1.3000X0.3000*%
%ADD24O,2.999994X4.499991*%
%ADD25C,1.7000*%
%ADD26C,1.4000*%
%ADD27O,1.6002X2.286*%
%ADD28C,1.5240*%
%ADD29O,1.9999959999999999X1.5999968*%
%ADD30O,4.499991X2.999994*%
%ADD31C,1.6000*%
%ADD32C,1.1000*%
%ADD33C,2.0000*%
%ADD34C,3.5159*%
%ADD35C,2.1844*%
%ADD36C,1.9304*%
%ADD37C,2.7940*%
%ADD38O,1.7999964X1.1999976*%
%ADD39O,1.9999959999999999X1.1999976*%
%ADD40C,2.5000*%
%ADD41C,0.6100*%
%ADD42C,0.0183*%

%LPD*%
G36*
X642721Y3852926D02*
G01*
X638352Y3853179D01*
X634542Y3855212D01*
X631901Y3858717D01*
X630986Y3862933D01*
X630986Y3890010D01*
X631799Y3894023D01*
X634136Y3897376D01*
X637641Y3899560D01*
X641705Y3900170D01*
X645668Y3899103D01*
X648868Y3896563D01*
X650494Y3894632D01*
X660654Y3885488D01*
X666343Y3881577D01*
X669340Y3878326D01*
X670712Y3874058D01*
X670102Y3869639D01*
X667664Y3865930D01*
X663397Y3863441D01*
X650951Y3857294D01*
X646785Y3854500D01*
G37*

%LPD*%
G36*
X754430Y2565044D02*
G01*
X742848Y2565603D01*
X722985Y2568244D01*
X703478Y2572613D01*
X684428Y2578658D01*
X665937Y2586380D01*
X648208Y2595626D01*
X631393Y2606395D01*
X615543Y2618638D01*
X600811Y2632151D01*
X587298Y2646934D01*
X575157Y2662834D01*
X564438Y2679700D01*
X555244Y2697480D01*
X547624Y2715971D01*
X541629Y2735072D01*
X537362Y2754630D01*
X534771Y2774442D01*
X533908Y2794762D01*
X533908Y3718458D01*
X534873Y3722725D01*
X537514Y3726230D01*
X541375Y3728262D01*
X545795Y3728465D01*
X549808Y3726840D01*
X552805Y3723640D01*
X554177Y3719474D01*
X554532Y3715765D01*
X556717Y3708552D01*
X560273Y3701897D01*
X565404Y3695649D01*
X1259738Y3001314D01*
X1265936Y2996234D01*
X1272641Y2992678D01*
X1279855Y2990443D01*
X1287881Y2989681D01*
X2143404Y2989681D01*
X2147417Y2988868D01*
X2150770Y2986532D01*
X2152954Y2983026D01*
X2153564Y2979013D01*
X2152497Y2975051D01*
X2150008Y2971800D01*
X2146452Y2969818D01*
X2134565Y2966110D01*
X2120696Y2959862D01*
X2107692Y2951988D01*
X2095703Y2942640D01*
X2084984Y2931871D01*
X2075586Y2919933D01*
X2067712Y2906928D01*
X2061464Y2893060D01*
X2056942Y2878531D01*
X2054199Y2863596D01*
X2053285Y2848406D01*
X2054199Y2833217D01*
X2056942Y2818282D01*
X2061464Y2803753D01*
X2067712Y2789885D01*
X2075586Y2776880D01*
X2084984Y2764942D01*
X2095703Y2754172D01*
X2107692Y2744825D01*
X2120696Y2736951D01*
X2134565Y2730703D01*
X2149043Y2726182D01*
X2164029Y2723438D01*
X2179218Y2722524D01*
X2194356Y2723438D01*
X2209342Y2726182D01*
X2223820Y2730703D01*
X2237689Y2736951D01*
X2250694Y2744825D01*
X2262682Y2754172D01*
X2273401Y2764942D01*
X2282799Y2776880D01*
X2290673Y2789885D01*
X2296922Y2803753D01*
X2301443Y2818282D01*
X2304186Y2833217D01*
X2305100Y2848406D01*
X2304186Y2863596D01*
X2301443Y2878531D01*
X2296922Y2893060D01*
X2290673Y2906928D01*
X2282799Y2919933D01*
X2273401Y2931871D01*
X2262682Y2942640D01*
X2250694Y2951988D01*
X2237689Y2959862D01*
X2223820Y2966110D01*
X2211933Y2969818D01*
X2208377Y2971800D01*
X2205888Y2975051D01*
X2204821Y2979013D01*
X2205431Y2983026D01*
X2207615Y2986532D01*
X2210968Y2988868D01*
X2214981Y2989681D01*
X2439162Y2989681D01*
X2442921Y2988970D01*
X2446121Y2986887D01*
X2448356Y2983788D01*
X2450490Y2979216D01*
X2457805Y2967736D01*
X2466594Y2957322D01*
X2476754Y2948178D01*
X2487980Y2940456D01*
X2500122Y2934309D01*
X2513025Y2929839D01*
X2526385Y2927146D01*
X2540000Y2926232D01*
X2553614Y2927146D01*
X2566974Y2929839D01*
X2579878Y2934309D01*
X2592019Y2940456D01*
X2603246Y2948178D01*
X2613406Y2957322D01*
X2622194Y2967736D01*
X2629509Y2979216D01*
X2635250Y2991612D01*
X2639314Y3004616D01*
X2641549Y3018078D01*
X2642006Y3031693D01*
X2640685Y3045256D01*
X2637485Y3058566D01*
X2632608Y3071266D01*
X2626055Y3083255D01*
X2617978Y3094228D01*
X2608478Y3104032D01*
X2597759Y3112465D01*
X2586024Y3119424D01*
X2573477Y3124758D01*
X2560320Y3128314D01*
X2546807Y3130143D01*
X2533192Y3130143D01*
X2519680Y3128314D01*
X2506522Y3124758D01*
X2493975Y3119424D01*
X2482240Y3112465D01*
X2471521Y3104032D01*
X2462022Y3094228D01*
X2453944Y3083255D01*
X2447899Y3072180D01*
X2445613Y3069386D01*
X2442514Y3067507D01*
X2438958Y3066897D01*
X1307592Y3066897D01*
X1303680Y3067659D01*
X1300378Y3069844D01*
X727913Y3642360D01*
X725728Y3645662D01*
X724916Y3649522D01*
X725728Y3653434D01*
X727913Y3656736D01*
X731215Y3658920D01*
X735076Y3659682D01*
X743559Y3659682D01*
X757732Y3660597D01*
X771296Y3663340D01*
X784402Y3667760D01*
X796848Y3673906D01*
X808380Y3681577D01*
X818794Y3690721D01*
X827887Y3701135D01*
X835609Y3712667D01*
X841705Y3725062D01*
X846175Y3738168D01*
X848868Y3751783D01*
X849782Y3765600D01*
X848868Y3779418D01*
X846175Y3792982D01*
X841705Y3806139D01*
X835609Y3818534D01*
X827887Y3830065D01*
X818794Y3840479D01*
X808380Y3849624D01*
X796848Y3857294D01*
X783945Y3863594D01*
X780135Y3865930D01*
X777697Y3869639D01*
X777087Y3874058D01*
X778459Y3878326D01*
X781456Y3881577D01*
X787146Y3885488D01*
X797306Y3894632D01*
X806094Y3905046D01*
X813409Y3916527D01*
X819150Y3928922D01*
X823214Y3941927D01*
X825601Y3956253D01*
X826769Y3959606D01*
X829056Y3962349D01*
X832103Y3964127D01*
X835609Y3964736D01*
X1414627Y3964736D01*
X1418996Y3963720D01*
X1422552Y3960926D01*
X1424482Y3956862D01*
X1424533Y3952392D01*
X1422603Y3948328D01*
X1412900Y3935933D01*
X1405026Y3922928D01*
X1404061Y3920744D01*
X1460144Y3920744D01*
X1460144Y3954576D01*
X1460906Y3958437D01*
X1463141Y3961739D01*
X1466443Y3963974D01*
X1470304Y3964736D01*
X1562709Y3964736D01*
X1566570Y3963974D01*
X1569872Y3961739D01*
X1572107Y3958437D01*
X1572869Y3954576D01*
X1572869Y3920744D01*
X1628952Y3920744D01*
X1627987Y3922928D01*
X1620113Y3935933D01*
X1610410Y3948328D01*
X1608480Y3952392D01*
X1608531Y3956862D01*
X1610461Y3960926D01*
X1614017Y3963720D01*
X1618386Y3964736D01*
X2064613Y3964736D01*
X2068982Y3963720D01*
X2072538Y3960926D01*
X2074468Y3956862D01*
X2074519Y3952392D01*
X2072589Y3948328D01*
X2062886Y3935933D01*
X2055012Y3922928D01*
X2048764Y3909060D01*
X2044242Y3894531D01*
X2041499Y3879596D01*
X2040585Y3864406D01*
X2041499Y3849217D01*
X2044242Y3834282D01*
X2048764Y3819753D01*
X2055012Y3805885D01*
X2062886Y3792880D01*
X2072284Y3780942D01*
X2083003Y3770172D01*
X2094992Y3760825D01*
X2107996Y3752951D01*
X2121865Y3746703D01*
X2136343Y3742182D01*
X2151329Y3739438D01*
X2166518Y3738524D01*
X2181656Y3739438D01*
X2196642Y3742182D01*
X2211120Y3746703D01*
X2224989Y3752951D01*
X2237994Y3760825D01*
X2249982Y3770172D01*
X2260701Y3780942D01*
X2270099Y3792880D01*
X2277973Y3805885D01*
X2284222Y3819753D01*
X2288743Y3834282D01*
X2291486Y3849217D01*
X2292400Y3864406D01*
X2291486Y3879596D01*
X2288743Y3894531D01*
X2284222Y3909060D01*
X2277973Y3922928D01*
X2270099Y3935933D01*
X2260396Y3948328D01*
X2258466Y3952392D01*
X2258517Y3956862D01*
X2260447Y3960926D01*
X2264003Y3963720D01*
X2268372Y3964736D01*
X2276195Y3964736D01*
X2280107Y3963974D01*
X2283409Y3961739D01*
X2319070Y3926078D01*
X2325268Y3920998D01*
X2331974Y3917442D01*
X2339187Y3915206D01*
X2347214Y3914444D01*
X2944977Y3914444D01*
X2953004Y3915206D01*
X2960217Y3917442D01*
X2966872Y3920998D01*
X2973120Y3926078D01*
X3008833Y3961841D01*
X3011982Y3963974D01*
X3015691Y3964787D01*
X3019450Y3964228D01*
X3022142Y3963263D01*
X3034944Y3960622D01*
X3048000Y3959707D01*
X3061055Y3960622D01*
X3073857Y3963263D01*
X3086201Y3967632D01*
X3097834Y3973677D01*
X3108502Y3981246D01*
X3118053Y3990136D01*
X3126333Y4000296D01*
X3133140Y4011472D01*
X3138373Y4023512D01*
X3141878Y4036110D01*
X3143656Y4049064D01*
X3143656Y4062120D01*
X3141878Y4075125D01*
X3138373Y4087723D01*
X3133140Y4099712D01*
X3126333Y4110888D01*
X3118053Y4121048D01*
X3108502Y4129989D01*
X3097834Y4137507D01*
X3086201Y4143552D01*
X3073857Y4147921D01*
X3061055Y4150614D01*
X3048000Y4151477D01*
X3034944Y4150614D01*
X3022142Y4147921D01*
X3009798Y4143552D01*
X2998165Y4137507D01*
X2987497Y4129989D01*
X2977946Y4121048D01*
X2969666Y4110888D01*
X2962859Y4099712D01*
X2957677Y4087723D01*
X2954121Y4075125D01*
X2952343Y4062120D01*
X2952343Y4049064D01*
X2954121Y4036110D01*
X2956864Y4026357D01*
X2957169Y4022801D01*
X2956306Y4019346D01*
X2954274Y4016451D01*
X2932430Y3994607D01*
X2929128Y3992422D01*
X2925267Y3991660D01*
X2636824Y3991660D01*
X2632608Y3992575D01*
X2629154Y3995165D01*
X2627071Y3998925D01*
X2626766Y4003243D01*
X2628290Y4007307D01*
X2629509Y4009237D01*
X2635250Y4021632D01*
X2639314Y4034637D01*
X2641549Y4048099D01*
X2642006Y4061714D01*
X2640685Y4075277D01*
X2637485Y4088536D01*
X2632608Y4101287D01*
X2626055Y4113225D01*
X2617978Y4124198D01*
X2608478Y4134002D01*
X2597759Y4142486D01*
X2586024Y4149394D01*
X2573477Y4154728D01*
X2560320Y4158335D01*
X2546807Y4160164D01*
X2533192Y4160164D01*
X2519680Y4158335D01*
X2506522Y4154728D01*
X2493975Y4149394D01*
X2482240Y4142486D01*
X2471521Y4134002D01*
X2462022Y4124198D01*
X2453944Y4113225D01*
X2447391Y4101287D01*
X2442514Y4088536D01*
X2439314Y4075277D01*
X2437993Y4061714D01*
X2438450Y4048099D01*
X2440686Y4034637D01*
X2444750Y4021632D01*
X2450490Y4009237D01*
X2451709Y4007307D01*
X2453233Y4003243D01*
X2452928Y3998925D01*
X2450846Y3995165D01*
X2447391Y3992575D01*
X2443175Y3991660D01*
X2366924Y3991660D01*
X2363012Y3992422D01*
X2359710Y3994607D01*
X2324049Y4030268D01*
X2317851Y4035399D01*
X2311196Y4038955D01*
X2303932Y4041140D01*
X2295906Y4041952D01*
X795121Y4041952D01*
X791768Y4042511D01*
X788822Y4044137D01*
X781659Y4049776D01*
X769467Y4056989D01*
X766318Y4059936D01*
X764641Y4063898D01*
X764794Y4068216D01*
X766724Y4072077D01*
X770077Y4074820D01*
X775919Y4077766D01*
X787146Y4085488D01*
X797306Y4094632D01*
X806094Y4105046D01*
X813409Y4116527D01*
X819150Y4128922D01*
X823214Y4141927D01*
X825449Y4155389D01*
X825906Y4169003D01*
X824585Y4182567D01*
X821385Y4195826D01*
X816508Y4208576D01*
X809955Y4220514D01*
X801878Y4231487D01*
X792378Y4241292D01*
X781659Y4249775D01*
X769467Y4256989D01*
X766318Y4259935D01*
X764641Y4263898D01*
X764794Y4268216D01*
X766724Y4272076D01*
X770077Y4274820D01*
X775919Y4277766D01*
X787146Y4285488D01*
X797306Y4294632D01*
X806094Y4305046D01*
X813409Y4316526D01*
X819150Y4328922D01*
X823214Y4341926D01*
X825449Y4355388D01*
X825906Y4369003D01*
X824585Y4382566D01*
X821385Y4395825D01*
X816508Y4408576D01*
X809955Y4420514D01*
X801878Y4431487D01*
X792378Y4441291D01*
X781202Y4450130D01*
X778459Y4453483D01*
X777392Y4457649D01*
X778103Y4461916D01*
X780542Y4465472D01*
X784402Y4467758D01*
X796848Y4473905D01*
X808380Y4481576D01*
X818794Y4490720D01*
X827887Y4501134D01*
X835609Y4512665D01*
X841705Y4525060D01*
X846175Y4538218D01*
X848868Y4551781D01*
X849782Y4565599D01*
X848868Y4579416D01*
X846175Y4592980D01*
X841705Y4606137D01*
X835609Y4618532D01*
X827887Y4630064D01*
X818794Y4640478D01*
X808380Y4649622D01*
X796848Y4657293D01*
X784402Y4663440D01*
X771296Y4667859D01*
X757732Y4670602D01*
X743559Y4671517D01*
X704240Y4671517D01*
X690067Y4670602D01*
X676503Y4667859D01*
X663397Y4663440D01*
X650951Y4657293D01*
X639419Y4649622D01*
X629005Y4640478D01*
X619912Y4630064D01*
X612190Y4618532D01*
X606094Y4606137D01*
X601624Y4592980D01*
X598932Y4579416D01*
X598017Y4565599D01*
X598932Y4551781D01*
X601624Y4538218D01*
X606094Y4525060D01*
X612190Y4512665D01*
X619912Y4501134D01*
X629005Y4490720D01*
X639419Y4481576D01*
X650951Y4473905D01*
X663549Y4467707D01*
X667258Y4465472D01*
X669696Y4461916D01*
X670407Y4457649D01*
X669340Y4453483D01*
X666597Y4450130D01*
X655421Y4441291D01*
X645922Y4431487D01*
X637844Y4420514D01*
X631291Y4408576D01*
X626414Y4395825D01*
X623214Y4382566D01*
X621893Y4369003D01*
X622350Y4355388D01*
X624586Y4341926D01*
X628650Y4328922D01*
X634390Y4316526D01*
X641705Y4305046D01*
X650494Y4294632D01*
X660654Y4285488D01*
X671880Y4277766D01*
X677722Y4274820D01*
X681075Y4272076D01*
X683006Y4268216D01*
X683158Y4263898D01*
X681482Y4259935D01*
X678332Y4256989D01*
X666140Y4249775D01*
X655421Y4241292D01*
X645922Y4231487D01*
X637844Y4220514D01*
X631291Y4208576D01*
X626414Y4195826D01*
X623214Y4182567D01*
X621893Y4169003D01*
X622350Y4155389D01*
X624586Y4141927D01*
X627786Y4131716D01*
X628192Y4128109D01*
X627329Y4124553D01*
X625246Y4121556D01*
X565404Y4061714D01*
X560273Y4055465D01*
X556717Y4048810D01*
X554532Y4041546D01*
X554177Y4037888D01*
X552805Y4033723D01*
X549808Y4030522D01*
X545795Y4028897D01*
X541375Y4029100D01*
X537514Y4031132D01*
X534873Y4034637D01*
X533908Y4038904D01*
X533908Y9143390D01*
X532993Y9151924D01*
X533603Y9164421D01*
X536244Y9184233D01*
X540613Y9203791D01*
X546658Y9222841D01*
X554380Y9241332D01*
X563626Y9259062D01*
X574395Y9275876D01*
X586638Y9291726D01*
X600151Y9306458D01*
X614934Y9319971D01*
X630834Y9332112D01*
X647750Y9342831D01*
X665480Y9352026D01*
X683971Y9359646D01*
X703072Y9365640D01*
X722630Y9369907D01*
X742442Y9372498D01*
X754075Y9373006D01*
X762609Y9372092D01*
X10934090Y9372092D01*
X10942269Y9372955D01*
X10953851Y9372396D01*
X10973714Y9369755D01*
X10993221Y9365386D01*
X11012271Y9359341D01*
X11030762Y9351619D01*
X11048492Y9342374D01*
X11065306Y9331604D01*
X11081156Y9319361D01*
X11095888Y9305848D01*
X11109401Y9291066D01*
X11121542Y9275165D01*
X11132261Y9258249D01*
X11141456Y9240520D01*
X11149076Y9222028D01*
X11155070Y9202928D01*
X11159337Y9183370D01*
X11161928Y9163558D01*
X11162792Y9143238D01*
X11162792Y6350609D01*
X11163655Y6342430D01*
X11163096Y6330848D01*
X11160455Y6310985D01*
X11156086Y6291478D01*
X11150041Y6272428D01*
X11142319Y6253937D01*
X11133074Y6236208D01*
X11122304Y6219393D01*
X11110061Y6203543D01*
X11096548Y6188811D01*
X11081766Y6175298D01*
X11065865Y6163157D01*
X11049000Y6152438D01*
X11031220Y6143244D01*
X11012728Y6135624D01*
X10993628Y6129629D01*
X10974070Y6125362D01*
X10954258Y6122771D01*
X10933938Y6121908D01*
X4826203Y6123178D01*
X4800193Y6121958D01*
X4775911Y6118656D01*
X4751984Y6113221D01*
X4728616Y6105753D01*
X4706010Y6096254D01*
X4684318Y6084824D01*
X4663694Y6071565D01*
X4644288Y6056528D01*
X4626305Y6039866D01*
X4609795Y6021730D01*
X4594961Y6002172D01*
X4581855Y5981446D01*
X4570628Y5959652D01*
X4561382Y5936945D01*
X4554118Y5913526D01*
X4548886Y5889548D01*
X4545838Y5865215D01*
X4544822Y5841796D01*
X4546092Y2794609D01*
X4546955Y2786430D01*
X4546396Y2774848D01*
X4543755Y2754985D01*
X4539386Y2735478D01*
X4533341Y2716428D01*
X4525619Y2697937D01*
X4516374Y2680208D01*
X4505604Y2663393D01*
X4493361Y2647543D01*
X4479848Y2632811D01*
X4465066Y2619298D01*
X4449165Y2607157D01*
X4432300Y2596438D01*
X4414520Y2587244D01*
X4396028Y2579624D01*
X4376928Y2573629D01*
X4357370Y2569362D01*
X4337558Y2566771D01*
X4317238Y2565908D01*
X762609Y2565908D01*
G37*

%LPC*%
G36*
X1585569Y2735986D02*
G01*
X1587703Y2736951D01*
X1600708Y2744825D01*
X1612696Y2754172D01*
X1623415Y2764942D01*
X1632813Y2776880D01*
X1640687Y2789885D01*
X1641652Y2792069D01*
X1585569Y2792069D01*
G37*
G36*
X1472844Y2735986D02*
G01*
X1472844Y2792069D01*
X1416761Y2792069D01*
X1417726Y2789885D01*
X1425600Y2776880D01*
X1434998Y2764942D01*
X1445717Y2754172D01*
X1457706Y2744825D01*
X1470710Y2736951D01*
G37*
G36*
X893521Y2745181D02*
G01*
X911606Y2746552D01*
X929386Y2749804D01*
X946810Y2754884D01*
X963574Y2761691D01*
X979525Y2770225D01*
X994562Y2780334D01*
X1008481Y2791917D01*
X1021130Y2804871D01*
X1032357Y2819095D01*
X1042060Y2834386D01*
X1050188Y2850540D01*
X1056538Y2867507D01*
X1061161Y2885033D01*
X1063955Y2902915D01*
X1064869Y2921000D01*
X1063955Y2939084D01*
X1061161Y2956966D01*
X1056538Y2974492D01*
X1050188Y2991459D01*
X1042060Y3007614D01*
X1032357Y3022904D01*
X1021130Y3037128D01*
X1008481Y3050082D01*
X994562Y3061665D01*
X979525Y3071774D01*
X963574Y3080308D01*
X946810Y3087116D01*
X929386Y3092196D01*
X911606Y3095447D01*
X893521Y3096818D01*
X875436Y3096361D01*
X857453Y3094024D01*
X839825Y3089910D01*
X822756Y3083915D01*
X806348Y3076244D01*
X790803Y3066948D01*
X776325Y3056077D01*
X763016Y3043783D01*
X751078Y3030169D01*
X740562Y3015386D01*
X731672Y2999638D01*
X724408Y2983026D01*
X718921Y2965805D01*
X715213Y2948076D01*
X713333Y2930042D01*
X713333Y2911957D01*
X715213Y2893923D01*
X718921Y2876194D01*
X724408Y2858973D01*
X731672Y2842361D01*
X740562Y2826613D01*
X751078Y2811830D01*
X763016Y2798216D01*
X776325Y2785922D01*
X790803Y2775051D01*
X806348Y2765755D01*
X822756Y2758084D01*
X839825Y2752090D01*
X857453Y2747975D01*
X875436Y2745638D01*
G37*
G36*
X4195521Y2745181D02*
G01*
X4213606Y2746552D01*
X4231386Y2749804D01*
X4248810Y2754884D01*
X4265574Y2761691D01*
X4281525Y2770225D01*
X4296562Y2780334D01*
X4310481Y2791917D01*
X4323130Y2804871D01*
X4334357Y2819095D01*
X4344060Y2834386D01*
X4352188Y2850540D01*
X4358538Y2867507D01*
X4363161Y2885033D01*
X4365955Y2902915D01*
X4366869Y2921000D01*
X4365955Y2939084D01*
X4363161Y2956966D01*
X4358538Y2974492D01*
X4352188Y2991459D01*
X4344060Y3007614D01*
X4334357Y3022904D01*
X4323130Y3037128D01*
X4310481Y3050082D01*
X4296562Y3061665D01*
X4281525Y3071774D01*
X4265574Y3080308D01*
X4248810Y3087116D01*
X4231386Y3092196D01*
X4213606Y3095447D01*
X4195521Y3096818D01*
X4177436Y3096361D01*
X4159453Y3094024D01*
X4141825Y3089910D01*
X4124756Y3083915D01*
X4108348Y3076244D01*
X4092803Y3066948D01*
X4078325Y3056077D01*
X4065015Y3043783D01*
X4053078Y3030169D01*
X4042562Y3015386D01*
X4033672Y2999638D01*
X4026408Y2983026D01*
X4020921Y2965805D01*
X4017213Y2948076D01*
X4015333Y2930042D01*
X4015333Y2911957D01*
X4017213Y2893923D01*
X4020921Y2876194D01*
X4026408Y2858973D01*
X4033672Y2842361D01*
X4042562Y2826613D01*
X4053078Y2811830D01*
X4065015Y2798216D01*
X4078325Y2785922D01*
X4092803Y2775051D01*
X4108348Y2765755D01*
X4124756Y2758084D01*
X4141825Y2752090D01*
X4159453Y2747975D01*
X4177436Y2745638D01*
G37*
G36*
X1585569Y2904744D02*
G01*
X1641652Y2904744D01*
X1640687Y2906928D01*
X1632813Y2919933D01*
X1623415Y2931871D01*
X1612696Y2942640D01*
X1600708Y2951988D01*
X1587703Y2959862D01*
X1585569Y2960827D01*
G37*
G36*
X1416761Y2904744D02*
G01*
X1472844Y2904744D01*
X1472844Y2960827D01*
X1470710Y2959862D01*
X1457706Y2951988D01*
X1445717Y2942640D01*
X1434998Y2931871D01*
X1425600Y2919933D01*
X1417726Y2906928D01*
G37*
G36*
X3089351Y2919272D02*
G01*
X3097834Y2923692D01*
X3108502Y2931210D01*
X3118053Y2940151D01*
X3126333Y2950311D01*
X3133140Y2961487D01*
X3134309Y2964230D01*
X3089351Y2964230D01*
G37*
G36*
X3006648Y2919272D02*
G01*
X3006648Y2964230D01*
X2961690Y2964230D01*
X2962859Y2961487D01*
X2969666Y2950311D01*
X2977946Y2940151D01*
X2987497Y2931210D01*
X2998165Y2923692D01*
G37*
G36*
X3089351Y3046933D02*
G01*
X3134309Y3046933D01*
X3133140Y3049727D01*
X3126333Y3060903D01*
X3118053Y3071063D01*
X3108502Y3079953D01*
X3097834Y3087522D01*
X3089351Y3091891D01*
G37*
G36*
X2961690Y3046933D02*
G01*
X3006648Y3046933D01*
X3006648Y3091891D01*
X2998165Y3087522D01*
X2987497Y3079953D01*
X2977946Y3071063D01*
X2969666Y3060903D01*
X2962859Y3049727D01*
G37*
G36*
X2179218Y3172510D02*
G01*
X2194356Y3173425D01*
X2209342Y3176168D01*
X2223820Y3180689D01*
X2237689Y3186938D01*
X2250694Y3194812D01*
X2262682Y3204159D01*
X2273401Y3214928D01*
X2282799Y3226866D01*
X2290673Y3239871D01*
X2296922Y3253740D01*
X2301443Y3268268D01*
X2304186Y3283204D01*
X2305100Y3298393D01*
X2304186Y3313582D01*
X2301443Y3328517D01*
X2296922Y3343046D01*
X2290673Y3356914D01*
X2282799Y3369919D01*
X2273401Y3381857D01*
X2262682Y3392627D01*
X2250694Y3401974D01*
X2237689Y3409848D01*
X2223820Y3416096D01*
X2209342Y3420618D01*
X2194356Y3423361D01*
X2179218Y3424275D01*
X2164029Y3423361D01*
X2149043Y3420618D01*
X2134565Y3416096D01*
X2120696Y3409848D01*
X2107692Y3401974D01*
X2095703Y3392627D01*
X2084984Y3381857D01*
X2075586Y3369919D01*
X2067712Y3356914D01*
X2061464Y3343046D01*
X2056942Y3328517D01*
X2054199Y3313582D01*
X2053285Y3298393D01*
X2054199Y3283204D01*
X2056942Y3268268D01*
X2061464Y3253740D01*
X2067712Y3239871D01*
X2075586Y3226866D01*
X2084984Y3214928D01*
X2095703Y3204159D01*
X2107692Y3194812D01*
X2120696Y3186938D01*
X2134565Y3180689D01*
X2149043Y3176168D01*
X2164029Y3173425D01*
G37*
G36*
X1529232Y3172510D02*
G01*
X1544370Y3173425D01*
X1559356Y3176168D01*
X1573834Y3180689D01*
X1587703Y3186938D01*
X1600708Y3194812D01*
X1612696Y3204159D01*
X1623415Y3214928D01*
X1632813Y3226866D01*
X1640687Y3239871D01*
X1646936Y3253740D01*
X1651457Y3268268D01*
X1654200Y3283204D01*
X1655114Y3298393D01*
X1654200Y3313582D01*
X1651457Y3328517D01*
X1646936Y3343046D01*
X1640687Y3356914D01*
X1632813Y3369919D01*
X1623415Y3381857D01*
X1612696Y3392627D01*
X1600708Y3401974D01*
X1587703Y3409848D01*
X1573834Y3416096D01*
X1559356Y3420618D01*
X1544370Y3423361D01*
X1529232Y3424275D01*
X1514043Y3423361D01*
X1499057Y3420618D01*
X1484579Y3416096D01*
X1470710Y3409848D01*
X1457706Y3401974D01*
X1445717Y3392627D01*
X1434998Y3381857D01*
X1425600Y3369919D01*
X1417726Y3356914D01*
X1411478Y3343046D01*
X1406956Y3328517D01*
X1404213Y3313582D01*
X1403299Y3298393D01*
X1404213Y3283204D01*
X1406956Y3268268D01*
X1411478Y3253740D01*
X1417726Y3239871D01*
X1425600Y3226866D01*
X1434998Y3214928D01*
X1445717Y3204159D01*
X1457706Y3194812D01*
X1470710Y3186938D01*
X1484579Y3180689D01*
X1499057Y3176168D01*
X1514043Y3173425D01*
G37*
G36*
X4001973Y3227679D02*
G01*
X4151426Y3227679D01*
X4169511Y3228594D01*
X4187088Y3231286D01*
X4204360Y3235756D01*
X4221073Y3241954D01*
X4237075Y3249828D01*
X4252163Y3259226D01*
X4266285Y3270148D01*
X4279188Y3282391D01*
X4290771Y3295954D01*
X4300982Y3310534D01*
X4309618Y3326129D01*
X4316628Y3342487D01*
X4321962Y3359505D01*
X4325569Y3376980D01*
X4327347Y3394710D01*
X4327347Y3412490D01*
X4325569Y3430219D01*
X4321962Y3447694D01*
X4316628Y3464712D01*
X4309618Y3481070D01*
X4300982Y3496665D01*
X4290771Y3511245D01*
X4279188Y3524808D01*
X4266285Y3537051D01*
X4252163Y3547973D01*
X4237075Y3557371D01*
X4221073Y3565245D01*
X4204360Y3571443D01*
X4187088Y3575913D01*
X4169511Y3578606D01*
X4151426Y3579520D01*
X4001973Y3579520D01*
X3983888Y3578606D01*
X3966311Y3575913D01*
X3949039Y3571443D01*
X3932326Y3565245D01*
X3916324Y3557371D01*
X3901236Y3547973D01*
X3887114Y3537051D01*
X3874211Y3524808D01*
X3862628Y3511245D01*
X3852418Y3496665D01*
X3843782Y3481070D01*
X3836771Y3464712D01*
X3831437Y3447694D01*
X3827830Y3430219D01*
X3826052Y3412490D01*
X3826052Y3394710D01*
X3827830Y3376980D01*
X3831437Y3359505D01*
X3836771Y3342487D01*
X3843782Y3326129D01*
X3852418Y3310534D01*
X3862628Y3295954D01*
X3874211Y3282391D01*
X3887114Y3270148D01*
X3901236Y3259226D01*
X3916324Y3249828D01*
X3932326Y3241954D01*
X3949039Y3235756D01*
X3966311Y3231286D01*
X3983888Y3228594D01*
G37*
G36*
X1460144Y3751986D02*
G01*
X1460144Y3808069D01*
X1404061Y3808069D01*
X1405026Y3805885D01*
X1412900Y3792880D01*
X1422298Y3780942D01*
X1433017Y3770172D01*
X1445006Y3760825D01*
X1458010Y3752951D01*
G37*
G36*
X1572869Y3751986D02*
G01*
X1575003Y3752951D01*
X1588008Y3760825D01*
X1599996Y3770172D01*
X1610715Y3780942D01*
X1620113Y3792880D01*
X1627987Y3805885D01*
X1628952Y3808069D01*
X1572869Y3808069D01*
G37*
G36*
X4001973Y3989679D02*
G01*
X4151426Y3989679D01*
X4169511Y3990594D01*
X4187088Y3993286D01*
X4204360Y3997756D01*
X4221073Y4003954D01*
X4237075Y4011828D01*
X4252163Y4021226D01*
X4266285Y4032148D01*
X4279188Y4044391D01*
X4290771Y4057954D01*
X4300982Y4072534D01*
X4309618Y4088129D01*
X4316628Y4104487D01*
X4321962Y4121505D01*
X4325569Y4138980D01*
X4327347Y4156710D01*
X4327347Y4174490D01*
X4325569Y4192219D01*
X4321962Y4209694D01*
X4316628Y4226712D01*
X4309618Y4243070D01*
X4300982Y4258665D01*
X4290771Y4273245D01*
X4279188Y4286808D01*
X4266285Y4299051D01*
X4252163Y4309973D01*
X4237075Y4319371D01*
X4221073Y4327245D01*
X4204360Y4333443D01*
X4187088Y4337913D01*
X4169511Y4340606D01*
X4151426Y4341520D01*
X4001973Y4341520D01*
X3983888Y4340606D01*
X3966311Y4337913D01*
X3949039Y4333443D01*
X3932326Y4327245D01*
X3916324Y4319371D01*
X3901236Y4309973D01*
X3887114Y4299051D01*
X3874211Y4286808D01*
X3862628Y4273245D01*
X3852418Y4258665D01*
X3843782Y4243070D01*
X3836771Y4226712D01*
X3831437Y4209694D01*
X3827830Y4192219D01*
X3826052Y4174490D01*
X3826052Y4156710D01*
X3827830Y4138980D01*
X3831437Y4121505D01*
X3836771Y4104487D01*
X3843782Y4088129D01*
X3852418Y4072534D01*
X3862628Y4057954D01*
X3874211Y4044391D01*
X3887114Y4032148D01*
X3901236Y4021226D01*
X3916324Y4011828D01*
X3932326Y4003954D01*
X3949039Y3997756D01*
X3966311Y3993286D01*
X3983888Y3990594D01*
G37*
G36*
X1516532Y4188510D02*
G01*
X1531670Y4189425D01*
X1546656Y4192168D01*
X1561134Y4196689D01*
X1575003Y4202938D01*
X1588008Y4210812D01*
X1599996Y4220159D01*
X1610715Y4230928D01*
X1620113Y4242866D01*
X1627987Y4255871D01*
X1634236Y4269740D01*
X1638757Y4284268D01*
X1641500Y4299204D01*
X1642414Y4314393D01*
X1641500Y4329582D01*
X1638757Y4344517D01*
X1634236Y4359046D01*
X1627987Y4372914D01*
X1620113Y4385919D01*
X1610715Y4397857D01*
X1599996Y4408627D01*
X1588008Y4417974D01*
X1575003Y4425848D01*
X1561134Y4432096D01*
X1546656Y4436618D01*
X1531670Y4439361D01*
X1516532Y4440275D01*
X1501343Y4439361D01*
X1486357Y4436618D01*
X1471879Y4432096D01*
X1458010Y4425848D01*
X1445006Y4417974D01*
X1433017Y4408627D01*
X1422298Y4397857D01*
X1412900Y4385919D01*
X1405026Y4372914D01*
X1398778Y4359046D01*
X1394256Y4344517D01*
X1391513Y4329582D01*
X1390599Y4314393D01*
X1391513Y4299204D01*
X1394256Y4284268D01*
X1398778Y4269740D01*
X1405026Y4255871D01*
X1412900Y4242866D01*
X1422298Y4230928D01*
X1433017Y4220159D01*
X1445006Y4210812D01*
X1458010Y4202938D01*
X1471879Y4196689D01*
X1486357Y4192168D01*
X1501343Y4189425D01*
G37*
G36*
X2166518Y4188510D02*
G01*
X2181656Y4189425D01*
X2196642Y4192168D01*
X2211120Y4196689D01*
X2224989Y4202938D01*
X2237994Y4210812D01*
X2249982Y4220159D01*
X2260701Y4230928D01*
X2270099Y4242866D01*
X2277973Y4255871D01*
X2284222Y4269740D01*
X2288743Y4284268D01*
X2291486Y4299204D01*
X2292400Y4314393D01*
X2291486Y4329582D01*
X2288743Y4344517D01*
X2284222Y4359046D01*
X2277973Y4372914D01*
X2270099Y4385919D01*
X2260701Y4397857D01*
X2249982Y4408627D01*
X2237994Y4417974D01*
X2224989Y4425848D01*
X2211120Y4432096D01*
X2196642Y4436618D01*
X2181656Y4439361D01*
X2166518Y4440275D01*
X2151329Y4439361D01*
X2136343Y4436618D01*
X2121865Y4432096D01*
X2107996Y4425848D01*
X2094992Y4417974D01*
X2083003Y4408627D01*
X2072284Y4397857D01*
X2062886Y4385919D01*
X2055012Y4372914D01*
X2048764Y4359046D01*
X2044242Y4344517D01*
X2041499Y4329582D01*
X2040585Y4314393D01*
X2041499Y4299204D01*
X2044242Y4284268D01*
X2048764Y4269740D01*
X2055012Y4255871D01*
X2062886Y4242866D01*
X2072284Y4230928D01*
X2083003Y4220159D01*
X2094992Y4210812D01*
X2107996Y4202938D01*
X2121865Y4196689D01*
X2136343Y4192168D01*
X2151329Y4189425D01*
G37*
G36*
X2674823Y4510074D02*
G01*
X2694330Y4510532D01*
X2713634Y4512868D01*
X2732684Y4517085D01*
X2751226Y4523130D01*
X2769108Y4530902D01*
X2786126Y4540351D01*
X2802178Y4551426D01*
X2817063Y4564024D01*
X2830677Y4577943D01*
X2842869Y4593132D01*
X2853537Y4609439D01*
X2862630Y4626711D01*
X2869946Y4644745D01*
X2875534Y4663440D01*
X2879293Y4682540D01*
X2881172Y4701946D01*
X2881172Y4721453D01*
X2879293Y4740859D01*
X2875534Y4759960D01*
X2869946Y4778654D01*
X2862630Y4796688D01*
X2853537Y4813960D01*
X2842869Y4830267D01*
X2830677Y4845456D01*
X2817063Y4859375D01*
X2802178Y4871974D01*
X2786126Y4883048D01*
X2769108Y4892497D01*
X2751226Y4900269D01*
X2732684Y4906314D01*
X2713634Y4910531D01*
X2694330Y4912868D01*
X2674823Y4913325D01*
X2655366Y4911902D01*
X2636164Y4908651D01*
X2617368Y4903520D01*
X2599131Y4896612D01*
X2581706Y4887976D01*
X2565146Y4877663D01*
X2549652Y4865878D01*
X2535377Y4852568D01*
X2522423Y4837988D01*
X2510993Y4822240D01*
X2501138Y4805426D01*
X2492908Y4787747D01*
X2486456Y4769358D01*
X2481783Y4750460D01*
X2478938Y4731156D01*
X2478024Y4711700D01*
X2478938Y4692243D01*
X2481783Y4672939D01*
X2486456Y4654042D01*
X2492908Y4635652D01*
X2501138Y4617974D01*
X2510993Y4601159D01*
X2522423Y4585411D01*
X2535377Y4570831D01*
X2549652Y4557522D01*
X2565146Y4545736D01*
X2581706Y4535424D01*
X2599131Y4526788D01*
X2617368Y4519879D01*
X2636164Y4514748D01*
X2655366Y4511497D01*
G37*
G36*
X3944823Y4510074D02*
G01*
X3964330Y4510532D01*
X3983634Y4512868D01*
X4002684Y4517085D01*
X4021226Y4523130D01*
X4039108Y4530902D01*
X4056126Y4540351D01*
X4072178Y4551426D01*
X4087063Y4564024D01*
X4100677Y4577943D01*
X4112869Y4593132D01*
X4123537Y4609439D01*
X4132630Y4626711D01*
X4139946Y4644745D01*
X4145534Y4663440D01*
X4149293Y4682540D01*
X4151172Y4701946D01*
X4151172Y4721453D01*
X4149293Y4740859D01*
X4145534Y4759960D01*
X4139946Y4778654D01*
X4132630Y4796688D01*
X4123537Y4813960D01*
X4112869Y4830267D01*
X4100677Y4845456D01*
X4087063Y4859375D01*
X4072178Y4871974D01*
X4056126Y4883048D01*
X4039108Y4892497D01*
X4021226Y4900269D01*
X4002684Y4906314D01*
X3983634Y4910531D01*
X3964330Y4912868D01*
X3944823Y4913325D01*
X3925366Y4911902D01*
X3906164Y4908651D01*
X3887368Y4903520D01*
X3869131Y4896612D01*
X3851706Y4887976D01*
X3835146Y4877663D01*
X3819651Y4865878D01*
X3805377Y4852568D01*
X3792423Y4837988D01*
X3780993Y4822240D01*
X3771137Y4805426D01*
X3762908Y4787747D01*
X3756456Y4769358D01*
X3751783Y4750460D01*
X3748938Y4731156D01*
X3748024Y4711700D01*
X3748938Y4692243D01*
X3751783Y4672939D01*
X3756456Y4654042D01*
X3762908Y4635652D01*
X3771137Y4617974D01*
X3780993Y4601159D01*
X3792423Y4585411D01*
X3805377Y4570831D01*
X3819651Y4557522D01*
X3835146Y4545736D01*
X3851706Y4535424D01*
X3869131Y4526788D01*
X3887368Y4519879D01*
X3906164Y4514748D01*
X3925366Y4511497D01*
G37*
G36*
X3136849Y4678426D02*
G01*
X3152546Y4678426D01*
X3168142Y4680254D01*
X3183432Y4683861D01*
X3198215Y4689246D01*
X3212236Y4696307D01*
X3225393Y4704943D01*
X3237433Y4715002D01*
X3248202Y4726432D01*
X3257600Y4739030D01*
X3265424Y4752644D01*
X3271672Y4767072D01*
X3276142Y4782159D01*
X3278886Y4797602D01*
X3279800Y4813300D01*
X3278886Y4828997D01*
X3276142Y4844440D01*
X3271672Y4859528D01*
X3265424Y4873955D01*
X3257600Y4887569D01*
X3248202Y4900168D01*
X3237433Y4911598D01*
X3225393Y4921656D01*
X3212236Y4930292D01*
X3198215Y4937353D01*
X3183432Y4942738D01*
X3168142Y4946345D01*
X3152546Y4948174D01*
X3136849Y4948174D01*
X3121253Y4946345D01*
X3105962Y4942738D01*
X3091180Y4937353D01*
X3077159Y4930292D01*
X3064002Y4921656D01*
X3051962Y4911598D01*
X3041192Y4900168D01*
X3031794Y4887569D01*
X3023971Y4873955D01*
X3017723Y4859528D01*
X3013252Y4844440D01*
X3010509Y4828997D01*
X3009595Y4813300D01*
X3010509Y4797602D01*
X3013252Y4782159D01*
X3017723Y4767072D01*
X3023971Y4752644D01*
X3031794Y4739030D01*
X3041192Y4726432D01*
X3051962Y4715002D01*
X3064002Y4704943D01*
X3077159Y4696307D01*
X3091180Y4689246D01*
X3105962Y4683861D01*
X3121253Y4680254D01*
G37*
G36*
X3486861Y4678426D02*
G01*
X3502558Y4678426D01*
X3518154Y4680254D01*
X3533444Y4683861D01*
X3548227Y4689246D01*
X3562248Y4696307D01*
X3575405Y4704943D01*
X3587445Y4715002D01*
X3598214Y4726432D01*
X3607612Y4739030D01*
X3615436Y4752644D01*
X3621684Y4767072D01*
X3626154Y4782159D01*
X3628898Y4797602D01*
X3629812Y4813300D01*
X3628898Y4828997D01*
X3626154Y4844440D01*
X3621684Y4859528D01*
X3615436Y4873955D01*
X3607612Y4887569D01*
X3598214Y4900168D01*
X3587445Y4911598D01*
X3575405Y4921656D01*
X3562248Y4930292D01*
X3548227Y4937353D01*
X3533444Y4942738D01*
X3518154Y4946345D01*
X3502558Y4948174D01*
X3486861Y4948174D01*
X3471265Y4946345D01*
X3455974Y4942738D01*
X3441192Y4937353D01*
X3427171Y4930292D01*
X3414014Y4921656D01*
X3401974Y4911598D01*
X3391204Y4900168D01*
X3381806Y4887569D01*
X3373983Y4873955D01*
X3367735Y4859528D01*
X3363264Y4844440D01*
X3360521Y4828997D01*
X3359607Y4813300D01*
X3360521Y4797602D01*
X3363264Y4782159D01*
X3367735Y4767072D01*
X3373983Y4752644D01*
X3381806Y4739030D01*
X3391204Y4726432D01*
X3401974Y4715002D01*
X3414014Y4704943D01*
X3427171Y4696307D01*
X3441192Y4689246D01*
X3455974Y4683861D01*
X3471265Y4680254D01*
G37*
G36*
X846175Y4840376D02*
G01*
X889253Y4840376D01*
X889253Y4889957D01*
X819658Y4889957D01*
X819658Y4866894D01*
X820369Y4860544D01*
X822299Y4855108D01*
X825398Y4850180D01*
X829462Y4846116D01*
X834390Y4843018D01*
X839825Y4841087D01*
G37*
G36*
X1001928Y4840376D02*
G01*
X1045006Y4840376D01*
X1051356Y4841087D01*
X1056792Y4843018D01*
X1061720Y4846116D01*
X1065784Y4850180D01*
X1068882Y4855108D01*
X1070762Y4860544D01*
X1071473Y4866894D01*
X1071473Y4889957D01*
X1001928Y4889957D01*
G37*
G36*
X1846325Y4908346D02*
G01*
X1874418Y4908346D01*
X1874418Y4957876D01*
X1819859Y4957876D01*
X1819859Y4934813D01*
X1820570Y4928463D01*
X1822500Y4923028D01*
X1825548Y4918100D01*
X1829663Y4914036D01*
X1834540Y4910937D01*
X1840026Y4909058D01*
G37*
G36*
X1957120Y4908346D02*
G01*
X1985213Y4908346D01*
X1991512Y4909058D01*
X1996998Y4910937D01*
X2001875Y4914036D01*
X2005990Y4918100D01*
X2009038Y4923028D01*
X2010968Y4928463D01*
X2011680Y4934813D01*
X2011680Y4957876D01*
X1957120Y4957876D01*
G37*
G36*
X819658Y4962652D02*
G01*
X889253Y4962652D01*
X889253Y5012232D01*
X846175Y5012232D01*
X839825Y5011521D01*
X834390Y5009591D01*
X829462Y5006492D01*
X825398Y5002428D01*
X822299Y4997500D01*
X820369Y4992065D01*
X819658Y4985715D01*
G37*
G36*
X1001928Y4962652D02*
G01*
X1071473Y4962652D01*
X1071473Y4985715D01*
X1070762Y4992065D01*
X1068882Y4997500D01*
X1065784Y5002428D01*
X1061720Y5006492D01*
X1056792Y5009591D01*
X1051356Y5011521D01*
X1045006Y5012232D01*
X1001928Y5012232D01*
G37*
G36*
X1819859Y5030571D02*
G01*
X1874418Y5030571D01*
X1874418Y5080152D01*
X1846325Y5080152D01*
X1840026Y5079441D01*
X1834540Y5077510D01*
X1829663Y5074462D01*
X1825548Y5070348D01*
X1822500Y5065471D01*
X1820570Y5059984D01*
X1819859Y5053685D01*
G37*
G36*
X1957120Y5030571D02*
G01*
X2011680Y5030571D01*
X2011680Y5053685D01*
X2010968Y5059984D01*
X2009038Y5065471D01*
X2005990Y5070348D01*
X2001875Y5074462D01*
X1996998Y5077510D01*
X1991512Y5079441D01*
X1985213Y5080152D01*
X1957120Y5080152D01*
G37*
G36*
X928573Y5321452D02*
G01*
X940104Y5322824D01*
X951280Y5325872D01*
X961898Y5330647D01*
X971651Y5336946D01*
X980338Y5344668D01*
X987704Y5353659D01*
X993648Y5363616D01*
X998016Y5374386D01*
X1000658Y5385714D01*
X1001521Y5397296D01*
X1000658Y5408879D01*
X998016Y5420207D01*
X993648Y5430977D01*
X987704Y5440934D01*
X980338Y5449925D01*
X971651Y5457647D01*
X961898Y5463946D01*
X951280Y5468721D01*
X940104Y5471769D01*
X928573Y5473141D01*
X916940Y5472684D01*
X905560Y5470448D01*
X894587Y5466537D01*
X884428Y5461000D01*
X875182Y5453938D01*
X867105Y5445556D01*
X860450Y5436057D01*
X855268Y5425643D01*
X851763Y5414568D01*
X849985Y5403088D01*
X849985Y5391505D01*
X851763Y5380024D01*
X855268Y5368950D01*
X860450Y5358536D01*
X867105Y5349036D01*
X875182Y5340654D01*
X884428Y5333593D01*
X894587Y5328056D01*
X905560Y5324144D01*
X916940Y5321909D01*
G37*
G36*
X1936394Y5416346D02*
G01*
X2065223Y5416346D01*
X2071573Y5417058D01*
X2077008Y5418937D01*
X2081936Y5422036D01*
X2086000Y5426151D01*
X2089099Y5431028D01*
X2090978Y5436463D01*
X2091689Y5442813D01*
X2091689Y5501690D01*
X2090978Y5507990D01*
X2089099Y5513476D01*
X2086000Y5518353D01*
X2084324Y5520080D01*
X2082088Y5523331D01*
X2081326Y5527243D01*
X2082088Y5531104D01*
X2084324Y5534406D01*
X2086000Y5536133D01*
X2087727Y5538876D01*
X2090013Y5541416D01*
X2092960Y5543042D01*
X2096312Y5543600D01*
X4076954Y5543600D01*
X4080865Y5542838D01*
X4084167Y5540654D01*
X4085742Y5539028D01*
X4093819Y5533390D01*
X4102709Y5529275D01*
X4112209Y5526735D01*
X4122013Y5525871D01*
X4131767Y5526735D01*
X4141266Y5529275D01*
X4150156Y5533390D01*
X4158234Y5539028D01*
X4165193Y5545988D01*
X4170832Y5554065D01*
X4174947Y5562955D01*
X4177487Y5572455D01*
X4178350Y5582208D01*
X4177487Y5592013D01*
X4174947Y5601512D01*
X4170832Y5610402D01*
X4165193Y5618480D01*
X4158234Y5625388D01*
X4150156Y5631027D01*
X4141266Y5635193D01*
X4131767Y5637733D01*
X4122013Y5638596D01*
X4112209Y5637733D01*
X4102709Y5635193D01*
X4093819Y5631027D01*
X4085742Y5625388D01*
X4084167Y5623814D01*
X4080865Y5621629D01*
X4076954Y5620816D01*
X3142894Y5620816D01*
X3139084Y5621578D01*
X3135833Y5623712D01*
X3133598Y5626912D01*
X3132734Y5630722D01*
X3133394Y5634583D01*
X3135477Y5637885D01*
X3138627Y5640222D01*
X3145485Y5643422D01*
X3153562Y5649061D01*
X3160522Y5656021D01*
X3166160Y5664047D01*
X3170275Y5672937D01*
X3172815Y5682437D01*
X3173679Y5692241D01*
X3172815Y5702046D01*
X3170275Y5711494D01*
X3166160Y5720435D01*
X3160522Y5728462D01*
X3153562Y5735421D01*
X3145485Y5741060D01*
X3136595Y5745226D01*
X3127095Y5747766D01*
X3117342Y5748629D01*
X3107537Y5747766D01*
X3098038Y5745226D01*
X3089148Y5741060D01*
X3081070Y5735421D01*
X3079496Y5733796D01*
X3076194Y5731611D01*
X3072282Y5730849D01*
X2150719Y5730849D01*
X2146604Y5731713D01*
X2143150Y5734253D01*
X2141067Y5737961D01*
X2140661Y5742178D01*
X2142032Y5746191D01*
X2144928Y5749340D01*
X2149297Y5752388D01*
X2156256Y5759348D01*
X2161895Y5767425D01*
X2166061Y5776315D01*
X2168601Y5785815D01*
X2169464Y5795568D01*
X2168601Y5805373D01*
X2166061Y5814872D01*
X2161895Y5823762D01*
X2156256Y5831840D01*
X2149297Y5838748D01*
X2141270Y5844387D01*
X2134565Y5847537D01*
X2131415Y5849823D01*
X2129383Y5853125D01*
X2128723Y5856986D01*
X2129586Y5860796D01*
X2131771Y5863996D01*
X2135022Y5866130D01*
X2138883Y5866892D01*
X3904691Y5866892D01*
X3908551Y5866130D01*
X3911854Y5863894D01*
X3913479Y5862320D01*
X3921506Y5856681D01*
X3930396Y5852515D01*
X3939895Y5849975D01*
X3949700Y5849112D01*
X3959504Y5849975D01*
X3969004Y5852515D01*
X3977894Y5856681D01*
X3985920Y5862320D01*
X3992879Y5869279D01*
X3998518Y5877306D01*
X4002684Y5886196D01*
X4005224Y5895695D01*
X4006087Y5905500D01*
X4005224Y5915304D01*
X4002684Y5924804D01*
X3999737Y5931001D01*
X3998823Y5934964D01*
X3999484Y5938977D01*
X4001668Y5942380D01*
X4005021Y5944666D01*
X4008983Y5945479D01*
X4226407Y5945479D01*
X4234434Y5946241D01*
X4241647Y5948476D01*
X4248302Y5952032D01*
X4254550Y5957112D01*
X4473448Y6176010D01*
X4476750Y6178245D01*
X4480610Y6179007D01*
X4803190Y6179007D01*
X4807102Y6178245D01*
X4810404Y6176010D01*
X4811979Y6174435D01*
X4820056Y6168796D01*
X4828946Y6164630D01*
X4838446Y6162090D01*
X4848250Y6161227D01*
X4858004Y6162090D01*
X4867503Y6164630D01*
X4876393Y6168796D01*
X4884470Y6174435D01*
X4891430Y6181394D01*
X4897069Y6189421D01*
X4901184Y6198311D01*
X4903724Y6207810D01*
X4904587Y6217615D01*
X4903724Y6227419D01*
X4901184Y6236868D01*
X4897069Y6245809D01*
X4891430Y6253835D01*
X4884470Y6260795D01*
X4876393Y6266434D01*
X4867503Y6270599D01*
X4858004Y6273139D01*
X4848250Y6274003D01*
X4838446Y6273139D01*
X4828946Y6270599D01*
X4820056Y6266434D01*
X4811979Y6260795D01*
X4810404Y6259169D01*
X4807102Y6256985D01*
X4803190Y6256223D01*
X4460900Y6256223D01*
X4452924Y6255410D01*
X4445660Y6253226D01*
X4439005Y6249670D01*
X4432757Y6244539D01*
X4213860Y6025642D01*
X4210558Y6023457D01*
X4206697Y6022695D01*
X4185208Y6022695D01*
X4180941Y6023610D01*
X4177487Y6026251D01*
X4175404Y6030061D01*
X4175150Y6034430D01*
X4176725Y6038443D01*
X4182719Y6047486D01*
X4189425Y6060998D01*
X4194454Y6075222D01*
X4197654Y6089904D01*
X4199026Y6104940D01*
X4198569Y6119977D01*
X4196283Y6134862D01*
X4192168Y6149390D01*
X4186275Y6163259D01*
X4178757Y6176314D01*
X4169664Y6188354D01*
X4159148Y6199174D01*
X4147413Y6208623D01*
X4134612Y6216548D01*
X4120896Y6222847D01*
X4106570Y6227419D01*
X4091736Y6230162D01*
X4076700Y6231128D01*
X4061663Y6230162D01*
X4046829Y6227419D01*
X4032504Y6222847D01*
X4018787Y6216548D01*
X4005986Y6208623D01*
X3994251Y6199174D01*
X3983736Y6188354D01*
X3974642Y6176314D01*
X3967124Y6163259D01*
X3961231Y6149390D01*
X3959453Y6143142D01*
X3957421Y6139281D01*
X3953967Y6136690D01*
X3949700Y6135776D01*
X3945432Y6136690D01*
X3941978Y6139281D01*
X3939946Y6143142D01*
X3938168Y6149390D01*
X3932275Y6163259D01*
X3924757Y6176314D01*
X3915664Y6188354D01*
X3905148Y6199174D01*
X3893413Y6208623D01*
X3880612Y6216548D01*
X3866896Y6222847D01*
X3852570Y6227419D01*
X3837736Y6230162D01*
X3822700Y6231128D01*
X3807663Y6230162D01*
X3792829Y6227419D01*
X3778504Y6222847D01*
X3774389Y6220968D01*
X3770426Y6220053D01*
X3766413Y6220764D01*
X3762959Y6223000D01*
X3622548Y6363462D01*
X3616299Y6368592D01*
X3609644Y6372148D01*
X3602431Y6374333D01*
X3594404Y6375095D01*
X3467201Y6375095D01*
X3463340Y6375908D01*
X3460038Y6378092D01*
X3038246Y6799834D01*
X3036112Y6803085D01*
X3035300Y6806844D01*
X3035960Y6810705D01*
X3037992Y6813956D01*
X3041142Y6816242D01*
X3043936Y6817563D01*
X3052013Y6823202D01*
X3053588Y6824776D01*
X3056890Y6827012D01*
X3060801Y6827774D01*
X3499053Y6827774D01*
X3503117Y6826910D01*
X3506520Y6824522D01*
X3508654Y6821017D01*
X3509213Y6816902D01*
X3508095Y6812940D01*
X3505504Y6809740D01*
X3494836Y6801053D01*
X3485946Y6791502D01*
X3478377Y6780834D01*
X3472332Y6769201D01*
X3467963Y6756857D01*
X3465322Y6744055D01*
X3464407Y6731000D01*
X3465322Y6717944D01*
X3467963Y6705142D01*
X3472332Y6692798D01*
X3478377Y6681165D01*
X3485946Y6670497D01*
X3494836Y6660946D01*
X3504996Y6652666D01*
X3516172Y6645859D01*
X3528212Y6640626D01*
X3540810Y6637121D01*
X3553764Y6635343D01*
X3566820Y6635343D01*
X3579825Y6637121D01*
X3592423Y6640626D01*
X3604412Y6645859D01*
X3615588Y6652666D01*
X3625748Y6660946D01*
X3628593Y6663944D01*
X3631946Y6666331D01*
X3636010Y6667195D01*
X5922822Y6667195D01*
X5926937Y6666331D01*
X5930341Y6663893D01*
X5932474Y6660286D01*
X5932932Y6656120D01*
X5931712Y6652107D01*
X5928969Y6648907D01*
X5925159Y6647129D01*
X5919825Y6645909D01*
X5902756Y6639915D01*
X5886348Y6632244D01*
X5870803Y6622948D01*
X5856325Y6612077D01*
X5843016Y6599783D01*
X5831078Y6586169D01*
X5820562Y6571386D01*
X5811672Y6555638D01*
X5804408Y6539026D01*
X5798921Y6521805D01*
X5795213Y6504076D01*
X5793333Y6486042D01*
X5793333Y6467957D01*
X5795213Y6449923D01*
X5798921Y6432194D01*
X5804408Y6414973D01*
X5811672Y6398361D01*
X5820562Y6382613D01*
X5831078Y6367830D01*
X5843016Y6354216D01*
X5856325Y6341922D01*
X5870803Y6331051D01*
X5886348Y6321755D01*
X5902756Y6314084D01*
X5919825Y6308090D01*
X5937453Y6303975D01*
X5955436Y6301638D01*
X5973521Y6301181D01*
X5991606Y6302552D01*
X6009386Y6305804D01*
X6026810Y6310884D01*
X6043574Y6317691D01*
X6059525Y6326225D01*
X6074562Y6336334D01*
X6088481Y6347917D01*
X6101130Y6360871D01*
X6112357Y6375095D01*
X6122060Y6390386D01*
X6130188Y6406540D01*
X6136538Y6423507D01*
X6141161Y6441033D01*
X6143955Y6458915D01*
X6144869Y6477000D01*
X6143955Y6495084D01*
X6141161Y6512966D01*
X6136538Y6530492D01*
X6130188Y6547459D01*
X6122060Y6563614D01*
X6112357Y6578904D01*
X6101130Y6593128D01*
X6088481Y6606082D01*
X6074562Y6617665D01*
X6059525Y6627774D01*
X6043574Y6636308D01*
X6026810Y6643116D01*
X6012535Y6647281D01*
X6008928Y6649212D01*
X6006338Y6652412D01*
X6005271Y6656374D01*
X6005830Y6660489D01*
X6007963Y6663994D01*
X6011367Y6666331D01*
X6015380Y6667195D01*
X6144564Y6667195D01*
X6148476Y6666433D01*
X6151778Y6664198D01*
X6314084Y6501892D01*
X6320332Y6496761D01*
X6326987Y6493205D01*
X6334252Y6491020D01*
X6342227Y6490208D01*
X7399578Y6490208D01*
X7403490Y6489446D01*
X7406792Y6487261D01*
X7408367Y6485636D01*
X7416444Y6479997D01*
X7425334Y6475882D01*
X7434834Y6473342D01*
X7444638Y6472478D01*
X7454392Y6473342D01*
X7463891Y6475882D01*
X7472781Y6479997D01*
X7480858Y6485636D01*
X7487818Y6492595D01*
X7493457Y6500672D01*
X7497572Y6509562D01*
X7500112Y6519062D01*
X7500975Y6528816D01*
X7500213Y6537807D01*
X7500721Y6541973D01*
X7502855Y6545580D01*
X7506208Y6548018D01*
X7510322Y6548881D01*
X9866376Y6548881D01*
X9874402Y6549644D01*
X9881666Y6551879D01*
X9888321Y6555435D01*
X9894519Y6560515D01*
X10333024Y6999020D01*
X10336631Y7001357D01*
X10340949Y7001967D01*
X10345115Y7000697D01*
X10348620Y6998766D01*
X10364266Y6992264D01*
X10380522Y6987590D01*
X10397185Y6984746D01*
X10414101Y6983831D01*
X10431018Y6984746D01*
X10447680Y6987590D01*
X10463936Y6992264D01*
X10479582Y6998766D01*
X10494365Y7006945D01*
X10508183Y7016750D01*
X10520781Y7028027D01*
X10532059Y7040625D01*
X10541863Y7054443D01*
X10550042Y7069226D01*
X10556544Y7084872D01*
X10561218Y7101128D01*
X10564063Y7117791D01*
X10564977Y7134707D01*
X10564063Y7151624D01*
X10561218Y7168286D01*
X10556544Y7184542D01*
X10550042Y7200188D01*
X10541863Y7214971D01*
X10532059Y7228789D01*
X10520781Y7241387D01*
X10508183Y7252665D01*
X10494365Y7262469D01*
X10479582Y7270648D01*
X10463936Y7277150D01*
X10447680Y7281824D01*
X10431018Y7284669D01*
X10414101Y7285583D01*
X10397185Y7284669D01*
X10380522Y7281824D01*
X10364266Y7277150D01*
X10348620Y7270648D01*
X10333837Y7262469D01*
X10320020Y7252665D01*
X10307421Y7241387D01*
X10296144Y7228789D01*
X10286339Y7214971D01*
X10278160Y7200188D01*
X10271658Y7184542D01*
X10266984Y7168286D01*
X10264140Y7151624D01*
X10263225Y7134707D01*
X10264140Y7117791D01*
X10266984Y7101128D01*
X10271658Y7084872D01*
X10278160Y7069226D01*
X10280091Y7065721D01*
X10281361Y7061555D01*
X10280751Y7057237D01*
X10278414Y7053580D01*
X9853879Y6629044D01*
X9850577Y6626859D01*
X9846665Y6626098D01*
X7464907Y6626098D01*
X7460640Y6627012D01*
X7457186Y6629653D01*
X7455153Y6633514D01*
X7454900Y6637832D01*
X7456474Y6641896D01*
X7457694Y6643776D01*
X7463840Y6656171D01*
X7467701Y6667500D01*
X7412380Y6667500D01*
X7412380Y6636258D01*
X7411567Y6632346D01*
X7409383Y6629044D01*
X7406081Y6626859D01*
X7402220Y6626098D01*
X7329830Y6626098D01*
X7325918Y6626859D01*
X7322616Y6629044D01*
X7320432Y6632346D01*
X7319670Y6636258D01*
X7319670Y6667500D01*
X7264349Y6667500D01*
X7268159Y6656171D01*
X7274306Y6643776D01*
X7275525Y6641896D01*
X7277100Y6637832D01*
X7276846Y6633514D01*
X7274814Y6629653D01*
X7271359Y6627012D01*
X7267092Y6626098D01*
X7210907Y6626098D01*
X7206640Y6627012D01*
X7203186Y6629653D01*
X7201153Y6633514D01*
X7200900Y6637832D01*
X7202474Y6641896D01*
X7203694Y6643776D01*
X7209840Y6656171D01*
X7214311Y6669278D01*
X7217003Y6682892D01*
X7217918Y6697065D01*
X7217918Y6764934D01*
X7217003Y6779107D01*
X7214311Y6792722D01*
X7209840Y6805828D01*
X7203694Y6818223D01*
X7196023Y6829755D01*
X7186879Y6840169D01*
X7176465Y6849313D01*
X7164933Y6856984D01*
X7152538Y6863130D01*
X7149236Y6864248D01*
X7146747Y6865518D01*
X7144664Y6867398D01*
X7138974Y6874357D01*
X7049668Y6963613D01*
X7047484Y6966915D01*
X7046722Y6970826D01*
X7047484Y6974687D01*
X7049668Y6977989D01*
X7052970Y6980224D01*
X7056881Y6980986D01*
X7078522Y6974890D01*
X7095185Y6972046D01*
X7112101Y6971131D01*
X7129018Y6972046D01*
X7145680Y6974890D01*
X7161936Y6979564D01*
X7177582Y6986066D01*
X7192365Y6994245D01*
X7206183Y7004050D01*
X7218781Y7015327D01*
X7230059Y7027925D01*
X7239863Y7041743D01*
X7248042Y7056526D01*
X7254544Y7072172D01*
X7259218Y7088428D01*
X7262063Y7105091D01*
X7262977Y7122007D01*
X7262063Y7138924D01*
X7259218Y7155586D01*
X7254544Y7171842D01*
X7248042Y7187488D01*
X7239863Y7202271D01*
X7230059Y7216089D01*
X7218781Y7228687D01*
X7206183Y7239965D01*
X7192365Y7249769D01*
X7177582Y7257948D01*
X7161936Y7264450D01*
X7145680Y7269124D01*
X7129018Y7271969D01*
X7112101Y7272883D01*
X7095185Y7271969D01*
X7078522Y7269124D01*
X7062266Y7264450D01*
X7046620Y7257948D01*
X7031837Y7249769D01*
X7018020Y7239965D01*
X7005421Y7228687D01*
X6994144Y7216089D01*
X6984339Y7202271D01*
X6976160Y7187488D01*
X6969658Y7171842D01*
X6964984Y7155586D01*
X6962140Y7138924D01*
X6961225Y7122007D01*
X6962140Y7105091D01*
X6964984Y7088428D01*
X6971080Y7066788D01*
X6970318Y7062876D01*
X6968083Y7059574D01*
X6964781Y7057390D01*
X6960920Y7056628D01*
X6957009Y7057390D01*
X6953707Y7059574D01*
X6834174Y7179157D01*
X6831787Y7182866D01*
X6831228Y7187234D01*
X6832549Y7191400D01*
X6835546Y7194651D01*
X6838086Y7196480D01*
X6845046Y7203440D01*
X6850684Y7211466D01*
X6854850Y7220356D01*
X6857390Y7229856D01*
X6858253Y7239660D01*
X6857390Y7249464D01*
X6854850Y7258913D01*
X6850684Y7267854D01*
X6845046Y7275880D01*
X6843471Y7277506D01*
X6841236Y7280757D01*
X6840474Y7284669D01*
X6840474Y7531150D01*
X6839712Y7539126D01*
X6837476Y7546390D01*
X6833920Y7553045D01*
X6828840Y7559294D01*
X6094730Y8293353D01*
X6088481Y8298484D01*
X6081826Y8302040D01*
X6074613Y8304225D01*
X6066586Y8305038D01*
X6001410Y8305038D01*
X5997803Y8305698D01*
X5994654Y8307628D01*
X5992418Y8310524D01*
X5991352Y8314080D01*
X5990996Y8317179D01*
X5989066Y8322614D01*
X5987897Y8324494D01*
X5986526Y8328050D01*
X5986526Y8331809D01*
X5987897Y8335314D01*
X5989066Y8337194D01*
X5990996Y8342680D01*
X5991707Y8348980D01*
X5991707Y8437829D01*
X5990996Y8444179D01*
X5989066Y8449614D01*
X5987897Y8451494D01*
X5986526Y8455050D01*
X5986526Y8458809D01*
X5987897Y8462314D01*
X5989066Y8464194D01*
X5990996Y8469680D01*
X5991707Y8475980D01*
X5991707Y8564829D01*
X5990996Y8571179D01*
X5989066Y8576614D01*
X5987897Y8578494D01*
X5986526Y8582050D01*
X5986526Y8585809D01*
X5987897Y8589314D01*
X5989066Y8591194D01*
X5990996Y8596680D01*
X5991707Y8602980D01*
X5991707Y8618575D01*
X5922111Y8618575D01*
X5922111Y8601506D01*
X5921349Y8597595D01*
X5919165Y8594293D01*
X5915863Y8592108D01*
X5911951Y8591346D01*
X5819597Y8591346D01*
X5815685Y8592108D01*
X5812434Y8594293D01*
X5810199Y8597595D01*
X5809437Y8601506D01*
X5809437Y8618575D01*
X5739892Y8618575D01*
X5739892Y8602980D01*
X5740603Y8596680D01*
X5742482Y8591194D01*
X5743702Y8589314D01*
X5745073Y8585809D01*
X5745073Y8582050D01*
X5743702Y8578494D01*
X5742482Y8576614D01*
X5740603Y8571179D01*
X5740247Y8568080D01*
X5739180Y8564524D01*
X5736894Y8561628D01*
X5733745Y8559698D01*
X5730138Y8559038D01*
X4538827Y8559038D01*
X4534916Y8559800D01*
X4531614Y8561984D01*
X4530039Y8563610D01*
X4521962Y8569248D01*
X4513072Y8573414D01*
X4503572Y8575954D01*
X4493818Y8576818D01*
X4484014Y8575954D01*
X4474514Y8573414D01*
X4465624Y8569248D01*
X4457547Y8563610D01*
X4450638Y8556650D01*
X4445000Y8548624D01*
X4440834Y8539683D01*
X4438294Y8530234D01*
X4437430Y8520430D01*
X4438294Y8510625D01*
X4440834Y8501126D01*
X4445000Y8492236D01*
X4450638Y8484209D01*
X4457547Y8477250D01*
X4465624Y8471611D01*
X4471670Y8468817D01*
X4475124Y8466124D01*
X4477156Y8462213D01*
X4477359Y8457844D01*
X4475683Y8453780D01*
X4472432Y8450783D01*
X4468215Y8449462D01*
X4462221Y8448954D01*
X4452721Y8446414D01*
X4443831Y8442248D01*
X4435754Y8436610D01*
X4428845Y8429650D01*
X4423206Y8421624D01*
X4419041Y8412683D01*
X4416501Y8403234D01*
X4415637Y8393430D01*
X4416501Y8383625D01*
X4419041Y8374125D01*
X4423206Y8365236D01*
X4428845Y8357209D01*
X4435754Y8350250D01*
X4443831Y8344611D01*
X4452721Y8340445D01*
X4462221Y8337905D01*
X4472025Y8337042D01*
X4481779Y8337905D01*
X4491278Y8340445D01*
X4500168Y8344611D01*
X4508246Y8350250D01*
X4509820Y8351824D01*
X4513122Y8354059D01*
X4517034Y8354822D01*
X5730138Y8354822D01*
X5733745Y8354161D01*
X5736894Y8352231D01*
X5739180Y8349335D01*
X5740247Y8345779D01*
X5740603Y8342680D01*
X5742482Y8337194D01*
X5743702Y8335314D01*
X5745073Y8331809D01*
X5745073Y8328050D01*
X5743702Y8324494D01*
X5742482Y8322614D01*
X5740603Y8317179D01*
X5739892Y8310829D01*
X5739892Y8221980D01*
X5740603Y8215680D01*
X5742482Y8210194D01*
X5743702Y8208314D01*
X5745073Y8204809D01*
X5745073Y8201050D01*
X5743702Y8197494D01*
X5742482Y8195614D01*
X5740603Y8190179D01*
X5739892Y8183829D01*
X5739892Y8094980D01*
X5740603Y8088680D01*
X5742482Y8083194D01*
X5743702Y8081314D01*
X5745073Y8077809D01*
X5745073Y8074050D01*
X5743702Y8070494D01*
X5742482Y8068614D01*
X5740603Y8063179D01*
X5739892Y8056829D01*
X5739892Y7967980D01*
X5740603Y7961680D01*
X5742482Y7956194D01*
X5743702Y7954314D01*
X5745073Y7950809D01*
X5745073Y7947050D01*
X5743702Y7943494D01*
X5742482Y7941614D01*
X5740603Y7936179D01*
X5739892Y7929829D01*
X5739892Y7840980D01*
X5740603Y7834680D01*
X5741720Y7831480D01*
X5742228Y7827060D01*
X5740806Y7822793D01*
X5737707Y7819593D01*
X5733491Y7818069D01*
X5729071Y7818424D01*
X5720435Y7821117D01*
X5712460Y7821930D01*
X5703011Y7821930D01*
X5699150Y7822692D01*
X5695848Y7824876D01*
X5694222Y7826502D01*
X5686196Y7832140D01*
X5677306Y7836306D01*
X5667806Y7838846D01*
X5658002Y7839709D01*
X5648198Y7838846D01*
X5638749Y7836306D01*
X5629808Y7832140D01*
X5621782Y7826502D01*
X5614822Y7819542D01*
X5609183Y7811516D01*
X5605018Y7802575D01*
X5602478Y7793126D01*
X5601614Y7783322D01*
X5602478Y7773517D01*
X5605018Y7764018D01*
X5609183Y7755128D01*
X5614822Y7747101D01*
X5621782Y7740142D01*
X5629808Y7734503D01*
X5638749Y7730337D01*
X5648198Y7727797D01*
X5658002Y7726934D01*
X5667806Y7727797D01*
X5677306Y7730337D01*
X5686196Y7734503D01*
X5691581Y7738262D01*
X5694781Y7739735D01*
X5698286Y7740040D01*
X5701690Y7739125D01*
X5704586Y7737094D01*
X5710224Y7731455D01*
X5716422Y7726375D01*
X5723128Y7722819D01*
X5734354Y7719618D01*
X5737199Y7717637D01*
X5739180Y7714843D01*
X5740146Y7711541D01*
X5740603Y7707680D01*
X5742482Y7702194D01*
X5743702Y7700314D01*
X5745073Y7696809D01*
X5745073Y7693050D01*
X5743702Y7689494D01*
X5742482Y7687614D01*
X5740603Y7682179D01*
X5740247Y7679080D01*
X5739180Y7675524D01*
X5736894Y7672628D01*
X5733745Y7670698D01*
X5730138Y7670038D01*
X5125212Y7670038D01*
X5121351Y7670800D01*
X5118049Y7673035D01*
X5115864Y7676286D01*
X5115052Y7680198D01*
X5115864Y7684109D01*
X5118049Y7687360D01*
X5122976Y7692288D01*
X5126075Y7697216D01*
X5127955Y7702651D01*
X5128666Y7709001D01*
X5128666Y7804556D01*
X5006644Y7804556D01*
X5006644Y7689697D01*
X5005832Y7685735D01*
X5003546Y7682382D01*
X5000091Y7680198D01*
X4996129Y7679537D01*
X4992166Y7680452D01*
X4983784Y7684414D01*
X4974285Y7686954D01*
X4964480Y7687818D01*
X4954676Y7686954D01*
X4945227Y7684414D01*
X4936286Y7680248D01*
X4928260Y7674609D01*
X4921300Y7667650D01*
X4915662Y7659624D01*
X4911496Y7650683D01*
X4908956Y7641234D01*
X4908092Y7631430D01*
X4908956Y7621625D01*
X4911496Y7612125D01*
X4915662Y7603236D01*
X4921300Y7595209D01*
X4928260Y7588250D01*
X4936286Y7582611D01*
X4945684Y7578242D01*
X4947716Y7576870D01*
X4951984Y7576616D01*
X4954676Y7575905D01*
X4964480Y7575042D01*
X4974285Y7575905D01*
X4983784Y7578445D01*
X4992674Y7582611D01*
X5000701Y7588250D01*
X5002326Y7589824D01*
X5005628Y7592059D01*
X5009489Y7592822D01*
X5730138Y7592822D01*
X5733745Y7592161D01*
X5736894Y7590231D01*
X5739180Y7587335D01*
X5740247Y7583779D01*
X5740603Y7580680D01*
X5742482Y7575194D01*
X5743702Y7573314D01*
X5745073Y7569809D01*
X5745073Y7566050D01*
X5743702Y7562494D01*
X5742482Y7560614D01*
X5740603Y7555179D01*
X5740247Y7552080D01*
X5739180Y7548524D01*
X5736894Y7545628D01*
X5733745Y7543698D01*
X5730138Y7543038D01*
X4971288Y7543038D01*
X4967376Y7543800D01*
X4964074Y7545984D01*
X4962499Y7547609D01*
X4954422Y7553248D01*
X4945075Y7557617D01*
X4943043Y7558989D01*
X4938776Y7559192D01*
X4936032Y7559954D01*
X4926279Y7560818D01*
X4916474Y7559954D01*
X4906975Y7557414D01*
X4898085Y7553248D01*
X4890008Y7547609D01*
X4883099Y7540650D01*
X4879441Y7535468D01*
X4876190Y7532522D01*
X4872024Y7531201D01*
X4867656Y7531760D01*
X4863947Y7534097D01*
X4732883Y7665161D01*
X4730699Y7668463D01*
X4729937Y7672324D01*
X4730699Y7676235D01*
X4732883Y7679537D01*
X4736185Y7681722D01*
X4740097Y7682484D01*
X4788916Y7682484D01*
X4788916Y7804556D01*
X4666894Y7804556D01*
X4666894Y7755737D01*
X4666081Y7751825D01*
X4663897Y7748524D01*
X4660595Y7746339D01*
X4656734Y7745577D01*
X4652822Y7746339D01*
X4649520Y7748524D01*
X4235450Y8162594D01*
X4233265Y8165896D01*
X4232503Y8169808D01*
X4232503Y8519769D01*
X4231690Y8527745D01*
X4229506Y8535009D01*
X4225950Y8541664D01*
X4221124Y8547506D01*
X4215130Y8552484D01*
X4208475Y8556040D01*
X4197197Y8559241D01*
X4194352Y8561171D01*
X4192371Y8563965D01*
X4191406Y8567267D01*
X4190949Y8571179D01*
X4189069Y8576614D01*
X4187850Y8578494D01*
X4186478Y8582050D01*
X4186478Y8585809D01*
X4187850Y8589314D01*
X4189069Y8591194D01*
X4190949Y8596680D01*
X4191660Y8602980D01*
X4191660Y8618575D01*
X4122115Y8618575D01*
X4122115Y8601506D01*
X4121353Y8597595D01*
X4119168Y8594293D01*
X4115866Y8592108D01*
X4111955Y8591346D01*
X4019600Y8591346D01*
X4015689Y8592108D01*
X4012387Y8594293D01*
X4010202Y8597595D01*
X4009440Y8601506D01*
X4009440Y8618575D01*
X3939844Y8618575D01*
X3939844Y8602980D01*
X3940556Y8596680D01*
X3942486Y8591194D01*
X3943654Y8589314D01*
X3945026Y8585809D01*
X3945026Y8582050D01*
X3943654Y8578494D01*
X3942130Y8576106D01*
X3939895Y8573566D01*
X3936898Y8571890D01*
X3933545Y8571331D01*
X3404260Y8571331D01*
X3400247Y8572144D01*
X3396894Y8574481D01*
X3394710Y8577986D01*
X3394100Y8581999D01*
X3395167Y8585962D01*
X3399840Y8595461D01*
X3404260Y8608618D01*
X3407003Y8622182D01*
X3407867Y8636000D01*
X3407003Y8649817D01*
X3404260Y8663381D01*
X3399840Y8676538D01*
X3393694Y8688933D01*
X3386023Y8700465D01*
X3376879Y8710879D01*
X3366465Y8720023D01*
X3354933Y8727694D01*
X3342538Y8733840D01*
X3329381Y8738260D01*
X3315817Y8741003D01*
X3302000Y8741867D01*
X3288182Y8741003D01*
X3274618Y8738260D01*
X3261461Y8733840D01*
X3249066Y8727694D01*
X3237534Y8720023D01*
X3227120Y8710879D01*
X3217976Y8700465D01*
X3210306Y8688933D01*
X3204159Y8676538D01*
X3199739Y8663381D01*
X3197809Y8653780D01*
X3196539Y8650528D01*
X3194304Y8647887D01*
X3191256Y8646160D01*
X3187852Y8645601D01*
X3019755Y8645601D01*
X3015132Y8645398D01*
X3010712Y8644788D01*
X3006394Y8643823D01*
X3002127Y8642502D01*
X2998063Y8640775D01*
X2994101Y8638743D01*
X2990342Y8636355D01*
X2986836Y8633663D01*
X2983382Y8630513D01*
X2488793Y8135924D01*
X2485491Y8133689D01*
X2481630Y8132927D01*
X2273757Y8132927D01*
X2269083Y8132724D01*
X2264714Y8132165D01*
X2260346Y8131200D01*
X2256129Y8129879D01*
X2252014Y8128152D01*
X2248103Y8126120D01*
X2244344Y8123681D01*
X2240838Y8121040D01*
X2237384Y8117840D01*
X2068626Y7948879D01*
X2065324Y7946694D01*
X2061413Y7945881D01*
X2057552Y7946694D01*
X2049018Y7952282D01*
X2043531Y7954213D01*
X2037232Y7954924D01*
X1788363Y7954924D01*
X1782064Y7954213D01*
X1776577Y7952282D01*
X1771700Y7949184D01*
X1767586Y7945120D01*
X1764538Y7940192D01*
X1762607Y7934756D01*
X1761896Y7928406D01*
X1761896Y7922768D01*
X1761134Y7918856D01*
X1758899Y7915605D01*
X1755648Y7913370D01*
X1751736Y7912608D01*
X1683308Y7912608D01*
X1679448Y7913370D01*
X1676146Y7915605D01*
X1674520Y7917180D01*
X1666493Y7922818D01*
X1657604Y7926984D01*
X1648104Y7929524D01*
X1638300Y7930388D01*
X1628495Y7929524D01*
X1618996Y7926984D01*
X1610106Y7922818D01*
X1602079Y7917180D01*
X1595120Y7910220D01*
X1589481Y7902194D01*
X1585315Y7893303D01*
X1582775Y7883804D01*
X1581912Y7874000D01*
X1582775Y7864195D01*
X1585315Y7854696D01*
X1589481Y7845806D01*
X1595120Y7837779D01*
X1601673Y7831226D01*
X1603857Y7827924D01*
X1604619Y7824012D01*
X1603857Y7820152D01*
X1601673Y7816850D01*
X1598371Y7814665D01*
X1594459Y7813852D01*
X1365453Y7813852D01*
X1361592Y7814665D01*
X1358290Y7816850D01*
X1356055Y7820152D01*
X1355293Y7824012D01*
X1355293Y7839760D01*
X1354582Y7846059D01*
X1353718Y7850276D01*
X1354582Y7854543D01*
X1355293Y7860842D01*
X1355293Y7889697D01*
X1354582Y7895996D01*
X1353718Y7900263D01*
X1354582Y7904530D01*
X1355293Y7910830D01*
X1355293Y7939735D01*
X1354582Y7946034D01*
X1353718Y7950301D01*
X1354582Y7954518D01*
X1355293Y7960817D01*
X1355293Y7989722D01*
X1354582Y7996021D01*
X1353718Y8000288D01*
X1354582Y8004556D01*
X1355293Y8010855D01*
X1355293Y8023961D01*
X1356055Y8027873D01*
X1358290Y8031175D01*
X1361592Y8033359D01*
X1365453Y8034121D01*
X1479905Y8034121D01*
X1483817Y8033359D01*
X1487068Y8031175D01*
X1488694Y8029549D01*
X1496720Y8023910D01*
X1505661Y8019796D01*
X1515110Y8017256D01*
X1524914Y8016392D01*
X1534718Y8017256D01*
X1544218Y8019796D01*
X1553108Y8023910D01*
X1561134Y8029549D01*
X1568094Y8036509D01*
X1573733Y8044586D01*
X1577898Y8053476D01*
X1580438Y8062975D01*
X1581302Y8072729D01*
X1580438Y8082534D01*
X1577898Y8092033D01*
X1573733Y8100923D01*
X1568094Y8109000D01*
X1561134Y8115909D01*
X1553108Y8121548D01*
X1544218Y8125714D01*
X1534718Y8128253D01*
X1524914Y8129117D01*
X1515110Y8128253D01*
X1505661Y8125714D01*
X1496720Y8121548D01*
X1488694Y8115909D01*
X1487068Y8114334D01*
X1483817Y8112150D01*
X1479905Y8111337D01*
X1372006Y8111337D01*
X1369060Y8111794D01*
X1360881Y8114131D01*
X1357934Y8116417D01*
X1355953Y8119567D01*
X1355293Y8123224D01*
X1355293Y8139734D01*
X1354582Y8146034D01*
X1353718Y8150301D01*
X1354582Y8154517D01*
X1355293Y8160867D01*
X1355293Y8219694D01*
X1354582Y8226044D01*
X1353718Y8230260D01*
X1354582Y8234527D01*
X1355293Y8241436D01*
X1346911Y8241436D01*
X1344117Y8241842D01*
X1340612Y8243570D01*
X1335125Y8245449D01*
X1328826Y8246160D01*
X1209090Y8246160D01*
X1204772Y8247176D01*
X1201267Y8249869D01*
X1199235Y8253831D01*
X1198575Y8256473D01*
X1198321Y8260130D01*
X1199438Y8263636D01*
X1201674Y8266531D01*
X1204823Y8268462D01*
X1208430Y8269122D01*
X1225550Y8269122D01*
X1225550Y8271408D01*
X1198118Y8271408D01*
X1194816Y8271967D01*
X1191869Y8273542D01*
X1189634Y8276031D01*
X1187551Y8279180D01*
X1180439Y8286902D01*
X1172210Y8293303D01*
X1163015Y8298281D01*
X1153109Y8301685D01*
X1137462Y8304174D01*
X1134160Y8306409D01*
X1131976Y8309711D01*
X1131214Y8313572D01*
X1131214Y8346440D01*
X1069797Y8346440D01*
X1075283Y8336330D01*
X1082649Y8326526D01*
X1091285Y8317890D01*
X1101547Y8310270D01*
X1104595Y8307730D01*
X1106424Y8304174D01*
X1106779Y8300161D01*
X1105509Y8296402D01*
X1102918Y8293353D01*
X1094638Y8286902D01*
X1087526Y8279180D01*
X1081786Y8270443D01*
X1077620Y8260842D01*
X1075029Y8250681D01*
X1074166Y8240268D01*
X1075029Y8229853D01*
X1077620Y8219694D01*
X1081786Y8210092D01*
X1087526Y8201355D01*
X1094638Y8193633D01*
X1102868Y8187232D01*
X1112062Y8182254D01*
X1121968Y8178850D01*
X1124204Y8178444D01*
X1127556Y8177275D01*
X1130300Y8174990D01*
X1132078Y8171942D01*
X1132687Y8168436D01*
X1132687Y7732115D01*
X1132078Y7728610D01*
X1130300Y7725562D01*
X1127556Y7723276D01*
X1124204Y7722108D01*
X1121968Y7721701D01*
X1112062Y7718298D01*
X1102868Y7713319D01*
X1094638Y7706918D01*
X1087526Y7699197D01*
X1081786Y7690459D01*
X1077620Y7680858D01*
X1075029Y7670698D01*
X1074166Y7660284D01*
X1075029Y7649870D01*
X1077620Y7639710D01*
X1081786Y7630109D01*
X1087526Y7621371D01*
X1094638Y7613650D01*
X1102918Y7607198D01*
X1105509Y7604150D01*
X1106779Y7600391D01*
X1106424Y7596378D01*
X1104595Y7592822D01*
X1091285Y7582662D01*
X1082649Y7574025D01*
X1075283Y7564221D01*
X1069797Y7554112D01*
X1131214Y7554112D01*
X1131214Y7586980D01*
X1131976Y7590840D01*
X1134160Y7594142D01*
X1137462Y7596378D01*
X1153109Y7598867D01*
X1163015Y7602270D01*
X1172210Y7607249D01*
X1180439Y7613650D01*
X1187551Y7621371D01*
X1189634Y7624521D01*
X1191869Y7627010D01*
X1194816Y7628585D01*
X1198118Y7629144D01*
X1225550Y7629144D01*
X1225550Y7631430D01*
X1208430Y7631430D01*
X1204823Y7632090D01*
X1201674Y7634020D01*
X1199438Y7636916D01*
X1198321Y7640421D01*
X1198575Y7644079D01*
X1199235Y7646670D01*
X1201267Y7650683D01*
X1204772Y7653375D01*
X1209090Y7654340D01*
X1328826Y7654340D01*
X1335125Y7655052D01*
X1341729Y7657388D01*
X1345133Y7657998D01*
X1663801Y7657998D01*
X1667713Y7657236D01*
X1670964Y7655001D01*
X1717954Y7608011D01*
X1721408Y7604861D01*
X1724914Y7602169D01*
X1728673Y7599781D01*
X1732635Y7597749D01*
X1736699Y7596022D01*
X1740966Y7594701D01*
X1745284Y7593736D01*
X1749602Y7593177D01*
X1752650Y7593126D01*
X1756206Y7592364D01*
X1759254Y7590434D01*
X1761489Y7587589D01*
X1762607Y7583271D01*
X1764538Y7577785D01*
X1767586Y7572908D01*
X1771700Y7568793D01*
X1776577Y7565694D01*
X1782064Y7563815D01*
X1788363Y7563103D01*
X1915820Y7563103D01*
X1919681Y7562342D01*
X1922983Y7560106D01*
X1957984Y7525105D01*
X1960016Y7522209D01*
X1963623Y7514488D01*
X1969262Y7506411D01*
X1976221Y7499451D01*
X1984248Y7493812D01*
X1993188Y7489698D01*
X2002637Y7487158D01*
X2012442Y7486294D01*
X2021636Y7487107D01*
X2025751Y7486599D01*
X2029358Y7484465D01*
X2031796Y7481062D01*
X2032660Y7476947D01*
X2032660Y7223048D01*
X2031898Y7219188D01*
X2029764Y7215936D01*
X2026564Y7213752D01*
X2017572Y7209840D01*
X2006396Y7203033D01*
X1996236Y7194753D01*
X1987346Y7185202D01*
X1979777Y7174534D01*
X1973732Y7162901D01*
X1969363Y7150557D01*
X1966722Y7137755D01*
X1965807Y7124700D01*
X1966722Y7111644D01*
X1969363Y7098842D01*
X1973732Y7086498D01*
X1979777Y7074865D01*
X1987346Y7064197D01*
X1996236Y7054646D01*
X2006396Y7046366D01*
X2017572Y7039559D01*
X2029612Y7034326D01*
X2042210Y7030821D01*
X2055164Y7029043D01*
X2068220Y7029043D01*
X2081225Y7030821D01*
X2093823Y7034326D01*
X2105812Y7039559D01*
X2116988Y7046366D01*
X2127148Y7054646D01*
X2136089Y7064197D01*
X2143607Y7074865D01*
X2149652Y7086498D01*
X2154021Y7098842D01*
X2156714Y7111644D01*
X2157577Y7124700D01*
X2156714Y7137755D01*
X2154021Y7150557D01*
X2149652Y7162901D01*
X2143607Y7174534D01*
X2136089Y7185202D01*
X2127148Y7194753D01*
X2116988Y7203033D01*
X2114753Y7204405D01*
X2112162Y7206640D01*
X2110486Y7209688D01*
X2109876Y7213092D01*
X2109876Y7721193D01*
X2109114Y7729220D01*
X2106879Y7736433D01*
X2103323Y7743139D01*
X2098243Y7749336D01*
X2058517Y7789062D01*
X2056536Y7791856D01*
X2055622Y7795158D01*
X2055825Y7798562D01*
X2057146Y7801711D01*
X2061108Y7807858D01*
X2062988Y7813243D01*
X2064105Y7817967D01*
X2066086Y7820761D01*
X2068931Y7822742D01*
X2072233Y7823657D01*
X2078989Y7824825D01*
X2083155Y7826146D01*
X2087321Y7827873D01*
X2091029Y7829854D01*
X2096566Y7833614D01*
X2099310Y7834934D01*
X2102307Y7835392D01*
X2278684Y7835392D01*
X2282545Y7834630D01*
X2285847Y7832394D01*
X2360930Y7757363D01*
X2363114Y7754061D01*
X2363876Y7750200D01*
X2363876Y7694574D01*
X2364587Y7688224D01*
X2366518Y7682788D01*
X2369616Y7677912D01*
X2373680Y7673797D01*
X2378608Y7670698D01*
X2384044Y7668818D01*
X2390394Y7668107D01*
X2445969Y7668107D01*
X2449880Y7667294D01*
X2453182Y7665110D01*
X2479141Y7639151D01*
X2485390Y7634020D01*
X2492044Y7630464D01*
X2499309Y7628229D01*
X2506827Y7627518D01*
X2514346Y7628229D01*
X2521559Y7630464D01*
X2528214Y7634020D01*
X2534056Y7638796D01*
X2538882Y7644638D01*
X2542438Y7651292D01*
X2545689Y7662519D01*
X2547975Y7665466D01*
X2551125Y7667396D01*
X2554782Y7668107D01*
X2623210Y7668107D01*
X2629560Y7668818D01*
X2634996Y7670698D01*
X2639923Y7673797D01*
X2643987Y7677912D01*
X2647086Y7682788D01*
X2649016Y7688224D01*
X2649728Y7694574D01*
X2649728Y8053425D01*
X2649016Y8059775D01*
X2647086Y8065211D01*
X2643987Y8070088D01*
X2639923Y8074202D01*
X2634996Y8077301D01*
X2629560Y8079181D01*
X2623210Y8079892D01*
X2601315Y8079892D01*
X2597454Y8080705D01*
X2594152Y8082889D01*
X2591917Y8086191D01*
X2591155Y8090052D01*
X2591917Y8093964D01*
X2594152Y8097266D01*
X3037687Y8540800D01*
X3040989Y8542985D01*
X3044850Y8543747D01*
X3247796Y8543747D01*
X3252266Y8542731D01*
X3261461Y8538159D01*
X3274618Y8533739D01*
X3288182Y8530996D01*
X3290214Y8530894D01*
X3293770Y8529980D01*
X3296767Y8527948D01*
X3340100Y8484565D01*
X3343554Y8481415D01*
X3347059Y8478723D01*
X3350818Y8476335D01*
X3354730Y8474303D01*
X3358845Y8472576D01*
X3363061Y8471255D01*
X3367430Y8470290D01*
X3371799Y8469731D01*
X3376472Y8469528D01*
X3933545Y8469528D01*
X3936898Y8468969D01*
X3939895Y8467293D01*
X3942130Y8464753D01*
X3943654Y8462314D01*
X3945026Y8458809D01*
X3945026Y8455050D01*
X3943654Y8451494D01*
X3942486Y8449614D01*
X3940556Y8444179D01*
X3940149Y8440267D01*
X3939184Y8436965D01*
X3937152Y8434171D01*
X3934358Y8432241D01*
X3923131Y8429040D01*
X3916426Y8425484D01*
X3910584Y8420709D01*
X3905808Y8414867D01*
X3902252Y8408162D01*
X3900068Y8400948D01*
X3899255Y8392922D01*
X3899255Y8380577D01*
X3898493Y8376716D01*
X3896309Y8373414D01*
X3616807Y8093913D01*
X3613505Y8091728D01*
X3609644Y8090966D01*
X3597351Y8090966D01*
X3597351Y8078673D01*
X3596589Y8074761D01*
X3594354Y8071510D01*
X3469792Y7946948D01*
X3466490Y7944713D01*
X3462629Y7943951D01*
X3189884Y7943951D01*
X3181858Y7943138D01*
X3174593Y7940954D01*
X3167938Y7937398D01*
X3161690Y7932267D01*
X2700528Y7471105D01*
X2697226Y7468870D01*
X2693314Y7468108D01*
X2331008Y7468108D01*
X2327148Y7468870D01*
X2323846Y7471105D01*
X2322220Y7472680D01*
X2314194Y7478318D01*
X2305304Y7482484D01*
X2295804Y7485024D01*
X2286000Y7485888D01*
X2276195Y7485024D01*
X2266696Y7482484D01*
X2257806Y7478318D01*
X2249779Y7472680D01*
X2242820Y7465720D01*
X2237181Y7457694D01*
X2233015Y7448803D01*
X2230475Y7439304D01*
X2229612Y7429500D01*
X2230475Y7419695D01*
X2233015Y7410196D01*
X2237181Y7401306D01*
X2242820Y7393279D01*
X2249779Y7386320D01*
X2257806Y7380681D01*
X2266696Y7376515D01*
X2276195Y7373975D01*
X2286000Y7373112D01*
X2295804Y7373975D01*
X2305304Y7376515D01*
X2314194Y7380681D01*
X2322220Y7386320D01*
X2323846Y7387894D01*
X2327148Y7390130D01*
X2331008Y7390892D01*
X2713024Y7390892D01*
X2721051Y7391704D01*
X2728264Y7393889D01*
X2734919Y7397445D01*
X2741168Y7402575D01*
X3202381Y7863738D01*
X3205683Y7865973D01*
X3209544Y7866735D01*
X3482340Y7866735D01*
X3490366Y7867497D01*
X3497579Y7869732D01*
X3504234Y7873288D01*
X3510483Y7878368D01*
X3922522Y8290458D01*
X3925824Y8292642D01*
X3929684Y8293404D01*
X3933596Y8292642D01*
X3936898Y8290458D01*
X3939082Y8287156D01*
X3939844Y8283244D01*
X3939844Y8221980D01*
X3940556Y8215680D01*
X3942486Y8210194D01*
X3943654Y8208314D01*
X3945026Y8204809D01*
X3945026Y8201050D01*
X3943654Y8197494D01*
X3942486Y8195614D01*
X3940556Y8190179D01*
X3939844Y8183829D01*
X3939844Y8094980D01*
X3940556Y8088680D01*
X3942486Y8083194D01*
X3943654Y8081314D01*
X3945026Y8077809D01*
X3945026Y8074050D01*
X3943654Y8070494D01*
X3942486Y8068614D01*
X3940556Y8063179D01*
X3939844Y8056829D01*
X3939844Y7967980D01*
X3940556Y7961680D01*
X3942486Y7956194D01*
X3943654Y7954314D01*
X3945026Y7950809D01*
X3945026Y7947050D01*
X3943654Y7943494D01*
X3942486Y7941614D01*
X3940556Y7936179D01*
X3939844Y7929829D01*
X3939844Y7840980D01*
X3940556Y7834680D01*
X3942486Y7829194D01*
X3943654Y7827314D01*
X3945026Y7823809D01*
X3945026Y7820050D01*
X3943654Y7816494D01*
X3942486Y7814614D01*
X3940556Y7809179D01*
X3940251Y7806080D01*
X3939133Y7802524D01*
X3936898Y7799628D01*
X3933748Y7797698D01*
X3930142Y7797038D01*
X3444494Y7797038D01*
X3440582Y7797800D01*
X3437280Y7799984D01*
X3435705Y7801609D01*
X3427628Y7807248D01*
X3418738Y7811414D01*
X3409238Y7813954D01*
X3399485Y7814818D01*
X3389680Y7813954D01*
X3380181Y7811414D01*
X3371291Y7807248D01*
X3363214Y7801609D01*
X3356305Y7794650D01*
X3350666Y7786624D01*
X3346500Y7777683D01*
X3343960Y7768234D01*
X3343097Y7758430D01*
X3343960Y7748625D01*
X3346500Y7739125D01*
X3350666Y7730236D01*
X3356305Y7722209D01*
X3363214Y7715250D01*
X3371291Y7709611D01*
X3380181Y7705445D01*
X3389680Y7702905D01*
X3399485Y7702042D01*
X3409238Y7702905D01*
X3418738Y7705445D01*
X3427628Y7709611D01*
X3435705Y7715250D01*
X3437280Y7716824D01*
X3440582Y7719059D01*
X3444494Y7719822D01*
X3930142Y7719822D01*
X3933748Y7719161D01*
X3936898Y7717231D01*
X3939133Y7714335D01*
X3940251Y7710779D01*
X3940556Y7707680D01*
X3942486Y7702194D01*
X3943654Y7700314D01*
X3945026Y7696809D01*
X3945026Y7693050D01*
X3943654Y7689494D01*
X3942486Y7687614D01*
X3940556Y7682179D01*
X3939844Y7675829D01*
X3939844Y7586980D01*
X3940556Y7580680D01*
X3942486Y7575194D01*
X3943654Y7573314D01*
X3945026Y7569809D01*
X3945026Y7566050D01*
X3943654Y7562494D01*
X3942486Y7560614D01*
X3940556Y7555179D01*
X3939844Y7548829D01*
X3939844Y7459980D01*
X3940556Y7453680D01*
X3942486Y7448194D01*
X3943654Y7446314D01*
X3945026Y7442809D01*
X3945026Y7439050D01*
X3943654Y7435494D01*
X3942486Y7433614D01*
X3940556Y7428179D01*
X3940251Y7425080D01*
X3939133Y7421524D01*
X3936898Y7418628D01*
X3933748Y7416698D01*
X3930142Y7416038D01*
X3628593Y7416038D01*
X3620566Y7415225D01*
X3613353Y7413040D01*
X3606647Y7409484D01*
X3600450Y7404353D01*
X3181299Y6985253D01*
X3177997Y6983069D01*
X3174136Y6982256D01*
X3104184Y6982256D01*
X3100019Y6983171D01*
X3096615Y6985660D01*
X3094532Y6989368D01*
X3094075Y6993585D01*
X3095447Y6997598D01*
X3098342Y7000748D01*
X3108502Y7007910D01*
X3118053Y7016851D01*
X3126333Y7027011D01*
X3133140Y7038187D01*
X3138373Y7050176D01*
X3141878Y7062774D01*
X3143656Y7075779D01*
X3143656Y7088835D01*
X3141878Y7101789D01*
X3138373Y7114387D01*
X3133140Y7126427D01*
X3126333Y7137603D01*
X3118053Y7147763D01*
X3108502Y7156653D01*
X3097834Y7164222D01*
X3086201Y7170267D01*
X3073857Y7174636D01*
X3061055Y7177278D01*
X3048000Y7178192D01*
X3034944Y7177278D01*
X3022142Y7174636D01*
X3009798Y7170267D01*
X2998165Y7164222D01*
X2987497Y7156653D01*
X2977946Y7147763D01*
X2969666Y7137603D01*
X2962859Y7126427D01*
X2957677Y7114387D01*
X2954121Y7101789D01*
X2952343Y7088835D01*
X2952343Y7075779D01*
X2954121Y7062774D01*
X2957677Y7050176D01*
X2962859Y7038187D01*
X2969666Y7027011D01*
X2977946Y7016851D01*
X2987497Y7007910D01*
X2999079Y6999782D01*
X3002127Y6996480D01*
X3003397Y6992162D01*
X3002686Y6987692D01*
X3000146Y6983984D01*
X2996234Y6981748D01*
X2988106Y6979310D01*
X2981452Y6975754D01*
X2975203Y6970623D01*
X2929382Y6924802D01*
X2924251Y6918553D01*
X2920695Y6911898D01*
X2918510Y6904634D01*
X2917748Y6896658D01*
X2917748Y6827672D01*
X2918510Y6819646D01*
X2920695Y6812432D01*
X2924251Y6805777D01*
X2929382Y6799529D01*
X3419348Y6309563D01*
X3425596Y6304432D01*
X3432251Y6300876D01*
X3439515Y6298692D01*
X3447491Y6297879D01*
X3574694Y6297879D01*
X3578555Y6297117D01*
X3581857Y6294932D01*
X3653536Y6223254D01*
X3655923Y6219545D01*
X3656482Y6215227D01*
X3655212Y6211062D01*
X3652316Y6207810D01*
X3648303Y6206083D01*
X3643934Y6206185D01*
X3639413Y6208623D01*
X3626612Y6216548D01*
X3612896Y6222847D01*
X3598570Y6227419D01*
X3583736Y6230162D01*
X3568700Y6231128D01*
X3553663Y6230162D01*
X3538829Y6227419D01*
X3524504Y6222847D01*
X3510787Y6216548D01*
X3497986Y6208623D01*
X3486251Y6199174D01*
X3479342Y6192012D01*
X3476040Y6189776D01*
X3472129Y6188964D01*
X3468166Y6189726D01*
X3464864Y6191910D01*
X3396487Y6260236D01*
X3390290Y6265367D01*
X3383635Y6268923D01*
X3376371Y6271107D01*
X3368344Y6271920D01*
X2195271Y6271920D01*
X2187295Y6271107D01*
X2180031Y6268923D01*
X2173376Y6265367D01*
X2167128Y6260236D01*
X2108708Y6201816D01*
X2105202Y6199530D01*
X2101138Y6198819D01*
X2097074Y6199835D01*
X2093823Y6202375D01*
X2091791Y6205982D01*
X2091436Y6210147D01*
X2091689Y6212789D01*
X2091689Y6271666D01*
X2090978Y6277965D01*
X2089099Y6283452D01*
X2086000Y6288328D01*
X2084324Y6290056D01*
X2082088Y6293358D01*
X2081326Y6297218D01*
X2082088Y6301130D01*
X2084324Y6304432D01*
X2086000Y6306108D01*
X2089099Y6311036D01*
X2090978Y6316472D01*
X2091689Y6322822D01*
X2091689Y6381648D01*
X2090978Y6387998D01*
X2089099Y6393434D01*
X2086000Y6398361D01*
X2081936Y6402425D01*
X2077008Y6405524D01*
X2071573Y6407454D01*
X2065223Y6408166D01*
X2021839Y6408166D01*
X2017979Y6408928D01*
X2014677Y6411112D01*
X2012442Y6414414D01*
X2011680Y6418326D01*
X2011680Y6425895D01*
X1957120Y6425895D01*
X1957120Y6418326D01*
X1956358Y6414414D01*
X1954123Y6411112D01*
X1950872Y6408928D01*
X1946960Y6408166D01*
X1936394Y6408166D01*
X1930044Y6407454D01*
X1924608Y6405524D01*
X1919681Y6402425D01*
X1915617Y6398361D01*
X1912518Y6393434D01*
X1910588Y6387998D01*
X1909876Y6381648D01*
X1909876Y6322822D01*
X1910588Y6316472D01*
X1912518Y6311036D01*
X1915617Y6306108D01*
X1917293Y6304432D01*
X1919528Y6301130D01*
X1920290Y6297218D01*
X1919528Y6293358D01*
X1917293Y6290056D01*
X1915617Y6288328D01*
X1912518Y6283452D01*
X1910588Y6277965D01*
X1909876Y6271666D01*
X1909876Y6212789D01*
X1910588Y6206490D01*
X1912518Y6201003D01*
X1915617Y6196126D01*
X1917293Y6194399D01*
X1919528Y6191148D01*
X1920290Y6187236D01*
X1919528Y6183325D01*
X1917293Y6180074D01*
X1915617Y6178346D01*
X1912518Y6173470D01*
X1910588Y6167983D01*
X1909876Y6161684D01*
X1909876Y6102807D01*
X1910588Y6096508D01*
X1912518Y6091021D01*
X1915617Y6086144D01*
X1917293Y6084417D01*
X1919528Y6081115D01*
X1920290Y6077254D01*
X1919528Y6073343D01*
X1917293Y6070041D01*
X1915617Y6068364D01*
X1912518Y6063437D01*
X1910588Y6058001D01*
X1909876Y6051651D01*
X1909876Y6043574D01*
X1961946Y6043574D01*
X1961946Y6066180D01*
X1962708Y6070041D01*
X1964943Y6073343D01*
X1968246Y6075578D01*
X1972106Y6076340D01*
X2029510Y6076340D01*
X2033371Y6075578D01*
X2036673Y6073343D01*
X2038857Y6070041D01*
X2039670Y6066180D01*
X2039670Y6043574D01*
X2091689Y6043574D01*
X2091689Y6051651D01*
X2090978Y6058001D01*
X2089099Y6063437D01*
X2086000Y6068364D01*
X2084324Y6070041D01*
X2082088Y6073343D01*
X2081326Y6077254D01*
X2082088Y6081115D01*
X2084324Y6084417D01*
X2086000Y6086144D01*
X2087930Y6089142D01*
X2089912Y6091478D01*
X2092553Y6093104D01*
X2095500Y6093866D01*
X2101240Y6094425D01*
X2108504Y6096609D01*
X2115159Y6100165D01*
X2121357Y6105296D01*
X2207818Y6191707D01*
X2211120Y6193942D01*
X2214981Y6194704D01*
X2444140Y6194704D01*
X2448509Y6193739D01*
X2452014Y6190945D01*
X2453995Y6186932D01*
X2454097Y6182512D01*
X2452268Y6178397D01*
X2450642Y6176314D01*
X2443124Y6163259D01*
X2437231Y6149390D01*
X2433116Y6134862D01*
X2430830Y6119977D01*
X2430373Y6104940D01*
X2431745Y6089904D01*
X2434945Y6075222D01*
X2439974Y6060998D01*
X2446680Y6047486D01*
X2455011Y6034938D01*
X2464816Y6023508D01*
X2475941Y6013348D01*
X2488234Y6004610D01*
X2501544Y5997498D01*
X2515616Y5992063D01*
X2530195Y5988354D01*
X2545181Y5986526D01*
X2560218Y5986526D01*
X2575204Y5988354D01*
X2589784Y5992063D01*
X2603855Y5997498D01*
X2617165Y6004610D01*
X2629458Y6013348D01*
X2640584Y6023508D01*
X2650388Y6034938D01*
X2658719Y6047486D01*
X2665425Y6060998D01*
X2670454Y6075222D01*
X2673654Y6089904D01*
X2675026Y6104940D01*
X2674569Y6119977D01*
X2672283Y6134862D01*
X2668168Y6149390D01*
X2662275Y6163259D01*
X2654757Y6176314D01*
X2653131Y6178397D01*
X2651302Y6182512D01*
X2651404Y6186932D01*
X2653385Y6190945D01*
X2656890Y6193739D01*
X2661259Y6194704D01*
X2698140Y6194704D01*
X2702509Y6193739D01*
X2706014Y6190945D01*
X2707995Y6186932D01*
X2708097Y6182512D01*
X2706268Y6178397D01*
X2704642Y6176314D01*
X2697175Y6163310D01*
X2752090Y6163310D01*
X2752090Y6184544D01*
X2752852Y6188405D01*
X2755087Y6191707D01*
X2758338Y6193942D01*
X2762250Y6194704D01*
X2851150Y6194704D01*
X2855061Y6193942D01*
X2858312Y6191707D01*
X2860548Y6188405D01*
X2861310Y6184544D01*
X2861310Y6163310D01*
X2916224Y6163310D01*
X2908757Y6176314D01*
X2907131Y6178397D01*
X2905302Y6182512D01*
X2905404Y6186932D01*
X2907385Y6190945D01*
X2910890Y6193739D01*
X2915259Y6194704D01*
X2952140Y6194704D01*
X2956509Y6193739D01*
X2960014Y6190945D01*
X2961995Y6186932D01*
X2962097Y6182512D01*
X2960268Y6178397D01*
X2958642Y6176314D01*
X2951124Y6163259D01*
X2945231Y6149390D01*
X2941116Y6134862D01*
X2938830Y6119977D01*
X2938373Y6104940D01*
X2939745Y6089904D01*
X2942945Y6075222D01*
X2947974Y6060998D01*
X2954680Y6047486D01*
X2963011Y6034938D01*
X2972816Y6023508D01*
X2983941Y6013348D01*
X2996234Y6004610D01*
X3009544Y5997498D01*
X3023616Y5992063D01*
X3038195Y5988354D01*
X3053181Y5986526D01*
X3068218Y5986526D01*
X3083204Y5988354D01*
X3097784Y5992063D01*
X3111855Y5997498D01*
X3125165Y6004610D01*
X3137458Y6013348D01*
X3148584Y6023508D01*
X3158388Y6034938D01*
X3166719Y6047486D01*
X3173425Y6060998D01*
X3178454Y6075222D01*
X3181654Y6089904D01*
X3183026Y6104940D01*
X3182569Y6119977D01*
X3180283Y6134862D01*
X3176168Y6149390D01*
X3170275Y6163259D01*
X3162757Y6176314D01*
X3161131Y6178397D01*
X3159302Y6182512D01*
X3159404Y6186932D01*
X3161385Y6190945D01*
X3164890Y6193739D01*
X3169259Y6194704D01*
X3206140Y6194704D01*
X3210509Y6193739D01*
X3214014Y6190945D01*
X3215995Y6186932D01*
X3216097Y6182512D01*
X3214268Y6178397D01*
X3212642Y6176314D01*
X3205175Y6163310D01*
X3260090Y6163310D01*
X3260090Y6184544D01*
X3260852Y6188405D01*
X3263087Y6191707D01*
X3266338Y6193942D01*
X3270250Y6194704D01*
X3348634Y6194704D01*
X3352546Y6193942D01*
X3355848Y6191707D01*
X3366312Y6181242D01*
X3368548Y6177940D01*
X3369310Y6174028D01*
X3369310Y6163310D01*
X3380028Y6163310D01*
X3383940Y6162548D01*
X3387242Y6160312D01*
X3400145Y6147460D01*
X3402329Y6144158D01*
X3403092Y6140246D01*
X3403092Y6064250D01*
X3402329Y6060338D01*
X3400145Y6057087D01*
X3396843Y6054852D01*
X3392932Y6054090D01*
X3369310Y6054090D01*
X3369310Y5999327D01*
X3379165Y6004610D01*
X3391458Y6013348D01*
X3401263Y6022289D01*
X3404565Y6024321D01*
X3408375Y6024981D01*
X3412134Y6024168D01*
X3415334Y6021984D01*
X3475837Y5961430D01*
X3478072Y5958179D01*
X3478834Y5954268D01*
X3478072Y5950356D01*
X3475837Y5947105D01*
X3472535Y5944870D01*
X3468674Y5944108D01*
X2118055Y5944108D01*
X2115566Y5944412D01*
X2113229Y5945327D01*
X2108504Y5947867D01*
X2101240Y5950051D01*
X2095550Y5950610D01*
X2092553Y5951372D01*
X2089912Y5952998D01*
X2087930Y5955334D01*
X2086000Y5958332D01*
X2084324Y5960059D01*
X2082088Y5963361D01*
X2081326Y5967222D01*
X2082088Y5971133D01*
X2084324Y5974435D01*
X2086000Y5976112D01*
X2089099Y5981039D01*
X2090978Y5986475D01*
X2091689Y5992825D01*
X2091689Y6000902D01*
X2039670Y6000902D01*
X2039670Y5978296D01*
X2038857Y5974435D01*
X2036673Y5971133D01*
X2033371Y5968898D01*
X2029510Y5968136D01*
X1972106Y5968136D01*
X1968246Y5968898D01*
X1964943Y5971133D01*
X1962708Y5974435D01*
X1961946Y5978296D01*
X1961946Y6000902D01*
X1909876Y6000902D01*
X1909876Y5992825D01*
X1910588Y5986475D01*
X1912518Y5981039D01*
X1915617Y5976112D01*
X1917293Y5974435D01*
X1919528Y5971133D01*
X1920290Y5967222D01*
X1919528Y5963361D01*
X1917293Y5960059D01*
X1915617Y5958332D01*
X1912518Y5953455D01*
X1910588Y5947968D01*
X1909876Y5941669D01*
X1909876Y5882792D01*
X1910588Y5876493D01*
X1912518Y5871006D01*
X1915617Y5866130D01*
X1917293Y5864402D01*
X1919528Y5861151D01*
X1920290Y5857240D01*
X1919528Y5853328D01*
X1917293Y5850077D01*
X1915617Y5848350D01*
X1912518Y5843473D01*
X1910588Y5837986D01*
X1909876Y5831687D01*
X1909876Y5772810D01*
X1910588Y5766511D01*
X1912518Y5761024D01*
X1915617Y5756148D01*
X1917293Y5754420D01*
X1919528Y5751118D01*
X1920290Y5747258D01*
X1919528Y5743346D01*
X1917293Y5740044D01*
X1915617Y5738368D01*
X1912518Y5733440D01*
X1910588Y5728004D01*
X1909876Y5721654D01*
X1909876Y5662828D01*
X1910588Y5656478D01*
X1912518Y5651042D01*
X1915617Y5646115D01*
X1917293Y5644438D01*
X1919528Y5641136D01*
X1920290Y5637225D01*
X1919528Y5633364D01*
X1917293Y5630062D01*
X1915617Y5628335D01*
X1912518Y5623458D01*
X1910588Y5617972D01*
X1909876Y5611672D01*
X1909876Y5552795D01*
X1910588Y5546496D01*
X1912518Y5541010D01*
X1915617Y5536133D01*
X1917293Y5534406D01*
X1919528Y5531104D01*
X1920290Y5527243D01*
X1919528Y5523331D01*
X1917293Y5520080D01*
X1915617Y5518353D01*
X1912518Y5513476D01*
X1910588Y5507990D01*
X1909876Y5501690D01*
X1909876Y5442813D01*
X1910588Y5436463D01*
X1912518Y5431028D01*
X1915617Y5426151D01*
X1919681Y5422036D01*
X1924608Y5418937D01*
X1930044Y5417058D01*
G37*
G36*
X2752090Y5999327D02*
G01*
X2752090Y6054090D01*
X2697429Y6054090D01*
X2700680Y6047486D01*
X2709011Y6034938D01*
X2718816Y6023508D01*
X2729941Y6013348D01*
X2742234Y6004610D01*
G37*
G36*
X2861310Y5999327D02*
G01*
X2871165Y6004610D01*
X2883458Y6013348D01*
X2894584Y6023508D01*
X2904388Y6034938D01*
X2912719Y6047486D01*
X2915970Y6054090D01*
X2861310Y6054090D01*
G37*
G36*
X3260090Y5999327D02*
G01*
X3260090Y6054090D01*
X3205429Y6054090D01*
X3208680Y6047486D01*
X3217011Y6034938D01*
X3226816Y6023508D01*
X3237941Y6013348D01*
X3250234Y6004610D01*
G37*
G36*
X928319Y6121450D02*
G01*
X939850Y6122822D01*
X951026Y6125870D01*
X961644Y6130645D01*
X971397Y6136944D01*
X980084Y6144666D01*
X987450Y6153658D01*
X993394Y6163614D01*
X997762Y6174384D01*
X1000404Y6185712D01*
X1001268Y6197295D01*
X1000404Y6208877D01*
X997762Y6220206D01*
X993394Y6230975D01*
X987450Y6240932D01*
X980084Y6249924D01*
X971397Y6257645D01*
X961644Y6263944D01*
X951026Y6268720D01*
X939850Y6271768D01*
X928319Y6273139D01*
X916686Y6272682D01*
X905306Y6270447D01*
X894334Y6266535D01*
X884174Y6260998D01*
X874928Y6253937D01*
X866851Y6245555D01*
X860196Y6236055D01*
X855014Y6225641D01*
X851509Y6214567D01*
X849731Y6203086D01*
X849731Y6191504D01*
X851509Y6180023D01*
X855014Y6168948D01*
X860196Y6158534D01*
X866851Y6149035D01*
X874928Y6140653D01*
X884174Y6133592D01*
X894334Y6128054D01*
X905306Y6124143D01*
X916686Y6121908D01*
G37*
G36*
X10799521Y6288481D02*
G01*
X10817606Y6289852D01*
X10835386Y6293104D01*
X10852810Y6298184D01*
X10869574Y6304991D01*
X10885525Y6313525D01*
X10900562Y6323634D01*
X10914481Y6335217D01*
X10927130Y6348171D01*
X10938357Y6362395D01*
X10948060Y6377686D01*
X10956188Y6393840D01*
X10962538Y6410807D01*
X10967161Y6428333D01*
X10969955Y6446215D01*
X10970869Y6464300D01*
X10969955Y6482384D01*
X10967161Y6500266D01*
X10962538Y6517792D01*
X10956188Y6534759D01*
X10948060Y6550914D01*
X10938357Y6566204D01*
X10927130Y6580428D01*
X10914481Y6593382D01*
X10900562Y6604965D01*
X10885525Y6615074D01*
X10869574Y6623608D01*
X10852810Y6630416D01*
X10835386Y6635496D01*
X10817606Y6638747D01*
X10799521Y6640118D01*
X10781436Y6639661D01*
X10763453Y6637324D01*
X10745825Y6633209D01*
X10728756Y6627215D01*
X10712348Y6619544D01*
X10696803Y6610248D01*
X10682325Y6599377D01*
X10669016Y6587083D01*
X10657078Y6573469D01*
X10646562Y6558686D01*
X10637672Y6542938D01*
X10630408Y6526326D01*
X10624921Y6509105D01*
X10621213Y6491376D01*
X10619333Y6473342D01*
X10619333Y6455257D01*
X10621213Y6437223D01*
X10624921Y6419494D01*
X10630408Y6402273D01*
X10637672Y6385661D01*
X10646562Y6369913D01*
X10657078Y6355130D01*
X10669016Y6341516D01*
X10682325Y6329222D01*
X10696803Y6318351D01*
X10712348Y6309055D01*
X10728756Y6301384D01*
X10745825Y6295390D01*
X10763453Y6291275D01*
X10781436Y6288938D01*
G37*
G36*
X1846325Y6376314D02*
G01*
X1874418Y6376314D01*
X1874418Y6425895D01*
X1819859Y6425895D01*
X1819859Y6402832D01*
X1820570Y6396482D01*
X1822500Y6391046D01*
X1825548Y6386118D01*
X1829663Y6382054D01*
X1834540Y6378956D01*
X1840026Y6377025D01*
G37*
G36*
X846175Y6392418D02*
G01*
X889253Y6392418D01*
X889253Y6441948D01*
X819658Y6441948D01*
X819658Y6418884D01*
X820369Y6412534D01*
X822299Y6407099D01*
X825398Y6402171D01*
X829462Y6398107D01*
X834390Y6395008D01*
X839825Y6393129D01*
G37*
G36*
X1001928Y6392418D02*
G01*
X1045006Y6392418D01*
X1051356Y6393129D01*
X1056792Y6395008D01*
X1061720Y6398107D01*
X1065784Y6402171D01*
X1068882Y6407099D01*
X1070762Y6412534D01*
X1071473Y6418884D01*
X1071473Y6441948D01*
X1001928Y6441948D01*
G37*
G36*
X1819859Y6498590D02*
G01*
X1874418Y6498590D01*
X1874418Y6548120D01*
X1846325Y6548120D01*
X1840026Y6547408D01*
X1834540Y6545529D01*
X1829663Y6542430D01*
X1825548Y6538366D01*
X1822500Y6533438D01*
X1820570Y6528003D01*
X1819859Y6521653D01*
G37*
G36*
X1957120Y6498590D02*
G01*
X2011680Y6498590D01*
X2011680Y6521653D01*
X2010968Y6528003D01*
X2009038Y6533438D01*
X2005990Y6538366D01*
X2001875Y6542430D01*
X1996998Y6545529D01*
X1991512Y6547408D01*
X1985213Y6548120D01*
X1957120Y6548120D01*
G37*
G36*
X819658Y6514642D02*
G01*
X889253Y6514642D01*
X889253Y6564223D01*
X846175Y6564223D01*
X839825Y6563512D01*
X834390Y6561581D01*
X829462Y6558483D01*
X825398Y6554419D01*
X822299Y6549491D01*
X820369Y6544056D01*
X819658Y6537756D01*
G37*
G36*
X1001928Y6514642D02*
G01*
X1071473Y6514642D01*
X1071473Y6537756D01*
X1070762Y6544056D01*
X1068882Y6549491D01*
X1065784Y6554419D01*
X1061720Y6558483D01*
X1056792Y6561581D01*
X1051356Y6563512D01*
X1045006Y6564223D01*
X1001928Y6564223D01*
G37*
G36*
X2551633Y6644690D02*
G01*
X2554427Y6645859D01*
X2565603Y6652666D01*
X2575763Y6660946D01*
X2584653Y6670497D01*
X2592222Y6681165D01*
X2596591Y6689648D01*
X2551633Y6689648D01*
G37*
G36*
X2468930Y6644690D02*
G01*
X2468930Y6689648D01*
X2423972Y6689648D01*
X2428392Y6681165D01*
X2435910Y6670497D01*
X2444851Y6660946D01*
X2455011Y6652666D01*
X2466187Y6645859D01*
G37*
G36*
X2551633Y6772351D02*
G01*
X2596591Y6772351D01*
X2592222Y6780834D01*
X2584653Y6791502D01*
X2575763Y6801053D01*
X2565603Y6809333D01*
X2554427Y6816140D01*
X2551633Y6817309D01*
G37*
G36*
X2423972Y6772351D02*
G01*
X2468930Y6772351D01*
X2468930Y6817309D01*
X2466187Y6816140D01*
X2455011Y6809333D01*
X2444851Y6801053D01*
X2435910Y6791502D01*
X2428392Y6780834D01*
G37*
G36*
X7264349Y6794500D02*
G01*
X7319670Y6794500D01*
X7319670Y6860235D01*
X7313066Y6856984D01*
X7301534Y6849313D01*
X7291120Y6840169D01*
X7281976Y6829755D01*
X7274306Y6818223D01*
X7268159Y6805828D01*
G37*
G36*
X7412380Y6794500D02*
G01*
X7467701Y6794500D01*
X7463840Y6805828D01*
X7457694Y6818223D01*
X7450023Y6829755D01*
X7440879Y6840169D01*
X7430465Y6849313D01*
X7418933Y6856984D01*
X7412380Y6860235D01*
G37*
G36*
X9906101Y6983831D02*
G01*
X9923018Y6984746D01*
X9939680Y6987590D01*
X9955936Y6992264D01*
X9971582Y6998766D01*
X9986365Y7006945D01*
X10000183Y7016750D01*
X10012781Y7028027D01*
X10024059Y7040625D01*
X10033863Y7054443D01*
X10042042Y7069226D01*
X10048544Y7084872D01*
X10053218Y7101128D01*
X10056063Y7117791D01*
X10056977Y7134707D01*
X10056063Y7151624D01*
X10053218Y7168286D01*
X10048544Y7184542D01*
X10042042Y7200188D01*
X10033863Y7214971D01*
X10024059Y7228789D01*
X10012781Y7241387D01*
X10000183Y7252665D01*
X9986365Y7262469D01*
X9971582Y7270648D01*
X9955936Y7277150D01*
X9939680Y7281824D01*
X9923018Y7284669D01*
X9906101Y7285583D01*
X9889185Y7284669D01*
X9872522Y7281824D01*
X9856266Y7277150D01*
X9840620Y7270648D01*
X9825837Y7262469D01*
X9812020Y7252665D01*
X9799421Y7241387D01*
X9788144Y7228789D01*
X9778339Y7214971D01*
X9770160Y7200188D01*
X9763658Y7184542D01*
X9762540Y7180681D01*
X9760508Y7176820D01*
X9757054Y7174230D01*
X9752787Y7173315D01*
X8187131Y7173315D01*
X8183270Y7174077D01*
X8179968Y7176262D01*
X8042859Y7313371D01*
X8040522Y7317028D01*
X8039912Y7321346D01*
X8041182Y7325461D01*
X8045297Y7332878D01*
X8052104Y7349134D01*
X8057235Y7366000D01*
X8060486Y7383322D01*
X8061909Y7400899D01*
X8061401Y7418527D01*
X8059064Y7436002D01*
X8054898Y7453122D01*
X8048904Y7469682D01*
X8041182Y7485532D01*
X8031835Y7500467D01*
X8020964Y7514336D01*
X8008670Y7526985D01*
X7995107Y7538212D01*
X7980425Y7547965D01*
X7964779Y7556093D01*
X7948371Y7562545D01*
X7931353Y7567168D01*
X7913928Y7569962D01*
X7896352Y7570876D01*
X7878775Y7569962D01*
X7861350Y7567168D01*
X7844332Y7562545D01*
X7827924Y7556093D01*
X7812278Y7547965D01*
X7797596Y7538212D01*
X7784033Y7526985D01*
X7771739Y7514336D01*
X7760868Y7500467D01*
X7751521Y7485532D01*
X7743799Y7469682D01*
X7737805Y7453122D01*
X7733639Y7436002D01*
X7731302Y7418527D01*
X7730794Y7400899D01*
X7732217Y7383322D01*
X7735468Y7366000D01*
X7740599Y7349134D01*
X7747457Y7332878D01*
X7755991Y7317486D01*
X7766100Y7303058D01*
X7777734Y7289800D01*
X7790688Y7277811D01*
X7804810Y7267295D01*
X7819999Y7258354D01*
X7836052Y7251090D01*
X7852765Y7245553D01*
X7870037Y7241844D01*
X7887563Y7239965D01*
X7905140Y7239965D01*
X7922717Y7241844D01*
X7939938Y7245553D01*
X7956651Y7251090D01*
X7972704Y7258354D01*
X7975955Y7260285D01*
X7980172Y7261656D01*
X7984591Y7261098D01*
X7988300Y7258710D01*
X8139277Y7107732D01*
X8145525Y7102652D01*
X8152180Y7099096D01*
X8159445Y7096861D01*
X8167420Y7096099D01*
X9752787Y7096099D01*
X9757054Y7095185D01*
X9760508Y7092543D01*
X9762540Y7088733D01*
X9763658Y7084872D01*
X9770160Y7069226D01*
X9778339Y7054443D01*
X9788144Y7040625D01*
X9799421Y7028027D01*
X9812020Y7016750D01*
X9825837Y7006945D01*
X9840620Y6998766D01*
X9856266Y6992264D01*
X9872522Y6987590D01*
X9889185Y6984746D01*
G37*
G36*
X1053033Y7038390D02*
G01*
X1055827Y7039559D01*
X1067003Y7046366D01*
X1077163Y7054646D01*
X1086053Y7064197D01*
X1093622Y7074865D01*
X1097991Y7083348D01*
X1053033Y7083348D01*
G37*
G36*
X970330Y7038390D02*
G01*
X970330Y7083348D01*
X925372Y7083348D01*
X929792Y7074865D01*
X937310Y7064197D01*
X946251Y7054646D01*
X956411Y7046366D01*
X967587Y7039559D01*
G37*
G36*
X925372Y7166051D02*
G01*
X970330Y7166051D01*
X970330Y7211009D01*
X967587Y7209840D01*
X956411Y7203033D01*
X946251Y7194753D01*
X937310Y7185202D01*
X929792Y7174534D01*
G37*
G36*
X1053033Y7166051D02*
G01*
X1097991Y7166051D01*
X1093622Y7174534D01*
X1086053Y7185202D01*
X1077163Y7194753D01*
X1067003Y7203033D01*
X1055827Y7209840D01*
X1053033Y7211009D01*
G37*
G36*
X9087459Y7239965D02*
G01*
X9105036Y7239965D01*
X9122613Y7241794D01*
X9139834Y7245553D01*
X9156547Y7251090D01*
X9172600Y7258354D01*
X9187789Y7267295D01*
X9201912Y7277811D01*
X9214866Y7289800D01*
X9226499Y7303058D01*
X9236608Y7317486D01*
X9245193Y7332878D01*
X9252000Y7349134D01*
X9257131Y7366000D01*
X9260382Y7383322D01*
X9261805Y7400899D01*
X9261297Y7418527D01*
X9258960Y7436002D01*
X9254794Y7453122D01*
X9248800Y7469682D01*
X9241078Y7485532D01*
X9231731Y7500467D01*
X9220860Y7514336D01*
X9208566Y7526985D01*
X9195003Y7538212D01*
X9180322Y7547965D01*
X9164675Y7556093D01*
X9148267Y7562494D01*
X9131249Y7567168D01*
X9113824Y7569962D01*
X9096248Y7570876D01*
X9078671Y7569962D01*
X9061246Y7567168D01*
X9044228Y7562494D01*
X9027820Y7556093D01*
X9012174Y7547965D01*
X8997492Y7538212D01*
X8983929Y7526985D01*
X8971635Y7514336D01*
X8960764Y7500467D01*
X8951417Y7485532D01*
X8943695Y7469682D01*
X8937701Y7453122D01*
X8933535Y7436002D01*
X8931198Y7418527D01*
X8930690Y7400899D01*
X8932113Y7383322D01*
X8935364Y7366000D01*
X8940495Y7349134D01*
X8947353Y7332878D01*
X8955887Y7317486D01*
X8965996Y7303058D01*
X8977630Y7289800D01*
X8990584Y7277811D01*
X9004706Y7267295D01*
X9019895Y7258354D01*
X9035948Y7251090D01*
X9052661Y7245553D01*
X9069933Y7241794D01*
G37*
G36*
X1243888Y7433665D02*
G01*
X1251762Y7435392D01*
X1263243Y7439659D01*
X1273962Y7445552D01*
X1283766Y7452868D01*
X1292453Y7461554D01*
X1299768Y7471359D01*
X1305306Y7481417D01*
X1243888Y7481417D01*
G37*
G36*
X1131214Y7433665D02*
G01*
X1131214Y7481417D01*
X1069797Y7481417D01*
X1075283Y7471359D01*
X1082649Y7461554D01*
X1091285Y7452868D01*
X1101090Y7445552D01*
X1111859Y7439659D01*
X1123340Y7435392D01*
G37*
G36*
X818896Y7434783D02*
G01*
X821740Y7435392D01*
X833221Y7439659D01*
X843991Y7445552D01*
X853795Y7452868D01*
X862482Y7461554D01*
X869797Y7471359D01*
X875284Y7481417D01*
X818896Y7481417D01*
G37*
G36*
X716178Y7434783D02*
G01*
X716178Y7481417D01*
X659790Y7481417D01*
X665327Y7471359D01*
X672642Y7461554D01*
X681329Y7452868D01*
X691134Y7445552D01*
X701852Y7439659D01*
X713333Y7435392D01*
G37*
G36*
X1293469Y7554112D02*
G01*
X1305306Y7554112D01*
X1302258Y7560005D01*
X1300276Y7557008D01*
X1296974Y7554823D01*
G37*
G36*
X659790Y7554112D02*
G01*
X716178Y7554112D01*
X716178Y7600797D01*
X713333Y7600188D01*
X701852Y7595920D01*
X691134Y7590028D01*
X681329Y7582662D01*
X672642Y7574025D01*
X665327Y7564221D01*
G37*
G36*
X818896Y7554112D02*
G01*
X875284Y7554112D01*
X869797Y7564221D01*
X862482Y7574025D01*
X853795Y7582662D01*
X843991Y7590028D01*
X833221Y7595920D01*
X821740Y7600188D01*
X818896Y7600797D01*
G37*
G36*
X1303274Y7570012D02*
G01*
X1303883Y7571079D01*
X1307287Y7573518D01*
X1311351Y7574381D01*
X1328826Y7574381D01*
X1335176Y7575092D01*
X1340612Y7576972D01*
X1345539Y7580071D01*
X1349603Y7584186D01*
X1352702Y7589062D01*
X1354582Y7594549D01*
X1355293Y7601407D01*
X1303274Y7601407D01*
G37*
G36*
X7304379Y7626146D02*
G01*
X7319264Y7626603D01*
X7333996Y7628890D01*
X7348270Y7633004D01*
X7361986Y7638796D01*
X7374890Y7646212D01*
X7386777Y7655204D01*
X7397445Y7665567D01*
X7406792Y7677150D01*
X7414615Y7689799D01*
X7420864Y7703312D01*
X7425334Y7717536D01*
X7428077Y7732166D01*
X7428992Y7747000D01*
X7428077Y7761833D01*
X7425334Y7776464D01*
X7420864Y7790688D01*
X7414615Y7804200D01*
X7406792Y7816850D01*
X7397445Y7828432D01*
X7386777Y7838795D01*
X7374890Y7847787D01*
X7361986Y7855203D01*
X7348270Y7860995D01*
X7333996Y7865109D01*
X7319264Y7867396D01*
X7304379Y7867853D01*
X7289546Y7866481D01*
X7275017Y7863281D01*
X7260996Y7858302D01*
X7247686Y7851698D01*
X7235240Y7843469D01*
X7223963Y7833766D01*
X7213955Y7822793D01*
X7205319Y7810652D01*
X7198309Y7797546D01*
X7192924Y7783626D01*
X7189266Y7769199D01*
X7187438Y7754416D01*
X7187438Y7739532D01*
X7189266Y7724800D01*
X7192924Y7710373D01*
X7198309Y7696453D01*
X7205319Y7683347D01*
X7213955Y7671206D01*
X7223963Y7660233D01*
X7235240Y7650530D01*
X7247686Y7642301D01*
X7260996Y7635697D01*
X7275017Y7630718D01*
X7289546Y7627518D01*
G37*
G36*
X1303274Y7629144D02*
G01*
X1355293Y7629144D01*
X1355293Y7631430D01*
X1303274Y7631430D01*
G37*
G36*
X9706406Y7638846D02*
G01*
X9721291Y7639303D01*
X9735972Y7641590D01*
X9750298Y7645704D01*
X9764014Y7651496D01*
X9776866Y7658912D01*
X9788753Y7667904D01*
X9799472Y7678267D01*
X9808768Y7689850D01*
X9816642Y7702499D01*
X9822840Y7716012D01*
X9827361Y7730236D01*
X9830104Y7744866D01*
X9831019Y7759700D01*
X9830104Y7774533D01*
X9827361Y7789164D01*
X9822840Y7803388D01*
X9816642Y7816900D01*
X9808768Y7829550D01*
X9799472Y7841132D01*
X9788753Y7851495D01*
X9776866Y7860487D01*
X9764014Y7867903D01*
X9750298Y7873695D01*
X9735972Y7877809D01*
X9721291Y7880096D01*
X9706406Y7880553D01*
X9691573Y7879181D01*
X9677044Y7875981D01*
X9662972Y7871002D01*
X9649663Y7864398D01*
X9637268Y7856169D01*
X9625939Y7846466D01*
X9615932Y7835493D01*
X9607346Y7823352D01*
X9600285Y7810246D01*
X9594900Y7796326D01*
X9591294Y7781899D01*
X9589465Y7767116D01*
X9589465Y7752232D01*
X9591294Y7737500D01*
X9594900Y7723073D01*
X9600285Y7709153D01*
X9607346Y7696047D01*
X9615932Y7683906D01*
X9625939Y7672933D01*
X9637268Y7663230D01*
X9649663Y7655001D01*
X9662972Y7648397D01*
X9677044Y7643418D01*
X9691573Y7640218D01*
G37*
G36*
X10606379Y7638846D02*
G01*
X10621264Y7639303D01*
X10635996Y7641590D01*
X10650270Y7645704D01*
X10663986Y7651496D01*
X10676890Y7658912D01*
X10688777Y7667904D01*
X10699445Y7678267D01*
X10708792Y7689850D01*
X10716615Y7702499D01*
X10722864Y7716012D01*
X10727334Y7730236D01*
X10730077Y7744866D01*
X10730992Y7759700D01*
X10730077Y7774533D01*
X10727334Y7789164D01*
X10722864Y7803388D01*
X10716615Y7816900D01*
X10708792Y7829550D01*
X10699445Y7841132D01*
X10688777Y7851495D01*
X10676890Y7860487D01*
X10663986Y7867903D01*
X10650270Y7873695D01*
X10635996Y7877809D01*
X10621264Y7880096D01*
X10606379Y7880553D01*
X10591546Y7879181D01*
X10577017Y7875981D01*
X10562996Y7871002D01*
X10549686Y7864398D01*
X10537240Y7856169D01*
X10525963Y7846466D01*
X10515955Y7835493D01*
X10507319Y7823352D01*
X10500309Y7810246D01*
X10494924Y7796326D01*
X10491266Y7781899D01*
X10489438Y7767116D01*
X10489438Y7752232D01*
X10491266Y7737500D01*
X10494924Y7723073D01*
X10500309Y7709153D01*
X10507319Y7696047D01*
X10515955Y7683906D01*
X10525963Y7672933D01*
X10537240Y7663230D01*
X10549686Y7655001D01*
X10562996Y7648397D01*
X10577017Y7643418D01*
X10591546Y7640218D01*
G37*
G36*
X4666894Y8022285D02*
G01*
X4788916Y8022285D01*
X4788916Y8144306D01*
X4693361Y8144306D01*
X4687011Y8143595D01*
X4681575Y8141716D01*
X4676648Y8138617D01*
X4672584Y8134553D01*
X4669485Y8129625D01*
X4667605Y8124190D01*
X4666894Y8117840D01*
G37*
G36*
X5006644Y8022285D02*
G01*
X5128666Y8022285D01*
X5128666Y8117840D01*
X5127955Y8124190D01*
X5126075Y8129625D01*
X5122976Y8134553D01*
X5118912Y8138617D01*
X5113985Y8141716D01*
X5108549Y8143595D01*
X5102199Y8144306D01*
X5006644Y8144306D01*
G37*
G36*
X1981657Y8023098D02*
G01*
X2037232Y8023098D01*
X2043531Y8023809D01*
X2049018Y8025739D01*
X2053894Y8028787D01*
X2058009Y8032902D01*
X2061108Y8037779D01*
X2062988Y8043265D01*
X2063699Y8049564D01*
X2063699Y8070138D01*
X1981657Y8070138D01*
G37*
G36*
X1788363Y8023098D02*
G01*
X1843938Y8023098D01*
X1843938Y8070138D01*
X1761896Y8070138D01*
X1761896Y8049564D01*
X1762607Y8043265D01*
X1764538Y8037779D01*
X1767586Y8032902D01*
X1771700Y8028787D01*
X1776577Y8025739D01*
X1782064Y8023809D01*
G37*
G36*
X3089351Y8046008D02*
G01*
X3097834Y8050377D01*
X3108502Y8057946D01*
X3118053Y8066836D01*
X3126333Y8076996D01*
X3133140Y8088172D01*
X3134309Y8090966D01*
X3089351Y8090966D01*
G37*
G36*
X3006648Y8046008D02*
G01*
X3006648Y8090966D01*
X2961690Y8090966D01*
X2962859Y8088172D01*
X2969666Y8076996D01*
X2977946Y8066836D01*
X2987497Y8057946D01*
X2998165Y8050377D01*
G37*
G36*
X3514648Y8046008D02*
G01*
X3514648Y8090966D01*
X3469690Y8090966D01*
X3470859Y8088172D01*
X3477666Y8076996D01*
X3485946Y8066836D01*
X3495497Y8057946D01*
X3506165Y8050377D01*
G37*
G36*
X7582408Y8102092D02*
G01*
X10169652Y8102092D01*
X10177678Y8102904D01*
X10184892Y8105089D01*
X10191597Y8108645D01*
X10197795Y8113775D01*
X10332923Y8249005D01*
X10336580Y8251342D01*
X10340898Y8251952D01*
X10345064Y8250732D01*
X10348620Y8248751D01*
X10364266Y8242249D01*
X10380522Y8237575D01*
X10397185Y8234730D01*
X10414101Y8233816D01*
X10431018Y8234730D01*
X10447680Y8237575D01*
X10463936Y8242249D01*
X10479582Y8248751D01*
X10494365Y8256930D01*
X10508183Y8266734D01*
X10520781Y8278012D01*
X10532059Y8290610D01*
X10541863Y8304428D01*
X10550042Y8319211D01*
X10556544Y8334857D01*
X10561218Y8351113D01*
X10564063Y8367775D01*
X10564977Y8384692D01*
X10564063Y8401608D01*
X10561218Y8418271D01*
X10556544Y8434527D01*
X10550042Y8450173D01*
X10541863Y8464956D01*
X10532059Y8478774D01*
X10520781Y8491372D01*
X10508183Y8502650D01*
X10494365Y8512454D01*
X10479582Y8520633D01*
X10463936Y8527135D01*
X10447680Y8531809D01*
X10431018Y8534654D01*
X10414101Y8535568D01*
X10397185Y8534654D01*
X10380522Y8531809D01*
X10364266Y8527135D01*
X10348620Y8520633D01*
X10333837Y8512454D01*
X10320020Y8502650D01*
X10307421Y8491372D01*
X10296144Y8478774D01*
X10286339Y8464956D01*
X10278160Y8450173D01*
X10271658Y8434527D01*
X10266984Y8418271D01*
X10264140Y8401608D01*
X10263225Y8384692D01*
X10264140Y8367775D01*
X10266984Y8351113D01*
X10271658Y8334857D01*
X10278160Y8319211D01*
X10280091Y8315756D01*
X10281310Y8311591D01*
X10280700Y8307324D01*
X10278364Y8303666D01*
X10157155Y8182305D01*
X10153853Y8180070D01*
X10149941Y8179308D01*
X7602118Y8179308D01*
X7598206Y8180070D01*
X7594904Y8182305D01*
X7008317Y8769096D01*
X7002119Y8774226D01*
X6995464Y8777782D01*
X6988200Y8779967D01*
X6980174Y8780780D01*
X4495647Y8780780D01*
X4491736Y8781542D01*
X4488434Y8783777D01*
X4486960Y8785250D01*
X4478883Y8790889D01*
X4469993Y8795054D01*
X4460494Y8797594D01*
X4450740Y8798458D01*
X4440936Y8797594D01*
X4431436Y8795054D01*
X4422546Y8790889D01*
X4414469Y8785250D01*
X4407560Y8778290D01*
X4401921Y8770264D01*
X4397756Y8761323D01*
X4395216Y8751874D01*
X4394352Y8742070D01*
X4395216Y8732266D01*
X4397756Y8722766D01*
X4401921Y8713876D01*
X4407560Y8705850D01*
X4414469Y8698890D01*
X4422546Y8693251D01*
X4431436Y8689086D01*
X4440936Y8686546D01*
X4450740Y8685682D01*
X4460494Y8686546D01*
X4469993Y8689086D01*
X4478883Y8693251D01*
X4486960Y8698890D01*
X4488637Y8700566D01*
X4491939Y8702802D01*
X4495850Y8703564D01*
X5729833Y8703564D01*
X5733999Y8702700D01*
X5737402Y8700160D01*
X5739485Y8696502D01*
X5739892Y8691829D01*
X5739892Y8676284D01*
X5809437Y8676284D01*
X5809437Y8693404D01*
X5810199Y8697315D01*
X5812434Y8700566D01*
X5815685Y8702802D01*
X5819597Y8703564D01*
X5911951Y8703564D01*
X5915863Y8702802D01*
X5919165Y8700566D01*
X5921349Y8697315D01*
X5922111Y8693404D01*
X5922111Y8676284D01*
X5991707Y8676284D01*
X5991656Y8692286D01*
X5992063Y8696502D01*
X5994146Y8700160D01*
X5997600Y8702700D01*
X6001766Y8703564D01*
X6960463Y8703564D01*
X6964375Y8702802D01*
X6967677Y8700566D01*
X7128459Y8539734D01*
X7130694Y8536330D01*
X7131405Y8532368D01*
X7130542Y8528405D01*
X7128154Y8525103D01*
X7124700Y8522970D01*
X7120686Y8522411D01*
X7112101Y8522868D01*
X7095185Y8521954D01*
X7078522Y8519109D01*
X7062266Y8514435D01*
X7046620Y8507933D01*
X7031837Y8499754D01*
X7018020Y8489950D01*
X7005421Y8478672D01*
X6994144Y8466074D01*
X6984339Y8452256D01*
X6976160Y8437473D01*
X6969658Y8421827D01*
X6964984Y8405571D01*
X6962140Y8388908D01*
X6961225Y8371992D01*
X6962140Y8355075D01*
X6964984Y8338413D01*
X6969658Y8322157D01*
X6976160Y8306511D01*
X6984339Y8291728D01*
X6994144Y8277910D01*
X7005421Y8265312D01*
X7018020Y8254034D01*
X7031837Y8244230D01*
X7046620Y8236051D01*
X7062266Y8229549D01*
X7078522Y8224875D01*
X7095185Y8222030D01*
X7112101Y8221116D01*
X7129018Y8222030D01*
X7145680Y8224875D01*
X7161936Y8229549D01*
X7177582Y8236051D01*
X7192365Y8244230D01*
X7206183Y8254034D01*
X7218781Y8265312D01*
X7230059Y8277910D01*
X7239863Y8291728D01*
X7248042Y8306511D01*
X7254544Y8322157D01*
X7259218Y8338413D01*
X7262063Y8355075D01*
X7262977Y8371992D01*
X7262520Y8380526D01*
X7263079Y8384540D01*
X7265212Y8387994D01*
X7268514Y8390382D01*
X7272477Y8391245D01*
X7276439Y8390534D01*
X7279843Y8388248D01*
X7554264Y8113775D01*
X7560462Y8108645D01*
X7567117Y8105089D01*
X7574381Y8102904D01*
G37*
G36*
X1981657Y8137855D02*
G01*
X2063699Y8137855D01*
X2063699Y8158429D01*
X2062988Y8164728D01*
X2061108Y8170214D01*
X2058009Y8175091D01*
X2053894Y8179206D01*
X2049018Y8182305D01*
X2043531Y8184184D01*
X2037232Y8184896D01*
X1981657Y8184896D01*
G37*
G36*
X1761896Y8137855D02*
G01*
X1843938Y8137855D01*
X1843938Y8184896D01*
X1788363Y8184896D01*
X1782064Y8184184D01*
X1776577Y8182305D01*
X1771700Y8179206D01*
X1767586Y8175091D01*
X1764538Y8170214D01*
X1762607Y8164728D01*
X1761896Y8158429D01*
G37*
G36*
X2961690Y8173669D02*
G01*
X3006648Y8173669D01*
X3006648Y8218627D01*
X2998165Y8214207D01*
X2987497Y8206689D01*
X2977946Y8197748D01*
X2969666Y8187588D01*
X2962859Y8176412D01*
G37*
G36*
X3469690Y8173669D02*
G01*
X3514648Y8173669D01*
X3514648Y8218627D01*
X3506165Y8214207D01*
X3495497Y8206689D01*
X3485946Y8197748D01*
X3477666Y8187588D01*
X3470859Y8176412D01*
G37*
G36*
X3089351Y8173669D02*
G01*
X3134309Y8173669D01*
X3133140Y8176412D01*
X3126333Y8187588D01*
X3118053Y8197748D01*
X3108502Y8206689D01*
X3097834Y8214207D01*
X3089351Y8218627D01*
G37*
G36*
X3597351Y8173669D02*
G01*
X3642309Y8173669D01*
X3641140Y8176412D01*
X3634333Y8187588D01*
X3626053Y8197748D01*
X3616502Y8206689D01*
X3605834Y8214207D01*
X3597351Y8218627D01*
G37*
G36*
X6604101Y8221116D02*
G01*
X6621018Y8222030D01*
X6637680Y8224875D01*
X6653936Y8229549D01*
X6669582Y8236051D01*
X6684365Y8244230D01*
X6698183Y8254034D01*
X6710781Y8265312D01*
X6722059Y8277910D01*
X6731863Y8291728D01*
X6740042Y8306511D01*
X6746544Y8322157D01*
X6751218Y8338413D01*
X6754063Y8355075D01*
X6754977Y8371992D01*
X6754063Y8388908D01*
X6751218Y8405571D01*
X6746544Y8421827D01*
X6740042Y8437473D01*
X6731863Y8452256D01*
X6722059Y8466074D01*
X6710781Y8478672D01*
X6698183Y8489950D01*
X6684365Y8499754D01*
X6669582Y8507933D01*
X6653936Y8514435D01*
X6637680Y8519109D01*
X6621018Y8521954D01*
X6604101Y8522868D01*
X6587185Y8521954D01*
X6570522Y8519109D01*
X6554266Y8514435D01*
X6538620Y8507933D01*
X6523837Y8499754D01*
X6510020Y8489950D01*
X6497421Y8478672D01*
X6486144Y8466074D01*
X6476339Y8452256D01*
X6468160Y8437473D01*
X6461658Y8421827D01*
X6456984Y8405571D01*
X6454140Y8388908D01*
X6453225Y8371992D01*
X6454140Y8355075D01*
X6456984Y8338413D01*
X6461658Y8322157D01*
X6468160Y8306511D01*
X6476339Y8291728D01*
X6486144Y8277910D01*
X6497421Y8265312D01*
X6510020Y8254034D01*
X6523837Y8244230D01*
X6538620Y8236051D01*
X6554266Y8229549D01*
X6570522Y8224875D01*
X6587185Y8222030D01*
G37*
G36*
X9906101Y8233816D02*
G01*
X9923018Y8234730D01*
X9939680Y8237575D01*
X9955936Y8242249D01*
X9971582Y8248751D01*
X9986365Y8256930D01*
X10000183Y8266734D01*
X10012781Y8278012D01*
X10024059Y8290610D01*
X10033863Y8304428D01*
X10042042Y8319211D01*
X10048544Y8334857D01*
X10053218Y8351113D01*
X10056063Y8367775D01*
X10056977Y8384692D01*
X10056063Y8401608D01*
X10053218Y8418271D01*
X10048544Y8434527D01*
X10042042Y8450173D01*
X10033863Y8464956D01*
X10024059Y8478774D01*
X10012781Y8491372D01*
X10000183Y8502650D01*
X9986365Y8512454D01*
X9971582Y8520633D01*
X9955936Y8527135D01*
X9939680Y8531809D01*
X9932974Y8532926D01*
X9928910Y8534603D01*
X9925913Y8537854D01*
X9924542Y8542070D01*
X9925100Y8546439D01*
X9927488Y8550148D01*
X10046868Y8669528D01*
X10049764Y8671560D01*
X10053167Y8672474D01*
X10056672Y8672169D01*
X10059873Y8670696D01*
X10066934Y8665718D01*
X10082530Y8657082D01*
X10098887Y8650071D01*
X10115905Y8644737D01*
X10133380Y8641130D01*
X10151110Y8639352D01*
X10168890Y8639352D01*
X10186619Y8641130D01*
X10204094Y8644737D01*
X10221112Y8650071D01*
X10237470Y8657082D01*
X10253065Y8665718D01*
X10267645Y8675928D01*
X10281208Y8687511D01*
X10293451Y8700414D01*
X10304373Y8714536D01*
X10313771Y8729624D01*
X10321645Y8745626D01*
X10327843Y8762339D01*
X10332313Y8779611D01*
X10335006Y8797188D01*
X10335920Y8815273D01*
X10335920Y8964726D01*
X10335006Y8982811D01*
X10332313Y9000388D01*
X10327843Y9017660D01*
X10321645Y9034373D01*
X10313771Y9050375D01*
X10304373Y9065463D01*
X10293451Y9079585D01*
X10281208Y9092488D01*
X10267645Y9104071D01*
X10253065Y9114282D01*
X10237470Y9122918D01*
X10221112Y9129928D01*
X10204094Y9135262D01*
X10186619Y9138869D01*
X10168890Y9140647D01*
X10151110Y9140647D01*
X10133380Y9138869D01*
X10115905Y9135262D01*
X10098887Y9129928D01*
X10082530Y9122918D01*
X10066934Y9114282D01*
X10052354Y9104071D01*
X10038791Y9092488D01*
X10026548Y9079585D01*
X10015626Y9065463D01*
X10006228Y9050375D01*
X9998354Y9034373D01*
X9992156Y9017660D01*
X9987686Y9000388D01*
X9984994Y8982811D01*
X9984079Y8964726D01*
X9984079Y8825636D01*
X9983317Y8821775D01*
X9981133Y8818473D01*
X9826752Y8664092D01*
X9823450Y8661857D01*
X9819538Y8661095D01*
X9769856Y8661095D01*
X9765842Y8661908D01*
X9762490Y8664244D01*
X9760356Y8667750D01*
X9759696Y8671763D01*
X9760762Y8675725D01*
X9763252Y8678976D01*
X9773208Y8687511D01*
X9785451Y8700414D01*
X9796373Y8714536D01*
X9805771Y8729624D01*
X9813645Y8745626D01*
X9819843Y8762339D01*
X9824313Y8779611D01*
X9827006Y8797188D01*
X9827920Y8815273D01*
X9827920Y8964726D01*
X9827006Y8982811D01*
X9824313Y9000388D01*
X9819843Y9017660D01*
X9813645Y9034373D01*
X9805771Y9050375D01*
X9796373Y9065463D01*
X9785451Y9079585D01*
X9773208Y9092488D01*
X9759645Y9104071D01*
X9745065Y9114282D01*
X9729470Y9122918D01*
X9713112Y9129928D01*
X9696094Y9135262D01*
X9678619Y9138869D01*
X9660890Y9140647D01*
X9643110Y9140647D01*
X9625380Y9138869D01*
X9607905Y9135262D01*
X9590887Y9129928D01*
X9574530Y9122918D01*
X9558934Y9114282D01*
X9551873Y9109303D01*
X9548672Y9107830D01*
X9545167Y9107525D01*
X9541764Y9108440D01*
X9538868Y9110472D01*
X9500565Y9148724D01*
X9491726Y9155785D01*
X9484106Y9160408D01*
X9481921Y9161526D01*
X9473692Y9164929D01*
X9471355Y9165691D01*
X9462719Y9167825D01*
X9460280Y9168231D01*
X9451441Y9169044D01*
X7312558Y9169044D01*
X7303719Y9168231D01*
X7301280Y9167825D01*
X7292644Y9165691D01*
X7290308Y9164929D01*
X7282078Y9161526D01*
X7279894Y9160408D01*
X7272274Y9155785D01*
X7263434Y9148724D01*
X7118299Y9003690D01*
X7115149Y9001506D01*
X7111441Y9000693D01*
X7101331Y9000388D01*
X7087311Y8998102D01*
X7073696Y8994038D01*
X7060692Y8988298D01*
X7048550Y8980932D01*
X7037425Y8972092D01*
X7027570Y8961882D01*
X7019086Y8950502D01*
X7012076Y8938107D01*
X7006742Y8924950D01*
X7003135Y8911183D01*
X7001357Y8897112D01*
X7001357Y8882888D01*
X7003135Y8868816D01*
X7006742Y8855049D01*
X7012076Y8841892D01*
X7019086Y8829497D01*
X7027570Y8818118D01*
X7037425Y8807907D01*
X7048550Y8799068D01*
X7060692Y8791702D01*
X7073696Y8785910D01*
X7087311Y8781897D01*
X7101331Y8779611D01*
X7111441Y8779306D01*
X7115149Y8778494D01*
X7118299Y8776309D01*
X7324953Y8569807D01*
X7331760Y8564118D01*
X7333792Y8562695D01*
X7341412Y8558123D01*
X7343597Y8557006D01*
X7351826Y8553602D01*
X7354163Y8552840D01*
X7365187Y8550249D01*
X7374026Y8549436D01*
X7743342Y8549386D01*
X7746847Y8548776D01*
X7749946Y8546947D01*
X7752232Y8544153D01*
X7755940Y8537448D01*
X7766050Y8523020D01*
X7777683Y8509762D01*
X7790637Y8497824D01*
X7804759Y8487308D01*
X7819948Y8478367D01*
X7836001Y8471052D01*
X7852714Y8465515D01*
X7869986Y8461806D01*
X7887512Y8459927D01*
X7905089Y8459927D01*
X7922666Y8461806D01*
X7939887Y8465515D01*
X7956600Y8471052D01*
X7972653Y8478367D01*
X7987842Y8487308D01*
X8001965Y8497824D01*
X8014919Y8509762D01*
X8026552Y8523020D01*
X8036661Y8537448D01*
X8045246Y8552891D01*
X8052053Y8569147D01*
X8057184Y8586012D01*
X8060436Y8603335D01*
X8061858Y8620912D01*
X8061350Y8638489D01*
X8059013Y8655964D01*
X8054848Y8673084D01*
X8048853Y8689695D01*
X8041131Y8705545D01*
X8031784Y8720480D01*
X8029244Y8723731D01*
X8027365Y8727643D01*
X8027314Y8732012D01*
X8029041Y8735974D01*
X8032292Y8738870D01*
X8036458Y8740140D01*
X8040776Y8739530D01*
X8044434Y8737193D01*
X8518702Y8262975D01*
X8527542Y8255914D01*
X8535162Y8251291D01*
X8537346Y8250174D01*
X8545576Y8246770D01*
X8547912Y8246008D01*
X8556548Y8243874D01*
X8558987Y8243468D01*
X8567826Y8242655D01*
X8994241Y8242655D01*
X9003080Y8243468D01*
X9005519Y8243874D01*
X9014155Y8246008D01*
X9016492Y8246770D01*
X9024721Y8250174D01*
X9026906Y8251291D01*
X9034526Y8255914D01*
X9043365Y8262975D01*
X9151772Y8371382D01*
X9158833Y8380222D01*
X9163456Y8387842D01*
X9164574Y8390026D01*
X9167977Y8398256D01*
X9168739Y8400592D01*
X9170873Y8409228D01*
X9171279Y8411667D01*
X9172092Y8420506D01*
X9172143Y8472271D01*
X9172752Y8475726D01*
X9174480Y8478723D01*
X9177172Y8481009D01*
X9187840Y8487308D01*
X9201962Y8497824D01*
X9211513Y8506612D01*
X9214713Y8508593D01*
X9218371Y8509304D01*
X9792817Y8509304D01*
X9796780Y8508492D01*
X9800132Y8506155D01*
X9802317Y8502751D01*
X9802977Y8498738D01*
X9802012Y8494826D01*
X9799421Y8491372D01*
X9788144Y8478774D01*
X9778339Y8464956D01*
X9770160Y8450173D01*
X9763658Y8434527D01*
X9758984Y8418271D01*
X9756140Y8401608D01*
X9755225Y8384692D01*
X9756140Y8367775D01*
X9758984Y8351113D01*
X9763658Y8334857D01*
X9770160Y8319211D01*
X9778339Y8304428D01*
X9788144Y8290610D01*
X9799421Y8278012D01*
X9812020Y8266734D01*
X9825837Y8256930D01*
X9840620Y8248751D01*
X9856266Y8242249D01*
X9872522Y8237575D01*
X9889185Y8234730D01*
G37*
G36*
X1303223Y8269122D02*
G01*
X1355293Y8269122D01*
X1355293Y8271408D01*
X1303223Y8271408D01*
G37*
G36*
X1303223Y8299145D02*
G01*
X1355293Y8299145D01*
X1354582Y8306003D01*
X1352651Y8311489D01*
X1349603Y8316366D01*
X1345488Y8320481D01*
X1340612Y8323580D01*
X1335125Y8325459D01*
X1328826Y8326170D01*
X1311351Y8326170D01*
X1307287Y8327034D01*
X1303883Y8329472D01*
X1303223Y8330590D01*
G37*
G36*
X818896Y8299754D02*
G01*
X821740Y8300364D01*
X833221Y8304631D01*
X843991Y8310524D01*
X853795Y8317890D01*
X862482Y8326526D01*
X869797Y8336330D01*
X875284Y8346440D01*
X818896Y8346440D01*
G37*
G36*
X716178Y8299754D02*
G01*
X716178Y8346440D01*
X659790Y8346440D01*
X665327Y8336330D01*
X672642Y8326526D01*
X681329Y8317890D01*
X691134Y8310524D01*
X701852Y8304631D01*
X713333Y8300364D01*
G37*
G36*
X1302258Y8340547D02*
G01*
X1305306Y8346440D01*
X1293469Y8346440D01*
X1296974Y8345728D01*
X1300226Y8343544D01*
G37*
G36*
X659790Y8419134D02*
G01*
X716178Y8419134D01*
X716178Y8465769D01*
X713333Y8465159D01*
X701852Y8460892D01*
X691134Y8454999D01*
X681329Y8447684D01*
X672642Y8438997D01*
X665327Y8429193D01*
G37*
G36*
X818896Y8419134D02*
G01*
X875284Y8419134D01*
X869797Y8429193D01*
X862482Y8438997D01*
X853795Y8447684D01*
X843991Y8454999D01*
X833221Y8460892D01*
X821740Y8465159D01*
X818896Y8465769D01*
G37*
G36*
X1069797Y8419134D02*
G01*
X1131214Y8419134D01*
X1131214Y8466886D01*
X1123340Y8465159D01*
X1111859Y8460892D01*
X1101090Y8454999D01*
X1091285Y8447684D01*
X1082649Y8438997D01*
X1075283Y8429193D01*
G37*
G36*
X1243888Y8419134D02*
G01*
X1305306Y8419134D01*
X1299768Y8429193D01*
X1292453Y8438997D01*
X1283766Y8447684D01*
X1273962Y8454999D01*
X1263243Y8460892D01*
X1251762Y8465159D01*
X1243888Y8466886D01*
G37*
G36*
X1017879Y8540343D02*
G01*
X1030935Y8540343D01*
X1043889Y8542121D01*
X1056487Y8545626D01*
X1068527Y8550859D01*
X1079703Y8557666D01*
X1089863Y8565946D01*
X1098753Y8575497D01*
X1106322Y8586165D01*
X1112367Y8597798D01*
X1116736Y8610142D01*
X1119378Y8622944D01*
X1120292Y8636000D01*
X1119378Y8649055D01*
X1116736Y8661857D01*
X1112367Y8674201D01*
X1106322Y8685834D01*
X1098753Y8696502D01*
X1089863Y8706053D01*
X1079703Y8714333D01*
X1068527Y8721140D01*
X1056487Y8726322D01*
X1043889Y8729878D01*
X1030935Y8731656D01*
X1017879Y8731656D01*
X1004874Y8729878D01*
X992276Y8726322D01*
X980287Y8721140D01*
X969111Y8714333D01*
X958951Y8706053D01*
X950010Y8696502D01*
X942492Y8685834D01*
X936447Y8674201D01*
X932078Y8661857D01*
X929386Y8649055D01*
X928522Y8636000D01*
X929386Y8622944D01*
X932078Y8610142D01*
X936447Y8597798D01*
X942492Y8586165D01*
X950010Y8575497D01*
X958951Y8565946D01*
X969111Y8557666D01*
X980287Y8550859D01*
X992276Y8545626D01*
X1004874Y8542121D01*
G37*
G36*
X2115769Y8549690D02*
G01*
X2118512Y8550859D01*
X2129688Y8557666D01*
X2139848Y8565946D01*
X2148789Y8575497D01*
X2156307Y8586165D01*
X2160727Y8594648D01*
X2115769Y8594648D01*
G37*
G36*
X2033066Y8549690D02*
G01*
X2033066Y8594648D01*
X1988108Y8594648D01*
X1992477Y8586165D01*
X2000046Y8575497D01*
X2008936Y8565946D01*
X2019096Y8557666D01*
X2030272Y8550859D01*
G37*
G36*
X2534107Y8620455D02*
G01*
X2545892Y8620455D01*
X2557576Y8622131D01*
X2568905Y8625535D01*
X2579573Y8630564D01*
X2589428Y8637066D01*
X2598216Y8644940D01*
X2605786Y8654034D01*
X2611932Y8664143D01*
X2616555Y8674963D01*
X2619552Y8686393D01*
X2620822Y8698128D01*
X2620416Y8709964D01*
X2618232Y8721547D01*
X2614422Y8732723D01*
X2609037Y8743238D01*
X2602179Y8752840D01*
X2593949Y8761323D01*
X2584602Y8768537D01*
X2574340Y8774328D01*
X2563317Y8778544D01*
X2551785Y8781135D01*
X2540000Y8781999D01*
X2528214Y8781135D01*
X2516682Y8778544D01*
X2505659Y8774328D01*
X2495397Y8768537D01*
X2486050Y8761323D01*
X2477820Y8752840D01*
X2470962Y8743238D01*
X2465578Y8732723D01*
X2461768Y8721547D01*
X2459583Y8709964D01*
X2459177Y8698128D01*
X2460447Y8686393D01*
X2463444Y8674963D01*
X2468067Y8664143D01*
X2474214Y8654034D01*
X2481783Y8644940D01*
X2490571Y8637066D01*
X2500426Y8630564D01*
X2511094Y8625535D01*
X2522423Y8622131D01*
G37*
G36*
X4122115Y8676284D02*
G01*
X4191660Y8676284D01*
X4191660Y8691829D01*
X4190949Y8698179D01*
X4189069Y8703614D01*
X4185970Y8708542D01*
X4181906Y8712606D01*
X4176979Y8715705D01*
X4171543Y8717635D01*
X4165193Y8718346D01*
X4122115Y8718346D01*
G37*
G36*
X3939844Y8676284D02*
G01*
X4009440Y8676284D01*
X4009440Y8718346D01*
X3966362Y8718346D01*
X3960012Y8717635D01*
X3954576Y8715705D01*
X3949649Y8712606D01*
X3945585Y8708542D01*
X3942486Y8703614D01*
X3940556Y8698179D01*
X3939844Y8691829D01*
G37*
G36*
X2115769Y8677351D02*
G01*
X2160727Y8677351D01*
X2156307Y8685834D01*
X2148789Y8696502D01*
X2139848Y8706053D01*
X2129688Y8714333D01*
X2118512Y8721140D01*
X2115769Y8722309D01*
G37*
G36*
X1988108Y8677351D02*
G01*
X2033066Y8677351D01*
X2033066Y8722309D01*
X2030272Y8721140D01*
X2019096Y8714333D01*
X2008936Y8706053D01*
X2000046Y8696502D01*
X1992477Y8685834D01*
G37*
G36*
X3348329Y8795054D02*
G01*
X3354933Y8798306D01*
X3366465Y8805976D01*
X3376879Y8815120D01*
X3386023Y8825534D01*
X3393694Y8837066D01*
X3396945Y8843670D01*
X3348329Y8843670D01*
G37*
G36*
X3255670Y8795054D02*
G01*
X3255670Y8843670D01*
X3207054Y8843670D01*
X3210306Y8837066D01*
X3217976Y8825534D01*
X3227120Y8815120D01*
X3237534Y8805976D01*
X3249066Y8798306D01*
G37*
G36*
X2573832Y8827871D02*
G01*
X2579573Y8830564D01*
X2589428Y8837066D01*
X2598216Y8844940D01*
X2605786Y8854033D01*
X2611932Y8864142D01*
X2613253Y8867241D01*
X2573832Y8867241D01*
G37*
G36*
X2506167Y8827871D02*
G01*
X2506167Y8867241D01*
X2466746Y8867241D01*
X2468067Y8864142D01*
X2474214Y8854033D01*
X2481783Y8844940D01*
X2490571Y8837066D01*
X2500426Y8830564D01*
G37*
G36*
X893521Y8841181D02*
G01*
X911606Y8842552D01*
X929386Y8845804D01*
X946810Y8850884D01*
X963574Y8857691D01*
X979525Y8866225D01*
X994562Y8876334D01*
X1008481Y8887917D01*
X1021130Y8900871D01*
X1032357Y8915095D01*
X1042060Y8930386D01*
X1050188Y8946540D01*
X1056538Y8963507D01*
X1061161Y8981033D01*
X1063955Y8998915D01*
X1064869Y9017000D01*
X1063955Y9035084D01*
X1061161Y9052966D01*
X1056538Y9070492D01*
X1050188Y9087459D01*
X1042060Y9103614D01*
X1032357Y9118904D01*
X1021130Y9133128D01*
X1008481Y9146082D01*
X994562Y9157665D01*
X979525Y9167774D01*
X963574Y9176308D01*
X946810Y9183116D01*
X929386Y9188196D01*
X911606Y9191447D01*
X893521Y9192818D01*
X875436Y9192361D01*
X857453Y9190024D01*
X839825Y9185910D01*
X822756Y9179915D01*
X806348Y9172244D01*
X790803Y9162948D01*
X776325Y9152077D01*
X763016Y9139783D01*
X751078Y9126169D01*
X740562Y9111386D01*
X731672Y9095638D01*
X724408Y9079026D01*
X718921Y9061805D01*
X715213Y9044076D01*
X713333Y9026042D01*
X713333Y9007957D01*
X715213Y8989923D01*
X718921Y8972194D01*
X724408Y8954973D01*
X731672Y8938361D01*
X740562Y8922613D01*
X751078Y8907830D01*
X763016Y8894216D01*
X776325Y8881922D01*
X790803Y8871051D01*
X806348Y8861755D01*
X822756Y8854084D01*
X839825Y8848090D01*
X857453Y8843975D01*
X875436Y8841638D01*
G37*
G36*
X10799521Y8841181D02*
G01*
X10817606Y8842552D01*
X10835386Y8845804D01*
X10852810Y8850884D01*
X10869574Y8857691D01*
X10885525Y8866225D01*
X10900562Y8876334D01*
X10914481Y8887917D01*
X10927130Y8900871D01*
X10938357Y8915095D01*
X10948060Y8930386D01*
X10956188Y8946540D01*
X10962538Y8963507D01*
X10967161Y8981033D01*
X10969955Y8998915D01*
X10970869Y9017000D01*
X10969955Y9035084D01*
X10967161Y9052966D01*
X10962538Y9070492D01*
X10956188Y9087459D01*
X10948060Y9103614D01*
X10938357Y9118904D01*
X10927130Y9133128D01*
X10914481Y9146082D01*
X10900562Y9157665D01*
X10885525Y9167774D01*
X10869574Y9176308D01*
X10852810Y9183116D01*
X10835386Y9188196D01*
X10817606Y9191447D01*
X10799521Y9192818D01*
X10781436Y9192361D01*
X10763453Y9190024D01*
X10745825Y9185910D01*
X10728756Y9179915D01*
X10712348Y9172244D01*
X10696803Y9162948D01*
X10682325Y9152077D01*
X10669016Y9139783D01*
X10657078Y9126169D01*
X10646562Y9111386D01*
X10637672Y9095638D01*
X10630408Y9079026D01*
X10624921Y9061805D01*
X10621213Y9044076D01*
X10619333Y9026042D01*
X10619333Y9007957D01*
X10621213Y8989923D01*
X10624921Y8972194D01*
X10630408Y8954973D01*
X10637672Y8938361D01*
X10646562Y8922613D01*
X10657078Y8907830D01*
X10669016Y8894216D01*
X10682325Y8881922D01*
X10696803Y8871051D01*
X10712348Y8861755D01*
X10728756Y8854084D01*
X10745825Y8848090D01*
X10763453Y8843975D01*
X10781436Y8841638D01*
G37*
G36*
X6481521Y8841181D02*
G01*
X6499606Y8842552D01*
X6517385Y8845804D01*
X6534810Y8850884D01*
X6551574Y8857691D01*
X6567525Y8866225D01*
X6582562Y8876334D01*
X6596481Y8887917D01*
X6609130Y8900871D01*
X6620357Y8915095D01*
X6630060Y8930386D01*
X6638188Y8946540D01*
X6644538Y8963507D01*
X6649161Y8981033D01*
X6651955Y8998915D01*
X6652869Y9017000D01*
X6651955Y9035084D01*
X6649161Y9052966D01*
X6644538Y9070492D01*
X6638188Y9087459D01*
X6630060Y9103614D01*
X6620357Y9118904D01*
X6609130Y9133128D01*
X6596481Y9146082D01*
X6582562Y9157665D01*
X6567525Y9167774D01*
X6551574Y9176308D01*
X6534810Y9183116D01*
X6517385Y9188196D01*
X6499606Y9191447D01*
X6481521Y9192818D01*
X6463436Y9192361D01*
X6445453Y9190024D01*
X6427825Y9185910D01*
X6410756Y9179915D01*
X6394348Y9172244D01*
X6378803Y9162948D01*
X6364325Y9152077D01*
X6351016Y9139783D01*
X6339078Y9126169D01*
X6328562Y9111386D01*
X6319672Y9095638D01*
X6312408Y9079026D01*
X6306921Y9061805D01*
X6303213Y9044076D01*
X6301333Y9026042D01*
X6301333Y9007957D01*
X6303213Y8989923D01*
X6306921Y8972194D01*
X6312408Y8954973D01*
X6319672Y8938361D01*
X6328562Y8922613D01*
X6339078Y8907830D01*
X6351016Y8894216D01*
X6364325Y8881922D01*
X6378803Y8871051D01*
X6394348Y8861755D01*
X6410756Y8854084D01*
X6427825Y8848090D01*
X6445453Y8843975D01*
X6463436Y8841638D01*
G37*
G36*
X2573832Y8934958D02*
G01*
X2613304Y8934958D01*
X2609037Y8943238D01*
X2602179Y8952839D01*
X2593949Y8961323D01*
X2584602Y8968536D01*
X2573832Y8974531D01*
G37*
G36*
X2466695Y8934958D02*
G01*
X2506167Y8934958D01*
X2506167Y8974531D01*
X2495397Y8968536D01*
X2486050Y8961323D01*
X2477820Y8952839D01*
X2470962Y8943238D01*
G37*
G36*
X3348329Y8936329D02*
G01*
X3396945Y8936329D01*
X3393694Y8942933D01*
X3386023Y8954465D01*
X3376879Y8964879D01*
X3366465Y8974023D01*
X3354933Y8981694D01*
X3348329Y8984945D01*
G37*
G36*
X3207054Y8936329D02*
G01*
X3255670Y8936329D01*
X3255670Y8984945D01*
X3249066Y8981694D01*
X3237534Y8974023D01*
X3227120Y8964879D01*
X3217976Y8954465D01*
X3210306Y8942933D01*
G37*

%LPD*%
G36*
X7246162Y8867851D02*
G01*
X7242048Y8868511D01*
X7238542Y8870797D01*
X7226553Y8882837D01*
X7224318Y8886088D01*
X7223556Y8890000D01*
X7224318Y8893911D01*
X7226553Y8897162D01*
X7238542Y8909202D01*
X7242048Y8911488D01*
X7246162Y8912148D01*
X7250226Y8911132D01*
X7253478Y8908542D01*
X7255459Y8904884D01*
X7255814Y8900718D01*
X7255357Y8897112D01*
X7255357Y8882888D01*
X7255814Y8879281D01*
X7255459Y8875115D01*
X7253478Y8871458D01*
X7250226Y8868867D01*
G37*

%LPD*%
G36*
X7412329Y8701227D02*
G01*
X7408468Y8701989D01*
X7405166Y8704173D01*
X7347000Y8762339D01*
X7344765Y8765692D01*
X7344054Y8769654D01*
X7344867Y8773566D01*
X7347153Y8776868D01*
X7350556Y8779002D01*
X7354519Y8779662D01*
X7369556Y8779154D01*
X7383678Y8780526D01*
X7397546Y8783675D01*
X7410907Y8788603D01*
X7423505Y8795156D01*
X7435138Y8803284D01*
X7444130Y8811463D01*
X7447280Y8813393D01*
X7450937Y8814104D01*
X7963306Y8814104D01*
X7967218Y8813342D01*
X7970520Y8811107D01*
X8007502Y8774074D01*
X8009839Y8770518D01*
X8010499Y8766352D01*
X8009381Y8762238D01*
X8006689Y8758986D01*
X8002879Y8757056D01*
X7998663Y8756904D01*
X7994700Y8758428D01*
X7980375Y8767978D01*
X7964728Y8776106D01*
X7948320Y8782507D01*
X7931302Y8787130D01*
X7913878Y8789974D01*
X7896301Y8790889D01*
X7878724Y8789974D01*
X7861300Y8787130D01*
X7844281Y8782507D01*
X7827873Y8776106D01*
X7812227Y8767978D01*
X7797546Y8758224D01*
X7783982Y8746998D01*
X7771688Y8734348D01*
X7760817Y8720480D01*
X7751724Y8706002D01*
X7749438Y8703411D01*
X7746492Y8701786D01*
X7743088Y8701227D01*
G37*

%LPD*%
G36*
X4517034Y8432038D02*
G01*
X4513122Y8432800D01*
X4509820Y8434984D01*
X4508246Y8436610D01*
X4500168Y8442248D01*
X4494174Y8445042D01*
X4490669Y8447735D01*
X4488637Y8451646D01*
X4488434Y8456015D01*
X4490110Y8460079D01*
X4493361Y8463076D01*
X4497578Y8464397D01*
X4503572Y8464905D01*
X4513072Y8467445D01*
X4521962Y8471611D01*
X4530039Y8477250D01*
X4531614Y8478824D01*
X4534916Y8481060D01*
X4538827Y8481822D01*
X5730138Y8481822D01*
X5733745Y8481161D01*
X5736894Y8479231D01*
X5739180Y8476335D01*
X5740247Y8472779D01*
X5740603Y8469680D01*
X5742482Y8464194D01*
X5743702Y8462314D01*
X5745073Y8458809D01*
X5745073Y8455050D01*
X5743702Y8451494D01*
X5742482Y8449614D01*
X5740603Y8444179D01*
X5740247Y8441080D01*
X5739180Y8437524D01*
X5736894Y8434628D01*
X5733745Y8432698D01*
X5730138Y8432038D01*
G37*

%LPD*%
G36*
X8606129Y8394395D02*
G01*
X8602218Y8395157D01*
X8598916Y8397392D01*
X8050733Y8945524D01*
X8041894Y8952585D01*
X8034274Y8957208D01*
X8032089Y8958326D01*
X8023859Y8961729D01*
X8021523Y8962491D01*
X8012887Y8964625D01*
X8010448Y8965031D01*
X8001609Y8965844D01*
X7450937Y8965895D01*
X7447280Y8966606D01*
X7444130Y8968536D01*
X7435138Y8976715D01*
X7423505Y8984843D01*
X7410907Y8991396D01*
X7397546Y8996324D01*
X7393482Y8997238D01*
X7389672Y8998966D01*
X7386929Y9002166D01*
X7385659Y9006179D01*
X7386116Y9010345D01*
X7388250Y9013952D01*
X7391653Y9016441D01*
X7395768Y9017304D01*
X9413138Y9017304D01*
X9417050Y9016542D01*
X9420352Y9014307D01*
X9473133Y8961526D01*
X9475317Y8958224D01*
X9476079Y8954363D01*
X9476079Y8815273D01*
X9476994Y8797188D01*
X9479686Y8779611D01*
X9484156Y8762339D01*
X9490354Y8745626D01*
X9498228Y8729624D01*
X9507626Y8714536D01*
X9518548Y8700414D01*
X9530791Y8687511D01*
X9540748Y8678976D01*
X9543237Y8675725D01*
X9544304Y8671763D01*
X9543643Y8667750D01*
X9541510Y8664244D01*
X9538157Y8661908D01*
X9534144Y8661095D01*
X9265767Y8661095D01*
X9261398Y8662111D01*
X9257893Y8664854D01*
X9255861Y8668867D01*
X9254845Y8673084D01*
X9248851Y8689695D01*
X9241129Y8705545D01*
X9231782Y8720480D01*
X9220911Y8734348D01*
X9208617Y8746998D01*
X9195054Y8758224D01*
X9180372Y8767978D01*
X9164726Y8776106D01*
X9148318Y8782507D01*
X9131300Y8787130D01*
X9113875Y8789974D01*
X9096298Y8790889D01*
X9078722Y8789974D01*
X9061297Y8787130D01*
X9044279Y8782507D01*
X9027871Y8776106D01*
X9012224Y8767978D01*
X8997543Y8758224D01*
X8983980Y8746998D01*
X8971686Y8734348D01*
X8960815Y8720480D01*
X8951468Y8705545D01*
X8943746Y8689695D01*
X8937752Y8673084D01*
X8933586Y8655964D01*
X8931249Y8638489D01*
X8930741Y8620912D01*
X8932164Y8603335D01*
X8935415Y8586012D01*
X8940546Y8569147D01*
X8947404Y8552891D01*
X8955938Y8537448D01*
X8966047Y8523020D01*
X8977680Y8509762D01*
X8990634Y8497824D01*
X9004757Y8487308D01*
X9015323Y8481060D01*
X9018016Y8478824D01*
X9019743Y8475776D01*
X9020352Y8472322D01*
X9020352Y8458809D01*
X9019590Y8454898D01*
X9017355Y8451596D01*
X8963152Y8397392D01*
X8959850Y8395157D01*
X8955938Y8394395D01*
G37*

%LPC*%
G36*
X8487511Y8659926D02*
G01*
X8505088Y8659926D01*
X8522665Y8661806D01*
X8539886Y8665565D01*
X8556599Y8671102D01*
X8572652Y8678367D01*
X8587841Y8687308D01*
X8601964Y8697823D01*
X8614918Y8709761D01*
X8626551Y8723020D01*
X8636660Y8737447D01*
X8645245Y8752890D01*
X8652052Y8769146D01*
X8657183Y8786012D01*
X8660434Y8803335D01*
X8661857Y8820912D01*
X8661349Y8838488D01*
X8659012Y8855964D01*
X8654846Y8873083D01*
X8648852Y8889695D01*
X8641130Y8905544D01*
X8631783Y8920480D01*
X8620912Y8934348D01*
X8608618Y8946997D01*
X8595055Y8958224D01*
X8580374Y8967978D01*
X8564727Y8976106D01*
X8548319Y8982506D01*
X8531301Y8987129D01*
X8513876Y8989974D01*
X8496300Y8990888D01*
X8478723Y8989974D01*
X8461298Y8987129D01*
X8444280Y8982506D01*
X8427872Y8976106D01*
X8412226Y8967978D01*
X8397544Y8958224D01*
X8383981Y8946997D01*
X8371687Y8934348D01*
X8360816Y8920480D01*
X8351469Y8905544D01*
X8343747Y8889695D01*
X8337753Y8873083D01*
X8333587Y8855964D01*
X8331250Y8838488D01*
X8330742Y8820912D01*
X8332165Y8803335D01*
X8335416Y8786012D01*
X8340547Y8769146D01*
X8347405Y8752890D01*
X8355939Y8737447D01*
X8366048Y8723020D01*
X8377681Y8709761D01*
X8390636Y8697823D01*
X8404758Y8687308D01*
X8419947Y8678367D01*
X8436000Y8671102D01*
X8452713Y8665565D01*
X8469985Y8661806D01*
G37*

%LPD*%
G36*
X2353716Y7877962D02*
G01*
X2349855Y7878724D01*
X2346553Y7880908D01*
X2326538Y7900924D01*
X2320290Y7906054D01*
X2313635Y7909610D01*
X2306421Y7911795D01*
X2298395Y7912608D01*
X2200808Y7912608D01*
X2196896Y7913370D01*
X2193594Y7915605D01*
X2191410Y7918856D01*
X2190648Y7922768D01*
X2191410Y7926628D01*
X2193594Y7929930D01*
X2291689Y8028127D01*
X2294991Y8030362D01*
X2298852Y8031124D01*
X2353716Y8031124D01*
X2357628Y8030362D01*
X2360930Y8028127D01*
X2363114Y8024825D01*
X2363876Y8020964D01*
X2363876Y7888122D01*
X2363114Y7884210D01*
X2360930Y7880908D01*
X2357628Y7878724D01*
G37*

%LPD*%
G36*
X1682140Y7813852D02*
G01*
X1678228Y7814665D01*
X1674926Y7816850D01*
X1672742Y7820152D01*
X1671980Y7824012D01*
X1672742Y7827924D01*
X1674926Y7831226D01*
X1676146Y7832394D01*
X1679448Y7834630D01*
X1683308Y7835392D01*
X1751736Y7835392D01*
X1755648Y7834630D01*
X1758899Y7832394D01*
X1761134Y7829143D01*
X1761896Y7824012D01*
X1761134Y7820152D01*
X1758899Y7816850D01*
X1755648Y7814665D01*
X1751736Y7813852D01*
G37*

%LPD*%
G36*
X6277305Y7740243D02*
G01*
X6273393Y7741005D01*
X6270091Y7743190D01*
X6060135Y7953197D01*
X6057900Y7956499D01*
X6057138Y7960410D01*
X6057138Y8114080D01*
X6056376Y8122107D01*
X6054140Y8129320D01*
X6050584Y8136026D01*
X6045504Y8142224D01*
X6021324Y8166353D01*
X6015126Y8171484D01*
X6008471Y8175040D01*
X5997194Y8178241D01*
X5994400Y8180171D01*
X5992368Y8182965D01*
X5991402Y8186267D01*
X5990996Y8190179D01*
X5989066Y8195614D01*
X5987897Y8197494D01*
X5986526Y8201050D01*
X5986526Y8204809D01*
X5987897Y8208314D01*
X5989066Y8210194D01*
X5990996Y8215680D01*
X5991352Y8218779D01*
X5992418Y8222335D01*
X5994654Y8225231D01*
X5997803Y8227161D01*
X6001410Y8227822D01*
X6046876Y8227822D01*
X6050737Y8227059D01*
X6054039Y8224824D01*
X6395212Y7883702D01*
X6397548Y7880096D01*
X6398158Y7875778D01*
X6396939Y7871663D01*
X6394094Y7868412D01*
X6390182Y7866583D01*
X6375044Y7863281D01*
X6360972Y7858302D01*
X6347663Y7851698D01*
X6335268Y7843469D01*
X6323939Y7833766D01*
X6313932Y7822793D01*
X6305346Y7810652D01*
X6298285Y7797546D01*
X6292900Y7783626D01*
X6289294Y7769199D01*
X6287465Y7754416D01*
X6287465Y7750403D01*
X6286703Y7746492D01*
X6284468Y7743190D01*
X6281166Y7741005D01*
G37*

%LPD*%
G36*
X1761236Y7712964D02*
G01*
X1757375Y7713725D01*
X1754073Y7715961D01*
X1750669Y7719314D01*
X1748485Y7722616D01*
X1747723Y7726476D01*
X1748485Y7730388D01*
X1750669Y7733690D01*
X1753971Y7735874D01*
X1757883Y7736636D01*
X1764588Y7736636D01*
X1768500Y7735874D01*
X1771802Y7733690D01*
X1773986Y7730388D01*
X1774748Y7726476D01*
X1773986Y7722616D01*
X1771802Y7719314D01*
X1768398Y7715961D01*
X1765147Y7713725D01*
G37*

%LPD*%
G36*
X6749440Y7269022D02*
G01*
X6745071Y7269581D01*
X6741363Y7271969D01*
X6404305Y7609027D01*
X6402120Y7612278D01*
X6401308Y7616139D01*
X6402019Y7619949D01*
X6404152Y7623251D01*
X6407353Y7625486D01*
X6411163Y7626400D01*
X6419291Y7626603D01*
X6433972Y7628890D01*
X6448298Y7633004D01*
X6462014Y7638796D01*
X6474866Y7646212D01*
X6486753Y7655204D01*
X6497472Y7665567D01*
X6506768Y7677150D01*
X6514642Y7689799D01*
X6520840Y7703312D01*
X6525361Y7717536D01*
X6527495Y7728915D01*
X6529222Y7732928D01*
X6532473Y7735874D01*
X6536639Y7737195D01*
X6540957Y7736586D01*
X6544665Y7734249D01*
X6760311Y7518603D01*
X6762496Y7515301D01*
X6763258Y7511440D01*
X6763258Y7284669D01*
X6762496Y7280757D01*
X6760311Y7277506D01*
X6756857Y7273290D01*
X6753656Y7270343D01*
G37*

%LPD*%
G36*
X4201820Y7001814D02*
G01*
X4197959Y7002627D01*
X4194657Y7004812D01*
X4192473Y7008114D01*
X4191660Y7011974D01*
X4191660Y7040829D01*
X4190949Y7047179D01*
X4189069Y7052614D01*
X4187850Y7054494D01*
X4186478Y7058050D01*
X4186478Y7061809D01*
X4187850Y7065314D01*
X4189069Y7067194D01*
X4190949Y7072680D01*
X4191660Y7078980D01*
X4191660Y7167829D01*
X4190949Y7174179D01*
X4189069Y7179614D01*
X4187850Y7181494D01*
X4186478Y7185050D01*
X4186478Y7188809D01*
X4187850Y7192314D01*
X4189069Y7194194D01*
X4190949Y7199680D01*
X4191660Y7205980D01*
X4191660Y7294829D01*
X4190949Y7301179D01*
X4189069Y7306614D01*
X4187850Y7308494D01*
X4186478Y7312050D01*
X4186478Y7315809D01*
X4187850Y7319314D01*
X4189069Y7321194D01*
X4190949Y7326680D01*
X4191660Y7332980D01*
X4191660Y7416596D01*
X4192473Y7420457D01*
X4194657Y7423759D01*
X4197959Y7425994D01*
X4201820Y7426756D01*
X4205732Y7425994D01*
X4209034Y7423759D01*
X4494174Y7138619D01*
X4496206Y7135723D01*
X4497120Y7132320D01*
X4497832Y7124293D01*
X4500372Y7114794D01*
X4504537Y7105903D01*
X4510176Y7097826D01*
X4517085Y7090867D01*
X4525162Y7085228D01*
X4534052Y7081113D01*
X4543552Y7078573D01*
X4551070Y7077913D01*
X4553356Y7077202D01*
X4555591Y7077913D01*
X4563110Y7078573D01*
X4572609Y7081113D01*
X4581499Y7085228D01*
X4589576Y7090867D01*
X4596536Y7097826D01*
X4602175Y7105903D01*
X4606290Y7114794D01*
X4608830Y7124293D01*
X4609693Y7134047D01*
X4608830Y7143851D01*
X4606290Y7153351D01*
X4602175Y7162241D01*
X4596536Y7170318D01*
X4589576Y7177227D01*
X4581499Y7182866D01*
X4572609Y7187031D01*
X4563110Y7189571D01*
X4555083Y7190282D01*
X4551680Y7191197D01*
X4548784Y7193229D01*
X4233926Y7508036D01*
X4232402Y7510018D01*
X4231436Y7512303D01*
X4229303Y7519162D01*
X4225747Y7525867D01*
X4220972Y7531709D01*
X4215130Y7536484D01*
X4208475Y7540040D01*
X4197197Y7543241D01*
X4194352Y7545171D01*
X4192371Y7547965D01*
X4191406Y7551267D01*
X4190949Y7555179D01*
X4189069Y7560614D01*
X4187850Y7562494D01*
X4186478Y7566050D01*
X4186478Y7569809D01*
X4187850Y7573314D01*
X4189069Y7575194D01*
X4190949Y7580680D01*
X4191660Y7586980D01*
X4191660Y7675829D01*
X4190949Y7682179D01*
X4189069Y7687614D01*
X4187850Y7689494D01*
X4186478Y7693050D01*
X4186478Y7696809D01*
X4187850Y7700314D01*
X4189069Y7702194D01*
X4190949Y7707680D01*
X4191660Y7713980D01*
X4191660Y7802829D01*
X4190949Y7809179D01*
X4189069Y7814614D01*
X4187850Y7816494D01*
X4186478Y7820050D01*
X4186478Y7823809D01*
X4187850Y7827314D01*
X4189069Y7829194D01*
X4190949Y7834680D01*
X4191660Y7840980D01*
X4191660Y7929829D01*
X4190949Y7936179D01*
X4189069Y7941614D01*
X4187850Y7943494D01*
X4186478Y7947050D01*
X4186478Y7950809D01*
X4187850Y7954314D01*
X4189069Y7956194D01*
X4190949Y7961680D01*
X4191660Y7967980D01*
X4191660Y8056829D01*
X4190949Y8063179D01*
X4189069Y8068614D01*
X4187850Y8070494D01*
X4186478Y8074050D01*
X4186478Y8077809D01*
X4188663Y8082635D01*
X4191152Y8085277D01*
X4194352Y8086953D01*
X4197959Y8087359D01*
X4201464Y8086445D01*
X4204462Y8084413D01*
X5139232Y7149642D01*
X5145430Y7144512D01*
X5152136Y7140956D01*
X5159349Y7138771D01*
X5167376Y7137958D01*
X5612993Y7137958D01*
X5616905Y7137196D01*
X5620156Y7135012D01*
X5621782Y7133386D01*
X5629808Y7127748D01*
X5638749Y7123633D01*
X5648198Y7121093D01*
X5658002Y7120229D01*
X5667806Y7121093D01*
X5677306Y7123633D01*
X5686196Y7127748D01*
X5694222Y7133386D01*
X5701182Y7140346D01*
X5706821Y7148423D01*
X5710986Y7157313D01*
X5713526Y7166813D01*
X5714390Y7176566D01*
X5713526Y7186371D01*
X5710986Y7195870D01*
X5706821Y7204760D01*
X5701182Y7212838D01*
X5694222Y7219746D01*
X5686196Y7225385D01*
X5677306Y7229551D01*
X5667806Y7232091D01*
X5658002Y7232954D01*
X5648198Y7232091D01*
X5638749Y7229551D01*
X5629808Y7225385D01*
X5621782Y7219746D01*
X5620156Y7218172D01*
X5616905Y7215987D01*
X5612993Y7215174D01*
X5187086Y7215174D01*
X5183174Y7215987D01*
X5179872Y7218172D01*
X4955946Y7442098D01*
X4953609Y7445806D01*
X4953000Y7450175D01*
X4954320Y7454392D01*
X4957318Y7457592D01*
X4962499Y7461250D01*
X4964074Y7462824D01*
X4967376Y7465059D01*
X4971288Y7465822D01*
X5730138Y7465822D01*
X5733745Y7465161D01*
X5736894Y7463231D01*
X5739180Y7460335D01*
X5740247Y7456779D01*
X5740603Y7453680D01*
X5742482Y7448194D01*
X5743702Y7446314D01*
X5745073Y7442809D01*
X5745073Y7439050D01*
X5743702Y7435494D01*
X5742482Y7433614D01*
X5740603Y7428179D01*
X5739892Y7421829D01*
X5739892Y7332980D01*
X5740603Y7326680D01*
X5742482Y7321194D01*
X5743702Y7319314D01*
X5745073Y7315809D01*
X5745073Y7312050D01*
X5743702Y7308494D01*
X5742482Y7306614D01*
X5740603Y7301179D01*
X5739892Y7294829D01*
X5739892Y7205980D01*
X5740603Y7199680D01*
X5742482Y7194194D01*
X5743702Y7192314D01*
X5745073Y7188809D01*
X5745073Y7185050D01*
X5743702Y7181494D01*
X5742482Y7179614D01*
X5740603Y7174179D01*
X5739892Y7167829D01*
X5739892Y7078980D01*
X5740603Y7072680D01*
X5742279Y7067803D01*
X5742787Y7063384D01*
X5741416Y7059168D01*
X5738317Y7055967D01*
X5734202Y7054392D01*
X5729782Y7054697D01*
X5722823Y7056831D01*
X5714796Y7057593D01*
X4556455Y7057593D01*
X4553356Y7058304D01*
X4550206Y7057593D01*
X4278325Y7057593D01*
X4270298Y7056831D01*
X4263085Y7054646D01*
X4256379Y7051090D01*
X4250182Y7045959D01*
X4209034Y7004812D01*
X4205732Y7002627D01*
G37*

%LPD*%
G36*
X3234791Y6904990D02*
G01*
X3230880Y6905752D01*
X3227578Y6907936D01*
X3225393Y6911238D01*
X3224631Y6915150D01*
X3225393Y6919010D01*
X3227578Y6922312D01*
X3641090Y7335824D01*
X3644392Y7338059D01*
X3648303Y7338822D01*
X3930142Y7338822D01*
X3933748Y7338161D01*
X3936898Y7336231D01*
X3939133Y7333335D01*
X3940251Y7329779D01*
X3940556Y7326680D01*
X3942486Y7321194D01*
X3943654Y7319314D01*
X3945026Y7315809D01*
X3945026Y7312050D01*
X3943654Y7308494D01*
X3942486Y7306614D01*
X3940556Y7301179D01*
X3939844Y7294829D01*
X3939844Y7205980D01*
X3940556Y7199680D01*
X3942486Y7194194D01*
X3943654Y7192314D01*
X3945026Y7188809D01*
X3945026Y7185050D01*
X3943654Y7181494D01*
X3942486Y7179614D01*
X3940556Y7174179D01*
X3939844Y7167829D01*
X3939844Y7078980D01*
X3940556Y7072680D01*
X3942486Y7067194D01*
X3943654Y7065314D01*
X3945026Y7061809D01*
X3945026Y7058050D01*
X3943654Y7054494D01*
X3942486Y7052614D01*
X3940556Y7047179D01*
X3939844Y7040829D01*
X3939844Y6951980D01*
X3940556Y6945680D01*
X3942486Y6940194D01*
X3945585Y6935317D01*
X3949649Y6931202D01*
X3954576Y6928154D01*
X3960012Y6926224D01*
X3966362Y6925513D01*
X4105198Y6925513D01*
X4109110Y6924751D01*
X4112412Y6922516D01*
X4114596Y6919264D01*
X4115358Y6915353D01*
X4114596Y6911492D01*
X4112158Y6907936D01*
X4108856Y6905752D01*
X4104995Y6904990D01*
G37*

%LPC*%
G36*
X3556000Y6986422D02*
G01*
X3569055Y6987286D01*
X3581857Y6989978D01*
X3594201Y6994347D01*
X3605834Y7000392D01*
X3616502Y7007910D01*
X3626053Y7016851D01*
X3634333Y7027011D01*
X3641140Y7038187D01*
X3646373Y7050176D01*
X3649878Y7062774D01*
X3651656Y7075779D01*
X3651656Y7088835D01*
X3649878Y7101789D01*
X3646373Y7114387D01*
X3641140Y7126427D01*
X3634333Y7137603D01*
X3626053Y7147763D01*
X3616502Y7156653D01*
X3605834Y7164222D01*
X3594201Y7170267D01*
X3581857Y7174636D01*
X3569055Y7177278D01*
X3556000Y7178192D01*
X3542944Y7177278D01*
X3530142Y7174636D01*
X3517798Y7170267D01*
X3506165Y7164222D01*
X3495497Y7156653D01*
X3485946Y7147763D01*
X3477666Y7137603D01*
X3470859Y7126427D01*
X3465677Y7114387D01*
X3462121Y7101789D01*
X3460343Y7088835D01*
X3460343Y7075779D01*
X3462121Y7062774D01*
X3465677Y7050176D01*
X3470859Y7038187D01*
X3477666Y7027011D01*
X3485946Y7016851D01*
X3495497Y7007910D01*
X3506165Y7000392D01*
X3517798Y6994347D01*
X3530142Y6989978D01*
X3542944Y6987286D01*
G37*

%LPD*%
G36*
X5758332Y6885025D02*
G01*
X5754420Y6885787D01*
X5751118Y6887972D01*
X5676087Y6963054D01*
X5673852Y6966356D01*
X5673090Y6970217D01*
X5673852Y6974128D01*
X5676087Y6977430D01*
X5679389Y6979615D01*
X5683250Y6980377D01*
X5695086Y6980377D01*
X5698947Y6979615D01*
X5702249Y6977430D01*
X5710224Y6969455D01*
X5716422Y6964375D01*
X5723128Y6960819D01*
X5734354Y6957618D01*
X5737199Y6955637D01*
X5739180Y6952843D01*
X5740146Y6949541D01*
X5740603Y6945680D01*
X5742482Y6940194D01*
X5745581Y6935317D01*
X5749696Y6931202D01*
X5754573Y6928154D01*
X5760008Y6926224D01*
X5766358Y6925513D01*
X5965190Y6925513D01*
X5971540Y6926224D01*
X5976975Y6928154D01*
X5981903Y6931202D01*
X5985967Y6935317D01*
X5989066Y6940194D01*
X5990996Y6945680D01*
X5991707Y6951980D01*
X5991707Y7040829D01*
X5990996Y7047179D01*
X5989066Y7052614D01*
X5987897Y7054494D01*
X5986526Y7058050D01*
X5986526Y7061809D01*
X5987897Y7065314D01*
X5989066Y7067194D01*
X5990640Y7071664D01*
X5992723Y7075170D01*
X5996025Y7077557D01*
X5999988Y7078472D01*
X6004001Y7077709D01*
X6007404Y7075474D01*
X6163310Y6919620D01*
X6165443Y6916420D01*
X6166256Y6912711D01*
X6165646Y6908952D01*
X6163716Y6905650D01*
X6160668Y6903313D01*
X6157010Y6902297D01*
X6152794Y6901942D01*
X6143345Y6899402D01*
X6134404Y6895236D01*
X6126378Y6889597D01*
X6124752Y6887972D01*
X6121501Y6885787D01*
X6117590Y6885025D01*
G37*

%LPD*%
G36*
X3663492Y6744411D02*
G01*
X3660089Y6744970D01*
X3657092Y6746697D01*
X3654806Y6749288D01*
X3653536Y6752488D01*
X3652621Y6756857D01*
X3648252Y6769201D01*
X3642207Y6780834D01*
X3634689Y6791502D01*
X3625748Y6801053D01*
X3615131Y6809740D01*
X3612489Y6812940D01*
X3611372Y6816902D01*
X3611930Y6821017D01*
X3614115Y6824522D01*
X3617468Y6826910D01*
X3621532Y6827774D01*
X4124706Y6827774D01*
X4132732Y6828536D01*
X4139946Y6830771D01*
X4146600Y6834327D01*
X4152849Y6839407D01*
X4290822Y6977430D01*
X4294124Y6979615D01*
X4298035Y6980377D01*
X4322419Y6980377D01*
X4326280Y6979615D01*
X4329582Y6977430D01*
X4331817Y6974128D01*
X4332579Y6970217D01*
X4331817Y6966356D01*
X4329074Y6962546D01*
X4325975Y6957618D01*
X4324096Y6952183D01*
X4323384Y6945833D01*
X4323384Y6754571D01*
X4322572Y6750659D01*
X4320387Y6747357D01*
X4317085Y6745173D01*
X4313224Y6744411D01*
G37*

%LPD*%
G36*
X6702907Y6626098D02*
G01*
X6698640Y6627012D01*
X6695186Y6629653D01*
X6693153Y6633514D01*
X6692900Y6637832D01*
X6694474Y6641896D01*
X6695694Y6643776D01*
X6701840Y6656171D01*
X6706311Y6669278D01*
X6709003Y6682892D01*
X6709918Y6697065D01*
X6709918Y6764934D01*
X6709003Y6779107D01*
X6706311Y6792722D01*
X6701840Y6805828D01*
X6695694Y6818223D01*
X6688023Y6829755D01*
X6678879Y6840169D01*
X6668465Y6849313D01*
X6656933Y6856984D01*
X6644538Y6863130D01*
X6631431Y6867601D01*
X6617817Y6870293D01*
X6604000Y6871208D01*
X6590182Y6870293D01*
X6576568Y6867601D01*
X6563461Y6863130D01*
X6551066Y6856984D01*
X6539534Y6849313D01*
X6529120Y6840169D01*
X6519976Y6829755D01*
X6512306Y6818223D01*
X6506159Y6805828D01*
X6501688Y6792722D01*
X6498996Y6779107D01*
X6498082Y6764934D01*
X6498082Y6718553D01*
X6497320Y6714642D01*
X6495084Y6711340D01*
X6491833Y6709156D01*
X6487922Y6708394D01*
X6484010Y6709156D01*
X6480759Y6711340D01*
X6041694Y7150353D01*
X6035497Y7155484D01*
X6028842Y7159040D01*
X6021578Y7161225D01*
X6013551Y7162038D01*
X6001410Y7162038D01*
X5997803Y7162698D01*
X5994654Y7164628D01*
X5992418Y7167524D01*
X5991352Y7171080D01*
X5990996Y7174179D01*
X5989066Y7179614D01*
X5987897Y7181494D01*
X5986526Y7185050D01*
X5986526Y7188809D01*
X5987897Y7192314D01*
X5989066Y7194194D01*
X5990996Y7199680D01*
X5991707Y7205980D01*
X5991707Y7294829D01*
X5990996Y7301179D01*
X5989066Y7306614D01*
X5987897Y7308494D01*
X5986526Y7312050D01*
X5986526Y7315809D01*
X5987897Y7319314D01*
X5989066Y7321194D01*
X5990996Y7326680D01*
X5991707Y7332980D01*
X5991707Y7421829D01*
X5990996Y7428179D01*
X5989066Y7433614D01*
X5987897Y7435494D01*
X5986526Y7439050D01*
X5986526Y7442809D01*
X5987897Y7446314D01*
X5989066Y7448194D01*
X5990996Y7453680D01*
X5991707Y7459980D01*
X5991707Y7548829D01*
X5990996Y7555179D01*
X5989066Y7560614D01*
X5987897Y7562494D01*
X5986526Y7566050D01*
X5986526Y7569809D01*
X5987897Y7573314D01*
X5989066Y7575194D01*
X5990996Y7580680D01*
X5991707Y7586980D01*
X5991707Y7675829D01*
X5990996Y7682179D01*
X5989066Y7687614D01*
X5987897Y7689494D01*
X5986526Y7693050D01*
X5986526Y7696809D01*
X5987897Y7700314D01*
X5989066Y7702194D01*
X5990996Y7707680D01*
X5991707Y7713980D01*
X5991707Y7802829D01*
X5990996Y7809179D01*
X5989066Y7814614D01*
X5987897Y7816494D01*
X5986526Y7820050D01*
X5986526Y7823809D01*
X5987897Y7827314D01*
X5989066Y7829194D01*
X5990996Y7834680D01*
X5991707Y7840980D01*
X5991707Y7887919D01*
X5992469Y7891780D01*
X5994654Y7895081D01*
X5997956Y7897266D01*
X6001867Y7898079D01*
X6005728Y7897266D01*
X6009030Y7895081D01*
X6614007Y7290104D01*
X6616242Y7286701D01*
X6617004Y7282738D01*
X6616090Y7278776D01*
X6613753Y7275474D01*
X6610299Y7273340D01*
X6606286Y7272781D01*
X6604101Y7272883D01*
X6587185Y7271969D01*
X6570522Y7269124D01*
X6554266Y7264450D01*
X6538620Y7257948D01*
X6523837Y7249769D01*
X6510020Y7239965D01*
X6497421Y7228687D01*
X6486144Y7216089D01*
X6476339Y7202271D01*
X6468160Y7187488D01*
X6461658Y7171842D01*
X6456984Y7155586D01*
X6454140Y7138924D01*
X6453225Y7122007D01*
X6454140Y7105091D01*
X6456984Y7088428D01*
X6461658Y7072172D01*
X6468160Y7056526D01*
X6476339Y7041743D01*
X6486144Y7027925D01*
X6497421Y7015327D01*
X6510020Y7004050D01*
X6523837Y6994245D01*
X6538620Y6986066D01*
X6554266Y6979564D01*
X6570522Y6974890D01*
X6587185Y6972046D01*
X6604101Y6971131D01*
X6621018Y6972046D01*
X6637680Y6974890D01*
X6653936Y6979564D01*
X6669582Y6986066D01*
X6684365Y6994245D01*
X6698183Y7004050D01*
X6710781Y7015327D01*
X6722059Y7027925D01*
X6731863Y7041743D01*
X6740042Y7056526D01*
X6746544Y7072172D01*
X6751218Y7088428D01*
X6754063Y7105091D01*
X6754977Y7122007D01*
X6754875Y7124192D01*
X6755434Y7128205D01*
X6757568Y7131659D01*
X6760870Y7133996D01*
X6764832Y7134910D01*
X6768795Y7134148D01*
X6772198Y7131913D01*
X7043724Y6860387D01*
X7046010Y6856933D01*
X7046722Y6852869D01*
X7045756Y6848856D01*
X7043267Y6845553D01*
X7037120Y6840169D01*
X7027976Y6829755D01*
X7020306Y6818223D01*
X7014159Y6805828D01*
X7009688Y6792722D01*
X7006996Y6779107D01*
X7006081Y6764934D01*
X7006081Y6697065D01*
X7006996Y6682892D01*
X7009688Y6669278D01*
X7014159Y6656171D01*
X7020306Y6643776D01*
X7021525Y6641896D01*
X7023100Y6637832D01*
X7022846Y6633514D01*
X7020814Y6629653D01*
X7017359Y6627012D01*
X7013092Y6626098D01*
X6956907Y6626098D01*
X6952640Y6627012D01*
X6949186Y6629653D01*
X6947153Y6633514D01*
X6946900Y6637832D01*
X6948474Y6641896D01*
X6949694Y6643776D01*
X6955840Y6656171D01*
X6960311Y6669278D01*
X6963003Y6682892D01*
X6963918Y6697065D01*
X6963918Y6764934D01*
X6963003Y6779107D01*
X6960311Y6792722D01*
X6955840Y6805828D01*
X6949694Y6818223D01*
X6942023Y6829755D01*
X6932879Y6840169D01*
X6922465Y6849313D01*
X6910933Y6856984D01*
X6898538Y6863130D01*
X6885431Y6867601D01*
X6871817Y6870293D01*
X6858000Y6871208D01*
X6844182Y6870293D01*
X6830568Y6867601D01*
X6817461Y6863130D01*
X6805066Y6856984D01*
X6793534Y6849313D01*
X6783120Y6840169D01*
X6773976Y6829755D01*
X6766306Y6818223D01*
X6760159Y6805828D01*
X6755688Y6792722D01*
X6752996Y6779107D01*
X6752081Y6764934D01*
X6752081Y6697065D01*
X6752996Y6682892D01*
X6755688Y6669278D01*
X6760159Y6656171D01*
X6766306Y6643776D01*
X6767525Y6641896D01*
X6769100Y6637832D01*
X6768846Y6633514D01*
X6766814Y6629653D01*
X6763359Y6627012D01*
X6759092Y6626098D01*
G37*

%LPD*%
G36*
X6361938Y6567424D02*
G01*
X6358077Y6568236D01*
X6354775Y6570421D01*
X6192418Y6732727D01*
X6186220Y6737858D01*
X6179566Y6741414D01*
X6172301Y6743598D01*
X6164275Y6744411D01*
X5618327Y6744411D01*
X5614466Y6745173D01*
X5611164Y6747357D01*
X5608980Y6750659D01*
X5608167Y6754571D01*
X5608167Y6897217D01*
X5608980Y6901129D01*
X5611164Y6904380D01*
X5614466Y6906615D01*
X5618327Y6907377D01*
X5622239Y6906615D01*
X5625541Y6904380D01*
X5710478Y6819442D01*
X5716676Y6814362D01*
X5723382Y6810806D01*
X5730595Y6808571D01*
X5738622Y6807809D01*
X6117590Y6807809D01*
X6121501Y6807047D01*
X6124752Y6804812D01*
X6126378Y6803237D01*
X6134404Y6797598D01*
X6143345Y6793433D01*
X6152794Y6790893D01*
X6162598Y6790029D01*
X6172403Y6790893D01*
X6181902Y6793433D01*
X6190792Y6797598D01*
X6198819Y6803237D01*
X6205778Y6810197D01*
X6211417Y6818223D01*
X6215583Y6827113D01*
X6218123Y6836613D01*
X6218478Y6840778D01*
X6219545Y6844487D01*
X6221831Y6847484D01*
X6225133Y6849465D01*
X6228892Y6850075D01*
X6232652Y6849262D01*
X6235801Y6847078D01*
X6498082Y6584797D01*
X6500317Y6581495D01*
X6501079Y6577584D01*
X6500317Y6573723D01*
X6498082Y6570421D01*
X6494780Y6568236D01*
X6490919Y6567424D01*
G37*

%LPD*%
G36*
X3695700Y6135776D02*
G01*
X3691432Y6136690D01*
X3687978Y6139281D01*
X3685946Y6143142D01*
X3684168Y6149390D01*
X3678275Y6163259D01*
X3670757Y6176314D01*
X3667201Y6180988D01*
X3665372Y6184900D01*
X3665372Y6189268D01*
X3667150Y6193180D01*
X3670401Y6196025D01*
X3674567Y6197244D01*
X3678834Y6196634D01*
X3682492Y6194298D01*
X3708400Y6168390D01*
X3710635Y6165088D01*
X3711397Y6161176D01*
X3710584Y6157264D01*
X3707231Y6149390D01*
X3705453Y6143142D01*
X3703421Y6139281D01*
X3699967Y6136690D01*
G37*

%LPD*%
G36*
X3931208Y6022695D02*
G01*
X3926941Y6023610D01*
X3923487Y6026251D01*
X3921404Y6030061D01*
X3921150Y6034430D01*
X3922725Y6038443D01*
X3928719Y6047486D01*
X3935425Y6060998D01*
X3940098Y6074308D01*
X3942283Y6077864D01*
X3945636Y6080252D01*
X3949700Y6081064D01*
X3953764Y6080252D01*
X3957116Y6077864D01*
X3959301Y6074308D01*
X3963974Y6060998D01*
X3970680Y6047486D01*
X3976674Y6038443D01*
X3978249Y6034430D01*
X3977995Y6030061D01*
X3975912Y6026251D01*
X3972458Y6023610D01*
X3968191Y6022695D01*
G37*

%LPD*%
G36*
X3677208Y6022695D02*
G01*
X3672941Y6023610D01*
X3669487Y6026251D01*
X3667404Y6030061D01*
X3667150Y6034430D01*
X3668725Y6038443D01*
X3674719Y6047486D01*
X3681425Y6060998D01*
X3686098Y6074308D01*
X3688283Y6077864D01*
X3691636Y6080252D01*
X3695700Y6081064D01*
X3699764Y6080252D01*
X3703116Y6077864D01*
X3705301Y6074308D01*
X3709974Y6060998D01*
X3716680Y6047486D01*
X3722674Y6038443D01*
X3724249Y6034430D01*
X3723995Y6030061D01*
X3721912Y6026251D01*
X3718458Y6023610D01*
X3714191Y6022695D01*
G37*

%LPD*%
G36*
X2096363Y5620816D02*
G01*
X2093010Y5621426D01*
X2090013Y5623052D01*
X2087727Y5625592D01*
X2086000Y5628335D01*
X2084324Y5630062D01*
X2082088Y5633364D01*
X2081326Y5637225D01*
X2082088Y5641136D01*
X2084324Y5644438D01*
X2086000Y5646115D01*
X2087727Y5648858D01*
X2090013Y5651398D01*
X2093010Y5653074D01*
X2096363Y5653633D01*
X3072282Y5653633D01*
X3076194Y5652871D01*
X3079496Y5650636D01*
X3081070Y5649061D01*
X3089148Y5643422D01*
X3096006Y5640222D01*
X3099206Y5637885D01*
X3101238Y5634583D01*
X3101898Y5630722D01*
X3101035Y5626912D01*
X3098850Y5623712D01*
X3095548Y5621578D01*
X3091738Y5620816D01*
G37*

%LPD*%
D10*
X2506725Y8082026D02*
G01*
X2273554Y8082026D01*
X2065781Y7874000D01*
X2506807Y8020806D02*
G01*
X2506807Y8081919D01*
X1231900Y7708900D02*
G01*
X1689100Y7708900D01*
X1754123Y7643876D01*
X1810765Y7643876D01*
D11*
X1264391Y7725277D02*
G01*
X1171478Y7725277D01*
X1171478Y8175264D02*
G01*
X1171300Y8175086D01*
X1171300Y7725455D01*
X1171478Y7725277D01*
X1264391Y8175264D02*
G01*
X1171478Y8175264D01*
D10*
X1912828Y7643997D02*
G01*
X1759894Y7643997D01*
X1257300Y8267700D02*
G01*
X1539239Y8267700D01*
X1686560Y8267700D01*
D12*
X9096247Y8625331D02*
G01*
X9136379Y8585200D01*
X9855200Y8585200D01*
X10160000Y8890000D01*
X7366000Y8890000D02*
G01*
X7998968Y8890000D01*
X8570468Y8318500D01*
X8991600Y8318500D01*
X9096247Y8423147D01*
X9096247Y8625331D01*
D11*
X10414000Y8384794D02*
G01*
X10170159Y8140700D01*
X7581900Y8140700D01*
X6980681Y8742171D01*
X4450841Y8742171D01*
D12*
X7112000Y8890000D02*
G01*
X7315200Y9093200D01*
X9448800Y9093200D01*
X9652000Y8890000D01*
X7896306Y8625301D02*
G01*
X7376698Y8625301D01*
X7112005Y8889994D01*
D11*
X2093727Y6022233D02*
G01*
X2132843Y5983117D01*
X2681127Y5983117D01*
X2806705Y6108694D01*
D10*
X1866828Y6462237D02*
G01*
X2135586Y6730994D01*
X2510312Y6730994D01*
X4897785Y7913390D02*
G01*
X4664867Y7913390D01*
X4129740Y8647424D02*
G01*
X4193697Y8647424D01*
X4404187Y8647424D02*
G01*
X4193697Y8647424D01*
X5865779Y8647424D02*
G01*
X4404187Y8647424D01*
X4404106Y8647429D02*
G01*
X4356100Y8647429D01*
X4356100Y8222234D01*
X4664963Y7913370D01*
X4129740Y8647424D02*
G01*
X3887170Y8889994D01*
X3302005Y8889994D01*
X3302005Y8594669D02*
G01*
X3376249Y8520424D01*
X4065783Y8520424D01*
X2506807Y8081919D02*
G01*
X3019557Y8594669D01*
X3302005Y8594669D01*
X1912828Y7873994D02*
G01*
X2065736Y7873994D01*
X1912828Y7643997D02*
G01*
X1912828Y7642270D01*
X2012447Y7542651D01*
D11*
X2000813Y5912225D02*
G01*
X2093727Y5912225D01*
X3949700Y5905500D02*
G01*
X2100455Y5905500D01*
X2093727Y5912228D01*
X5865779Y7631424D02*
G01*
X4964485Y7631424D01*
X5865779Y8139424D02*
G01*
X5993693Y8139424D01*
X5993693Y8139424D02*
G01*
X6018535Y8114583D01*
X6018535Y7940187D01*
X7112005Y6846717D01*
X7112005Y6730994D01*
X1524919Y8072749D02*
G01*
X1359819Y8072749D01*
X1357304Y8075264D01*
X1264391Y8075264D02*
G01*
X1357304Y8075264D01*
X6162603Y6846412D02*
G01*
X5738119Y6846412D01*
X5610204Y6974326D01*
X5537281Y6974326D01*
X5537281Y6846412D02*
G01*
X5537281Y6974326D01*
X10414106Y7134702D02*
G01*
X9866889Y6587484D01*
X6550004Y6587484D01*
X6014064Y7123424D01*
X5865779Y7123424D01*
X2061697Y7124694D02*
G01*
X2071273Y7134270D01*
X2071273Y7721696D01*
X2017704Y7775265D01*
X1264391Y7775265D01*
X3302005Y8594669D02*
G01*
X3302005Y8635994D01*
X2506807Y7947400D02*
G01*
X2506807Y8020806D01*
X2506807Y7947400D02*
G01*
X2506807Y7873994D01*
X723905Y4165594D02*
G01*
X592358Y4034048D01*
X592358Y3723304D01*
X1287378Y3028284D01*
X2540005Y3028284D01*
X9906106Y7134702D02*
G01*
X8166943Y7134702D01*
X7896357Y7405288D01*
X2000813Y5802243D02*
G01*
X2093727Y5802243D01*
X2113081Y5795589D02*
G01*
X2100381Y5795589D01*
X2093727Y5802243D01*
X2506807Y7873994D02*
G01*
X2506807Y7666070D01*
X2506812Y7666067D02*
G01*
X2298880Y7874000D01*
X1638300Y7874000D01*
X4193697Y8520424D02*
G01*
X4193875Y8520247D01*
X4193875Y8149584D01*
X5166873Y7176587D01*
X5658007Y7176587D01*
X4065783Y8520424D02*
G01*
X4193697Y8520424D01*
X767567Y8382782D02*
G01*
X1187556Y8382782D01*
X1187556Y8382782D02*
G01*
X1264391Y8305947D01*
X1264391Y8285271D01*
X767567Y7517759D02*
G01*
X1187556Y7517759D01*
X1187556Y7517759D02*
G01*
X1264391Y7594594D01*
X1264391Y7615270D01*
X1264391Y7615270D02*
G01*
X1264391Y7645267D01*
X1264391Y8255274D02*
G01*
X1264391Y8285271D01*
X945596Y6478290D02*
G01*
X1801830Y6478290D01*
X1817883Y6462237D01*
X945596Y4926299D02*
G01*
X1749963Y4926299D01*
X1817883Y4994219D01*
X1915774Y4994219D02*
G01*
X1866828Y4994219D01*
X1866828Y4994219D02*
G01*
X1817883Y4994219D01*
X1866828Y4994219D02*
G01*
X1866828Y5981161D01*
X1907900Y6022233D01*
X1915774Y6462237D02*
G01*
X1866828Y6462237D01*
X1866828Y6462237D02*
G01*
X1817883Y6462237D01*
X1954357Y6022233D02*
G01*
X1907900Y6022233D01*
X1954357Y6022233D02*
G01*
X2000813Y6022233D01*
X2000813Y6022233D02*
G01*
X2093727Y6022233D01*
X3048005Y3005602D02*
G01*
X2962965Y2920563D01*
X2375895Y2920563D01*
X2318593Y2977865D01*
X1658675Y2977865D01*
X1529212Y2848401D01*
X3048005Y8132287D02*
G01*
X3556005Y8132287D01*
X3314705Y6108694D02*
G01*
X3190092Y5984082D01*
X2931317Y5984082D01*
X2806705Y6108694D01*
X1912828Y8103991D02*
G01*
X1759894Y8103991D01*
D10*
X1759894Y8103991D02*
G01*
X1693677Y8170209D01*
X1693677Y8255274D01*
X1693677Y8255274D02*
G01*
X2074397Y8635994D01*
X2540005Y8901094D02*
G01*
X3290905Y8901094D01*
X3302005Y8889994D01*
D11*
X4065783Y8647424D02*
G01*
X4129740Y8647424D01*
X7366005Y6730994D02*
G01*
X7366005Y7275113D01*
X5993693Y8647424D01*
X5865779Y8647424D02*
G01*
X5993693Y8647424D01*
X1264391Y7695255D02*
G01*
X1264391Y7725277D01*
X1264391Y8175264D02*
G01*
X1264391Y8205261D01*
X3048005Y4055587D02*
G01*
X2945465Y3953047D01*
X2346711Y3953047D01*
X2296419Y4003339D01*
X761649Y4003339D01*
X723905Y3965595D01*
X3399464Y7758424D02*
G01*
X4065783Y7758424D01*
X5737865Y6996424D02*
G01*
X5715284Y7019005D01*
X4277822Y7019005D01*
X4125193Y6866376D01*
X3015772Y6866376D01*
X5865779Y6996424D02*
G01*
X5737865Y6996424D01*
X3937868Y8393422D02*
G01*
X3937868Y8360382D01*
X3482825Y7905341D01*
X3189361Y7905341D01*
X2713520Y7429500D01*
X2286000Y7429500D01*
X4065783Y8393424D02*
G01*
X3937868Y8393424D01*
X4472005Y8393424D02*
G01*
X5865779Y8393424D01*
X3117321Y5692236D02*
G01*
X2000813Y5692236D01*
X5865779Y8520424D02*
G01*
X4493798Y8520424D01*
X4193697Y7504424D02*
G01*
X4193697Y7493706D01*
X4553336Y7134067D01*
X4065783Y7504424D02*
G01*
X4193697Y7504424D01*
X5410281Y6846412D02*
G01*
X5410281Y6718498D01*
X5410281Y6718498D02*
G01*
X5410281Y6705798D01*
X3560297Y6730994D02*
G01*
X3585494Y6705798D01*
X5410281Y6705798D01*
X5410281Y6705798D02*
G01*
X6164788Y6705798D01*
X6341750Y6528836D01*
X7444618Y6528836D01*
X4065783Y7377424D02*
G01*
X3628090Y7377424D01*
X3194334Y6943669D01*
X3002869Y6943669D01*
X2956336Y6897136D01*
X2956336Y6827184D01*
X3447013Y6336507D01*
X3594892Y6336507D01*
X3822705Y6108694D01*
X4121993Y5582229D02*
G01*
X2000813Y5582229D01*
X5865779Y7504424D02*
G01*
X4926258Y7504424D01*
X5865779Y8266424D02*
G01*
X6067074Y8266424D01*
X6801871Y7531628D01*
X6801871Y7239655D01*
X2093727Y6132240D02*
G01*
X2194793Y6233307D01*
X3368857Y6233307D01*
X3441705Y6160460D01*
X3441705Y6050198D01*
X3507821Y5984082D01*
X4226895Y5984082D01*
X4460422Y6217610D01*
X4848230Y6217610D01*
X5658007Y7783316D02*
G01*
X5712973Y7783316D01*
X5737865Y7758424D01*
X5865779Y7758424D02*
G01*
X5737865Y7758424D01*
X2000813Y6132240D02*
G01*
X2093727Y6132240D01*
D13*
G01*
X1912818Y8103996D03*
G01*
X1912818Y7874000D03*
G01*
X1912818Y7644003D03*
D14*
G01*
X2506802Y7874000D03*
D15*
G01*
X4065777Y8647429D03*
G01*
X4065777Y8520429D03*
G01*
X4065777Y8393429D03*
G01*
X4065777Y8266429D03*
G01*
X4065777Y8139429D03*
G01*
X4065777Y8012429D03*
G01*
X4065777Y7885429D03*
G01*
X4065777Y7758429D03*
G01*
X4065777Y7631429D03*
G01*
X4065777Y7504429D03*
G01*
X4065777Y7377429D03*
G01*
X4065777Y7250429D03*
G01*
X4065777Y7123429D03*
G01*
X4065777Y6996429D03*
D16*
G01*
X4394276Y6846417D03*
G01*
X4521276Y6846417D03*
G01*
X4648276Y6846417D03*
G01*
X4775276Y6846417D03*
G01*
X4902276Y6846417D03*
D17*
G01*
X5029278Y6846412D03*
G01*
X5156278Y6846412D03*
G01*
X5283278Y6846412D03*
G01*
X5410278Y6846412D03*
G01*
X5537278Y6846412D03*
D18*
G01*
X5865784Y6996424D03*
G01*
X5865784Y7123424D03*
G01*
X5865784Y7250424D03*
G01*
X5865784Y7377424D03*
G01*
X5865784Y7504424D03*
G01*
X5865784Y7631424D03*
G01*
X5865784Y7758424D03*
G01*
X5865784Y7885424D03*
G01*
X5865784Y8012424D03*
G01*
X5865784Y8139424D03*
G01*
X5865784Y8266424D03*
G01*
X5865784Y8393424D03*
G01*
X5865784Y8520424D03*
G01*
X5865784Y8647424D03*
D19*
G01*
X4897780Y7913395D03*
D20*
G01*
X2000806Y5472229D03*
G01*
X2000806Y5582236D03*
G01*
X2000806Y5692244D03*
G01*
X2000806Y5802251D03*
G01*
X2000806Y5912233D03*
G01*
X2000806Y6022240D03*
G01*
X2000806Y6132248D03*
G01*
X2000806Y6242230D03*
G01*
X2000806Y6352237D03*
D21*
G01*
X1915767Y6462245D03*
G01*
X1915767Y4994226D03*
D22*
G01*
X945588Y4926307D03*
G01*
X945588Y6478297D03*
D23*
G01*
X1264386Y8125282D03*
G01*
X1264386Y8075269D03*
G01*
X1264386Y8025282D03*
G01*
X1264386Y7975269D03*
G01*
X1264386Y7925282D03*
G01*
X1264386Y7875270D03*
G01*
X1264386Y7825308D03*
G01*
X1264386Y7775270D03*
G01*
X1264386Y8285276D03*
G01*
X1264386Y8255279D03*
G01*
X1264386Y8205266D03*
G01*
X1264386Y8175269D03*
G01*
X1264386Y7725283D03*
G01*
X1264386Y7695260D03*
G01*
X1264386Y7645272D03*
G01*
X1264386Y7615275D03*
D24*
G01*
X10160000Y8890000D03*
G01*
X9652000Y8890000D03*
D25*
G01*
X7112000Y8890000D03*
G01*
X7366000Y8890000D03*
D26*
G01*
X3560292Y6731000D03*
G01*
X2510307Y6731000D03*
D27*
G01*
X6604000Y6731000D03*
G01*
X6858000Y6731000D03*
G01*
X7112000Y6731000D03*
G01*
X7366000Y6731000D03*
D28*
G01*
X723900Y4365599D03*
G01*
X723900Y4165600D03*
G01*
X723900Y3965600D03*
D29*
G01*
X723900Y3765600D03*
G01*
X723900Y4565599D03*
D30*
G01*
X4076700Y3403600D03*
G01*
X4076700Y4165600D03*
D31*
G01*
X3302000Y8636000D03*
G01*
X3302000Y8890000D03*
D32*
G01*
X2540000Y8701100D03*
G01*
X2540000Y8901099D03*
D26*
G01*
X1024407Y8636000D03*
G01*
X2074392Y8636000D03*
G01*
X1011707Y7124700D03*
G01*
X2061692Y7124700D03*
D28*
G01*
X2540000Y4058310D03*
G01*
X2540000Y3028289D03*
D33*
G01*
X1529206Y2848406D03*
G01*
X2179193Y2848406D03*
G01*
X2179193Y3298393D03*
G01*
X1529206Y3298393D03*
G01*
X1516506Y3864406D03*
G01*
X2166493Y3864406D03*
G01*
X2166493Y4314393D03*
G01*
X1516506Y4314393D03*
D34*
G01*
X3949700Y4711700D03*
G01*
X2679700Y4711700D03*
D35*
G01*
X3144697Y4813300D03*
G01*
X3494709Y4813300D03*
D36*
G01*
X4076700Y6108700D03*
G01*
X3822700Y6108700D03*
G01*
X3568700Y6108700D03*
G01*
X3314700Y6108700D03*
G01*
X3060700Y6108700D03*
G01*
X2806700Y6108700D03*
G01*
X2552700Y6108700D03*
D37*
G01*
X7896352Y7405293D03*
G01*
X8496300Y8825306D03*
G01*
X9096298Y8625306D03*
G01*
X7896301Y8625306D03*
G01*
X9096247Y7405293D03*
D26*
G01*
X3556000Y7082307D03*
G01*
X3556000Y8132292D03*
G01*
X3048000Y7082307D03*
G01*
X3048000Y8132292D03*
G01*
X3048000Y4055592D03*
G01*
X3048000Y3005607D03*
D38*
G01*
X767562Y7517764D03*
D39*
G01*
X1187551Y7517764D03*
G01*
X1187551Y8382787D03*
D38*
G01*
X767562Y8382787D03*
D40*
G01*
X6604101Y8371992D03*
G01*
X6604101Y7122007D03*
G01*
X7112101Y8371992D03*
G01*
X7112101Y7122007D03*
G01*
X9906101Y8384692D03*
G01*
X9906101Y7134707D03*
G01*
X10414101Y8384692D03*
G01*
X10414101Y7134707D03*
D41*
G01*
X5658007Y7783316D03*
G01*
X4848230Y6217610D03*
G01*
X6801871Y7239655D03*
G01*
X4121993Y5582229D03*
G01*
X4926258Y7504424D03*
G01*
X7444618Y6528836D03*
G01*
X4553336Y7134067D03*
G01*
X3117321Y5692236D03*
G01*
X4493798Y8520424D03*
G01*
X4472005Y8393424D03*
G01*
X2286000Y7429500D03*
G01*
X3015772Y6866376D03*
G01*
X4450720Y8742065D03*
G01*
X3399464Y7758424D03*
G01*
X2012447Y7542651D03*
G01*
X5658007Y7176587D03*
G01*
X1638300Y7874000D03*
G01*
X2113081Y5795589D03*
G01*
X6162603Y6846412D03*
G01*
X1524919Y8072749D03*
G01*
X3949700Y5905500D03*
G01*
X4964485Y7631424D03*
M02*
